<svg width="1120" height="72" viewBox="0 0 1120 72" fill="none" xmlns="http://www.w3.org/2000/svg">
<path d="M474.904 44.728H470.248L469.448 47H467.544L471.528 35.864H473.64L477.624 47H475.704L474.904 44.728ZM474.392 43.24L472.584 38.072L470.76 43.24H474.392ZM481.18 39.496C481.49 39.0693 481.911 38.7227 482.444 38.456C482.988 38.1787 483.591 38.04 484.252 38.04C485.031 38.04 485.735 38.2267 486.364 38.6C486.994 38.9733 487.49 39.5067 487.852 40.2C488.215 40.8827 488.396 41.6667 488.396 42.552C488.396 43.4373 488.215 44.232 487.852 44.936C487.49 45.6293 486.988 46.1733 486.348 46.568C485.719 46.952 485.02 47.144 484.252 47.144C483.57 47.144 482.962 47.0107 482.428 46.744C481.906 46.4773 481.49 46.136 481.18 45.72V47H479.356V35.16H481.18V39.496ZM486.54 42.552C486.54 41.944 486.412 41.4213 486.156 40.984C485.911 40.536 485.58 40.2 485.164 39.976C484.759 39.7413 484.322 39.624 483.852 39.624C483.394 39.624 482.956 39.7413 482.54 39.976C482.135 40.2107 481.804 40.552 481.548 41C481.303 41.448 481.18 41.976 481.18 42.584C481.18 43.192 481.303 43.7253 481.548 44.184C481.804 44.632 482.135 44.9733 482.54 45.208C482.956 45.4427 483.394 45.56 483.852 45.56C484.322 45.56 484.759 45.4427 485.164 45.208C485.58 44.9627 485.911 44.6107 486.156 44.152C486.412 43.6933 486.54 43.16 486.54 42.552ZM494.024 47.144C493.192 47.144 492.44 46.9573 491.768 46.584C491.096 46.2 490.568 45.6667 490.184 44.984C489.8 44.2907 489.608 43.4907 489.608 42.584C489.608 41.688 489.805 40.8933 490.2 40.2C490.595 39.5067 491.133 38.9733 491.816 38.6C492.499 38.2267 493.261 38.04 494.104 38.04C494.947 38.04 495.709 38.2267 496.392 38.6C497.075 38.9733 497.613 39.5067 498.008 40.2C498.403 40.8933 498.6 41.688 498.6 42.584C498.6 43.48 498.397 44.2747 497.992 44.968C497.587 45.6613 497.032 46.2 496.328 46.584C495.635 46.9573 494.867 47.144 494.024 47.144ZM494.024 45.56C494.493 45.56 494.931 45.448 495.336 45.224C495.752 45 496.088 44.664 496.344 44.216C496.6 43.768 496.728 43.224 496.728 42.584C496.728 41.944 496.605 41.4053 496.36 40.968C496.115 40.52 495.789 40.184 495.384 39.96C494.979 39.736 494.541 39.624 494.072 39.624C493.603 39.624 493.165 39.736 492.76 39.96C492.365 40.184 492.051 40.52 491.816 40.968C491.581 41.4053 491.464 41.944 491.464 42.584C491.464 43.5333 491.704 44.2693 492.184 44.792C492.675 45.304 493.288 45.56 494.024 45.56ZM508.387 38.184V47H506.563V45.96C506.275 46.3227 505.896 46.6107 505.427 46.824C504.968 47.0267 504.478 47.128 503.955 47.128C503.262 47.128 502.638 46.984 502.083 46.696C501.539 46.408 501.107 45.9813 500.787 45.416C500.478 44.8507 500.323 44.168 500.323 43.368V38.184H502.131V43.096C502.131 43.8853 502.328 44.4933 502.723 44.92C503.118 45.336 503.656 45.544 504.339 45.544C505.022 45.544 505.56 45.336 505.955 44.92C506.36 44.4933 506.563 43.8853 506.563 43.096V38.184H508.387ZM512.922 39.672V44.552C512.922 44.8827 512.996 45.1227 513.146 45.272C513.306 45.4107 513.572 45.48 513.946 45.48H515.066V47H513.626C512.804 47 512.175 46.808 511.738 46.424C511.3 46.04 511.082 45.416 511.082 44.552V39.672H510.042V38.184H511.082V35.992H512.922V38.184H515.066V39.672H512.922Z" fill="white"/>
<path d="M568.864 47.112C568.117 47.112 567.445 46.984 566.848 46.728C566.251 46.4613 565.781 46.088 565.44 45.608C565.099 45.128 564.928 44.568 564.928 43.928H566.88C566.923 44.408 567.109 44.8027 567.44 45.112C567.781 45.4213 568.256 45.576 568.864 45.576C569.493 45.576 569.984 45.4267 570.336 45.128C570.688 44.8187 570.864 44.424 570.864 43.944C570.864 43.5707 570.752 43.2667 570.528 43.032C570.315 42.7973 570.043 42.616 569.712 42.488C569.392 42.36 568.944 42.2213 568.368 42.072C567.643 41.88 567.051 41.688 566.592 41.496C566.144 41.2933 565.76 40.984 565.44 40.568C565.12 40.152 564.96 39.5973 564.96 38.904C564.96 38.264 565.12 37.704 565.44 37.224C565.76 36.744 566.208 36.376 566.784 36.12C567.36 35.864 568.027 35.736 568.784 35.736C569.861 35.736 570.741 36.008 571.424 36.552C572.117 37.0853 572.501 37.8213 572.576 38.76H570.56C570.528 38.3547 570.336 38.008 569.984 37.72C569.632 37.432 569.168 37.288 568.592 37.288C568.069 37.288 567.643 37.4213 567.312 37.688C566.981 37.9547 566.816 38.3387 566.816 38.84C566.816 39.1813 566.917 39.464 567.12 39.688C567.333 39.9013 567.6 40.072 567.92 40.2C568.24 40.328 568.677 40.4667 569.232 40.616C569.968 40.8187 570.565 41.0213 571.024 41.224C571.493 41.4267 571.888 41.7413 572.208 42.168C572.539 42.584 572.704 43.144 572.704 43.848C572.704 44.4133 572.549 44.9467 572.24 45.448C571.941 45.9493 571.499 46.3547 570.912 46.664C570.336 46.9627 569.653 47.112 568.864 47.112ZM582.936 42.376C582.936 42.7067 582.915 43.0053 582.872 43.272H576.136C576.19 43.976 576.451 44.5413 576.92 44.968C577.39 45.3947 577.966 45.608 578.648 45.608C579.63 45.608 580.323 45.1973 580.728 44.376H582.696C582.43 45.1867 581.944 45.8533 581.24 46.376C580.547 46.888 579.683 47.144 578.648 47.144C577.806 47.144 577.048 46.9573 576.376 46.584C575.715 46.2 575.192 45.6667 574.808 44.984C574.435 44.2907 574.248 43.4907 574.248 42.584C574.248 41.6773 574.43 40.8827 574.792 40.2C575.166 39.5067 575.683 38.9733 576.344 38.6C577.016 38.2267 577.784 38.04 578.648 38.04C579.48 38.04 580.222 38.2213 580.872 38.584C581.523 38.9467 582.03 39.4587 582.392 40.12C582.755 40.7707 582.936 41.5227 582.936 42.376ZM581.032 41.8C581.022 41.128 580.782 40.5893 580.312 40.184C579.843 39.7787 579.262 39.576 578.568 39.576C577.939 39.576 577.4 39.7787 576.952 40.184C576.504 40.5787 576.238 41.1173 576.152 41.8H581.032ZM586.555 39.464C586.822 39.016 587.174 38.6693 587.611 38.424C588.059 38.168 588.587 38.04 589.195 38.04V39.928H588.731C588.017 39.928 587.473 40.1093 587.099 40.472C586.737 40.8347 586.555 41.464 586.555 42.36V47H584.731V38.184H586.555V39.464ZM594.28 45.368L596.776 38.184H598.712L595.352 47H593.176L589.832 38.184H591.784L594.28 45.368ZM601.019 37.016C600.688 37.016 600.411 36.904 600.187 36.68C599.963 36.456 599.851 36.1787 599.851 35.848C599.851 35.5173 599.963 35.24 600.187 35.016C600.411 34.792 600.688 34.68 601.019 34.68C601.339 34.68 601.611 34.792 601.835 35.016C602.059 35.24 602.171 35.5173 602.171 35.848C602.171 36.1787 602.059 36.456 601.835 36.68C601.611 36.904 601.339 37.016 601.019 37.016ZM601.915 38.184V47H600.091V38.184H601.915ZM603.701 42.584C603.701 41.6773 603.883 40.8827 604.245 40.2C604.619 39.5067 605.131 38.9733 605.781 38.6C606.432 38.2267 607.179 38.04 608.021 38.04C609.088 38.04 609.968 38.296 610.661 38.808C611.365 39.3093 611.84 40.0293 612.085 40.968H610.117C609.957 40.5307 609.701 40.1893 609.349 39.944C608.997 39.6987 608.555 39.576 608.021 39.576C607.275 39.576 606.677 39.8427 606.229 40.376C605.792 40.8987 605.573 41.6347 605.573 42.584C605.573 43.5333 605.792 44.2747 606.229 44.808C606.677 45.3413 607.275 45.608 608.021 45.608C609.077 45.608 609.776 45.144 610.117 44.216H612.085C611.829 45.112 611.349 45.8267 610.645 46.36C609.941 46.8827 609.067 47.144 608.021 47.144C607.179 47.144 606.432 46.9573 605.781 46.584C605.131 46.2 604.619 45.6667 604.245 44.984C603.883 44.2907 603.701 43.4907 603.701 42.584ZM621.983 42.376C621.983 42.7067 621.962 43.0053 621.919 43.272H615.183C615.236 43.976 615.498 44.5413 615.967 44.968C616.436 45.3947 617.012 45.608 617.695 45.608C618.676 45.608 619.37 45.1973 619.775 44.376H621.743C621.476 45.1867 620.991 45.8533 620.287 46.376C619.594 46.888 618.73 47.144 617.695 47.144C616.852 47.144 616.095 46.9573 615.423 46.584C614.762 46.2 614.239 45.6667 613.855 44.984C613.482 44.2907 613.295 43.4907 613.295 42.584C613.295 41.6773 613.476 40.8827 613.839 40.2C614.212 39.5067 614.73 38.9733 615.391 38.6C616.063 38.2267 616.831 38.04 617.695 38.04C618.527 38.04 619.268 38.2213 619.919 38.584C620.57 38.9467 621.076 39.4587 621.439 40.12C621.802 40.7707 621.983 41.5227 621.983 42.376ZM620.079 41.8C620.068 41.128 619.828 40.5893 619.359 40.184C618.89 39.7787 618.308 39.576 617.615 39.576C616.986 39.576 616.447 39.7787 615.999 40.184C615.551 40.5787 615.284 41.1173 615.199 41.8H620.079ZM626.978 47.144C626.285 47.144 625.661 47.0213 625.106 46.776C624.562 46.52 624.13 46.1787 623.81 45.752C623.49 45.3147 623.319 44.8293 623.298 44.296H625.186C625.218 44.6693 625.394 44.984 625.714 45.24C626.045 45.4853 626.455 45.608 626.946 45.608C627.458 45.608 627.853 45.512 628.13 45.32C628.418 45.1173 628.562 44.8613 628.562 44.552C628.562 44.2213 628.402 43.976 628.082 43.816C627.773 43.656 627.277 43.48 626.594 43.288C625.933 43.1067 625.394 42.9307 624.978 42.76C624.562 42.5893 624.199 42.328 623.89 41.976C623.591 41.624 623.442 41.16 623.442 40.584C623.442 40.1147 623.581 39.688 623.858 39.304C624.135 38.9093 624.53 38.6 625.042 38.376C625.565 38.152 626.162 38.04 626.834 38.04C627.837 38.04 628.642 38.296 629.25 38.808C629.869 39.3093 630.199 39.9973 630.242 40.872H628.418C628.386 40.4773 628.226 40.1627 627.938 39.928C627.65 39.6933 627.261 39.576 626.77 39.576C626.29 39.576 625.922 39.6667 625.666 39.848C625.41 40.0293 625.282 40.2693 625.282 40.568C625.282 40.8027 625.367 41 625.538 41.16C625.709 41.32 625.917 41.448 626.162 41.544C626.407 41.6293 626.77 41.7413 627.25 41.88C627.89 42.0507 628.413 42.2267 628.818 42.408C629.234 42.5787 629.591 42.8347 629.89 43.176C630.189 43.5173 630.343 43.9707 630.354 44.536C630.354 45.0373 630.215 45.4853 629.938 45.88C629.661 46.2747 629.266 46.584 628.754 46.808C628.253 47.032 627.661 47.144 626.978 47.144Z" fill="white"/>
<path d="M680.592 41.416C680.592 40.328 680.843 39.352 681.344 38.488C681.856 37.624 682.544 36.952 683.408 36.472C684.283 35.9813 685.237 35.736 686.272 35.736C687.456 35.736 688.507 36.0293 689.424 36.616C690.352 37.192 691.024 38.0133 691.44 39.08H689.248C688.96 38.4933 688.56 38.056 688.048 37.768C687.536 37.48 686.944 37.336 686.272 37.336C685.536 37.336 684.88 37.5013 684.304 37.832C683.728 38.1627 683.275 38.6373 682.944 39.256C682.624 39.8747 682.464 40.5947 682.464 41.416C682.464 42.2373 682.624 42.9573 682.944 43.576C683.275 44.1947 683.728 44.6747 684.304 45.016C684.88 45.3467 685.536 45.512 686.272 45.512C686.944 45.512 687.536 45.368 688.048 45.08C688.56 44.792 688.96 44.3547 689.248 43.768H691.44C691.024 44.8347 690.352 45.656 689.424 46.232C688.507 46.808 687.456 47.096 686.272 47.096C685.227 47.096 684.272 46.856 683.408 46.376C682.544 45.8853 681.856 45.208 681.344 44.344C680.843 43.48 680.592 42.504 680.592 41.416ZM697.399 47.144C696.567 47.144 695.815 46.9573 695.143 46.584C694.471 46.2 693.943 45.6667 693.559 44.984C693.175 44.2907 692.983 43.4907 692.983 42.584C692.983 41.688 693.18 40.8933 693.575 40.2C693.97 39.5067 694.508 38.9733 695.191 38.6C695.874 38.2267 696.636 38.04 697.479 38.04C698.322 38.04 699.084 38.2267 699.767 38.6C700.45 38.9733 700.988 39.5067 701.383 40.2C701.778 40.8933 701.975 41.688 701.975 42.584C701.975 43.48 701.772 44.2747 701.367 44.968C700.962 45.6613 700.407 46.2 699.703 46.584C699.01 46.9573 698.242 47.144 697.399 47.144ZM697.399 45.56C697.868 45.56 698.306 45.448 698.711 45.224C699.127 45 699.463 44.664 699.719 44.216C699.975 43.768 700.103 43.224 700.103 42.584C700.103 41.944 699.98 41.4053 699.735 40.968C699.49 40.52 699.164 40.184 698.759 39.96C698.354 39.736 697.916 39.624 697.447 39.624C696.978 39.624 696.54 39.736 696.135 39.96C695.74 40.184 695.426 40.52 695.191 40.968C694.956 41.4053 694.839 41.944 694.839 42.584C694.839 43.5333 695.079 44.2693 695.559 44.792C696.05 45.304 696.663 45.56 697.399 45.56ZM708.226 38.04C708.919 38.04 709.538 38.184 710.082 38.472C710.637 38.76 711.069 39.1867 711.378 39.752C711.687 40.3173 711.842 41 711.842 41.8V47H710.034V42.072C710.034 41.2827 709.837 40.68 709.442 40.264C709.047 39.8373 708.509 39.624 707.826 39.624C707.143 39.624 706.599 39.8373 706.194 40.264C705.799 40.68 705.602 41.2827 705.602 42.072V47H703.778V38.184H705.602V39.192C705.901 38.8293 706.279 38.5467 706.738 38.344C707.207 38.1413 707.703 38.04 708.226 38.04ZM716.297 39.672V44.552C716.297 44.8827 716.371 45.1227 716.521 45.272C716.681 45.4107 716.947 45.48 717.321 45.48H718.441V47H717.001C716.179 47 715.55 46.808 715.113 46.424C714.675 46.04 714.457 45.416 714.457 44.552V39.672H713.417V38.184H714.457V35.992H716.297V38.184H718.441V39.672H716.297ZM719.514 42.552C719.514 41.6667 719.695 40.8827 720.058 40.2C720.431 39.5173 720.933 38.9893 721.562 38.616C722.202 38.232 722.906 38.04 723.674 38.04C724.367 38.04 724.97 38.1787 725.482 38.456C726.005 38.7227 726.421 39.0587 726.73 39.464V38.184H728.57V47H726.73V45.688C726.421 46.104 725.999 46.4507 725.466 46.728C724.933 47.0053 724.325 47.144 723.642 47.144C722.885 47.144 722.191 46.952 721.562 46.568C720.933 46.1733 720.431 45.6293 720.058 44.936C719.695 44.232 719.514 43.4373 719.514 42.552ZM726.73 42.584C726.73 41.976 726.602 41.448 726.346 41C726.101 40.552 725.775 40.2107 725.37 39.976C724.965 39.7413 724.527 39.624 724.058 39.624C723.589 39.624 723.151 39.7413 722.746 39.976C722.341 40.2 722.01 40.536 721.754 40.984C721.509 41.4213 721.386 41.944 721.386 42.552C721.386 43.16 721.509 43.6933 721.754 44.152C722.01 44.6107 722.341 44.9627 722.746 45.208C723.162 45.4427 723.599 45.56 724.058 45.56C724.527 45.56 724.965 45.4427 725.37 45.208C725.775 44.9733 726.101 44.632 726.346 44.184C726.602 43.7253 726.73 43.192 726.73 42.584ZM730.358 42.584C730.358 41.6773 730.539 40.8827 730.902 40.2C731.275 39.5067 731.787 38.9733 732.438 38.6C733.088 38.2267 733.835 38.04 734.678 38.04C735.744 38.04 736.624 38.296 737.318 38.808C738.022 39.3093 738.496 40.0293 738.742 40.968H736.774C736.614 40.5307 736.358 40.1893 736.006 39.944C735.654 39.6987 735.211 39.576 734.678 39.576C733.931 39.576 733.334 39.8427 732.886 40.376C732.448 40.8987 732.23 41.6347 732.23 42.584C732.23 43.5333 732.448 44.2747 732.886 44.808C733.334 45.3413 733.931 45.608 734.678 45.608C735.734 45.608 736.432 45.144 736.774 44.216H738.742C738.486 45.112 738.006 45.8267 737.302 46.36C736.598 46.8827 735.723 47.144 734.678 47.144C733.835 47.144 733.088 46.9573 732.438 46.584C731.787 46.2 731.275 45.6667 730.902 44.984C730.539 44.2907 730.358 43.4907 730.358 42.584ZM742.687 39.672V44.552C742.687 44.8827 742.762 45.1227 742.911 45.272C743.071 45.4107 743.338 45.48 743.711 45.48H744.831V47H743.391C742.57 47 741.941 46.808 741.503 46.424C741.066 46.04 740.847 45.416 740.847 44.552V39.672H739.807V38.184H740.847V35.992H742.687V38.184H744.831V39.672H742.687ZM749.713 47.144C749.019 47.144 748.395 47.0213 747.841 46.776C747.297 46.52 746.865 46.1787 746.545 45.752C746.225 45.3147 746.054 44.8293 746.033 44.296H747.921C747.953 44.6693 748.129 44.984 748.449 45.24C748.779 45.4853 749.19 45.608 749.681 45.608C750.193 45.608 750.587 45.512 750.865 45.32C751.153 45.1173 751.297 44.8613 751.297 44.552C751.297 44.2213 751.137 43.976 750.817 43.816C750.507 43.656 750.011 43.48 749.329 43.288C748.667 43.1067 748.129 42.9307 747.713 42.76C747.297 42.5893 746.934 42.328 746.625 41.976C746.326 41.624 746.177 41.16 746.177 40.584C746.177 40.1147 746.315 39.688 746.593 39.304C746.87 38.9093 747.265 38.6 747.777 38.376C748.299 38.152 748.897 38.04 749.569 38.04C750.571 38.04 751.377 38.296 751.985 38.808C752.603 39.3093 752.934 39.9973 752.977 40.872H751.153C751.121 40.4773 750.961 40.1627 750.673 39.928C750.385 39.6933 749.995 39.576 749.505 39.576C749.025 39.576 748.657 39.6667 748.401 39.848C748.145 40.0293 748.017 40.2693 748.017 40.568C748.017 40.8027 748.102 41 748.273 41.16C748.443 41.32 748.651 41.448 748.897 41.544C749.142 41.6293 749.505 41.7413 749.985 41.88C750.625 42.0507 751.147 42.2267 751.553 42.408C751.969 42.5787 752.326 42.8347 752.625 43.176C752.923 43.5173 753.078 43.9707 753.089 44.536C753.089 45.0373 752.95 45.4853 752.673 45.88C752.395 46.2747 752.001 46.584 751.489 46.808C750.987 47.032 750.395 47.144 749.713 47.144Z" fill="white"/>
<path d="M810.976 39.192C810.976 39.7573 810.843 40.2907 810.576 40.792C810.309 41.2933 809.883 41.704 809.296 42.024C808.709 42.3333 807.957 42.488 807.04 42.488H805.024V47H803.2V35.88H807.04C807.893 35.88 808.613 36.0293 809.2 36.328C809.797 36.616 810.24 37.0107 810.528 37.512C810.827 38.0133 810.976 38.5733 810.976 39.192ZM807.04 41C807.733 41 808.251 40.8453 808.592 40.536C808.933 40.216 809.104 39.768 809.104 39.192C809.104 37.976 808.416 37.368 807.04 37.368H805.024V41H807.04ZM814.54 39.464C814.806 39.016 815.158 38.6693 815.596 38.424C816.044 38.168 816.572 38.04 817.18 38.04V39.928H816.716C816.001 39.928 815.457 40.1093 815.084 40.472C814.721 40.8347 814.54 41.464 814.54 42.36V47H812.716V38.184H814.54V39.464ZM819.784 37.016C819.454 37.016 819.176 36.904 818.952 36.68C818.728 36.456 818.616 36.1787 818.616 35.848C818.616 35.5173 818.728 35.24 818.952 35.016C819.176 34.792 819.454 34.68 819.784 34.68C820.104 34.68 820.376 34.792 820.6 35.016C820.824 35.24 820.936 35.5173 820.936 35.848C820.936 36.1787 820.824 36.456 820.6 36.68C820.376 36.904 820.104 37.016 819.784 37.016ZM820.68 38.184V47H818.856V38.184H820.68ZM826.483 45.368L828.979 38.184H830.915L827.555 47H825.379L822.035 38.184H823.987L826.483 45.368ZM831.686 42.552C831.686 41.6667 831.867 40.8827 832.23 40.2C832.603 39.5173 833.104 38.9893 833.734 38.616C834.374 38.232 835.078 38.04 835.846 38.04C836.539 38.04 837.142 38.1787 837.654 38.456C838.176 38.7227 838.592 39.0587 838.902 39.464V38.184H840.742V47H838.902V45.688C838.592 46.104 838.171 46.4507 837.638 46.728C837.104 47.0053 836.496 47.144 835.814 47.144C835.056 47.144 834.363 46.952 833.734 46.568C833.104 46.1733 832.603 45.6293 832.23 44.936C831.867 44.232 831.686 43.4373 831.686 42.552ZM838.902 42.584C838.902 41.976 838.774 41.448 838.518 41C838.272 40.552 837.947 40.2107 837.542 39.976C837.136 39.7413 836.699 39.624 836.23 39.624C835.76 39.624 835.323 39.7413 834.918 39.976C834.512 40.2 834.182 40.536 833.926 40.984C833.68 41.4213 833.558 41.944 833.558 42.552C833.558 43.16 833.68 43.6933 833.926 44.152C834.182 44.6107 834.512 44.9627 834.918 45.208C835.334 45.4427 835.771 45.56 836.23 45.56C836.699 45.56 837.136 45.4427 837.542 45.208C837.947 44.9733 838.272 44.632 838.518 44.184C838.774 43.7253 838.902 43.192 838.902 42.584ZM842.53 42.584C842.53 41.6773 842.711 40.8827 843.074 40.2C843.447 39.5067 843.959 38.9733 844.61 38.6C845.26 38.2267 846.007 38.04 846.85 38.04C847.916 38.04 848.796 38.296 849.49 38.808C850.194 39.3093 850.668 40.0293 850.914 40.968H848.946C848.786 40.5307 848.53 40.1893 848.178 39.944C847.826 39.6987 847.383 39.576 846.85 39.576C846.103 39.576 845.506 39.8427 845.058 40.376C844.62 40.8987 844.402 41.6347 844.402 42.584C844.402 43.5333 844.62 44.2747 845.058 44.808C845.506 45.3413 846.103 45.608 846.85 45.608C847.906 45.608 848.604 45.144 848.946 44.216H850.914C850.658 45.112 850.178 45.8267 849.474 46.36C848.77 46.8827 847.895 47.144 846.85 47.144C846.007 47.144 845.26 46.9573 844.61 46.584C843.959 46.2 843.447 45.6667 843.074 44.984C842.711 44.2907 842.53 43.4907 842.53 42.584ZM860.667 38.184L855.259 51.144H853.371L855.163 46.856L851.691 38.184H853.723L856.203 44.904L858.779 38.184H860.667ZM873.976 39.192C873.976 39.7573 873.843 40.2907 873.576 40.792C873.309 41.2933 872.883 41.704 872.296 42.024C871.709 42.3333 870.957 42.488 870.04 42.488H868.024V47H866.2V35.88H870.04C870.893 35.88 871.613 36.0293 872.2 36.328C872.797 36.616 873.24 37.0107 873.528 37.512C873.827 38.0133 873.976 38.5733 873.976 39.192ZM870.04 41C870.733 41 871.251 40.8453 871.592 40.536C871.933 40.216 872.104 39.768 872.104 39.192C872.104 37.976 871.416 37.368 870.04 37.368H868.024V41H870.04ZM879.54 47.144C878.708 47.144 877.956 46.9573 877.284 46.584C876.612 46.2 876.084 45.6667 875.7 44.984C875.316 44.2907 875.124 43.4907 875.124 42.584C875.124 41.688 875.321 40.8933 875.716 40.2C876.11 39.5067 876.649 38.9733 877.332 38.6C878.014 38.2267 878.777 38.04 879.62 38.04C880.462 38.04 881.225 38.2267 881.908 38.6C882.59 38.9733 883.129 39.5067 883.524 40.2C883.918 40.8933 884.116 41.688 884.116 42.584C884.116 43.48 883.913 44.2747 883.508 44.968C883.102 45.6613 882.548 46.2 881.844 46.584C881.15 46.9573 880.382 47.144 879.54 47.144ZM879.54 45.56C880.009 45.56 880.446 45.448 880.852 45.224C881.268 45 881.604 44.664 881.86 44.216C882.116 43.768 882.244 43.224 882.244 42.584C882.244 41.944 882.121 41.4053 881.876 40.968C881.63 40.52 881.305 40.184 880.9 39.96C880.494 39.736 880.057 39.624 879.588 39.624C879.118 39.624 878.681 39.736 878.276 39.96C877.881 40.184 877.566 40.52 877.332 40.968C877.097 41.4053 876.98 41.944 876.98 42.584C876.98 43.5333 877.22 44.2693 877.7 44.792C878.19 45.304 878.804 45.56 879.54 45.56ZM887.743 35.16V47H885.919V35.16H887.743ZM891.066 37.016C890.735 37.016 890.458 36.904 890.234 36.68C890.01 36.456 889.898 36.1787 889.898 35.848C889.898 35.5173 890.01 35.24 890.234 35.016C890.458 34.792 890.735 34.68 891.066 34.68C891.386 34.68 891.658 34.792 891.882 35.016C892.106 35.24 892.218 35.5173 892.218 35.848C892.218 36.1787 892.106 36.456 891.882 36.68C891.658 36.904 891.386 37.016 891.066 37.016ZM891.962 38.184V47H890.138V38.184H891.962ZM893.748 42.584C893.748 41.6773 893.93 40.8827 894.292 40.2C894.666 39.5067 895.178 38.9733 895.828 38.6C896.479 38.2267 897.226 38.04 898.068 38.04C899.135 38.04 900.015 38.296 900.708 38.808C901.412 39.3093 901.887 40.0293 902.132 40.968H900.164C900.004 40.5307 899.748 40.1893 899.396 39.944C899.044 39.6987 898.602 39.576 898.068 39.576C897.322 39.576 896.724 39.8427 896.276 40.376C895.839 40.8987 895.62 41.6347 895.62 42.584C895.62 43.5333 895.839 44.2747 896.276 44.808C896.724 45.3413 897.322 45.608 898.068 45.608C899.124 45.608 899.823 45.144 900.164 44.216H902.132C901.876 45.112 901.396 45.8267 900.692 46.36C899.988 46.8827 899.114 47.144 898.068 47.144C897.226 47.144 896.479 46.9573 895.828 46.584C895.178 46.2 894.666 45.6667 894.292 44.984C893.93 44.2907 893.748 43.4907 893.748 42.584ZM911.886 38.184L906.478 51.144H904.59L906.382 46.856L902.91 38.184H904.942L907.422 44.904L909.998 38.184H911.886Z" fill="white"/>
<path d="M969.384 35.88V37.368H966.424V47H964.6V37.368H961.624V35.88H969.384ZM979.311 42.376C979.311 42.7067 979.29 43.0053 979.247 43.272H972.511C972.565 43.976 972.826 44.5413 973.295 44.968C973.765 45.3947 974.341 45.608 975.023 45.608C976.005 45.608 976.698 45.1973 977.103 44.376H979.071C978.805 45.1867 978.319 45.8533 977.615 46.376C976.922 46.888 976.058 47.144 975.023 47.144C974.181 47.144 973.423 46.9573 972.751 46.584C972.09 46.2 971.567 45.6667 971.183 44.984C970.81 44.2907 970.623 43.4907 970.623 42.584C970.623 41.6773 970.805 40.8827 971.167 40.2C971.541 39.5067 972.058 38.9733 972.719 38.6C973.391 38.2267 974.159 38.04 975.023 38.04C975.855 38.04 976.597 38.2213 977.247 38.584C977.898 38.9467 978.405 39.4587 978.767 40.12C979.13 40.7707 979.311 41.5227 979.311 42.376ZM977.407 41.8C977.397 41.128 977.157 40.5893 976.687 40.184C976.218 39.7787 975.637 39.576 974.943 39.576C974.314 39.576 973.775 39.7787 973.327 40.184C972.879 40.5787 972.613 41.1173 972.527 41.8H977.407ZM982.93 39.464C983.197 39.016 983.549 38.6693 983.986 38.424C984.434 38.168 984.962 38.04 985.57 38.04V39.928H985.106C984.392 39.928 983.848 40.1093 983.474 40.472C983.112 40.8347 982.93 41.464 982.93 42.36V47H981.106V38.184H982.93V39.464ZM997.919 38.04C998.612 38.04 999.231 38.184 999.775 38.472C1000.33 38.76 1000.76 39.1867 1001.07 39.752C1001.39 40.3173 1001.55 41 1001.55 41.8V47H999.743V42.072C999.743 41.2827 999.546 40.68 999.151 40.264C998.756 39.8373 998.218 39.624 997.535 39.624C996.852 39.624 996.308 39.8373 995.903 40.264C995.508 40.68 995.311 41.2827 995.311 42.072V47H993.503V42.072C993.503 41.2827 993.306 40.68 992.911 40.264C992.516 39.8373 991.978 39.624 991.295 39.624C990.612 39.624 990.068 39.8373 989.663 40.264C989.268 40.68 989.071 41.2827 989.071 42.072V47H987.247V38.184H989.071V39.192C989.37 38.8293 989.748 38.5467 990.207 38.344C990.666 38.1413 991.156 38.04 991.679 38.04C992.383 38.04 993.012 38.1893 993.567 38.488C994.122 38.7867 994.548 39.2187 994.847 39.784C995.114 39.2507 995.53 38.8293 996.095 38.52C996.66 38.2 997.268 38.04 997.919 38.04ZM1007.07 47.144C1006.38 47.144 1005.75 47.0213 1005.2 46.776C1004.66 46.52 1004.22 46.1787 1003.9 45.752C1003.58 45.3147 1003.41 44.8293 1003.39 44.296H1005.28C1005.31 44.6693 1005.49 44.984 1005.81 45.24C1006.14 45.4853 1006.55 45.608 1007.04 45.608C1007.55 45.608 1007.95 45.512 1008.22 45.32C1008.51 45.1173 1008.66 44.8613 1008.66 44.552C1008.66 44.2213 1008.5 43.976 1008.18 43.816C1007.87 43.656 1007.37 43.48 1006.69 43.288C1006.03 43.1067 1005.49 42.9307 1005.07 42.76C1004.66 42.5893 1004.29 42.328 1003.98 41.976C1003.69 41.624 1003.54 41.16 1003.54 40.584C1003.54 40.1147 1003.67 39.688 1003.95 39.304C1004.23 38.9093 1004.62 38.6 1005.14 38.376C1005.66 38.152 1006.26 38.04 1006.93 38.04C1007.93 38.04 1008.74 38.296 1009.34 38.808C1009.96 39.3093 1010.29 39.9973 1010.34 40.872H1008.51C1008.48 40.4773 1008.32 40.1627 1008.03 39.928C1007.74 39.6933 1007.35 39.576 1006.86 39.576C1006.38 39.576 1006.02 39.6667 1005.76 39.848C1005.5 40.0293 1005.38 40.2693 1005.38 40.568C1005.38 40.8027 1005.46 41 1005.63 41.16C1005.8 41.32 1006.01 41.448 1006.26 41.544C1006.5 41.6293 1006.86 41.7413 1007.34 41.88C1007.98 42.0507 1008.51 42.2267 1008.91 42.408C1009.33 42.5787 1009.69 42.8347 1009.98 43.176C1010.28 43.5173 1010.44 43.9707 1010.45 44.536C1010.45 45.0373 1010.31 45.4853 1010.03 45.88C1009.75 46.2747 1009.36 46.584 1008.85 46.808C1008.35 47.032 1007.75 47.144 1007.07 47.144ZM1025.17 47L1023.79 45.624C1023.26 46.1573 1022.68 46.5573 1022.05 46.824C1021.42 47.08 1020.71 47.208 1019.94 47.208C1019.15 47.208 1018.45 47.0693 1017.84 46.792C1017.23 46.5147 1016.76 46.12 1016.43 45.608C1016.1 45.0853 1015.94 44.4827 1015.94 43.8C1015.94 43.032 1016.15 42.3493 1016.59 41.752C1017.03 41.144 1017.68 40.664 1018.54 40.312C1018.23 39.9387 1018.02 39.592 1017.89 39.272C1017.76 38.9413 1017.7 38.5787 1017.7 38.184C1017.7 37.6933 1017.82 37.256 1018.06 36.872C1018.32 36.488 1018.68 36.184 1019.15 35.96C1019.62 35.736 1020.16 35.624 1020.78 35.624C1021.41 35.624 1021.95 35.7467 1022.38 35.992C1022.83 36.2267 1023.16 36.552 1023.38 36.968C1023.6 37.384 1023.69 37.848 1023.65 38.36H1021.82C1021.83 37.9653 1021.74 37.6613 1021.54 37.448C1021.33 37.224 1021.06 37.112 1020.7 37.112C1020.35 37.112 1020.06 37.2187 1019.84 37.432C1019.63 37.6347 1019.52 37.8853 1019.52 38.184C1019.52 38.472 1019.6 38.76 1019.76 39.048C1019.93 39.3253 1020.22 39.688 1020.64 40.136L1023.58 43.064L1024.72 41.192H1026.69L1025.25 43.656L1024.85 44.312L1027.55 47H1025.17ZM1019.94 45.656C1020.94 45.656 1021.82 45.2453 1022.59 44.424L1019.65 41.464C1018.39 41.9653 1017.76 42.7227 1017.76 43.736C1017.76 44.28 1017.96 44.7387 1018.37 45.112C1018.77 45.4747 1019.3 45.656 1019.94 45.656ZM1032.3 41.416C1032.3 40.328 1032.55 39.352 1033.05 38.488C1033.56 37.624 1034.25 36.952 1035.11 36.472C1035.99 35.9813 1036.94 35.736 1037.98 35.736C1039.16 35.736 1040.21 36.0293 1041.13 36.616C1042.06 37.192 1042.73 38.0133 1043.14 39.08H1040.95C1040.66 38.4933 1040.26 38.056 1039.75 37.768C1039.24 37.48 1038.65 37.336 1037.98 37.336C1037.24 37.336 1036.58 37.5013 1036.01 37.832C1035.43 38.1627 1034.98 38.6373 1034.65 39.256C1034.33 39.8747 1034.17 40.5947 1034.17 41.416C1034.17 42.2373 1034.33 42.9573 1034.65 43.576C1034.98 44.1947 1035.43 44.6747 1036.01 45.016C1036.58 45.3467 1037.24 45.512 1037.98 45.512C1038.65 45.512 1039.24 45.368 1039.75 45.08C1040.26 44.792 1040.66 44.3547 1040.95 43.768H1043.14C1042.73 44.8347 1042.06 45.656 1041.13 46.232C1040.21 46.808 1039.16 47.096 1037.98 47.096C1036.93 47.096 1035.98 46.856 1035.11 46.376C1034.25 45.8853 1033.56 45.208 1033.05 44.344C1032.55 43.48 1032.3 42.504 1032.3 41.416ZM1049.1 47.144C1048.27 47.144 1047.52 46.9573 1046.85 46.584C1046.17 46.2 1045.65 45.6667 1045.26 44.984C1044.88 44.2907 1044.69 43.4907 1044.69 42.584C1044.69 41.688 1044.88 40.8933 1045.28 40.2C1045.67 39.5067 1046.21 38.9733 1046.89 38.6C1047.58 38.2267 1048.34 38.04 1049.18 38.04C1050.02 38.04 1050.79 38.2267 1051.47 38.6C1052.15 38.9733 1052.69 39.5067 1053.09 40.2C1053.48 40.8933 1053.68 41.688 1053.68 42.584C1053.68 43.48 1053.48 44.2747 1053.07 44.968C1052.66 45.6613 1052.11 46.2 1051.41 46.584C1050.71 46.9573 1049.94 47.144 1049.1 47.144ZM1049.1 45.56C1049.57 45.56 1050.01 45.448 1050.41 45.224C1050.83 45 1051.17 44.664 1051.42 44.216C1051.68 43.768 1051.81 43.224 1051.81 42.584C1051.81 41.944 1051.68 41.4053 1051.44 40.968C1051.19 40.52 1050.87 40.184 1050.46 39.96C1050.06 39.736 1049.62 39.624 1049.15 39.624C1048.68 39.624 1048.24 39.736 1047.84 39.96C1047.44 40.184 1047.13 40.52 1046.89 40.968C1046.66 41.4053 1046.54 41.944 1046.54 42.584C1046.54 43.5333 1046.78 44.2693 1047.26 44.792C1047.75 45.304 1048.37 45.56 1049.1 45.56ZM1059.93 38.04C1060.62 38.04 1061.24 38.184 1061.79 38.472C1062.34 38.76 1062.77 39.1867 1063.08 39.752C1063.39 40.3173 1063.55 41 1063.55 41.8V47H1061.74V42.072C1061.74 41.2827 1061.54 40.68 1061.15 40.264C1060.75 39.8373 1060.21 39.624 1059.53 39.624C1058.85 39.624 1058.3 39.8373 1057.9 40.264C1057.5 40.68 1057.31 41.2827 1057.31 42.072V47H1055.48V38.184H1057.31V39.192C1057.6 38.8293 1057.98 38.5467 1058.44 38.344C1058.91 38.1413 1059.41 38.04 1059.93 38.04ZM1065.26 42.552C1065.26 41.6667 1065.45 40.8827 1065.81 40.2C1066.18 39.5173 1066.68 38.9893 1067.31 38.616C1067.95 38.232 1068.66 38.04 1069.44 38.04C1070.02 38.04 1070.58 38.168 1071.14 38.424C1071.7 38.6693 1072.15 39 1072.48 39.416V35.16H1074.32V47H1072.48V45.672C1072.18 46.0987 1071.77 46.4507 1071.23 46.728C1070.71 47.0053 1070.11 47.144 1069.42 47.144C1068.66 47.144 1067.95 46.952 1067.31 46.568C1066.68 46.1733 1066.18 45.6293 1065.81 44.936C1065.45 44.232 1065.26 43.4373 1065.26 42.552ZM1072.48 42.584C1072.48 41.976 1072.35 41.448 1072.1 41C1071.85 40.552 1071.53 40.2107 1071.12 39.976C1070.71 39.7413 1070.28 39.624 1069.81 39.624C1069.34 39.624 1068.9 39.7413 1068.5 39.976C1068.09 40.2 1067.76 40.536 1067.5 40.984C1067.26 41.4213 1067.14 41.944 1067.14 42.552C1067.14 43.16 1067.26 43.6933 1067.5 44.152C1067.76 44.6107 1068.09 44.9627 1068.5 45.208C1068.91 45.4427 1069.35 45.56 1069.81 45.56C1070.28 45.56 1070.71 45.4427 1071.12 45.208C1071.53 44.9733 1071.85 44.632 1072.1 44.184C1072.35 43.7253 1072.48 43.192 1072.48 42.584ZM1077.64 37.016C1077.31 37.016 1077.04 36.904 1076.81 36.68C1076.59 36.456 1076.48 36.1787 1076.48 35.848C1076.48 35.5173 1076.59 35.24 1076.81 35.016C1077.04 34.792 1077.31 34.68 1077.64 34.68C1077.96 34.68 1078.24 34.792 1078.46 35.016C1078.68 35.24 1078.8 35.5173 1078.8 35.848C1078.8 36.1787 1078.68 36.456 1078.46 36.68C1078.24 36.904 1077.96 37.016 1077.64 37.016ZM1078.54 38.184V47H1076.72V38.184H1078.54ZM1083.06 39.672V44.552C1083.06 44.8827 1083.14 45.1227 1083.29 45.272C1083.45 45.4107 1083.71 45.48 1084.09 45.48H1085.21V47H1083.77C1082.95 47 1082.32 46.808 1081.88 46.424C1081.44 46.04 1081.22 45.416 1081.22 44.552V39.672H1080.18V38.184H1081.22V35.992H1083.06V38.184H1085.21V39.672H1083.06ZM1087.82 37.016C1087.48 37.016 1087.21 36.904 1086.98 36.68C1086.76 36.456 1086.65 36.1787 1086.65 35.848C1086.65 35.5173 1086.76 35.24 1086.98 35.016C1087.21 34.792 1087.48 34.68 1087.82 34.68C1088.14 34.68 1088.41 34.792 1088.63 35.016C1088.86 35.24 1088.97 35.5173 1088.97 35.848C1088.97 36.1787 1088.86 36.456 1088.63 36.68C1088.41 36.904 1088.14 37.016 1087.82 37.016ZM1088.71 38.184V47H1086.89V38.184H1088.71ZM1094.93 47.144C1094.1 47.144 1093.35 46.9573 1092.67 46.584C1092 46.2 1091.47 45.6667 1091.09 44.984C1090.71 44.2907 1090.51 43.4907 1090.51 42.584C1090.51 41.688 1090.71 40.8933 1091.11 40.2C1091.5 39.5067 1092.04 38.9733 1092.72 38.6C1093.4 38.2267 1094.17 38.04 1095.01 38.04C1095.85 38.04 1096.62 38.2267 1097.3 38.6C1097.98 38.9733 1098.52 39.5067 1098.91 40.2C1099.31 40.8933 1099.51 41.688 1099.51 42.584C1099.51 43.48 1099.3 44.2747 1098.9 44.968C1098.49 45.6613 1097.94 46.2 1097.23 46.584C1096.54 46.9573 1095.77 47.144 1094.93 47.144ZM1094.93 45.56C1095.4 45.56 1095.84 45.448 1096.24 45.224C1096.66 45 1096.99 44.664 1097.25 44.216C1097.51 43.768 1097.63 43.224 1097.63 42.584C1097.63 41.944 1097.51 41.4053 1097.27 40.968C1097.02 40.52 1096.7 40.184 1096.29 39.96C1095.88 39.736 1095.45 39.624 1094.98 39.624C1094.51 39.624 1094.07 39.736 1093.67 39.96C1093.27 40.184 1092.96 40.52 1092.72 40.968C1092.49 41.4053 1092.37 41.944 1092.37 42.584C1092.37 43.5333 1092.61 44.2693 1093.09 44.792C1093.58 45.304 1094.19 45.56 1094.93 45.56ZM1105.76 38.04C1106.45 38.04 1107.07 38.184 1107.61 38.472C1108.17 38.76 1108.6 39.1867 1108.91 39.752C1109.22 40.3173 1109.37 41 1109.37 41.8V47H1107.57V42.072C1107.57 41.2827 1107.37 40.68 1106.97 40.264C1106.58 39.8373 1106.04 39.624 1105.36 39.624C1104.67 39.624 1104.13 39.8373 1103.73 40.264C1103.33 40.68 1103.13 41.2827 1103.13 42.072V47H1101.31V38.184H1103.13V39.192C1103.43 38.8293 1103.81 38.5467 1104.27 38.344C1104.74 38.1413 1105.23 38.04 1105.76 38.04ZM1114.9 47.144C1114.21 47.144 1113.58 47.0213 1113.03 46.776C1112.48 46.52 1112.05 46.1787 1111.73 45.752C1111.41 45.3147 1111.24 44.8293 1111.22 44.296H1113.11C1113.14 44.6693 1113.32 44.984 1113.64 45.24C1113.97 45.4853 1114.38 45.608 1114.87 45.608C1115.38 45.608 1115.77 45.512 1116.05 45.32C1116.34 45.1173 1116.48 44.8613 1116.48 44.552C1116.48 44.2213 1116.32 43.976 1116 43.816C1115.69 43.656 1115.2 43.48 1114.52 43.288C1113.85 43.1067 1113.32 42.9307 1112.9 42.76C1112.48 42.5893 1112.12 42.328 1111.81 41.976C1111.51 41.624 1111.36 41.16 1111.36 40.584C1111.36 40.1147 1111.5 39.688 1111.78 39.304C1112.06 38.9093 1112.45 38.6 1112.96 38.376C1113.49 38.152 1114.08 38.04 1114.76 38.04C1115.76 38.04 1116.56 38.296 1117.17 38.808C1117.79 39.3093 1118.12 39.9973 1118.16 40.872H1116.34C1116.31 40.4773 1116.15 40.1627 1115.86 39.928C1115.57 39.6933 1115.18 39.576 1114.69 39.576C1114.21 39.576 1113.84 39.6667 1113.59 39.848C1113.33 40.0293 1113.2 40.2693 1113.2 40.568C1113.2 40.8027 1113.29 41 1113.46 41.16C1113.63 41.32 1113.84 41.448 1114.08 41.544C1114.33 41.6293 1114.69 41.7413 1115.17 41.88C1115.81 42.0507 1116.33 42.2267 1116.74 42.408C1117.16 42.5787 1117.51 42.8347 1117.81 43.176C1118.11 43.5173 1118.27 43.9707 1118.28 44.536C1118.28 45.0373 1118.14 45.4853 1117.86 45.88C1117.58 46.2747 1117.19 46.584 1116.68 46.808C1116.17 47.032 1115.58 47.144 1114.9 47.144Z" fill="white"/>
<path d="M9.40068 67.192C12.7927 67.192 15.5447 64.456 15.5447 61.032C15.5447 57.64 12.8087 54.888 9.40068 54.888C5.96068 54.888 3.24068 57.656 3.24068 61.032C3.24068 64.456 5.97668 67.192 9.40068 67.192ZM9.40068 65.976C6.63268 65.976 4.45668 63.8 4.45668 61.032C4.45668 58.28 6.63268 56.104 9.40068 56.104C12.1527 56.104 14.3287 58.296 14.3287 61.032C14.3287 63.8 12.1527 65.976 9.40068 65.976ZM9.46468 64.328C10.8407 64.328 11.8487 63.56 12.1687 62.664L11.1287 62.136C10.9047 62.76 10.3287 63.272 9.46468 63.272C8.28068 63.272 7.46468 62.344 7.46468 61.032C7.46468 59.736 8.28068 58.808 9.46468 58.808C10.2967 58.808 10.8887 59.288 11.1287 59.928L12.1687 59.416C11.8487 58.52 10.8247 57.752 9.46468 57.752C7.65668 57.752 6.29668 59.128 6.29668 61.032C6.29668 62.936 7.65668 64.328 9.46468 64.328ZM21.8617 67H29.6697V65.688H23.9257L26.8697 62.584C28.5977 60.776 29.3817 59.56 29.3817 58.232C29.3817 56.264 27.8617 54.888 25.7337 54.888C23.8297 54.888 22.3097 55.912 21.7657 57.528L22.9657 58.136C23.3977 56.904 24.3577 56.232 25.7017 56.232C27.0617 56.232 27.8617 56.984 27.8617 58.296C27.8617 59.512 27.1097 60.456 25.1577 62.52L21.8457 65.976L21.8617 67ZM36.8889 67.192C39.7209 67.192 41.6089 64.728 41.6089 61.032C41.6089 57.352 39.7209 54.888 36.8729 54.888C34.0569 54.888 32.1529 57.352 32.1529 61.032C32.1529 64.712 34.0729 67.192 36.8889 67.192ZM36.8889 65.784C34.9529 65.784 33.6729 63.896 33.6729 61.032C33.6729 58.168 34.9369 56.296 36.8729 56.296C38.8249 56.296 40.1049 58.168 40.1049 61.032C40.1049 63.912 38.8249 65.784 36.8889 65.784ZM44.0304 67H51.8384V65.688H46.0944L49.0384 62.584C50.7664 60.776 51.5504 59.56 51.5504 58.232C51.5504 56.264 50.0304 54.888 47.9024 54.888C45.9984 54.888 44.4784 55.912 43.9344 57.528L45.1344 58.136C45.5664 56.904 46.5264 56.232 47.8704 56.232C49.2304 56.232 50.0304 56.984 50.0304 58.296C50.0304 59.512 49.2784 60.456 47.3264 62.52L44.0144 65.976L44.0304 67ZM54.1617 67H61.9697V65.688H56.2257L59.1697 62.584C60.8977 60.776 61.6817 59.56 61.6817 58.232C61.6817 56.264 60.1617 54.888 58.0337 54.888C56.1297 54.888 54.6097 55.912 54.0657 57.528L55.2657 58.136C55.6977 56.904 56.6577 56.232 58.0017 56.232C59.3617 56.232 60.1617 56.984 60.1617 58.296C60.1617 59.512 59.4097 60.456 57.4577 62.52L54.1457 65.976L54.1617 67ZM65.0129 67H66.5169V65.112H65.0129V67ZM73.2363 67H80.0523V65.672H74.7563V55.08H73.2363V67ZM89.8857 62.392C89.8857 60.232 88.3497 58.328 85.9337 58.328C83.5657 58.328 81.8057 60.184 81.8057 62.744C81.8057 65.304 83.6137 67.192 86.0457 67.192C87.7897 67.192 89.1657 66.248 89.6937 65.08L88.4937 64.44C88.0457 65.304 87.2617 65.944 86.0617 65.944C84.5737 65.944 83.3097 64.856 83.2457 63.176H89.8217C89.8697 62.904 89.8857 62.632 89.8857 62.392ZM83.2777 61.992C83.4697 60.456 84.6057 59.544 85.9337 59.544C87.1817 59.544 88.3497 60.584 88.3657 61.992H83.2777ZM95.2278 58.328C93.6598 58.328 92.2838 59.224 91.8038 60.376L93.0358 61.016C93.4038 60.184 94.2038 59.64 95.2278 59.64C96.3478 59.64 97.1478 60.28 97.1478 61.256V61.496L94.2038 62.152C92.4918 62.536 91.4838 63.4 91.4838 64.648C91.4838 66.136 92.6998 67.192 94.5078 67.192C95.5958 67.192 96.6038 66.664 97.1798 65.816V67H98.5238V61.256C98.5238 59.528 97.1638 58.328 95.2278 58.328ZM94.5878 65.96C93.5798 65.96 92.9398 65.448 92.9398 64.648C92.9398 63.96 93.5638 63.432 94.5238 63.224L97.1478 62.616V63.352C97.1478 64.84 96.0758 65.96 94.5878 65.96ZM104.715 58.328C103.675 58.328 102.763 58.76 102.267 59.496V58.52H100.923V67H102.299V61.864C102.299 60.536 103.147 59.656 104.411 59.656C105.691 59.656 106.507 60.52 106.507 61.864V67H107.883V61.416C107.883 59.64 106.555 58.328 104.715 58.328ZM113.117 67H114.637V56.408H117.853V55.08H109.869V56.408H113.117V67ZM126.473 62.392C126.473 60.232 124.937 58.328 122.521 58.328C120.153 58.328 118.393 60.184 118.393 62.744C118.393 65.304 120.201 67.192 122.633 67.192C124.377 67.192 125.753 66.248 126.281 65.08L125.081 64.44C124.633 65.304 123.849 65.944 122.649 65.944C121.161 65.944 119.897 64.856 119.833 63.176H126.409C126.457 62.904 126.473 62.632 126.473 62.392ZM119.865 61.992C120.057 60.456 121.193 59.544 122.521 59.544C123.769 59.544 124.937 60.584 124.953 61.992H119.865ZM132.311 67.192C133.959 67.192 135.383 66.2 135.911 64.952L134.679 64.312C134.263 65.24 133.415 65.864 132.311 65.864C130.711 65.864 129.527 64.52 129.527 62.76C129.527 60.968 130.711 59.656 132.311 59.656C133.415 59.656 134.263 60.28 134.679 61.208L135.911 60.568C135.383 59.304 133.975 58.328 132.311 58.328C129.879 58.328 128.071 60.2 128.071 62.744C128.071 65.288 129.879 67.192 132.311 67.192ZM141.771 58.328C140.747 58.328 139.867 58.744 139.355 59.448V55.08H137.979V67H139.355V61.864C139.355 60.536 140.203 59.656 141.467 59.656C142.747 59.656 143.563 60.536 143.563 61.864V67H144.939V61.432C144.939 59.64 143.611 58.328 141.771 58.328ZM147.982 67H149.486V65.112H147.982V67ZM161.389 55.08H159.645L155.325 67H156.925L157.917 64.152H163.117L164.109 67H165.709L161.389 55.08ZM158.381 62.824L160.525 56.728L162.653 62.824H158.381ZM167.708 67H169.084V55.08H167.708V67ZM171.792 67H173.168V55.08H171.792V67ZM179.386 67H180.906V62.424H183.786L186.378 67H188.138L185.354 62.152C186.842 61.64 187.738 60.408 187.738 58.76C187.738 56.52 186.074 55.08 183.642 55.08H179.386V67ZM180.906 61.096V56.408H183.642C185.162 56.408 186.17 57.352 186.17 58.744C186.17 60.152 185.162 61.096 183.642 61.096H180.906ZM190.323 56.952H191.699V55.08H190.323V56.952ZM190.323 67H191.699V58.52H190.323V67ZM200.83 58.52V59.688C200.238 58.84 199.198 58.328 197.95 58.328C195.646 58.328 193.806 60.072 193.806 62.44C193.806 64.776 195.662 66.568 197.966 66.568C199.15 66.568 200.174 66.12 200.798 65.336V66.648C200.798 68.264 199.534 69.192 198.046 69.192C196.734 69.192 195.902 68.472 195.566 67.656L194.35 68.312C194.894 69.592 196.286 70.52 198.078 70.52C200.43 70.52 202.174 68.888 202.174 66.648V58.52H200.83ZM198.03 65.24C196.398 65.24 195.262 64.088 195.262 62.44C195.262 60.76 196.462 59.656 198.014 59.656C199.63 59.656 200.798 60.824 200.798 62.44C200.798 64.04 199.678 65.24 198.03 65.24ZM208.678 58.328C207.654 58.328 206.774 58.744 206.262 59.448V55.08H204.886V67H206.262V61.864C206.262 60.536 207.11 59.656 208.374 59.656C209.654 59.656 210.47 60.536 210.47 61.864V67H211.846V61.432C211.846 59.64 210.518 58.328 208.678 58.328ZM217.944 67.096C218.184 67.096 218.52 67.08 218.792 67.016V65.896C218.616 65.928 218.376 65.944 218.2 65.944C216.744 65.944 216.648 64.952 216.648 64.408V59.832H218.696V58.52H216.648V55.768H215.272V57.272C215.272 58.024 214.792 58.52 214.056 58.52H213.624V59.832H215.272V64.408C215.272 66.12 216.232 67.096 217.944 67.096ZM223.983 67.192C225.807 67.192 227.071 66.184 227.071 64.712C227.071 63.576 226.303 62.744 224.879 62.328L223.439 61.896C222.703 61.672 222.223 61.288 222.223 60.712C222.223 60.04 222.831 59.592 223.743 59.592C224.751 59.592 225.551 60.12 225.903 61.032L227.055 60.472C226.559 59.144 225.311 58.328 223.743 58.328C221.983 58.328 220.799 59.32 220.799 60.792C220.799 61.944 221.535 62.76 222.959 63.16L224.351 63.544C225.135 63.768 225.647 64.104 225.647 64.712C225.647 65.416 224.975 65.928 223.983 65.928C222.927 65.928 222.015 65.368 221.583 64.296L220.415 64.872C220.959 66.312 222.319 67.192 223.983 67.192ZM232.68 67H234.2V62.424H237.08L239.672 67H241.432L238.648 62.152C240.136 61.64 241.032 60.408 241.032 58.76C241.032 56.52 239.368 55.08 236.936 55.08H232.68V67ZM234.2 61.096V56.408H236.936C238.456 56.408 239.464 57.352 239.464 58.744C239.464 60.152 238.456 61.096 236.936 61.096H234.2ZM250.861 62.392C250.861 60.232 249.325 58.328 246.909 58.328C244.541 58.328 242.781 60.184 242.781 62.744C242.781 65.304 244.589 67.192 247.021 67.192C248.765 67.192 250.141 66.248 250.669 65.08L249.469 64.44C249.021 65.304 248.237 65.944 247.037 65.944C245.549 65.944 244.285 64.856 244.221 63.176H250.797C250.845 62.904 250.861 62.632 250.861 62.392ZM244.253 61.992C244.445 60.456 245.581 59.544 246.909 59.544C248.157 59.544 249.325 60.584 249.341 61.992H244.253ZM255.899 67.192C257.723 67.192 258.987 66.184 258.987 64.712C258.987 63.576 258.219 62.744 256.795 62.328L255.355 61.896C254.619 61.672 254.139 61.288 254.139 60.712C254.139 60.04 254.747 59.592 255.659 59.592C256.667 59.592 257.467 60.12 257.819 61.032L258.971 60.472C258.475 59.144 257.227 58.328 255.659 58.328C253.899 58.328 252.715 59.32 252.715 60.792C252.715 61.944 253.451 62.76 254.875 63.16L256.267 63.544C257.051 63.768 257.563 64.104 257.563 64.712C257.563 65.416 256.891 65.928 255.899 65.928C254.843 65.928 253.931 65.368 253.499 64.296L252.331 64.872C252.875 66.312 254.235 67.192 255.899 67.192ZM268.686 62.392C268.686 60.232 267.15 58.328 264.734 58.328C262.366 58.328 260.606 60.184 260.606 62.744C260.606 65.304 262.414 67.192 264.846 67.192C266.59 67.192 267.966 66.248 268.494 65.08L267.294 64.44C266.846 65.304 266.062 65.944 264.862 65.944C263.374 65.944 262.11 64.856 262.046 63.176H268.622C268.67 62.904 268.686 62.632 268.686 62.392ZM262.078 61.992C262.27 60.456 263.406 59.544 264.734 59.544C265.982 59.544 267.15 60.584 267.166 61.992H262.078ZM274.38 58.424C273.356 58.424 272.54 58.792 272.092 59.576V58.52H270.764V67H272.14V61.944C272.14 60.536 272.956 59.736 274.172 59.736H275.068V58.424H274.38ZM282.873 58.52L280.377 65.112L277.881 58.52H276.345L279.737 67H281.001L284.409 58.52H282.873ZM293.767 62.392C293.767 60.232 292.231 58.328 289.815 58.328C287.447 58.328 285.687 60.184 285.687 62.744C285.687 65.304 287.495 67.192 289.927 67.192C291.671 67.192 293.047 66.248 293.575 65.08L292.375 64.44C291.927 65.304 291.143 65.944 289.943 65.944C288.455 65.944 287.191 64.856 287.127 63.176H293.703C293.751 62.904 293.767 62.632 293.767 62.392ZM287.159 61.992C287.351 60.456 288.487 59.544 289.815 59.544C291.063 59.544 292.231 60.584 292.247 61.992H287.159ZM302.661 55.08V59.768C302.053 58.872 300.917 58.328 299.637 58.328C297.253 58.328 295.365 60.2 295.365 62.76C295.365 65.32 297.237 67.192 299.653 67.192C300.933 67.192 302.069 66.68 302.693 65.768V67H304.037V55.08H302.661ZM299.733 65.864C298.053 65.864 296.821 64.552 296.821 62.76C296.821 60.984 298.053 59.656 299.733 59.656C301.413 59.656 302.661 60.984 302.661 62.76C302.661 64.552 301.413 65.864 299.733 65.864ZM307.238 67H308.742V65.112H307.238V67Z" fill="white" fill-opacity="0.6"/>
<path d="M56.1322 13.2854V16.529H61.3702V19.3563H56.1322V22.7972H62.0277V25.7998H52.3844V10.3047H62.0277V13.2854H56.1322ZM68.5832 13.4169C69.5184 13.4169 70.322 13.6287 70.9941 14.0524C71.6662 14.4762 72.1557 15.0533 72.4625 15.7839V9.58144H76.2103V25.7998H72.4625V23.5862C72.1557 24.3168 71.6662 24.8939 70.9941 25.3176C70.322 25.7414 69.5184 25.9532 68.5832 25.9532C67.5751 25.9532 66.6692 25.7048 65.8656 25.2081C65.0766 24.6967 64.4483 23.9661 63.9807 23.0164C63.5278 22.0667 63.3013 20.9562 63.3013 19.685C63.3013 18.3993 63.5278 17.2888 63.9807 16.3537C64.4483 15.404 65.0766 14.6807 65.8656 14.1839C66.6692 13.6726 67.5751 13.4169 68.5832 13.4169ZM69.7887 16.7044C68.985 16.7044 68.3348 16.9674 67.8381 17.4934C67.3559 18.0194 67.1148 18.7499 67.1148 19.685C67.1148 20.6202 67.3559 21.3507 67.8381 21.8767C68.3348 22.4027 68.985 22.6657 69.7887 22.6657C70.5777 22.6657 71.2205 22.3954 71.7173 21.8548C72.2287 21.3142 72.4844 20.5909 72.4844 19.685C72.4844 18.7645 72.2287 18.0413 71.7173 17.5153C71.2205 16.9747 70.5777 16.7044 69.7887 16.7044ZM90.7352 13.5703V25.7998H86.9655V23.5862C86.6149 24.3022 86.0889 24.872 85.3875 25.2957C84.7008 25.7194 83.8972 25.9313 82.9767 25.9313C81.574 25.9313 80.4563 25.4637 79.6234 24.5286C78.8052 23.5935 78.3961 22.3077 78.3961 20.6713V13.5703H82.1219V20.211C82.1219 21.0439 82.3338 21.6941 82.7575 22.1616C83.1959 22.6146 83.7803 22.841 84.5109 22.841C85.2706 22.841 85.8697 22.6 86.308 22.1178C86.7464 21.6356 86.9655 20.9489 86.9655 20.0576V13.5703H90.7352ZM98.622 13.4169C100.2 13.4169 101.522 13.8552 102.589 14.7319C103.656 15.5939 104.328 16.7847 104.605 18.3043H100.638C100.521 17.7783 100.28 17.3692 99.9151 17.077C99.5498 16.7847 99.0895 16.6386 98.5343 16.6386C97.8768 16.6386 97.3362 16.9016 96.9125 17.4276C96.4887 17.939 96.2769 18.6915 96.2769 19.685C96.2769 20.6786 96.4887 21.4384 96.9125 21.9644C97.3362 22.4758 97.8768 22.7315 98.5343 22.7315C99.0895 22.7315 99.5498 22.5854 99.9151 22.2931C100.28 22.0009 100.521 21.5918 100.638 21.0658H104.605C104.328 22.5854 103.656 23.7835 102.589 24.6601C101.522 25.5222 100.2 25.9532 98.622 25.9532C97.4239 25.9532 96.3572 25.7048 95.4221 25.2081C94.5016 24.6967 93.7784 23.9661 93.2524 23.0164C92.7264 22.0667 92.4634 20.9562 92.4634 19.685C92.4634 18.3993 92.7191 17.2888 93.2305 16.3537C93.7565 15.404 94.487 14.6807 95.4221 14.1839C96.3572 13.6726 97.4239 13.4169 98.622 13.4169ZM110.09 9.58144V25.7998H106.342V9.58144H110.09ZM117.105 13.4169C118.04 13.4169 118.843 13.6287 119.516 14.0524C120.188 14.4762 120.685 15.0533 121.006 15.7839V13.5703H124.732V25.7998H121.006V23.5862C120.685 24.3168 120.188 24.8939 119.516 25.3176C118.843 25.7414 118.04 25.9532 117.105 25.9532C116.097 25.9532 115.191 25.7048 114.387 25.2081C113.598 24.6967 112.97 23.9661 112.502 23.0164C112.049 22.0667 111.823 20.9562 111.823 19.685C111.823 18.3993 112.049 17.2888 112.502 16.3537C112.97 15.404 113.598 14.6807 114.387 14.1839C115.191 13.6726 116.097 13.4169 117.105 13.4169ZM118.31 16.7044C117.507 16.7044 116.856 16.9674 116.36 17.4934C115.877 18.0194 115.636 18.7499 115.636 19.685C115.636 20.6202 115.877 21.3507 116.36 21.8767C116.856 22.4027 117.507 22.6657 118.31 22.6657C119.099 22.6657 119.742 22.3954 120.239 21.8548C120.75 21.3142 121.006 20.5909 121.006 19.685C121.006 18.7645 120.75 18.0413 120.239 17.5153C119.742 16.9747 119.099 16.7044 118.31 16.7044ZM131.542 13.4169C133.091 13.4169 134.325 13.8041 135.246 14.5785C136.181 15.3528 136.766 16.3756 136.999 17.6468H133.493C133.39 17.15 133.157 16.7628 132.791 16.4852C132.441 16.193 131.995 16.0469 131.454 16.0469C131.031 16.0469 130.709 16.1418 130.49 16.3318C130.271 16.5071 130.161 16.7628 130.161 17.0989C130.161 17.4788 130.359 17.7637 130.753 17.9536C131.162 18.1436 131.798 18.3335 132.66 18.5235C133.595 18.7426 134.362 18.9691 134.961 19.2029C135.56 19.422 136.079 19.7873 136.517 20.2987C136.955 20.8101 137.175 21.4968 137.175 22.3589C137.175 23.0602 136.985 23.6812 136.605 24.2218C136.225 24.7624 135.677 25.1861 134.961 25.493C134.245 25.7998 133.398 25.9532 132.419 25.9532C130.768 25.9532 129.445 25.5879 128.452 24.8574C127.458 24.1268 126.852 23.0821 126.633 21.7233H130.249C130.307 22.2493 130.527 22.6511 130.906 22.9287C131.301 23.2063 131.805 23.3451 132.419 23.3451C132.842 23.3451 133.164 23.2502 133.383 23.0602C133.602 22.8557 133.712 22.5927 133.712 22.2712C133.712 21.8475 133.507 21.548 133.098 21.3726C132.704 21.1827 132.053 20.9854 131.148 20.7809C130.242 20.5909 129.496 20.3864 128.912 20.1672C128.328 19.948 127.824 19.5974 127.4 19.1152C126.976 18.6184 126.764 17.9463 126.764 17.0989C126.764 16.003 127.181 15.1191 128.013 14.447C128.846 13.7602 130.022 13.4169 131.542 13.4169ZM143.48 13.4169C145.029 13.4169 146.263 13.8041 147.184 14.5785C148.119 15.3528 148.703 16.3756 148.937 17.6468H145.43C145.328 17.15 145.094 16.7628 144.729 16.4852C144.378 16.193 143.933 16.0469 143.392 16.0469C142.968 16.0469 142.647 16.1418 142.428 16.3318C142.209 16.5071 142.099 16.7628 142.099 17.0989C142.099 17.4788 142.296 17.7637 142.691 17.9536C143.1 18.1436 143.736 18.3335 144.598 18.5235C145.533 18.7426 146.3 18.9691 146.899 19.2029C147.498 19.422 148.017 19.7873 148.455 20.2987C148.893 20.8101 149.112 21.4968 149.112 22.3589C149.112 23.0602 148.922 23.6812 148.543 24.2218C148.163 24.7624 147.615 25.1861 146.899 25.493C146.183 25.7998 145.335 25.9532 144.356 25.9532C142.705 25.9532 141.383 25.5879 140.39 24.8574C139.396 24.1268 138.79 23.0821 138.57 21.7233H142.187C142.245 22.2493 142.464 22.6511 142.844 22.9287C143.239 23.2063 143.743 23.3451 144.356 23.3451C144.78 23.3451 145.102 23.2502 145.321 23.0602C145.54 22.8557 145.65 22.5927 145.65 22.2712C145.65 21.8475 145.445 21.548 145.036 21.3726C144.641 21.1827 143.991 20.9854 143.085 20.7809C142.179 20.5909 141.434 20.3864 140.85 20.1672C140.265 19.948 139.761 19.5974 139.338 19.1152C138.914 18.6184 138.702 17.9463 138.702 17.0989C138.702 16.003 139.118 15.1191 139.951 14.447C140.784 13.7602 141.96 13.4169 143.48 13.4169Z" fill="white"/>
<ellipse cx="18.247" cy="18" rx="18.247" ry="18" fill="#FFB700"/>
<path opacity="0.36" d="M7.00635 12.1502L9.93891 9.73947L13.849 10.2216L18.2478 13.5966L26.068 9.25732L29.4893 11.668L29.0005 25.168L18.2478 27.5788L7.00635 24.6859V12.1502Z" fill="white"/>
<path d="M27.3657 8.98598C27.3657 8.98598 27.1607 8.85235 27.1007 8.8341C27.0138 8.80773 26.7414 8.77504 26.7414 8.77504C23.4651 8.73696 20.3455 10.1563 18.248 12.6394C16.1505 10.1563 13.0309 8.73696 9.7546 8.77504C9.7546 8.77504 9.48303 8.75605 9.39536 8.77504C9.33409 8.78822 9.1302 8.92691 9.1302 8.92691L6.56421 11.1544C6.36311 11.3276 6.25555 11.5836 6.2734 11.8463V25.2113C6.2734 25.6773 6.65638 26.055 7.12873 26.055C14.1082 26.055 17.6717 28.819 17.7092 28.8394C17.8339 28.9077 18.0677 29.0327 18.3885 29.0326C18.5966 29.0325 18.8314 28.8854 18.9635 28.7981C19.8912 28.1857 23.3569 26.1899 29.2903 26.1899C29.7628 26.1899 30.1457 25.8121 30.1457 25.3462V11.8462C30.1454 11.6038 30.0395 11.3734 29.855 11.2134L27.3657 8.98598ZM25.946 10.4625V22.1738C23.3094 22.3869 20.8581 23.5959 19.1034 25.5488V14.3185C20.6778 12.0806 23.1923 10.6638 25.946 10.4625ZM10.5501 10.4625C13.3011 10.645 15.8189 12.0513 17.3927 14.2847V25.5488C15.6379 23.5959 13.1866 22.3869 10.5501 22.1738V10.4625ZM7.98406 12.226L8.83939 11.4835V22.9839C8.83939 23.4499 9.22237 23.8276 9.69472 23.8276C11.5917 23.8134 13.4373 24.4353 14.9293 25.591C12.6908 24.8391 10.3482 24.4322 7.98406 24.3844V12.226ZM28.512 24.3844C26.1479 24.4322 23.8052 24.8391 21.5667 25.5909C23.0587 24.4351 24.9044 23.8133 26.8013 23.8275C27.2737 23.8275 27.6567 23.4498 27.6567 22.9838V11.4835L28.512 12.226V24.3844Z" fill="white"/>
</svg>
