<svg width="656" height="125" viewBox="0 0 656 125" fill="none" xmlns="http://www.w3.org/2000/svg">
<path d="M159.168 13.28C161.835 13.28 164.248 13.9067 166.408 15.16C168.595 16.3867 170.315 18.1067 171.568 20.32C172.821 22.5067 173.448 24.9867 173.448 27.76C173.448 30.5333 172.808 33.0267 171.528 35.24C170.275 37.4533 168.555 39.1867 166.368 40.44C164.208 41.6667 161.808 42.28 159.168 42.28C156.528 42.28 154.115 41.6667 151.928 40.44C149.768 39.1867 148.048 37.4533 146.768 35.24C145.515 33.0267 144.888 30.5333 144.888 27.76C144.888 24.9867 145.515 22.5067 146.768 20.32C148.048 18.1067 149.768 16.3867 151.928 15.16C154.115 13.9067 156.528 13.28 159.168 13.28ZM159.168 19.64C156.928 19.64 155.141 20.3733 153.808 21.84C152.501 23.28 151.848 25.2533 151.848 27.76C151.848 30.24 152.501 32.2133 153.808 33.68C155.141 35.1467 156.928 35.88 159.168 35.88C161.381 35.88 163.155 35.1467 164.488 33.68C165.821 32.2133 166.488 30.24 166.488 27.76C166.488 25.28 165.821 23.3067 164.488 21.84C163.181 20.3733 161.408 19.64 159.168 19.64ZM199.09 19.68V42H192.21V37.96C191.57 39.2667 190.61 40.3067 189.33 41.08C188.077 41.8533 186.61 42.24 184.93 42.24C182.37 42.24 180.33 41.3867 178.81 39.68C177.317 37.9733 176.57 35.6267 176.57 32.64V19.68H183.37V31.8C183.37 33.32 183.757 34.5067 184.53 35.36C185.33 36.1867 186.397 36.6 187.73 36.6C189.117 36.6 190.21 36.16 191.01 35.28C191.81 34.4 192.21 33.1467 192.21 31.52V19.68H199.09ZM210.245 23.88C211.098 22.52 212.191 21.44 213.525 20.64C214.885 19.84 216.351 19.44 217.925 19.44V26.76H215.965C214.151 26.76 212.738 27.1467 211.725 27.92C210.738 28.6933 210.245 30 210.245 31.84V42H203.405V19.68H210.245V23.88ZM259.795 13.92V42H252.955V24.44L246.875 42H240.955L234.835 24.4V42H227.995V13.92H236.355L243.995 33.48L251.475 13.92H259.795ZM272.599 19.4C274.305 19.4 275.772 19.7867 276.999 20.56C278.225 21.3333 279.132 22.3867 279.719 23.72V19.68H286.519V42H279.719V37.96C279.132 39.2933 278.225 40.3467 276.999 41.12C275.772 41.8933 274.305 42.28 272.599 42.28C270.759 42.28 269.105 41.8267 267.639 40.92C266.199 39.9867 265.052 38.6533 264.199 36.92C263.372 35.1867 262.959 33.16 262.959 30.84C262.959 28.4933 263.372 26.4667 264.199 24.76C265.052 23.0267 266.199 21.7067 267.639 20.8C269.105 19.8667 270.759 19.4 272.599 19.4ZM274.799 25.4C273.332 25.4 272.145 25.88 271.239 26.84C270.359 27.8 269.919 29.1333 269.919 30.84C269.919 32.5467 270.359 33.88 271.239 34.84C272.145 35.8 273.332 36.28 274.799 36.28C276.239 36.28 277.412 35.7867 278.319 34.8C279.252 33.8133 279.719 32.4933 279.719 30.84C279.719 29.16 279.252 27.84 278.319 26.88C277.412 25.8933 276.239 25.4 274.799 25.4ZM290.188 13.4C290.188 12.36 290.561 11.5067 291.308 10.84C292.055 10.1467 293.041 9.8 294.268 9.8C295.495 9.8 296.481 10.1467 297.228 10.84C297.975 11.5067 298.348 12.36 298.348 13.4C298.348 14.4133 297.975 15.2667 297.228 15.96C296.481 16.6267 295.495 16.96 294.268 16.96C293.041 16.96 292.055 16.6267 291.308 15.96C290.561 15.2667 290.188 14.4133 290.188 13.4ZM297.668 19.68V42H290.828V19.68H297.668ZM316.15 19.44C318.71 19.44 320.737 20.2933 322.23 22C323.75 23.7067 324.51 26.0533 324.51 29.04V42H317.67V29.84C317.67 28.3467 317.27 27.1867 316.47 26.36C315.697 25.5067 314.657 25.08 313.35 25.08C311.964 25.08 310.857 25.52 310.03 26.4C309.23 27.28 308.83 28.5333 308.83 30.16V42H301.99V19.68H308.83V23.76C309.47 22.4267 310.417 21.3733 311.67 20.6C312.95 19.8267 314.444 19.44 316.15 19.44ZM354.67 13.72V19.16H343.07V25.36H352.03V30.56H343.07V42H336.23V13.72H354.67ZM378.983 30.24C378.983 30.8 378.916 31.4133 378.783 32.08H363.303C363.383 33.76 363.809 34.9733 364.583 35.72C365.356 36.44 366.343 36.8 367.543 36.8C368.556 36.8 369.396 36.5467 370.063 36.04C370.729 35.5333 371.169 34.88 371.383 34.08H378.623C378.329 35.6533 377.689 37.0667 376.703 38.32C375.716 39.5467 374.463 40.52 372.943 41.24C371.423 41.9333 369.729 42.28 367.863 42.28C365.676 42.28 363.729 41.8267 362.023 40.92C360.343 39.9867 359.023 38.6533 358.063 36.92C357.103 35.1867 356.623 33.16 356.623 30.84C356.623 28.4933 357.089 26.4667 358.023 24.76C358.983 23.0267 360.316 21.7067 362.023 20.8C363.729 19.8667 365.676 19.4 367.863 19.4C370.076 19.4 372.023 19.8533 373.703 20.76C375.383 21.6667 376.676 22.9467 377.583 24.6C378.516 26.2267 378.983 28.1067 378.983 30.24ZM372.063 29.2C372.089 27.7333 371.689 26.64 370.863 25.92C370.063 25.1733 369.063 24.8 367.863 24.8C366.609 24.8 365.569 25.1733 364.743 25.92C363.916 26.6667 363.449 27.76 363.343 29.2H372.063ZM390.628 19.4C392.335 19.4 393.802 19.7867 395.028 20.56C396.255 21.3333 397.162 22.3867 397.748 23.72V19.68H404.548V42H397.748V37.96C397.162 39.2933 396.255 40.3467 395.028 41.12C393.802 41.8933 392.335 42.28 390.628 42.28C388.788 42.28 387.135 41.8267 385.668 40.92C384.228 39.9867 383.082 38.6533 382.228 36.92C381.402 35.1867 380.988 33.16 380.988 30.84C380.988 28.4933 381.402 26.4667 382.228 24.76C383.082 23.0267 384.228 21.7067 385.668 20.8C387.135 19.8667 388.788 19.4 390.628 19.4ZM392.828 25.4C391.362 25.4 390.175 25.88 389.268 26.84C388.388 27.8 387.948 29.1333 387.948 30.84C387.948 32.5467 388.388 33.88 389.268 34.84C390.175 35.8 391.362 36.28 392.828 36.28C394.268 36.28 395.442 35.7867 396.348 34.8C397.282 33.8133 397.748 32.4933 397.748 30.84C397.748 29.16 397.282 27.84 396.348 26.88C395.442 25.8933 394.268 25.4 392.828 25.4ZM421.498 36.12V42H418.418C415.804 42 413.764 41.36 412.298 40.08C410.858 38.7733 410.138 36.6267 410.138 33.64V25.44H407.138V19.68H410.138V14.2H416.978V19.68H421.458V25.44H416.978V33.76C416.978 34.64 417.151 35.2533 417.498 35.6C417.871 35.9467 418.484 36.12 419.338 36.12H421.498ZM447.142 19.68V42H440.262V37.96C439.622 39.2667 438.662 40.3067 437.382 41.08C436.129 41.8533 434.662 42.24 432.982 42.24C430.422 42.24 428.382 41.3867 426.862 39.68C425.369 37.9733 424.622 35.6267 424.622 32.64V19.68H431.422V31.8C431.422 33.32 431.809 34.5067 432.582 35.36C433.382 36.1867 434.449 36.6 435.782 36.6C437.169 36.6 438.262 36.16 439.062 35.28C439.862 34.4 440.262 33.1467 440.262 31.52V19.68H447.142ZM458.296 23.88C459.149 22.52 460.243 21.44 461.576 20.64C462.936 19.84 464.403 19.44 465.976 19.44V26.76H464.016C462.203 26.76 460.789 27.1467 459.776 27.92C458.789 28.6933 458.296 30 458.296 31.84V42H451.456V19.68H458.296V23.88ZM489.639 30.24C489.639 30.8 489.572 31.4133 489.439 32.08H473.959C474.039 33.76 474.466 34.9733 475.239 35.72C476.012 36.44 476.999 36.8 478.199 36.8C479.212 36.8 480.052 36.5467 480.719 36.04C481.386 35.5333 481.826 34.88 482.039 34.08H489.279C488.986 35.6533 488.346 37.0667 487.359 38.32C486.372 39.5467 485.119 40.52 483.599 41.24C482.079 41.9333 480.386 42.28 478.519 42.28C476.332 42.28 474.386 41.8267 472.679 40.92C470.999 39.9867 469.679 38.6533 468.719 36.92C467.759 35.1867 467.279 33.16 467.279 30.84C467.279 28.4933 467.746 26.4667 468.679 24.76C469.639 23.0267 470.972 21.7067 472.679 20.8C474.386 19.8667 476.332 19.4 478.519 19.4C480.732 19.4 482.679 19.8533 484.359 20.76C486.039 21.6667 487.332 22.9467 488.239 24.6C489.172 26.2267 489.639 28.1067 489.639 30.24ZM482.719 29.2C482.746 27.7333 482.346 26.64 481.519 25.92C480.719 25.1733 479.719 24.8 478.519 24.8C477.266 24.8 476.226 25.1733 475.399 25.92C474.572 26.6667 474.106 27.76 473.999 29.2H482.719ZM500.925 19.4C503.751 19.4 506.005 20.1067 507.685 21.52C509.391 22.9333 510.458 24.8 510.885 27.12H504.485C504.298 26.2133 503.871 25.5067 503.205 25C502.565 24.4667 501.751 24.2 500.765 24.2C499.991 24.2 499.405 24.3733 499.005 24.72C498.605 25.04 498.405 25.5067 498.405 26.12C498.405 26.8133 498.765 27.3333 499.485 27.68C500.231 28.0267 501.391 28.3733 502.965 28.72C504.671 29.12 506.071 29.5333 507.165 29.96C508.258 30.36 509.205 31.0267 510.005 31.96C510.805 32.8933 511.205 34.1467 511.205 35.72C511.205 37 510.858 38.1333 510.165 39.12C509.471 40.1067 508.471 40.88 507.165 41.44C505.858 42 504.311 42.28 502.525 42.28C499.511 42.28 497.098 41.6133 495.285 40.28C493.471 38.9467 492.365 37.04 491.965 34.56H498.565C498.671 35.52 499.071 36.2533 499.765 36.76C500.485 37.2667 501.405 37.52 502.525 37.52C503.298 37.52 503.885 37.3467 504.285 37C504.685 36.6267 504.885 36.1467 504.885 35.56C504.885 34.7867 504.511 34.24 503.765 33.92C503.045 33.5733 501.858 33.2133 500.205 32.84C498.551 32.4933 497.191 32.12 496.125 31.72C495.058 31.32 494.138 30.68 493.365 29.8C492.591 28.8933 492.205 27.6667 492.205 26.12C492.205 24.12 492.965 22.5067 494.485 21.28C496.005 20.0267 498.151 19.4 500.925 19.4Z" fill="#063852"/>
<path d="M37.1416 80.72L34.2776 92H32.5016L29.8936 82.784L27.2856 92H25.5096L22.6296 80.72H24.2456L26.4056 90.304L29.0776 80.72H30.6936L33.3656 90.272L35.5416 80.72H37.1416ZM46.9277 87.12C46.9277 87.4293 46.9064 87.696 46.8637 87.92H39.8397C39.8717 88.9227 40.1544 89.6747 40.6877 90.176C41.2317 90.6773 41.893 90.928 42.6717 90.928C43.3757 90.928 43.9624 90.752 44.4317 90.4C44.9117 90.0373 45.205 89.5573 45.3117 88.96H46.8637C46.757 89.568 46.517 90.112 46.1437 90.592C45.781 91.072 45.3064 91.4453 44.7197 91.712C44.133 91.9787 43.4717 92.112 42.7357 92.112C41.893 92.112 41.1464 91.9307 40.4957 91.568C39.845 91.2053 39.333 90.688 38.9597 90.016C38.597 89.3333 38.4157 88.5333 38.4157 87.616C38.4157 86.6987 38.597 85.8987 38.9597 85.216C39.333 84.5333 39.845 84.0107 40.4957 83.648C41.1464 83.2853 41.893 83.104 42.7357 83.104C43.589 83.104 44.3304 83.2853 44.9597 83.648C45.5997 84.0107 46.085 84.496 46.4157 85.104C46.757 85.712 46.9277 86.384 46.9277 87.12ZM45.4557 87.216C45.4877 86.5653 45.381 86.0213 45.1357 85.584C44.8904 85.1467 44.5544 84.8213 44.1277 84.608C43.701 84.3947 43.237 84.288 42.7357 84.288C41.9357 84.288 41.2637 84.5387 40.7197 85.04C40.1757 85.5307 39.8824 86.256 39.8397 87.216H45.4557ZM57.6332 83.104C58.4119 83.104 59.1052 83.2853 59.7132 83.648C60.3212 84.0107 60.7959 84.5333 61.1372 85.216C61.4892 85.8987 61.6652 86.6987 61.6652 87.616C61.6652 88.5333 61.4892 89.3333 61.1372 90.016C60.7959 90.688 60.3212 91.2053 59.7132 91.568C59.1052 91.9307 58.4119 92.112 57.6332 92.112C56.7799 92.112 56.0545 91.8987 55.4572 91.472C54.8705 91.0347 54.4652 90.464 54.2412 89.76V96.16H52.7852V83.216H54.2412V85.456C54.4652 84.752 54.8705 84.1867 55.4572 83.76C56.0545 83.3227 56.7799 83.104 57.6332 83.104ZM57.2172 84.4C56.6519 84.4 56.1399 84.5333 55.6812 84.8C55.2225 85.056 54.8652 85.4293 54.6092 85.92C54.3532 86.4107 54.2252 86.976 54.2252 87.616C54.2252 88.256 54.3532 88.8213 54.6092 89.312C54.8652 89.792 55.2225 90.1653 55.6812 90.432C56.1399 90.6987 56.6519 90.832 57.2172 90.832C58.1239 90.832 58.8439 90.5493 59.3772 89.984C59.9212 89.408 60.1932 88.6187 60.1932 87.616C60.1932 86.6133 59.9212 85.8293 59.3772 85.264C58.8439 84.688 58.1239 84.4 57.2172 84.4ZM65.0224 84.992C65.3104 84.384 65.7318 83.9147 66.2864 83.584C66.8411 83.2427 67.5024 83.072 68.2704 83.072V84.656H67.8224C67.0011 84.656 66.3291 84.8693 65.8064 85.296C65.2838 85.712 65.0224 86.4053 65.0224 87.376V92H63.5664V83.216H65.0224V84.992ZM73.6911 83.104C74.5337 83.104 75.2857 83.2853 75.9471 83.648C76.6191 84.0107 77.1417 84.5333 77.5151 85.216C77.8991 85.8987 78.0911 86.6987 78.0911 87.616C78.0911 88.5333 77.8991 89.3333 77.5151 90.016C77.1417 90.688 76.6191 91.2053 75.9471 91.568C75.2857 91.9307 74.5337 92.112 73.6911 92.112C72.8484 92.112 72.0911 91.9307 71.4191 91.568C70.7577 91.2053 70.2351 90.688 69.8511 90.016C69.4671 89.3333 69.2751 88.5333 69.2751 87.616C69.2751 86.6987 69.4671 85.8987 69.8511 85.216C70.2351 84.5333 70.7577 84.0107 71.4191 83.648C72.0911 83.2853 72.8484 83.104 73.6911 83.104ZM73.6911 84.384C73.1684 84.384 72.6831 84.5013 72.2351 84.736C71.7977 84.9707 71.4404 85.3333 71.1631 85.824C70.8964 86.304 70.7631 86.9013 70.7631 87.616C70.7631 88.32 70.8964 88.9173 71.1631 89.408C71.4404 89.888 71.7977 90.2453 72.2351 90.48C72.6831 90.7147 73.1684 90.832 73.6911 90.832C74.2137 90.832 74.6937 90.7147 75.1311 90.48C75.5791 90.2453 75.9364 89.888 76.2031 89.408C76.4804 88.9173 76.6191 88.32 76.6191 87.616C76.6191 86.9013 76.4804 86.304 76.2031 85.824C75.9364 85.3333 75.5791 84.9707 75.1311 84.736C74.6937 84.5013 74.2137 84.384 73.6911 84.384ZM83.3963 90.448L86.1163 83.216H87.6843L84.2443 92H82.5163L79.0763 83.216H80.6443L83.3963 90.448ZM88.8573 80.64C88.8573 80.3733 88.948 80.16 89.1293 80C89.3106 79.8293 89.5506 79.744 89.8493 79.744C90.148 79.744 90.388 79.8293 90.5693 80C90.7506 80.16 90.8413 80.3733 90.8413 80.64C90.8413 80.9067 90.7506 81.1253 90.5693 81.296C90.388 81.456 90.148 81.536 89.8493 81.536C89.5506 81.536 89.3106 81.456 89.1293 81.296C88.948 81.1253 88.8573 80.9067 88.8573 80.64ZM90.5693 83.216V92H89.1133V83.216H90.5693ZM96.5102 83.104C97.3635 83.104 98.0835 83.3173 98.6702 83.744C99.2675 84.1707 99.6835 84.7413 99.9182 85.456V80.16H101.374V92H99.9182V89.76C99.6835 90.4747 99.2675 91.0453 98.6702 91.472C98.0835 91.8987 97.3635 92.112 96.5102 92.112C95.7315 92.112 95.0382 91.9307 94.4302 91.568C93.8222 91.2053 93.3422 90.688 92.9902 90.016C92.6489 89.3333 92.4782 88.5333 92.4782 87.616C92.4782 86.6987 92.6489 85.8987 92.9902 85.216C93.3422 84.5333 93.8222 84.0107 94.4302 83.648C95.0382 83.2853 95.7315 83.104 96.5102 83.104ZM96.9262 84.4C96.0302 84.4 95.3102 84.688 94.7662 85.264C94.2329 85.8293 93.9662 86.6133 93.9662 87.616C93.9662 88.6187 94.2329 89.408 94.7662 89.984C95.3102 90.5493 96.0302 90.832 96.9262 90.832C97.5022 90.832 98.0142 90.6987 98.4622 90.432C98.9209 90.1653 99.2782 89.792 99.5342 89.312C99.7902 88.8213 99.9182 88.256 99.9182 87.616C99.9182 86.976 99.7902 86.4107 99.5342 85.92C99.2782 85.4293 98.9209 85.056 98.4622 84.8C98.0142 84.5333 97.5022 84.4 96.9262 84.4ZM111.771 87.12C111.771 87.4293 111.75 87.696 111.707 87.92H104.683C104.715 88.9227 104.998 89.6747 105.531 90.176C106.075 90.6773 106.737 90.928 107.515 90.928C108.219 90.928 108.806 90.752 109.275 90.4C109.755 90.0373 110.049 89.5573 110.155 88.96H111.707C111.601 89.568 111.361 90.112 110.987 90.592C110.625 91.072 110.15 91.4453 109.563 91.712C108.977 91.9787 108.315 92.112 107.579 92.112C106.737 92.112 105.99 91.9307 105.339 91.568C104.689 91.2053 104.177 90.688 103.803 90.016C103.441 89.3333 103.259 88.5333 103.259 87.616C103.259 86.6987 103.441 85.8987 103.803 85.216C104.177 84.5333 104.689 84.0107 105.339 83.648C105.99 83.2853 106.737 83.104 107.579 83.104C108.433 83.104 109.174 83.2853 109.803 83.648C110.443 84.0107 110.929 84.496 111.259 85.104C111.601 85.712 111.771 86.384 111.771 87.12ZM110.299 87.216C110.331 86.5653 110.225 86.0213 109.979 85.584C109.734 85.1467 109.398 84.8213 108.971 84.608C108.545 84.3947 108.081 84.288 107.579 84.288C106.779 84.288 106.107 84.5387 105.563 85.04C105.019 85.5307 104.726 86.256 104.683 87.216H110.299ZM121.517 83.104C122.637 83.104 123.565 83.4027 124.301 84C125.037 84.5973 125.49 85.3973 125.661 86.4H124.125C124.018 85.7707 123.725 85.28 123.245 84.928C122.776 84.5653 122.189 84.384 121.485 84.384C120.973 84.384 120.504 84.5013 120.077 84.736C119.661 84.9707 119.325 85.3333 119.069 85.824C118.813 86.304 118.685 86.9013 118.685 87.616C118.685 88.3307 118.813 88.9333 119.069 89.424C119.325 89.904 119.661 90.2613 120.077 90.496C120.504 90.7307 120.973 90.848 121.485 90.848C122.189 90.848 122.776 90.6667 123.245 90.304C123.725 89.9413 124.018 89.4453 124.125 88.816H125.661C125.49 89.8293 125.037 90.6347 124.301 91.232C123.565 91.8187 122.637 92.112 121.517 92.112C120.674 92.112 119.928 91.9307 119.277 91.568C118.626 91.2053 118.114 90.688 117.741 90.016C117.378 89.3333 117.197 88.5333 117.197 87.616C117.197 86.6987 117.378 85.8987 117.741 85.216C118.114 84.5333 118.626 84.0107 119.277 83.648C119.928 83.2853 120.674 83.104 121.517 83.104ZM131.55 83.104C132.393 83.104 133.145 83.2853 133.806 83.648C134.478 84.0107 135.001 84.5333 135.374 85.216C135.758 85.8987 135.95 86.6987 135.95 87.616C135.95 88.5333 135.758 89.3333 135.374 90.016C135.001 90.688 134.478 91.2053 133.806 91.568C133.145 91.9307 132.393 92.112 131.55 92.112C130.708 92.112 129.95 91.9307 129.278 91.568C128.617 91.2053 128.094 90.688 127.71 90.016C127.326 89.3333 127.134 88.5333 127.134 87.616C127.134 86.6987 127.326 85.8987 127.71 85.216C128.094 84.5333 128.617 84.0107 129.278 83.648C129.95 83.2853 130.708 83.104 131.55 83.104ZM131.55 84.384C131.028 84.384 130.542 84.5013 130.094 84.736C129.657 84.9707 129.3 85.3333 129.022 85.824C128.756 86.304 128.622 86.9013 128.622 87.616C128.622 88.32 128.756 88.9173 129.022 89.408C129.3 89.888 129.657 90.2453 130.094 90.48C130.542 90.7147 131.028 90.832 131.55 90.832C132.073 90.832 132.553 90.7147 132.99 90.48C133.438 90.2453 133.796 89.888 134.062 89.408C134.34 88.9173 134.478 88.32 134.478 87.616C134.478 86.9013 134.34 86.304 134.062 85.824C133.796 85.3333 133.438 84.9707 132.99 84.736C132.553 84.5013 132.073 84.384 131.55 84.384ZM148.648 83.072C149.672 83.072 150.493 83.4027 151.112 84.064C151.741 84.7147 152.056 85.6587 152.056 86.896V92H150.6V87.024C150.6 86.16 150.386 85.4987 149.96 85.04C149.544 84.5813 148.968 84.352 148.232 84.352C147.464 84.352 146.845 84.608 146.376 85.12C145.917 85.6213 145.688 86.3627 145.688 87.344V92H144.232V87.024C144.232 86.16 144.018 85.4987 143.592 85.04C143.165 84.5813 142.589 84.352 141.864 84.352C141.085 84.352 140.461 84.608 139.992 85.12C139.533 85.6213 139.304 86.3627 139.304 87.344V92H137.848V83.216H139.304V85.216C139.517 84.5227 139.896 83.9947 140.44 83.632C140.994 83.2587 141.629 83.072 142.344 83.072C143.09 83.072 143.736 83.264 144.28 83.648C144.834 84.0213 145.229 84.576 145.464 85.312C145.709 84.5973 146.12 84.048 146.696 83.664C147.272 83.2693 147.922 83.072 148.648 83.072ZM159.164 83.104C159.943 83.104 160.636 83.2853 161.244 83.648C161.852 84.0107 162.327 84.5333 162.668 85.216C163.02 85.8987 163.196 86.6987 163.196 87.616C163.196 88.5333 163.02 89.3333 162.668 90.016C162.327 90.688 161.852 91.2053 161.244 91.568C160.636 91.9307 159.943 92.112 159.164 92.112C158.311 92.112 157.586 91.8987 156.988 91.472C156.402 91.0347 155.996 90.464 155.772 89.76V96.16H154.316V83.216H155.772V85.456C155.996 84.752 156.402 84.1867 156.988 83.76C157.586 83.3227 158.311 83.104 159.164 83.104ZM158.748 84.4C158.183 84.4 157.671 84.5333 157.212 84.8C156.754 85.056 156.396 85.4293 156.14 85.92C155.884 86.4107 155.756 86.976 155.756 87.616C155.756 88.256 155.884 88.8213 156.14 89.312C156.396 89.792 156.754 90.1653 157.212 90.432C157.671 90.6987 158.183 90.832 158.748 90.832C159.655 90.832 160.375 90.5493 160.908 89.984C161.452 89.408 161.724 88.6187 161.724 87.616C161.724 86.6133 161.452 85.8293 160.908 85.264C160.375 84.688 159.655 84.4 158.748 84.4ZM166.554 80.16V92H165.098V80.16H166.554ZM176.975 87.12C176.975 87.4293 176.953 87.696 176.911 87.92H169.887C169.919 88.9227 170.201 89.6747 170.735 90.176C171.279 90.6773 171.94 90.928 172.719 90.928C173.423 90.928 174.009 90.752 174.479 90.4C174.959 90.0373 175.252 89.5573 175.359 88.96H176.911C176.804 89.568 176.564 90.112 176.191 90.592C175.828 91.072 175.353 91.4453 174.767 91.712C174.18 91.9787 173.519 92.112 172.783 92.112C171.94 92.112 171.193 91.9307 170.543 91.568C169.892 91.2053 169.38 90.688 169.007 90.016C168.644 89.3333 168.463 88.5333 168.463 87.616C168.463 86.6987 168.644 85.8987 169.007 85.216C169.38 84.5333 169.892 84.0107 170.543 83.648C171.193 83.2853 171.94 83.104 172.783 83.104C173.636 83.104 174.377 83.2853 175.007 83.648C175.647 84.0107 176.132 84.496 176.463 85.104C176.804 85.712 176.975 86.384 176.975 87.12ZM175.503 87.216C175.535 86.5653 175.428 86.0213 175.183 85.584C174.937 85.1467 174.601 84.8213 174.175 84.608C173.748 84.3947 173.284 84.288 172.783 84.288C171.983 84.288 171.311 84.5387 170.767 85.04C170.223 85.5307 169.929 86.256 169.887 87.216H175.503ZM183.071 90.72V92H181.983C181.087 92 180.415 91.7867 179.967 91.36C179.53 90.9333 179.311 90.2187 179.311 89.216V84.48H177.999V83.216H179.311V81.024H180.783V83.216H183.055V84.48H180.783V89.248C180.783 89.8133 180.884 90.2027 181.087 90.416C181.3 90.6187 181.663 90.72 182.175 90.72H183.071ZM192.928 87.12C192.928 87.4293 192.906 87.696 192.864 87.92H185.84C185.872 88.9227 186.154 89.6747 186.688 90.176C187.232 90.6773 187.893 90.928 188.672 90.928C189.376 90.928 189.962 90.752 190.432 90.4C190.912 90.0373 191.205 89.5573 191.312 88.96H192.864C192.757 89.568 192.517 90.112 192.144 90.592C191.781 91.072 191.306 91.4453 190.72 91.712C190.133 91.9787 189.472 92.112 188.736 92.112C187.893 92.112 187.146 91.9307 186.496 91.568C185.845 91.2053 185.333 90.688 184.96 90.016C184.597 89.3333 184.416 88.5333 184.416 87.616C184.416 86.6987 184.597 85.8987 184.96 85.216C185.333 84.5333 185.845 84.0107 186.496 83.648C187.146 83.2853 187.893 83.104 188.736 83.104C189.589 83.104 190.33 83.2853 190.96 83.648C191.6 84.0107 192.085 84.496 192.416 85.104C192.757 85.712 192.928 86.384 192.928 87.12ZM191.456 87.216C191.488 86.5653 191.381 86.0213 191.136 85.584C190.89 85.1467 190.554 84.8213 190.128 84.608C189.701 84.3947 189.237 84.288 188.736 84.288C187.936 84.288 187.264 84.5387 186.72 85.04C186.176 85.5307 185.882 86.256 185.84 87.216H191.456ZM201.537 83.104C202.529 83.104 203.324 83.3653 203.921 83.888C204.529 84.4 204.897 85.0933 205.025 85.968H203.633C203.569 85.4453 203.351 85.0187 202.977 84.688C202.615 84.3467 202.124 84.176 201.505 84.176C200.983 84.176 200.572 84.304 200.273 84.56C199.985 84.8053 199.841 85.1413 199.841 85.568C199.841 85.888 199.937 86.1493 200.129 86.352C200.332 86.544 200.577 86.6933 200.865 86.8C201.164 86.896 201.569 87.0027 202.081 87.12C202.732 87.2693 203.255 87.424 203.649 87.584C204.055 87.7333 204.396 87.9787 204.673 88.32C204.961 88.6613 205.105 89.12 205.105 89.696C205.105 90.4107 204.833 90.992 204.289 91.44C203.756 91.888 203.041 92.112 202.145 92.112C201.1 92.112 200.247 91.8613 199.585 91.36C198.924 90.8587 198.535 90.16 198.417 89.264H199.825C199.879 89.7973 200.108 90.2293 200.513 90.56C200.929 90.8907 201.473 91.056 202.145 91.056C202.647 91.056 203.036 90.928 203.313 90.672C203.601 90.416 203.745 90.08 203.745 89.664C203.745 89.3227 203.644 89.0507 203.441 88.848C203.239 88.6453 202.988 88.4907 202.689 88.384C202.391 88.2773 201.98 88.1653 201.457 88.048C200.807 87.8987 200.284 87.7493 199.889 87.6C199.505 87.4507 199.175 87.216 198.897 86.896C198.631 86.5653 198.497 86.1227 198.497 85.568C198.497 84.832 198.769 84.24 199.313 83.792C199.857 83.3333 200.599 83.104 201.537 83.104ZM211.035 83.104C211.877 83.104 212.629 83.2853 213.291 83.648C213.963 84.0107 214.485 84.5333 214.859 85.216C215.243 85.8987 215.435 86.6987 215.435 87.616C215.435 88.5333 215.243 89.3333 214.859 90.016C214.485 90.688 213.963 91.2053 213.291 91.568C212.629 91.9307 211.877 92.112 211.035 92.112C210.192 92.112 209.435 91.9307 208.763 91.568C208.101 91.2053 207.579 90.688 207.195 90.016C206.811 89.3333 206.619 88.5333 206.619 87.616C206.619 86.6987 206.811 85.8987 207.195 85.216C207.579 84.5333 208.101 84.0107 208.763 83.648C209.435 83.2853 210.192 83.104 211.035 83.104ZM211.035 84.384C210.512 84.384 210.027 84.5013 209.579 84.736C209.141 84.9707 208.784 85.3333 208.507 85.824C208.24 86.304 208.107 86.9013 208.107 87.616C208.107 88.32 208.24 88.9173 208.507 89.408C208.784 89.888 209.141 90.2453 209.579 90.48C210.027 90.7147 210.512 90.832 211.035 90.832C211.557 90.832 212.037 90.7147 212.475 90.48C212.923 90.2453 213.28 89.888 213.547 89.408C213.824 88.9173 213.963 88.32 213.963 87.616C213.963 86.9013 213.824 86.304 213.547 85.824C213.28 85.3333 212.923 84.9707 212.475 84.736C212.037 84.5013 211.557 84.384 211.035 84.384ZM218.788 80.16V92H217.332V80.16H218.788ZM228.937 83.216V92H227.481V89.936C227.257 90.6507 226.857 91.2 226.281 91.584C225.716 91.9573 225.054 92.144 224.297 92.144C223.284 92.144 222.462 91.8187 221.833 91.168C221.204 90.5067 220.889 89.5627 220.889 88.336V83.216H222.345V88.192C222.345 89.0667 222.569 89.744 223.017 90.224C223.465 90.6933 224.073 90.928 224.841 90.928C225.641 90.928 226.281 90.672 226.761 90.16C227.241 89.6373 227.481 88.88 227.481 87.888V83.216H228.937ZM235.462 90.72V92H234.374C233.478 92 232.806 91.7867 232.358 91.36C231.92 90.9333 231.702 90.2187 231.702 89.216V84.48H230.39V83.216H231.702V81.024H233.174V83.216H235.446V84.48H233.174V89.248C233.174 89.8133 233.275 90.2027 233.478 90.416C233.691 90.6187 234.054 90.72 234.566 90.72H235.462ZM236.982 80.64C236.982 80.3733 237.073 80.16 237.254 80C237.436 79.8293 237.676 79.744 237.974 79.744C238.273 79.744 238.513 79.8293 238.694 80C238.876 80.16 238.966 80.3733 238.966 80.64C238.966 80.9067 238.876 81.1253 238.694 81.296C238.513 81.456 238.273 81.536 237.974 81.536C237.676 81.536 237.436 81.456 237.254 81.296C237.073 81.1253 236.982 80.9067 236.982 80.64ZM238.694 83.216V92H237.238V83.216H238.694ZM245.019 83.104C245.862 83.104 246.614 83.2853 247.275 83.648C247.947 84.0107 248.47 84.5333 248.843 85.216C249.227 85.8987 249.419 86.6987 249.419 87.616C249.419 88.5333 249.227 89.3333 248.843 90.016C248.47 90.688 247.947 91.2053 247.275 91.568C246.614 91.9307 245.862 92.112 245.019 92.112C244.177 92.112 243.419 91.9307 242.747 91.568C242.086 91.2053 241.563 90.688 241.179 90.016C240.795 89.3333 240.603 88.5333 240.603 87.616C240.603 86.6987 240.795 85.8987 241.179 85.216C241.563 84.5333 242.086 84.0107 242.747 83.648C243.419 83.2853 244.177 83.104 245.019 83.104ZM245.019 84.384C244.497 84.384 244.011 84.5013 243.563 84.736C243.126 84.9707 242.769 85.3333 242.491 85.824C242.225 86.304 242.091 86.9013 242.091 87.616C242.091 88.32 242.225 88.9173 242.491 89.408C242.769 89.888 243.126 90.2453 243.563 90.48C244.011 90.7147 244.497 90.832 245.019 90.832C245.542 90.832 246.022 90.7147 246.459 90.48C246.907 90.2453 247.265 89.888 247.531 89.408C247.809 88.9173 247.947 88.32 247.947 87.616C247.947 86.9013 247.809 86.304 247.531 85.824C247.265 85.3333 246.907 84.9707 246.459 84.736C246.022 84.5013 245.542 84.384 245.019 84.384ZM255.94 83.072C256.964 83.072 257.791 83.4027 258.42 84.064C259.05 84.7147 259.364 85.6587 259.364 86.896V92H257.908V87.024C257.908 86.1493 257.684 85.4773 257.236 85.008C256.788 84.5387 256.18 84.304 255.412 84.304C254.612 84.304 253.972 84.5653 253.492 85.088C253.012 85.6 252.772 86.352 252.772 87.344V92H251.316V83.216H252.772V85.296C252.996 84.5813 253.391 84.032 253.956 83.648C254.532 83.264 255.194 83.072 255.94 83.072ZM269.439 81.136C268.66 81.1253 268.116 81.2587 267.807 81.536C267.508 81.8133 267.359 82.2933 267.359 82.976V83.216H269.439V84.496H267.359V92H265.903V84.496H264.639V83.216H265.903V82.864C265.903 80.7627 267.081 79.76 269.439 79.856V81.136ZM275.004 83.104C275.846 83.104 276.598 83.2853 277.26 83.648C277.932 84.0107 278.454 84.5333 278.828 85.216C279.212 85.8987 279.404 86.6987 279.404 87.616C279.404 88.5333 279.212 89.3333 278.828 90.016C278.454 90.688 277.932 91.2053 277.26 91.568C276.598 91.9307 275.846 92.112 275.004 92.112C274.161 92.112 273.404 91.9307 272.732 91.568C272.07 91.2053 271.548 90.688 271.164 90.016C270.78 89.3333 270.588 88.5333 270.588 87.616C270.588 86.6987 270.78 85.8987 271.164 85.216C271.548 84.5333 272.07 84.0107 272.732 83.648C273.404 83.2853 274.161 83.104 275.004 83.104ZM275.004 84.384C274.481 84.384 273.996 84.5013 273.548 84.736C273.11 84.9707 272.753 85.3333 272.476 85.824C272.209 86.304 272.076 86.9013 272.076 87.616C272.076 88.32 272.209 88.9173 272.476 89.408C272.753 89.888 273.11 90.2453 273.548 90.48C273.996 90.7147 274.481 90.832 275.004 90.832C275.526 90.832 276.006 90.7147 276.444 90.48C276.892 90.2453 277.249 89.888 277.516 89.408C277.793 88.9173 277.932 88.32 277.932 87.616C277.932 86.9013 277.793 86.304 277.516 85.824C277.249 85.3333 276.892 84.9707 276.444 84.736C276.006 84.5013 275.526 84.384 275.004 84.384ZM282.757 84.992C283.045 84.384 283.466 83.9147 284.021 83.584C284.575 83.2427 285.237 83.072 286.005 83.072V84.656H285.557C284.735 84.656 284.063 84.8693 283.541 85.296C283.018 85.712 282.757 86.4053 282.757 87.376V92H281.301V83.216H282.757V84.992ZM292.003 83.216L294.851 90.128L297.491 83.216H299.107L293.891 96.16H292.243L294.067 91.856L290.371 83.216H292.003ZM304.425 83.104C305.268 83.104 306.02 83.2853 306.681 83.648C307.353 84.0107 307.876 84.5333 308.249 85.216C308.633 85.8987 308.825 86.6987 308.825 87.616C308.825 88.5333 308.633 89.3333 308.249 90.016C307.876 90.688 307.353 91.2053 306.681 91.568C306.02 91.9307 305.268 92.112 304.425 92.112C303.583 92.112 302.825 91.9307 302.153 91.568C301.492 91.2053 300.969 90.688 300.585 90.016C300.201 89.3333 300.009 88.5333 300.009 87.616C300.009 86.6987 300.201 85.8987 300.585 85.216C300.969 84.5333 301.492 84.0107 302.153 83.648C302.825 83.2853 303.583 83.104 304.425 83.104ZM304.425 84.384C303.903 84.384 303.417 84.5013 302.969 84.736C302.532 84.9707 302.175 85.3333 301.897 85.824C301.631 86.304 301.497 86.9013 301.497 87.616C301.497 88.32 301.631 88.9173 301.897 89.408C302.175 89.888 302.532 90.2453 302.969 90.48C303.417 90.7147 303.903 90.832 304.425 90.832C304.948 90.832 305.428 90.7147 305.865 90.48C306.313 90.2453 306.671 89.888 306.937 89.408C307.215 88.9173 307.353 88.32 307.353 87.616C307.353 86.9013 307.215 86.304 306.937 85.824C306.671 85.3333 306.313 84.9707 305.865 84.736C305.428 84.5013 304.948 84.384 304.425 84.384ZM318.531 83.216V92H317.075V89.936C316.851 90.6507 316.451 91.2 315.875 91.584C315.309 91.9573 314.648 92.144 313.891 92.144C312.877 92.144 312.056 91.8187 311.427 91.168C310.797 90.5067 310.483 89.5627 310.483 88.336V83.216H311.939V88.192C311.939 89.0667 312.163 89.744 312.611 90.224C313.059 90.6933 313.667 90.928 314.435 90.928C315.235 90.928 315.875 90.672 316.355 90.16C316.835 89.6373 317.075 88.88 317.075 87.888V83.216H318.531ZM322.319 84.992C322.607 84.384 323.029 83.9147 323.583 83.584C324.138 83.2427 324.799 83.072 325.567 83.072V84.656H325.119C324.298 84.656 323.626 84.8693 323.103 85.296C322.581 85.712 322.319 86.4053 322.319 87.376V92H320.863V83.216H322.319V84.992ZM333.709 83.104C334.701 83.104 335.496 83.3653 336.093 83.888C336.701 84.4 337.069 85.0933 337.197 85.968H335.805C335.741 85.4453 335.522 85.0187 335.149 84.688C334.786 84.3467 334.296 84.176 333.677 84.176C333.154 84.176 332.744 84.304 332.445 84.56C332.157 84.8053 332.013 85.1413 332.013 85.568C332.013 85.888 332.109 86.1493 332.301 86.352C332.504 86.544 332.749 86.6933 333.037 86.8C333.336 86.896 333.741 87.0027 334.253 87.12C334.904 87.2693 335.426 87.424 335.821 87.584C336.226 87.7333 336.568 87.9787 336.845 88.32C337.133 88.6613 337.277 89.12 337.277 89.696C337.277 90.4107 337.005 90.992 336.461 91.44C335.928 91.888 335.213 92.112 334.317 92.112C333.272 92.112 332.418 91.8613 331.757 91.36C331.096 90.8587 330.706 90.16 330.589 89.264H331.997C332.05 89.7973 332.28 90.2293 332.685 90.56C333.101 90.8907 333.645 91.056 334.317 91.056C334.818 91.056 335.208 90.928 335.485 90.672C335.773 90.416 335.917 90.08 335.917 89.664C335.917 89.3227 335.816 89.0507 335.613 88.848C335.41 88.6453 335.16 88.4907 334.861 88.384C334.562 88.2773 334.152 88.1653 333.629 88.048C332.978 87.8987 332.456 87.7493 332.061 87.6C331.677 87.4507 331.346 87.216 331.069 86.896C330.802 86.5653 330.669 86.1227 330.669 85.568C330.669 84.832 330.941 84.24 331.485 83.792C332.029 83.3333 332.77 83.104 333.709 83.104ZM343.415 90.72V92H342.327C341.431 92 340.759 91.7867 340.311 91.36C339.873 90.9333 339.655 90.2187 339.655 89.216V84.48H338.343V83.216H339.655V81.024H341.127V83.216H343.399V84.48H341.127V89.248C341.127 89.8133 341.228 90.2027 341.431 90.416C341.644 90.6187 342.007 90.72 342.519 90.72H343.415ZM348.791 83.104C349.645 83.104 350.365 83.3173 350.951 83.744C351.549 84.1707 351.965 84.7413 352.199 85.456V83.216H353.655V92H352.199V89.76C351.965 90.4747 351.549 91.0453 350.951 91.472C350.365 91.8987 349.645 92.112 348.791 92.112C348.013 92.112 347.319 91.9307 346.711 91.568C346.103 91.2053 345.623 90.688 345.271 90.016C344.93 89.3333 344.759 88.5333 344.759 87.616C344.759 86.6987 344.93 85.8987 345.271 85.216C345.623 84.5333 346.103 84.0107 346.711 83.648C347.319 83.2853 348.013 83.104 348.791 83.104ZM349.207 84.4C348.311 84.4 347.591 84.688 347.047 85.264C346.514 85.8293 346.247 86.6133 346.247 87.616C346.247 88.6187 346.514 89.408 347.047 89.984C347.591 90.5493 348.311 90.832 349.207 90.832C349.783 90.832 350.295 90.6987 350.743 90.432C351.202 90.1653 351.559 89.792 351.815 89.312C352.071 88.8213 352.199 88.256 352.199 87.616C352.199 86.976 352.071 86.4107 351.815 85.92C351.559 85.4293 351.202 85.056 350.743 84.8C350.295 84.5333 349.783 84.4 349.207 84.4ZM357.429 84.992C357.717 84.384 358.138 83.9147 358.693 83.584C359.247 83.2427 359.909 83.072 360.677 83.072V84.656H360.229C359.407 84.656 358.735 84.8693 358.213 85.296C357.69 85.712 357.429 86.4053 357.429 87.376V92H355.973V83.216H357.429V84.992ZM366.305 90.72V92H365.217C364.321 92 363.649 91.7867 363.201 91.36C362.764 90.9333 362.545 90.2187 362.545 89.216V84.48H361.233V83.216H362.545V81.024H364.017V83.216H366.289V84.48H364.017V89.248C364.017 89.8133 364.119 90.2027 364.321 90.416C364.535 90.6187 364.897 90.72 365.409 90.72H366.305ZM375.89 83.216V92H374.434V89.936C374.21 90.6507 373.81 91.2 373.234 91.584C372.669 91.9573 372.007 92.144 371.25 92.144C370.237 92.144 369.415 91.8187 368.786 91.168C368.157 90.5067 367.842 89.5627 367.842 88.336V83.216H369.298V88.192C369.298 89.0667 369.522 89.744 369.97 90.224C370.418 90.6933 371.026 90.928 371.794 90.928C372.594 90.928 373.234 90.672 373.714 90.16C374.194 89.6373 374.434 88.88 374.434 87.888V83.216H375.89ZM383.071 83.104C383.849 83.104 384.543 83.2853 385.151 83.648C385.759 84.0107 386.233 84.5333 386.575 85.216C386.927 85.8987 387.103 86.6987 387.103 87.616C387.103 88.5333 386.927 89.3333 386.575 90.016C386.233 90.688 385.759 91.2053 385.151 91.568C384.543 91.9307 383.849 92.112 383.071 92.112C382.217 92.112 381.492 91.8987 380.895 91.472C380.308 91.0347 379.903 90.464 379.679 89.76V96.16H378.223V83.216H379.679V85.456C379.903 84.752 380.308 84.1867 380.895 83.76C381.492 83.3227 382.217 83.104 383.071 83.104ZM382.655 84.4C382.089 84.4 381.577 84.5333 381.119 84.8C380.66 85.056 380.303 85.4293 380.047 85.92C379.791 86.4107 379.663 86.976 379.663 87.616C379.663 88.256 379.791 88.8213 380.047 89.312C380.303 89.792 380.66 90.1653 381.119 90.432C381.577 90.6987 382.089 90.832 382.655 90.832C383.561 90.832 384.281 90.5493 384.815 89.984C385.359 89.408 385.631 88.6187 385.631 87.616C385.631 86.6133 385.359 85.8293 384.815 85.264C384.281 84.688 383.561 84.4 382.655 84.4ZM389.852 90.928C390.001 91.3973 390.076 91.8347 390.076 92.24C390.076 92.7947 389.937 93.2373 389.66 93.568C389.383 93.9093 388.967 94.08 388.412 94.08V93.456C388.679 93.456 388.871 93.3813 388.988 93.232C389.116 93.0933 389.18 92.8693 389.18 92.56V92.416H388.364V90.928H389.852ZM400.602 83.104C401.381 83.104 402.074 83.2853 402.682 83.648C403.29 84.0107 403.765 84.5333 404.106 85.216C404.458 85.8987 404.634 86.6987 404.634 87.616C404.634 88.5333 404.458 89.3333 404.106 90.016C403.765 90.688 403.29 91.2053 402.682 91.568C402.074 91.9307 401.381 92.112 400.602 92.112C399.749 92.112 399.023 91.8987 398.426 91.472C397.839 91.0347 397.434 90.464 397.21 89.76V92H395.754V80.16H397.21V85.456C397.434 84.752 397.839 84.1867 398.426 83.76C399.023 83.3227 399.749 83.104 400.602 83.104ZM400.186 84.4C399.621 84.4 399.109 84.5333 398.65 84.8C398.191 85.056 397.834 85.4293 397.578 85.92C397.322 86.4107 397.194 86.976 397.194 87.616C397.194 88.256 397.322 88.8213 397.578 89.312C397.834 89.792 398.191 90.1653 398.65 90.432C399.109 90.6987 399.621 90.832 400.186 90.832C401.093 90.832 401.813 90.5493 402.346 89.984C402.89 89.408 403.162 88.6187 403.162 87.616C403.162 86.6133 402.89 85.8293 402.346 85.264C401.813 84.688 401.093 84.4 400.186 84.4ZM407.991 84.992C408.279 84.384 408.701 83.9147 409.255 83.584C409.81 83.2427 410.471 83.072 411.239 83.072V84.656H410.791C409.97 84.656 409.298 84.8693 408.775 85.296C408.253 85.712 407.991 86.4053 407.991 87.376V92H406.535V83.216H407.991V84.992ZM416.276 83.104C417.129 83.104 417.849 83.3173 418.436 83.744C419.033 84.1707 419.449 84.7413 419.684 85.456V83.216H421.14V92H419.684V89.76C419.449 90.4747 419.033 91.0453 418.436 91.472C417.849 91.8987 417.129 92.112 416.276 92.112C415.497 92.112 414.804 91.9307 414.196 91.568C413.588 91.2053 413.108 90.688 412.756 90.016C412.414 89.3333 412.244 88.5333 412.244 87.616C412.244 86.6987 412.414 85.8987 412.756 85.216C413.108 84.5333 413.588 84.0107 414.196 83.648C414.804 83.2853 415.497 83.104 416.276 83.104ZM416.692 84.4C415.796 84.4 415.076 84.688 414.532 85.264C413.998 85.8293 413.732 86.6133 413.732 87.616C413.732 88.6187 413.998 89.408 414.532 89.984C415.076 90.5493 415.796 90.832 416.692 90.832C417.268 90.832 417.78 90.6987 418.228 90.432C418.686 90.1653 419.044 89.792 419.3 89.312C419.556 88.8213 419.684 88.256 419.684 87.616C419.684 86.976 419.556 86.4107 419.3 85.92C419.044 85.4293 418.686 85.056 418.228 84.8C417.78 84.5333 417.268 84.4 416.692 84.4ZM428.081 83.072C429.105 83.072 429.932 83.4027 430.561 84.064C431.19 84.7147 431.505 85.6587 431.505 86.896V92H430.049V87.024C430.049 86.1493 429.825 85.4773 429.377 85.008C428.929 84.5387 428.321 84.304 427.553 84.304C426.753 84.304 426.113 84.5653 425.633 85.088C425.153 85.6 424.913 86.352 424.913 87.344V92H423.457V83.216H424.913V85.296C425.137 84.5813 425.532 84.032 426.097 83.648C426.673 83.264 427.334 83.072 428.081 83.072ZM437.338 83.104C438.192 83.104 438.912 83.3173 439.498 83.744C440.096 84.1707 440.512 84.7413 440.746 85.456V80.16H442.202V92H440.746V89.76C440.512 90.4747 440.096 91.0453 439.498 91.472C438.912 91.8987 438.192 92.112 437.338 92.112C436.56 92.112 435.866 91.9307 435.258 91.568C434.65 91.2053 434.17 90.688 433.818 90.016C433.477 89.3333 433.306 88.5333 433.306 87.616C433.306 86.6987 433.477 85.8987 433.818 85.216C434.17 84.5333 434.65 84.0107 435.258 83.648C435.866 83.2853 436.56 83.104 437.338 83.104ZM437.754 84.4C436.858 84.4 436.138 84.688 435.594 85.264C435.061 85.8293 434.794 86.6133 434.794 87.616C434.794 88.6187 435.061 89.408 435.594 89.984C436.138 90.5493 436.858 90.832 437.754 90.832C438.33 90.832 438.842 90.6987 439.29 90.432C439.749 90.1653 440.106 89.792 440.362 89.312C440.618 88.8213 440.746 88.256 440.746 87.616C440.746 86.976 440.618 86.4107 440.362 85.92C440.106 85.4293 439.749 85.056 439.29 84.8C438.842 84.5333 438.33 84.4 437.754 84.4ZM445.368 90.928C445.517 91.3973 445.592 91.8347 445.592 92.24C445.592 92.7947 445.453 93.2373 445.176 93.568C444.898 93.9093 444.482 94.08 443.928 94.08V93.456C444.194 93.456 444.386 93.3813 444.504 93.232C444.632 93.0933 444.696 92.8693 444.696 92.56V92.416H443.88V90.928H445.368ZM455.158 83.104C456.278 83.104 457.206 83.4027 457.942 84C458.678 84.5973 459.131 85.3973 459.302 86.4H457.766C457.659 85.7707 457.366 85.28 456.886 84.928C456.416 84.5653 455.83 84.384 455.126 84.384C454.614 84.384 454.144 84.5013 453.718 84.736C453.302 84.9707 452.966 85.3333 452.71 85.824C452.454 86.304 452.326 86.9013 452.326 87.616C452.326 88.3307 452.454 88.9333 452.71 89.424C452.966 89.904 453.302 90.2613 453.718 90.496C454.144 90.7307 454.614 90.848 455.126 90.848C455.83 90.848 456.416 90.6667 456.886 90.304C457.366 89.9413 457.659 89.4453 457.766 88.816H459.302C459.131 89.8293 458.678 90.6347 457.942 91.232C457.206 91.8187 456.278 92.112 455.158 92.112C454.315 92.112 453.568 91.9307 452.918 91.568C452.267 91.2053 451.755 90.688 451.382 90.016C451.019 89.3333 450.838 88.5333 450.838 87.616C450.838 86.6987 451.019 85.8987 451.382 85.216C451.755 84.5333 452.267 84.0107 452.918 83.648C453.568 83.2853 454.315 83.104 455.158 83.104ZM465.191 83.104C466.034 83.104 466.786 83.2853 467.447 83.648C468.119 84.0107 468.642 84.5333 469.015 85.216C469.399 85.8987 469.591 86.6987 469.591 87.616C469.591 88.5333 469.399 89.3333 469.015 90.016C468.642 90.688 468.119 91.2053 467.447 91.568C466.786 91.9307 466.034 92.112 465.191 92.112C464.348 92.112 463.591 91.9307 462.919 91.568C462.258 91.2053 461.735 90.688 461.351 90.016C460.967 89.3333 460.775 88.5333 460.775 87.616C460.775 86.6987 460.967 85.8987 461.351 85.216C461.735 84.5333 462.258 84.0107 462.919 83.648C463.591 83.2853 464.348 83.104 465.191 83.104ZM465.191 84.384C464.668 84.384 464.183 84.5013 463.735 84.736C463.298 84.9707 462.94 85.3333 462.663 85.824C462.396 86.304 462.263 86.9013 462.263 87.616C462.263 88.32 462.396 88.9173 462.663 89.408C462.94 89.888 463.298 90.2453 463.735 90.48C464.183 90.7147 464.668 90.832 465.191 90.832C465.714 90.832 466.194 90.7147 466.631 90.48C467.079 90.2453 467.436 89.888 467.703 89.408C467.98 88.9173 468.119 88.32 468.119 87.616C468.119 86.9013 467.98 86.304 467.703 85.824C467.436 85.3333 467.079 84.9707 466.631 84.736C466.194 84.5013 465.714 84.384 465.191 84.384ZM482.288 83.072C483.312 83.072 484.134 83.4027 484.752 84.064C485.382 84.7147 485.696 85.6587 485.696 86.896V92H484.24V87.024C484.24 86.16 484.027 85.4987 483.6 85.04C483.184 84.5813 482.608 84.352 481.872 84.352C481.104 84.352 480.486 84.608 480.016 85.12C479.558 85.6213 479.328 86.3627 479.328 87.344V92H477.872V87.024C477.872 86.16 477.659 85.4987 477.232 85.04C476.806 84.5813 476.23 84.352 475.504 84.352C474.726 84.352 474.102 84.608 473.632 85.12C473.174 85.6213 472.944 86.3627 472.944 87.344V92H471.488V83.216H472.944V85.216C473.158 84.5227 473.536 83.9947 474.08 83.632C474.635 83.2587 475.27 83.072 475.984 83.072C476.731 83.072 477.376 83.264 477.92 83.648C478.475 84.0213 478.87 84.576 479.104 85.312C479.35 84.5973 479.76 84.048 480.336 83.664C480.912 83.2693 481.563 83.072 482.288 83.072ZM492.805 83.104C493.584 83.104 494.277 83.2853 494.885 83.648C495.493 84.0107 495.968 84.5333 496.309 85.216C496.661 85.8987 496.837 86.6987 496.837 87.616C496.837 88.5333 496.661 89.3333 496.309 90.016C495.968 90.688 495.493 91.2053 494.885 91.568C494.277 91.9307 493.584 92.112 492.805 92.112C491.952 92.112 491.226 91.8987 490.629 91.472C490.042 91.0347 489.637 90.464 489.413 89.76V96.16H487.957V83.216H489.413V85.456C489.637 84.752 490.042 84.1867 490.629 83.76C491.226 83.3227 491.952 83.104 492.805 83.104ZM492.389 84.4C491.824 84.4 491.312 84.5333 490.853 84.8C490.394 85.056 490.037 85.4293 489.781 85.92C489.525 86.4107 489.397 86.976 489.397 87.616C489.397 88.256 489.525 88.8213 489.781 89.312C490.037 89.792 490.394 90.1653 490.853 90.432C491.312 90.6987 491.824 90.832 492.389 90.832C493.296 90.832 494.016 90.5493 494.549 89.984C495.093 89.408 495.365 88.6187 495.365 87.616C495.365 86.6133 495.093 85.8293 494.549 85.264C494.016 84.688 493.296 84.4 492.389 84.4ZM502.338 83.104C503.192 83.104 503.912 83.3173 504.498 83.744C505.096 84.1707 505.512 84.7413 505.746 85.456V83.216H507.202V92H505.746V89.76C505.512 90.4747 505.096 91.0453 504.498 91.472C503.912 91.8987 503.192 92.112 502.338 92.112C501.56 92.112 500.866 91.9307 500.258 91.568C499.65 91.2053 499.17 90.688 498.818 90.016C498.477 89.3333 498.306 88.5333 498.306 87.616C498.306 86.6987 498.477 85.8987 498.818 85.216C499.17 84.5333 499.65 84.0107 500.258 83.648C500.866 83.2853 501.56 83.104 502.338 83.104ZM502.754 84.4C501.858 84.4 501.138 84.688 500.594 85.264C500.061 85.8293 499.794 86.6133 499.794 87.616C499.794 88.6187 500.061 89.408 500.594 89.984C501.138 90.5493 501.858 90.832 502.754 90.832C503.33 90.832 503.842 90.6987 504.29 90.432C504.749 90.1653 505.106 89.792 505.362 89.312C505.618 88.8213 505.746 88.256 505.746 87.616C505.746 86.976 505.618 86.4107 505.362 85.92C505.106 85.4293 504.749 85.056 504.29 84.8C503.842 84.5333 503.33 84.4 502.754 84.4ZM514.144 83.072C515.168 83.072 515.994 83.4027 516.624 84.064C517.253 84.7147 517.568 85.6587 517.568 86.896V92H516.112V87.024C516.112 86.1493 515.888 85.4773 515.44 85.008C514.992 84.5387 514.384 84.304 513.616 84.304C512.816 84.304 512.176 84.5653 511.696 85.088C511.216 85.6 510.976 86.352 510.976 87.344V92H509.52V83.216H510.976V85.296C511.2 84.5813 511.594 84.032 512.16 83.648C512.736 83.264 513.397 83.072 514.144 83.072ZM520.409 83.216L523.257 90.128L525.897 83.216H527.513L522.297 96.16H520.649L522.473 91.856L518.777 83.216H520.409ZM540.881 87.12C540.881 87.4293 540.859 87.696 540.817 87.92H533.793C533.825 88.9227 534.107 89.6747 534.641 90.176C535.185 90.6773 535.846 90.928 536.625 90.928C537.329 90.928 537.915 90.752 538.385 90.4C538.865 90.0373 539.158 89.5573 539.265 88.96H540.817C540.71 89.568 540.47 90.112 540.097 90.592C539.734 91.072 539.259 91.4453 538.673 91.712C538.086 91.9787 537.425 92.112 536.689 92.112C535.846 92.112 535.099 91.9307 534.449 91.568C533.798 91.2053 533.286 90.688 532.913 90.016C532.55 89.3333 532.369 88.5333 532.369 87.616C532.369 86.6987 532.55 85.8987 532.913 85.216C533.286 84.5333 533.798 84.0107 534.449 83.648C535.099 83.2853 535.846 83.104 536.689 83.104C537.542 83.104 538.283 83.2853 538.913 83.648C539.553 84.0107 540.038 84.496 540.369 85.104C540.71 85.712 540.881 86.384 540.881 87.12ZM539.409 87.216C539.441 86.5653 539.334 86.0213 539.089 85.584C538.843 85.1467 538.507 84.8213 538.081 84.608C537.654 84.3947 537.19 84.288 536.689 84.288C535.889 84.288 535.217 84.5387 534.673 85.04C534.129 85.5307 533.835 86.256 533.793 87.216H539.409ZM546.977 90.72V92H545.889C544.993 92 544.321 91.7867 543.873 91.36C543.436 90.9333 543.217 90.2187 543.217 89.216V84.48H541.905V83.216H543.217V81.024H544.689V83.216H546.961V84.48H544.689V89.248C544.689 89.8133 544.791 90.2027 544.993 90.416C545.207 90.6187 545.569 90.72 546.081 90.72H546.977ZM552.642 83.104C553.762 83.104 554.69 83.4027 555.426 84C556.162 84.5973 556.615 85.3973 556.786 86.4H555.25C555.143 85.7707 554.85 85.28 554.37 84.928C553.901 84.5653 553.314 84.384 552.61 84.384C552.098 84.384 551.629 84.5013 551.202 84.736C550.786 84.9707 550.45 85.3333 550.194 85.824C549.938 86.304 549.81 86.9013 549.81 87.616C549.81 88.3307 549.938 88.9333 550.194 89.424C550.45 89.904 550.786 90.2613 551.202 90.496C551.629 90.7307 552.098 90.848 552.61 90.848C553.314 90.848 553.901 90.6667 554.37 90.304C554.85 89.9413 555.143 89.4453 555.25 88.816H556.786C556.615 89.8293 556.162 90.6347 555.426 91.232C554.69 91.8187 553.762 92.112 552.642 92.112C551.799 92.112 551.053 91.9307 550.402 91.568C549.751 91.2053 549.239 90.688 548.866 90.016C548.503 89.3333 548.322 88.5333 548.322 87.616C548.322 86.6987 548.503 85.8987 548.866 85.216C549.239 84.5333 549.751 84.0107 550.402 83.648C551.053 83.2853 551.799 83.104 552.642 83.104ZM559.763 90.288V92H558.003V90.288H559.763ZM579.251 80.72L576.387 92H574.611L572.003 82.784L569.395 92H567.619L564.739 80.72H566.355L568.515 90.304L571.187 80.72H572.803L575.475 90.272L577.651 80.72H579.251ZM589.037 87.12C589.037 87.4293 589.016 87.696 588.973 87.92H581.949C581.981 88.9227 582.264 89.6747 582.797 90.176C583.341 90.6773 584.002 90.928 584.781 90.928C585.485 90.928 586.072 90.752 586.541 90.4C587.021 90.0373 587.314 89.5573 587.421 88.96H588.973C588.866 89.568 588.626 90.112 588.253 90.592C587.89 91.072 587.416 91.4453 586.829 91.712C586.242 91.9787 585.581 92.112 584.845 92.112C584.002 92.112 583.256 91.9307 582.605 91.568C581.954 91.2053 581.442 90.688 581.069 90.016C580.706 89.3333 580.525 88.5333 580.525 87.616C580.525 86.6987 580.706 85.8987 581.069 85.216C581.442 84.5333 581.954 84.0107 582.605 83.648C583.256 83.2853 584.002 83.104 584.845 83.104C585.698 83.104 586.44 83.2853 587.069 83.648C587.709 84.0107 588.194 84.496 588.525 85.104C588.866 85.712 589.037 86.384 589.037 87.12ZM587.565 87.216C587.597 86.5653 587.49 86.0213 587.245 85.584C587 85.1467 586.664 84.8213 586.237 84.608C585.81 84.3947 585.346 84.288 584.845 84.288C584.045 84.288 583.373 84.5387 582.829 85.04C582.285 85.5307 581.992 86.256 581.949 87.216H587.565ZM599.519 83.072C600.543 83.072 601.369 83.4027 601.999 84.064C602.628 84.7147 602.943 85.6587 602.943 86.896V92H601.487V87.024C601.487 86.1493 601.263 85.4773 600.815 85.008C600.367 84.5387 599.759 84.304 598.991 84.304C598.191 84.304 597.551 84.5653 597.071 85.088C596.591 85.6 596.351 86.352 596.351 87.344V92H594.895V80.16H596.351V85.296C596.575 84.5813 596.969 84.032 597.535 83.648C598.111 83.264 598.772 83.072 599.519 83.072ZM608.776 83.104C609.629 83.104 610.349 83.3173 610.936 83.744C611.533 84.1707 611.949 84.7413 612.184 85.456V83.216H613.64V92H612.184V89.76C611.949 90.4747 611.533 91.0453 610.936 91.472C610.349 91.8987 609.629 92.112 608.776 92.112C607.997 92.112 607.304 91.9307 606.696 91.568C606.088 91.2053 605.608 90.688 605.256 90.016C604.914 89.3333 604.744 88.5333 604.744 87.616C604.744 86.6987 604.914 85.8987 605.256 85.216C605.608 84.5333 606.088 84.0107 606.696 83.648C607.304 83.2853 607.997 83.104 608.776 83.104ZM609.192 84.4C608.296 84.4 607.576 84.688 607.032 85.264C606.498 85.8293 606.232 86.6133 606.232 87.616C606.232 88.6187 606.498 89.408 607.032 89.984C607.576 90.5493 608.296 90.832 609.192 90.832C609.768 90.832 610.28 90.6987 610.728 90.432C611.186 90.1653 611.544 89.792 611.8 89.312C612.056 88.8213 612.184 88.256 612.184 87.616C612.184 86.976 612.056 86.4107 611.8 85.92C611.544 85.4293 611.186 85.056 610.728 84.8C610.28 84.5333 609.768 84.4 609.192 84.4ZM619.365 90.448L622.085 83.216H623.653L620.213 92H618.485L615.045 83.216H616.613L619.365 90.448ZM633.162 87.12C633.162 87.4293 633.141 87.696 633.098 87.92H626.074C626.106 88.9227 626.389 89.6747 626.922 90.176C627.466 90.6773 628.127 90.928 628.906 90.928C629.61 90.928 630.197 90.752 630.666 90.4C631.146 90.0373 631.439 89.5573 631.546 88.96H633.098C632.991 89.568 632.751 90.112 632.378 90.592C632.015 91.072 631.541 91.4453 630.954 91.712C630.367 91.9787 629.706 92.112 628.97 92.112C628.127 92.112 627.381 91.9307 626.73 91.568C626.079 91.2053 625.567 90.688 625.194 90.016C624.831 89.3333 624.65 88.5333 624.65 87.616C624.65 86.6987 624.831 85.8987 625.194 85.216C625.567 84.5333 626.079 84.0107 626.73 83.648C627.381 83.2853 628.127 83.104 628.97 83.104C629.823 83.104 630.565 83.2853 631.194 83.648C631.834 84.0107 632.319 84.496 632.65 85.104C632.991 85.712 633.162 86.384 633.162 87.12ZM631.69 87.216C631.722 86.5653 631.615 86.0213 631.37 85.584C631.125 85.1467 630.789 84.8213 630.362 84.608C629.935 84.3947 629.471 84.288 628.97 84.288C628.17 84.288 627.498 84.5387 626.954 85.04C626.41 85.5307 626.117 86.256 626.074 87.216H631.69ZM14.7883 109.072C15.8123 109.072 16.6336 109.403 17.2523 110.064C17.8816 110.715 18.1963 111.659 18.1963 112.896V118H16.7403V113.024C16.7403 112.16 16.527 111.499 16.1003 111.04C15.6843 110.581 15.1083 110.352 14.3723 110.352C13.6043 110.352 12.9856 110.608 12.5163 111.12C12.0576 111.621 11.8283 112.363 11.8283 113.344V118H10.3723V113.024C10.3723 112.16 10.159 111.499 9.73231 111.04C9.30565 110.581 8.72965 110.352 8.00431 110.352C7.22565 110.352 6.60165 110.608 6.13231 111.12C5.67365 111.621 5.44431 112.363 5.44431 113.344V118H3.98831V109.216H5.44431V111.216C5.65765 110.523 6.03631 109.995 6.58031 109.632C7.13498 109.259 7.76965 109.072 8.48431 109.072C9.23098 109.072 9.87631 109.264 10.4203 109.648C10.975 110.021 11.3696 110.576 11.6043 111.312C11.8496 110.597 12.2603 110.048 12.8363 109.664C13.4123 109.269 14.063 109.072 14.7883 109.072ZM24.4411 109.104C25.2837 109.104 26.0357 109.285 26.6971 109.648C27.3691 110.011 27.8917 110.533 28.2651 111.216C28.6491 111.899 28.8411 112.699 28.8411 113.616C28.8411 114.533 28.6491 115.333 28.2651 116.016C27.8917 116.688 27.3691 117.205 26.6971 117.568C26.0357 117.931 25.2837 118.112 24.4411 118.112C23.5984 118.112 22.8411 117.931 22.1691 117.568C21.5077 117.205 20.9851 116.688 20.6011 116.016C20.2171 115.333 20.0251 114.533 20.0251 113.616C20.0251 112.699 20.2171 111.899 20.6011 111.216C20.9851 110.533 21.5077 110.011 22.1691 109.648C22.8411 109.285 23.5984 109.104 24.4411 109.104ZM24.4411 110.384C23.9184 110.384 23.4331 110.501 22.9851 110.736C22.5477 110.971 22.1904 111.333 21.9131 111.824C21.6464 112.304 21.5131 112.901 21.5131 113.616C21.5131 114.32 21.6464 114.917 21.9131 115.408C22.1904 115.888 22.5477 116.245 22.9851 116.48C23.4331 116.715 23.9184 116.832 24.4411 116.832C24.9637 116.832 25.4437 116.715 25.8811 116.48C26.3291 116.245 26.6864 115.888 26.9531 115.408C27.2304 114.917 27.3691 114.32 27.3691 113.616C27.3691 112.901 27.2304 112.304 26.9531 111.824C26.6864 111.333 26.3291 110.971 25.8811 110.736C25.4437 110.501 24.9637 110.384 24.4411 110.384ZM32.1943 110.992C32.4823 110.384 32.9036 109.915 33.4583 109.584C34.013 109.243 34.6743 109.072 35.4423 109.072V110.656H34.9943C34.173 110.656 33.501 110.869 32.9783 111.296C32.4556 111.712 32.1943 112.405 32.1943 113.376V118H30.7383V109.216H32.1943V110.992ZM44.9589 113.12C44.9589 113.429 44.9376 113.696 44.8949 113.92H37.8709C37.9029 114.923 38.1856 115.675 38.7189 116.176C39.2629 116.677 39.9243 116.928 40.7029 116.928C41.4069 116.928 41.9936 116.752 42.4629 116.4C42.9429 116.037 43.2363 115.557 43.3429 114.96H44.8949C44.7883 115.568 44.5483 116.112 44.1749 116.592C43.8123 117.072 43.3376 117.445 42.7509 117.712C42.1643 117.979 41.5029 118.112 40.7669 118.112C39.9243 118.112 39.1776 117.931 38.5269 117.568C37.8763 117.205 37.3643 116.688 36.9909 116.016C36.6283 115.333 36.4469 114.533 36.4469 113.616C36.4469 112.699 36.6283 111.899 36.9909 111.216C37.3643 110.533 37.8763 110.011 38.5269 109.648C39.1776 109.285 39.9243 109.104 40.7669 109.104C41.6203 109.104 42.3616 109.285 42.9909 109.648C43.6309 110.011 44.1163 110.496 44.4469 111.104C44.7883 111.712 44.9589 112.384 44.9589 113.12ZM43.4869 113.216C43.5189 112.565 43.4123 112.021 43.1669 111.584C42.9216 111.147 42.5856 110.821 42.1589 110.608C41.7323 110.395 41.2683 110.288 40.7669 110.288C39.9669 110.288 39.2949 110.539 38.7509 111.04C38.2069 111.531 37.9136 112.256 37.8709 113.216H43.4869ZM55.0084 116.72V118H53.9204C53.0244 118 52.3524 117.787 51.9044 117.36C51.4671 116.933 51.2484 116.219 51.2484 115.216V110.48H49.9364V109.216H51.2484V107.024H52.7204V109.216H54.9924V110.48H52.7204V115.248C52.7204 115.813 52.8218 116.203 53.0244 116.416C53.2378 116.619 53.6004 116.72 54.1124 116.72H55.0084ZM61.4092 109.072C62.4332 109.072 63.2599 109.403 63.8892 110.064C64.5185 110.715 64.8332 111.659 64.8332 112.896V118H63.3772V113.024C63.3772 112.149 63.1532 111.477 62.7052 111.008C62.2572 110.539 61.6492 110.304 60.8812 110.304C60.0812 110.304 59.4412 110.565 58.9612 111.088C58.4812 111.6 58.2412 112.352 58.2412 113.344V118H56.7852V106.16H58.2412V111.296C58.4652 110.581 58.8599 110.032 59.4252 109.648C60.0012 109.264 60.6625 109.072 61.4092 109.072ZM70.6664 109.104C71.5198 109.104 72.2398 109.317 72.8264 109.744C73.4238 110.171 73.8398 110.741 74.0744 111.456V109.216H75.5304V118H74.0744V115.76C73.8398 116.475 73.4238 117.045 72.8264 117.472C72.2398 117.899 71.5198 118.112 70.6664 118.112C69.8878 118.112 69.1944 117.931 68.5864 117.568C67.9784 117.205 67.4984 116.688 67.1464 116.016C66.8051 115.333 66.6344 114.533 66.6344 113.616C66.6344 112.699 66.8051 111.899 67.1464 111.216C67.4984 110.533 67.9784 110.011 68.5864 109.648C69.1944 109.285 69.8878 109.104 70.6664 109.104ZM71.0824 110.4C70.1864 110.4 69.4664 110.688 68.9224 111.264C68.3891 111.829 68.1224 112.613 68.1224 113.616C68.1224 114.619 68.3891 115.408 68.9224 115.984C69.4664 116.549 70.1864 116.832 71.0824 116.832C71.6584 116.832 72.1704 116.699 72.6184 116.432C73.0771 116.165 73.4344 115.792 73.6904 115.312C73.9464 114.821 74.0744 114.256 74.0744 113.616C74.0744 112.976 73.9464 112.411 73.6904 111.92C73.4344 111.429 73.0771 111.056 72.6184 110.8C72.1704 110.533 71.6584 110.4 71.0824 110.4ZM82.4717 109.072C83.4957 109.072 84.3224 109.403 84.9517 110.064C85.581 110.715 85.8957 111.659 85.8957 112.896V118H84.4397V113.024C84.4397 112.149 84.2157 111.477 83.7677 111.008C83.3197 110.539 82.7117 110.304 81.9437 110.304C81.1437 110.304 80.5037 110.565 80.0237 111.088C79.5437 111.6 79.3037 112.352 79.3037 113.344V118H77.8477V109.216H79.3037V111.296C79.5277 110.581 79.9224 110.032 80.4877 109.648C81.0637 109.264 81.725 109.072 82.4717 109.072ZM91.1221 108.08V106.72H94.3541V118H92.8181V108.08H91.1221ZM96.4198 112.288C96.4198 114.101 96.7185 115.515 97.3158 116.528C97.9131 117.541 98.9478 118.048 100.42 118.048C101.892 118.048 102.926 117.541 103.524 116.528C104.132 115.515 104.436 114.101 104.436 112.288C104.436 110.496 104.132 109.093 103.524 108.08C102.926 107.067 101.892 106.56 100.42 106.56C98.9478 106.56 97.9131 107.067 97.3158 108.08C96.7185 109.083 96.4198 110.485 96.4198 112.288ZM102.996 112.288C102.996 113.216 102.926 113.995 102.788 114.624C102.66 115.243 102.409 115.739 102.036 116.112C101.662 116.485 101.124 116.672 100.42 116.672C99.7265 116.672 99.1931 116.485 98.8198 116.112C98.4465 115.739 98.1905 115.243 98.0518 114.624C97.9238 113.995 97.8598 113.216 97.8598 112.288C97.8598 111.371 97.9238 110.603 98.0518 109.984C98.1905 109.365 98.4465 108.875 98.8198 108.512C99.1931 108.139 99.7265 107.952 100.42 107.952C101.124 107.952 101.662 108.139 102.036 108.512C102.409 108.875 102.66 109.365 102.788 109.984C102.926 110.603 102.996 111.371 102.996 112.288ZM111.32 118L107.96 114.048V118H106.504V106.16H107.96V113.04L111.272 109.216H113.048L109.112 113.584L113.144 118H111.32ZM121.946 112.816H118.57V116.224H117.146V112.816H113.786V111.488H117.146V108.064H118.57V111.488H121.946V112.816ZM130.35 109.104C131.342 109.104 132.136 109.365 132.734 109.888C133.342 110.4 133.71 111.093 133.838 111.968H132.446C132.382 111.445 132.163 111.019 131.79 110.688C131.427 110.347 130.936 110.176 130.318 110.176C129.795 110.176 129.384 110.304 129.086 110.56C128.798 110.805 128.654 111.141 128.654 111.568C128.654 111.888 128.75 112.149 128.942 112.352C129.144 112.544 129.39 112.693 129.678 112.8C129.976 112.896 130.382 113.003 130.894 113.12C131.544 113.269 132.067 113.424 132.462 113.584C132.867 113.733 133.208 113.979 133.486 114.32C133.774 114.661 133.918 115.12 133.918 115.696C133.918 116.411 133.646 116.992 133.102 117.44C132.568 117.888 131.854 118.112 130.958 118.112C129.912 118.112 129.059 117.861 128.398 117.36C127.736 116.859 127.347 116.16 127.23 115.264H128.638C128.691 115.797 128.92 116.229 129.326 116.56C129.742 116.891 130.286 117.056 130.958 117.056C131.459 117.056 131.848 116.928 132.126 116.672C132.414 116.416 132.558 116.08 132.558 115.664C132.558 115.323 132.456 115.051 132.254 114.848C132.051 114.645 131.8 114.491 131.502 114.384C131.203 114.277 130.792 114.165 130.27 114.048C129.619 113.899 129.096 113.749 128.702 113.6C128.318 113.451 127.987 113.216 127.71 112.896C127.443 112.565 127.31 112.123 127.31 111.568C127.31 110.832 127.582 110.24 128.126 109.792C128.67 109.333 129.411 109.104 130.35 109.104ZM139.463 109.104C140.317 109.104 141.037 109.317 141.623 109.744C142.221 110.171 142.637 110.741 142.871 111.456V109.216H144.327V118H142.871V115.76C142.637 116.475 142.221 117.045 141.623 117.472C141.037 117.899 140.317 118.112 139.463 118.112C138.685 118.112 137.991 117.931 137.383 117.568C136.775 117.205 136.295 116.688 135.943 116.016C135.602 115.333 135.431 114.533 135.431 113.616C135.431 112.699 135.602 111.899 135.943 111.216C136.295 110.533 136.775 110.011 137.383 109.648C137.991 109.285 138.685 109.104 139.463 109.104ZM139.879 110.4C138.983 110.4 138.263 110.688 137.719 111.264C137.186 111.829 136.919 112.613 136.919 113.616C136.919 114.619 137.186 115.408 137.719 115.984C138.263 116.549 138.983 116.832 139.879 116.832C140.455 116.832 140.967 116.699 141.415 116.432C141.874 116.165 142.231 115.792 142.487 115.312C142.743 114.821 142.871 114.256 142.871 113.616C142.871 112.976 142.743 112.411 142.487 111.92C142.231 111.429 141.874 111.056 141.415 110.8C140.967 110.533 140.455 110.4 139.879 110.4ZM150.837 116.72V118H149.749C148.853 118 148.181 117.787 147.733 117.36C147.295 116.933 147.077 116.219 147.077 115.216V110.48H145.765V109.216H147.077V107.024H148.549V109.216H150.821V110.48H148.549V115.248C148.549 115.813 148.65 116.203 148.853 116.416C149.066 116.619 149.429 116.72 149.941 116.72H150.837ZM152.357 106.64C152.357 106.373 152.448 106.16 152.629 106C152.811 105.829 153.051 105.744 153.349 105.744C153.648 105.744 153.888 105.829 154.069 106C154.251 106.16 154.341 106.373 154.341 106.64C154.341 106.907 154.251 107.125 154.069 107.296C153.888 107.456 153.648 107.536 153.349 107.536C153.051 107.536 152.811 107.456 152.629 107.296C152.448 107.125 152.357 106.907 152.357 106.64ZM154.069 109.216V118H152.613V109.216H154.069ZM159.162 109.104C160.154 109.104 160.949 109.365 161.546 109.888C162.154 110.4 162.522 111.093 162.65 111.968H161.258C161.194 111.445 160.976 111.019 160.602 110.688C160.24 110.347 159.749 110.176 159.13 110.176C158.608 110.176 158.197 110.304 157.898 110.56C157.61 110.805 157.466 111.141 157.466 111.568C157.466 111.888 157.562 112.149 157.754 112.352C157.957 112.544 158.202 112.693 158.49 112.8C158.789 112.896 159.194 113.003 159.706 113.12C160.357 113.269 160.88 113.424 161.274 113.584C161.68 113.733 162.021 113.979 162.298 114.32C162.586 114.661 162.73 115.12 162.73 115.696C162.73 116.411 162.458 116.992 161.914 117.44C161.381 117.888 160.666 118.112 159.77 118.112C158.725 118.112 157.872 117.861 157.21 117.36C156.549 116.859 156.16 116.16 156.042 115.264H157.45C157.504 115.797 157.733 116.229 158.138 116.56C158.554 116.891 159.098 117.056 159.77 117.056C160.272 117.056 160.661 116.928 160.938 116.672C161.226 116.416 161.37 116.08 161.37 115.664C161.37 115.323 161.269 115.051 161.066 114.848C160.864 114.645 160.613 114.491 160.314 114.384C160.016 114.277 159.605 114.165 159.082 114.048C158.432 113.899 157.909 113.749 157.514 113.6C157.13 113.451 156.8 113.216 156.522 112.896C156.256 112.565 156.122 112.123 156.122 111.568C156.122 110.832 156.394 110.24 156.938 109.792C157.482 109.333 158.224 109.104 159.162 109.104ZM168.564 107.136C167.785 107.125 167.241 107.259 166.932 107.536C166.633 107.813 166.484 108.293 166.484 108.976V109.216H168.564V110.496H166.484V118H165.028V110.496H163.764V109.216H165.028V108.864C165.028 106.763 166.206 105.76 168.564 105.856V107.136ZM169.889 106.64C169.889 106.373 169.979 106.16 170.161 106C170.342 105.829 170.582 105.744 170.881 105.744C171.179 105.744 171.419 105.829 171.601 106C171.782 106.16 171.873 106.373 171.873 106.64C171.873 106.907 171.782 107.125 171.601 107.296C171.419 107.456 171.179 107.536 170.881 107.536C170.582 107.536 170.342 107.456 170.161 107.296C169.979 107.125 169.889 106.907 169.889 106.64ZM171.601 109.216V118H170.145V109.216H171.601ZM182.021 113.12C182.021 113.429 182 113.696 181.957 113.92H174.933C174.965 114.923 175.248 115.675 175.781 116.176C176.325 116.677 176.987 116.928 177.765 116.928C178.469 116.928 179.056 116.752 179.525 116.4C180.005 116.037 180.299 115.557 180.405 114.96H181.957C181.851 115.568 181.611 116.112 181.237 116.592C180.875 117.072 180.4 117.445 179.813 117.712C179.227 117.979 178.565 118.112 177.829 118.112C176.987 118.112 176.24 117.931 175.589 117.568C174.939 117.205 174.427 116.688 174.053 116.016C173.691 115.333 173.509 114.533 173.509 113.616C173.509 112.699 173.691 111.899 174.053 111.216C174.427 110.533 174.939 110.011 175.589 109.648C176.24 109.285 176.987 109.104 177.829 109.104C178.683 109.104 179.424 109.285 180.053 109.648C180.693 110.011 181.179 110.496 181.509 111.104C181.851 111.712 182.021 112.384 182.021 113.12ZM180.549 113.216C180.581 112.565 180.475 112.021 180.229 111.584C179.984 111.147 179.648 110.821 179.221 110.608C178.795 110.395 178.331 110.288 177.829 110.288C177.029 110.288 176.357 110.539 175.813 111.04C175.269 111.531 174.976 112.256 174.933 113.216H180.549ZM187.526 109.104C188.379 109.104 189.099 109.317 189.686 109.744C190.283 110.171 190.699 110.741 190.934 111.456V106.16H192.39V118H190.934V115.76C190.699 116.475 190.283 117.045 189.686 117.472C189.099 117.899 188.379 118.112 187.526 118.112C186.747 118.112 186.054 117.931 185.446 117.568C184.838 117.205 184.358 116.688 184.006 116.016C183.664 115.333 183.494 114.533 183.494 113.616C183.494 112.699 183.664 111.899 184.006 111.216C184.358 110.533 184.838 110.011 185.446 109.648C186.054 109.285 186.747 109.104 187.526 109.104ZM187.942 110.4C187.046 110.4 186.326 110.688 185.782 111.264C185.248 111.829 184.982 112.613 184.982 113.616C184.982 114.619 185.248 115.408 185.782 115.984C186.326 116.549 187.046 116.832 187.942 116.832C188.518 116.832 189.03 116.699 189.478 116.432C189.936 116.165 190.294 115.792 190.55 115.312C190.806 114.821 190.934 114.256 190.934 113.616C190.934 112.976 190.806 112.411 190.55 111.92C190.294 111.429 189.936 111.056 189.478 110.8C189.03 110.533 188.518 110.4 187.942 110.4ZM202.548 109.104C203.668 109.104 204.596 109.403 205.332 110C206.068 110.597 206.522 111.397 206.692 112.4H205.156C205.05 111.771 204.756 111.28 204.276 110.928C203.807 110.565 203.22 110.384 202.516 110.384C202.004 110.384 201.535 110.501 201.108 110.736C200.692 110.971 200.356 111.333 200.1 111.824C199.844 112.304 199.716 112.901 199.716 113.616C199.716 114.331 199.844 114.933 200.1 115.424C200.356 115.904 200.692 116.261 201.108 116.496C201.535 116.731 202.004 116.848 202.516 116.848C203.22 116.848 203.807 116.667 204.276 116.304C204.756 115.941 205.05 115.445 205.156 114.816H206.692C206.522 115.829 206.068 116.635 205.332 117.232C204.596 117.819 203.668 118.112 202.548 118.112C201.706 118.112 200.959 117.931 200.308 117.568C199.658 117.205 199.146 116.688 198.772 116.016C198.41 115.333 198.228 114.533 198.228 113.616C198.228 112.699 198.41 111.899 198.772 111.216C199.146 110.533 199.658 110.011 200.308 109.648C200.959 109.285 201.706 109.104 202.548 109.104ZM210.054 106.16V118H208.598V106.16H210.054ZM212.139 106.64C212.139 106.373 212.229 106.16 212.411 106C212.592 105.829 212.832 105.744 213.131 105.744C213.429 105.744 213.669 105.829 213.851 106C214.032 106.16 214.123 106.373 214.123 106.64C214.123 106.907 214.032 107.125 213.851 107.296C213.669 107.456 213.429 107.536 213.131 107.536C212.832 107.536 212.592 107.456 212.411 107.296C212.229 107.125 212.139 106.907 212.139 106.64ZM213.851 109.216V118H212.395V109.216H213.851ZM224.271 113.12C224.271 113.429 224.25 113.696 224.207 113.92H217.183C217.215 114.923 217.498 115.675 218.031 116.176C218.575 116.677 219.237 116.928 220.015 116.928C220.719 116.928 221.306 116.752 221.775 116.4C222.255 116.037 222.549 115.557 222.655 114.96H224.207C224.101 115.568 223.861 116.112 223.487 116.592C223.125 117.072 222.65 117.445 222.063 117.712C221.477 117.979 220.815 118.112 220.079 118.112C219.237 118.112 218.49 117.931 217.839 117.568C217.189 117.205 216.677 116.688 216.303 116.016C215.941 115.333 215.759 114.533 215.759 113.616C215.759 112.699 215.941 111.899 216.303 111.216C216.677 110.533 217.189 110.011 217.839 109.648C218.49 109.285 219.237 109.104 220.079 109.104C220.933 109.104 221.674 109.285 222.303 109.648C222.943 110.011 223.429 110.496 223.759 111.104C224.101 111.712 224.271 112.384 224.271 113.12ZM222.799 113.216C222.831 112.565 222.725 112.021 222.479 111.584C222.234 111.147 221.898 110.821 221.471 110.608C221.045 110.395 220.581 110.288 220.079 110.288C219.279 110.288 218.607 110.539 218.063 111.04C217.519 111.531 217.226 112.256 217.183 113.216H222.799ZM230.8 109.072C231.824 109.072 232.65 109.403 233.28 110.064C233.909 110.715 234.224 111.659 234.224 112.896V118H232.768V113.024C232.768 112.149 232.544 111.477 232.096 111.008C231.648 110.539 231.04 110.304 230.272 110.304C229.472 110.304 228.832 110.565 228.352 111.088C227.872 111.6 227.632 112.352 227.632 113.344V118H226.176V109.216H227.632V111.296C227.856 110.581 228.25 110.032 228.816 109.648C229.392 109.264 230.053 109.072 230.8 109.072ZM240.649 116.72V118H239.561C238.665 118 237.993 117.787 237.545 117.36C237.108 116.933 236.889 116.219 236.889 115.216V110.48H235.577V109.216H236.889V107.024H238.361V109.216H240.633V110.48H238.361V115.248C238.361 115.813 238.462 116.203 238.665 116.416C238.878 116.619 239.241 116.72 239.753 116.72H240.649ZM245.178 109.104C246.17 109.104 246.964 109.365 247.562 109.888C248.17 110.4 248.538 111.093 248.666 111.968H247.274C247.21 111.445 246.991 111.019 246.618 110.688C246.255 110.347 245.764 110.176 245.146 110.176C244.623 110.176 244.212 110.304 243.914 110.56C243.626 110.805 243.482 111.141 243.482 111.568C243.482 111.888 243.578 112.149 243.77 112.352C243.972 112.544 244.218 112.693 244.506 112.8C244.804 112.896 245.21 113.003 245.722 113.12C246.372 113.269 246.895 113.424 247.29 113.584C247.695 113.733 248.036 113.979 248.314 114.32C248.602 114.661 248.746 115.12 248.746 115.696C248.746 116.411 248.474 116.992 247.93 117.44C247.396 117.888 246.682 118.112 245.786 118.112C244.74 118.112 243.887 117.861 243.226 117.36C242.564 116.859 242.175 116.16 242.058 115.264H243.466C243.519 115.797 243.748 116.229 244.154 116.56C244.57 116.891 245.114 117.056 245.786 117.056C246.287 117.056 246.676 116.928 246.954 116.672C247.242 116.416 247.386 116.08 247.386 115.664C247.386 115.323 247.284 115.051 247.082 114.848C246.879 114.645 246.628 114.491 246.33 114.384C246.031 114.277 245.62 114.165 245.098 114.048C244.447 113.899 243.924 113.749 243.53 113.6C243.146 113.451 242.815 113.216 242.538 112.896C242.271 112.565 242.138 112.123 242.138 111.568C242.138 110.832 242.41 110.24 242.954 109.792C243.498 109.333 244.239 109.104 245.178 109.104ZM251.763 116.288V118H250.003V116.288H251.763ZM271.251 106.72L268.387 118H266.611L264.003 108.784L261.395 118H259.619L256.739 106.72H258.355L260.515 116.304L263.187 106.72H264.803L267.475 116.272L269.651 106.72H271.251ZM281.037 113.12C281.037 113.429 281.016 113.696 280.973 113.92H273.949C273.981 114.923 274.264 115.675 274.797 116.176C275.341 116.677 276.002 116.928 276.781 116.928C277.485 116.928 278.072 116.752 278.541 116.4C279.021 116.037 279.314 115.557 279.421 114.96H280.973C280.866 115.568 280.626 116.112 280.253 116.592C279.89 117.072 279.416 117.445 278.829 117.712C278.242 117.979 277.581 118.112 276.845 118.112C276.002 118.112 275.256 117.931 274.605 117.568C273.954 117.205 273.442 116.688 273.069 116.016C272.706 115.333 272.525 114.533 272.525 113.616C272.525 112.699 272.706 111.899 273.069 111.216C273.442 110.533 273.954 110.011 274.605 109.648C275.256 109.285 276.002 109.104 276.845 109.104C277.698 109.104 278.44 109.285 279.069 109.648C279.709 110.011 280.194 110.496 280.525 111.104C280.866 111.712 281.037 112.384 281.037 113.12ZM279.565 113.216C279.597 112.565 279.49 112.021 279.245 111.584C279 111.147 278.664 110.821 278.237 110.608C277.81 110.395 277.346 110.288 276.845 110.288C276.045 110.288 275.373 110.539 274.829 111.04C274.285 111.531 273.992 112.256 273.949 113.216H279.565ZM290.495 109.104C291.348 109.104 292.068 109.317 292.655 109.744C293.252 110.171 293.668 110.741 293.903 111.456V109.216H295.359V118H293.903V115.76C293.668 116.475 293.252 117.045 292.655 117.472C292.068 117.899 291.348 118.112 290.495 118.112C289.716 118.112 289.023 117.931 288.415 117.568C287.807 117.205 287.327 116.688 286.975 116.016C286.633 115.333 286.463 114.533 286.463 113.616C286.463 112.699 286.633 111.899 286.975 111.216C287.327 110.533 287.807 110.011 288.415 109.648C289.023 109.285 289.716 109.104 290.495 109.104ZM290.911 110.4C290.015 110.4 289.295 110.688 288.751 111.264C288.217 111.829 287.951 112.613 287.951 113.616C287.951 114.619 288.217 115.408 288.751 115.984C289.295 116.549 290.015 116.832 290.911 116.832C291.487 116.832 291.999 116.699 292.447 116.432C292.905 116.165 293.263 115.792 293.519 115.312C293.775 114.821 293.903 114.256 293.903 113.616C293.903 112.976 293.775 112.411 293.519 111.92C293.263 111.429 292.905 111.056 292.447 110.8C291.999 110.533 291.487 110.4 290.911 110.4ZM299.132 110.992C299.42 110.384 299.841 109.915 300.396 109.584C300.95 109.243 301.612 109.072 302.38 109.072V110.656H301.932C301.11 110.656 300.438 110.869 299.916 111.296C299.393 111.712 299.132 112.405 299.132 113.376V118H297.676V109.216H299.132V110.992ZM311.896 113.12C311.896 113.429 311.875 113.696 311.832 113.92H304.808C304.84 114.923 305.123 115.675 305.656 116.176C306.2 116.677 306.862 116.928 307.64 116.928C308.344 116.928 308.931 116.752 309.4 116.4C309.88 116.037 310.174 115.557 310.28 114.96H311.832C311.726 115.568 311.486 116.112 311.112 116.592C310.75 117.072 310.275 117.445 309.688 117.712C309.102 117.979 308.44 118.112 307.704 118.112C306.862 118.112 306.115 117.931 305.464 117.568C304.814 117.205 304.302 116.688 303.928 116.016C303.566 115.333 303.384 114.533 303.384 113.616C303.384 112.699 303.566 111.899 303.928 111.216C304.302 110.533 304.814 110.011 305.464 109.648C306.115 109.285 306.862 109.104 307.704 109.104C308.558 109.104 309.299 109.285 309.928 109.648C310.568 110.011 311.054 110.496 311.384 111.104C311.726 111.712 311.896 112.384 311.896 113.12ZM310.424 113.216C310.456 112.565 310.35 112.021 310.104 111.584C309.859 111.147 309.523 110.821 309.096 110.608C308.67 110.395 308.206 110.288 307.704 110.288C306.904 110.288 306.232 110.539 305.688 111.04C305.144 111.531 304.851 112.256 304.808 113.216H310.424ZM321.946 116.72V118H320.858C319.962 118 319.29 117.787 318.842 117.36C318.405 116.933 318.186 116.219 318.186 115.216V110.48H316.874V109.216H318.186V107.024H319.658V109.216H321.93V110.48H319.658V115.248C319.658 115.813 319.759 116.203 319.962 116.416C320.175 116.619 320.538 116.72 321.05 116.72H321.946ZM328.347 109.072C329.371 109.072 330.197 109.403 330.827 110.064C331.456 110.715 331.771 111.659 331.771 112.896V118H330.315V113.024C330.315 112.149 330.091 111.477 329.643 111.008C329.195 110.539 328.587 110.304 327.819 110.304C327.019 110.304 326.379 110.565 325.899 111.088C325.419 111.6 325.179 112.352 325.179 113.344V118H323.723V106.16H325.179V111.296C325.403 110.581 325.797 110.032 326.363 109.648C326.939 109.264 327.6 109.072 328.347 109.072ZM342.084 113.12C342.084 113.429 342.063 113.696 342.02 113.92H334.996C335.028 114.923 335.311 115.675 335.844 116.176C336.388 116.677 337.049 116.928 337.828 116.928C338.532 116.928 339.119 116.752 339.588 116.4C340.068 116.037 340.361 115.557 340.468 114.96H342.02C341.913 115.568 341.673 116.112 341.3 116.592C340.937 117.072 340.463 117.445 339.876 117.712C339.289 117.979 338.628 118.112 337.892 118.112C337.049 118.112 336.303 117.931 335.652 117.568C335.001 117.205 334.489 116.688 334.116 116.016C333.753 115.333 333.572 114.533 333.572 113.616C333.572 112.699 333.753 111.899 334.116 111.216C334.489 110.533 335.001 110.011 335.652 109.648C336.303 109.285 337.049 109.104 337.892 109.104C338.745 109.104 339.487 109.285 340.116 109.648C340.756 110.011 341.241 110.496 341.572 111.104C341.913 111.712 342.084 112.384 342.084 113.12ZM340.612 113.216C340.644 112.565 340.537 112.021 340.292 111.584C340.047 111.147 339.711 110.821 339.284 110.608C338.857 110.395 338.393 110.288 337.892 110.288C337.092 110.288 336.42 110.539 335.876 111.04C335.332 111.531 335.039 112.256 334.996 113.216H340.612ZM352.789 109.104C353.568 109.104 354.261 109.285 354.869 109.648C355.477 110.011 355.952 110.533 356.293 111.216C356.645 111.899 356.821 112.699 356.821 113.616C356.821 114.533 356.645 115.333 356.293 116.016C355.952 116.688 355.477 117.205 354.869 117.568C354.261 117.931 353.568 118.112 352.789 118.112C351.936 118.112 351.211 117.899 350.613 117.472C350.027 117.035 349.621 116.464 349.397 115.76V118H347.941V106.16H349.397V111.456C349.621 110.752 350.027 110.187 350.613 109.76C351.211 109.323 351.936 109.104 352.789 109.104ZM352.373 110.4C351.808 110.4 351.296 110.533 350.837 110.8C350.379 111.056 350.021 111.429 349.765 111.92C349.509 112.411 349.381 112.976 349.381 113.616C349.381 114.256 349.509 114.821 349.765 115.312C350.021 115.792 350.379 116.165 350.837 116.432C351.296 116.699 351.808 116.832 352.373 116.832C353.28 116.832 354 116.549 354.533 115.984C355.077 115.408 355.349 114.619 355.349 113.616C355.349 112.613 355.077 111.829 354.533 111.264C354 110.688 353.28 110.4 352.373 110.4ZM366.803 113.12C366.803 113.429 366.781 113.696 366.739 113.92H359.715C359.747 114.923 360.029 115.675 360.563 116.176C361.107 116.677 361.768 116.928 362.547 116.928C363.251 116.928 363.837 116.752 364.307 116.4C364.787 116.037 365.08 115.557 365.187 114.96H366.739C366.632 115.568 366.392 116.112 366.019 116.592C365.656 117.072 365.181 117.445 364.595 117.712C364.008 117.979 363.347 118.112 362.611 118.112C361.768 118.112 361.021 117.931 360.371 117.568C359.72 117.205 359.208 116.688 358.835 116.016C358.472 115.333 358.291 114.533 358.291 113.616C358.291 112.699 358.472 111.899 358.835 111.216C359.208 110.533 359.72 110.011 360.371 109.648C361.021 109.285 361.768 109.104 362.611 109.104C363.464 109.104 364.205 109.285 364.835 109.648C365.475 110.011 365.96 110.496 366.291 111.104C366.632 111.712 366.803 112.384 366.803 113.12ZM365.331 113.216C365.363 112.565 365.256 112.021 365.011 111.584C364.765 111.147 364.429 110.821 364.003 110.608C363.576 110.395 363.112 110.288 362.611 110.288C361.811 110.288 361.139 110.539 360.595 111.04C360.051 111.531 359.757 112.256 359.715 113.216H365.331ZM371.459 109.104C372.451 109.104 373.246 109.365 373.843 109.888C374.451 110.4 374.819 111.093 374.947 111.968H373.555C373.491 111.445 373.272 111.019 372.899 110.688C372.536 110.347 372.046 110.176 371.427 110.176C370.904 110.176 370.494 110.304 370.195 110.56C369.907 110.805 369.763 111.141 369.763 111.568C369.763 111.888 369.859 112.149 370.051 112.352C370.254 112.544 370.499 112.693 370.787 112.8C371.086 112.896 371.491 113.003 372.003 113.12C372.654 113.269 373.176 113.424 373.571 113.584C373.976 113.733 374.318 113.979 374.595 114.32C374.883 114.661 375.027 115.12 375.027 115.696C375.027 116.411 374.755 116.992 374.211 117.44C373.678 117.888 372.963 118.112 372.067 118.112C371.022 118.112 370.168 117.861 369.507 117.36C368.846 116.859 368.456 116.16 368.339 115.264H369.747C369.8 115.797 370.03 116.229 370.435 116.56C370.851 116.891 371.395 117.056 372.067 117.056C372.568 117.056 372.958 116.928 373.235 116.672C373.523 116.416 373.667 116.08 373.667 115.664C373.667 115.323 373.566 115.051 373.363 114.848C373.16 114.645 372.91 114.491 372.611 114.384C372.312 114.277 371.902 114.165 371.379 114.048C370.728 113.899 370.206 113.749 369.811 113.6C369.427 113.451 369.096 113.216 368.819 112.896C368.552 112.565 368.419 112.123 368.419 111.568C368.419 110.832 368.691 110.24 369.235 109.792C369.779 109.333 370.52 109.104 371.459 109.104ZM381.165 116.72V118H380.077C379.181 118 378.509 117.787 378.061 117.36C377.623 116.933 377.405 116.219 377.405 115.216V110.48H376.093V109.216H377.405V107.024H378.877V109.216H381.149V110.48H378.877V115.248C378.877 115.813 378.978 116.203 379.181 116.416C379.394 116.619 379.757 116.72 380.269 116.72H381.165ZM389.647 109.104C390.639 109.104 391.433 109.365 392.031 109.888C392.639 110.4 393.007 111.093 393.135 111.968H391.743C391.679 111.445 391.46 111.019 391.087 110.688C390.724 110.347 390.233 110.176 389.615 110.176C389.092 110.176 388.681 110.304 388.383 110.56C388.095 110.805 387.951 111.141 387.951 111.568C387.951 111.888 388.047 112.149 388.239 112.352C388.441 112.544 388.687 112.693 388.975 112.8C389.273 112.896 389.679 113.003 390.191 113.12C390.841 113.269 391.364 113.424 391.759 113.584C392.164 113.733 392.505 113.979 392.783 114.32C393.071 114.661 393.215 115.12 393.215 115.696C393.215 116.411 392.943 116.992 392.399 117.44C391.865 117.888 391.151 118.112 390.255 118.112C389.209 118.112 388.356 117.861 387.695 117.36C387.033 116.859 386.644 116.16 386.527 115.264H387.935C387.988 115.797 388.217 116.229 388.623 116.56C389.039 116.891 389.583 117.056 390.255 117.056C390.756 117.056 391.145 116.928 391.423 116.672C391.711 116.416 391.855 116.08 391.855 115.664C391.855 115.323 391.753 115.051 391.551 114.848C391.348 114.645 391.097 114.491 390.799 114.384C390.5 114.277 390.089 114.165 389.567 114.048C388.916 113.899 388.393 113.749 387.999 113.6C387.615 113.451 387.284 113.216 387.007 112.896C386.74 112.565 386.607 112.123 386.607 111.568C386.607 110.832 386.879 110.24 387.423 109.792C387.967 109.333 388.708 109.104 389.647 109.104ZM399.144 109.104C399.987 109.104 400.739 109.285 401.4 109.648C402.072 110.011 402.595 110.533 402.968 111.216C403.352 111.899 403.544 112.699 403.544 113.616C403.544 114.533 403.352 115.333 402.968 116.016C402.595 116.688 402.072 117.205 401.4 117.568C400.739 117.931 399.987 118.112 399.144 118.112C398.302 118.112 397.544 117.931 396.872 117.568C396.211 117.205 395.688 116.688 395.304 116.016C394.92 115.333 394.728 114.533 394.728 113.616C394.728 112.699 394.92 111.899 395.304 111.216C395.688 110.533 396.211 110.011 396.872 109.648C397.544 109.285 398.302 109.104 399.144 109.104ZM399.144 110.384C398.622 110.384 398.136 110.501 397.688 110.736C397.251 110.971 396.894 111.333 396.616 111.824C396.35 112.304 396.216 112.901 396.216 113.616C396.216 114.32 396.35 114.917 396.616 115.408C396.894 115.888 397.251 116.245 397.688 116.48C398.136 116.715 398.622 116.832 399.144 116.832C399.667 116.832 400.147 116.715 400.584 116.48C401.032 116.245 401.39 115.888 401.656 115.408C401.934 114.917 402.072 114.32 402.072 113.616C402.072 112.901 401.934 112.304 401.656 111.824C401.39 111.333 401.032 110.971 400.584 110.736C400.147 110.501 399.667 110.384 399.144 110.384ZM409.329 107.136C408.551 107.125 408.007 107.259 407.697 107.536C407.399 107.813 407.249 108.293 407.249 108.976V109.216H409.329V110.496H407.249V118H405.793V110.496H404.529V109.216H405.793V108.864C405.793 106.763 406.972 105.76 409.329 105.856V107.136ZM415.102 116.72V118H414.014C413.118 118 412.446 117.787 411.998 117.36C411.561 116.933 411.342 116.219 411.342 115.216V110.48H410.03V109.216H411.342V107.024H412.814V109.216H415.086V110.48H412.814V115.248C412.814 115.813 412.916 116.203 413.118 116.416C413.332 116.619 413.694 116.72 414.206 116.72H415.102ZM428.943 109.216L426.415 118H424.847L422.431 110.848L419.999 118H418.415L415.919 109.216H417.391L419.263 116.608L421.695 109.216H423.215L425.663 116.592L427.551 109.216H428.943ZM433.901 109.104C434.754 109.104 435.474 109.317 436.061 109.744C436.658 110.171 437.074 110.741 437.309 111.456V109.216H438.765V118H437.309V115.76C437.074 116.475 436.658 117.045 436.061 117.472C435.474 117.899 434.754 118.112 433.901 118.112C433.122 118.112 432.429 117.931 431.821 117.568C431.213 117.205 430.733 116.688 430.381 116.016C430.039 115.333 429.869 114.533 429.869 113.616C429.869 112.699 430.039 111.899 430.381 111.216C430.733 110.533 431.213 110.011 431.821 109.648C432.429 109.285 433.122 109.104 433.901 109.104ZM434.317 110.4C433.421 110.4 432.701 110.688 432.157 111.264C431.623 111.829 431.357 112.613 431.357 113.616C431.357 114.619 431.623 115.408 432.157 115.984C432.701 116.549 433.421 116.832 434.317 116.832C434.893 116.832 435.405 116.699 435.853 116.432C436.311 116.165 436.669 115.792 436.925 115.312C437.181 114.821 437.309 114.256 437.309 113.616C437.309 112.976 437.181 112.411 436.925 111.92C436.669 111.429 436.311 111.056 435.853 110.8C435.405 110.533 434.893 110.4 434.317 110.4ZM442.538 110.992C442.826 110.384 443.247 109.915 443.802 109.584C444.357 109.243 445.018 109.072 445.786 109.072V110.656H445.338C444.517 110.656 443.845 110.869 443.322 111.296C442.799 111.712 442.538 112.405 442.538 113.376V118H441.082V109.216H442.538V110.992ZM455.303 113.12C455.303 113.429 455.281 113.696 455.239 113.92H448.215C448.247 114.923 448.529 115.675 449.063 116.176C449.607 116.677 450.268 116.928 451.047 116.928C451.751 116.928 452.337 116.752 452.807 116.4C453.287 116.037 453.58 115.557 453.687 114.96H455.239C455.132 115.568 454.892 116.112 454.519 116.592C454.156 117.072 453.681 117.445 453.095 117.712C452.508 117.979 451.847 118.112 451.111 118.112C450.268 118.112 449.521 117.931 448.871 117.568C448.22 117.205 447.708 116.688 447.335 116.016C446.972 115.333 446.791 114.533 446.791 113.616C446.791 112.699 446.972 111.899 447.335 111.216C447.708 110.533 448.22 110.011 448.871 109.648C449.521 109.285 450.268 109.104 451.111 109.104C451.964 109.104 452.705 109.285 453.335 109.648C453.975 110.011 454.46 110.496 454.791 111.104C455.132 111.712 455.303 112.384 455.303 113.12ZM453.831 113.216C453.863 112.565 453.756 112.021 453.511 111.584C453.265 111.147 452.929 110.821 452.503 110.608C452.076 110.395 451.612 110.288 451.111 110.288C450.311 110.288 449.639 110.539 449.095 111.04C448.551 111.531 448.257 112.256 448.215 113.216H453.831ZM465.784 109.072C466.808 109.072 467.635 109.403 468.264 110.064C468.894 110.715 469.208 111.659 469.208 112.896V118H467.752V113.024C467.752 112.149 467.528 111.477 467.08 111.008C466.632 110.539 466.024 110.304 465.256 110.304C464.456 110.304 463.816 110.565 463.336 111.088C462.856 111.6 462.616 112.352 462.616 113.344V118H461.16V106.16H462.616V111.296C462.84 110.581 463.235 110.032 463.8 109.648C464.376 109.264 465.038 109.072 465.784 109.072ZM475.425 109.104C476.268 109.104 477.02 109.285 477.681 109.648C478.353 110.011 478.876 110.533 479.249 111.216C479.633 111.899 479.825 112.699 479.825 113.616C479.825 114.533 479.633 115.333 479.249 116.016C478.876 116.688 478.353 117.205 477.681 117.568C477.02 117.931 476.268 118.112 475.425 118.112C474.583 118.112 473.825 117.931 473.153 117.568C472.492 117.205 471.969 116.688 471.585 116.016C471.201 115.333 471.009 114.533 471.009 113.616C471.009 112.699 471.201 111.899 471.585 111.216C471.969 110.533 472.492 110.011 473.153 109.648C473.825 109.285 474.583 109.104 475.425 109.104ZM475.425 110.384C474.903 110.384 474.417 110.501 473.969 110.736C473.532 110.971 473.175 111.333 472.897 111.824C472.631 112.304 472.497 112.901 472.497 113.616C472.497 114.32 472.631 114.917 472.897 115.408C473.175 115.888 473.532 116.245 473.969 116.48C474.417 116.715 474.903 116.832 475.425 116.832C475.948 116.832 476.428 116.715 476.865 116.48C477.313 116.245 477.671 115.888 477.937 115.408C478.215 114.917 478.353 114.32 478.353 113.616C478.353 112.901 478.215 112.304 477.937 111.824C477.671 111.333 477.313 110.971 476.865 110.736C476.428 110.501 475.948 110.384 475.425 110.384ZM489.531 109.216V118H488.075V115.936C487.851 116.651 487.451 117.2 486.875 117.584C486.309 117.957 485.648 118.144 484.891 118.144C483.877 118.144 483.056 117.819 482.427 117.168C481.797 116.507 481.483 115.563 481.483 114.336V109.216H482.939V114.192C482.939 115.067 483.163 115.744 483.611 116.224C484.059 116.693 484.667 116.928 485.435 116.928C486.235 116.928 486.875 116.672 487.355 116.16C487.835 115.637 488.075 114.88 488.075 113.888V109.216H489.531ZM494.615 109.104C495.607 109.104 496.402 109.365 496.999 109.888C497.607 110.4 497.975 111.093 498.103 111.968H496.711C496.647 111.445 496.429 111.019 496.055 110.688C495.693 110.347 495.202 110.176 494.583 110.176C494.061 110.176 493.65 110.304 493.351 110.56C493.063 110.805 492.919 111.141 492.919 111.568C492.919 111.888 493.015 112.149 493.207 112.352C493.41 112.544 493.655 112.693 493.943 112.8C494.242 112.896 494.647 113.003 495.159 113.12C495.81 113.269 496.333 113.424 496.727 113.584C497.133 113.733 497.474 113.979 497.751 114.32C498.039 114.661 498.183 115.12 498.183 115.696C498.183 116.411 497.911 116.992 497.367 117.44C496.834 117.888 496.119 118.112 495.223 118.112C494.178 118.112 493.325 117.861 492.663 117.36C492.002 116.859 491.613 116.16 491.495 115.264H492.903C492.957 115.797 493.186 116.229 493.591 116.56C494.007 116.891 494.551 117.056 495.223 117.056C495.725 117.056 496.114 116.928 496.391 116.672C496.679 116.416 496.823 116.08 496.823 115.664C496.823 115.323 496.722 115.051 496.519 114.848C496.317 114.645 496.066 114.491 495.767 114.384C495.469 114.277 495.058 114.165 494.535 114.048C493.885 113.899 493.362 113.749 492.967 113.6C492.583 113.451 492.253 113.216 491.975 112.896C491.709 112.565 491.575 112.123 491.575 111.568C491.575 110.832 491.847 110.24 492.391 109.792C492.935 109.333 493.677 109.104 494.615 109.104ZM508.209 113.12C508.209 113.429 508.188 113.696 508.145 113.92H501.121C501.153 114.923 501.436 115.675 501.969 116.176C502.513 116.677 503.174 116.928 503.953 116.928C504.657 116.928 505.244 116.752 505.713 116.4C506.193 116.037 506.486 115.557 506.593 114.96H508.145C508.038 115.568 507.798 116.112 507.425 116.592C507.062 117.072 506.588 117.445 506.001 117.712C505.414 117.979 504.753 118.112 504.017 118.112C503.174 118.112 502.428 117.931 501.777 117.568C501.126 117.205 500.614 116.688 500.241 116.016C499.878 115.333 499.697 114.533 499.697 113.616C499.697 112.699 499.878 111.899 500.241 111.216C500.614 110.533 501.126 110.011 501.777 109.648C502.428 109.285 503.174 109.104 504.017 109.104C504.87 109.104 505.612 109.285 506.241 109.648C506.881 110.011 507.366 110.496 507.697 111.104C508.038 111.712 508.209 112.384 508.209 113.12ZM506.737 113.216C506.769 112.565 506.662 112.021 506.417 111.584C506.172 111.147 505.836 110.821 505.409 110.608C504.982 110.395 504.518 110.288 504.017 110.288C503.217 110.288 502.545 110.539 502.001 111.04C501.457 111.531 501.164 112.256 501.121 113.216H506.737ZM518.914 109.104C519.693 109.104 520.386 109.285 520.994 109.648C521.602 110.011 522.077 110.533 522.418 111.216C522.77 111.899 522.946 112.699 522.946 113.616C522.946 114.533 522.77 115.333 522.418 116.016C522.077 116.688 521.602 117.205 520.994 117.568C520.386 117.931 519.693 118.112 518.914 118.112C518.061 118.112 517.336 117.899 516.738 117.472C516.152 117.035 515.746 116.464 515.522 115.76V118H514.066V106.16H515.522V111.456C515.746 110.752 516.152 110.187 516.738 109.76C517.336 109.323 518.061 109.104 518.914 109.104ZM518.498 110.4C517.933 110.4 517.421 110.533 516.962 110.8C516.504 111.056 516.146 111.429 515.89 111.92C515.634 112.411 515.506 112.976 515.506 113.616C515.506 114.256 515.634 114.821 515.89 115.312C516.146 115.792 516.504 116.165 516.962 116.432C517.421 116.699 517.933 116.832 518.498 116.832C519.405 116.832 520.125 116.549 520.658 115.984C521.202 115.408 521.474 114.619 521.474 113.616C521.474 112.613 521.202 111.829 520.658 111.264C520.125 110.688 519.405 110.4 518.498 110.4ZM528.448 109.104C529.301 109.104 530.021 109.317 530.608 109.744C531.205 110.171 531.621 110.741 531.856 111.456V109.216H533.312V118H531.856V115.76C531.621 116.475 531.205 117.045 530.608 117.472C530.021 117.899 529.301 118.112 528.448 118.112C527.669 118.112 526.976 117.931 526.368 117.568C525.76 117.205 525.28 116.688 524.928 116.016C524.586 115.333 524.416 114.533 524.416 113.616C524.416 112.699 524.586 111.899 524.928 111.216C525.28 110.533 525.76 110.011 526.368 109.648C526.976 109.285 527.669 109.104 528.448 109.104ZM528.864 110.4C527.968 110.4 527.248 110.688 526.704 111.264C526.17 111.829 525.904 112.613 525.904 113.616C525.904 114.619 526.17 115.408 526.704 115.984C527.248 116.549 527.968 116.832 528.864 116.832C529.44 116.832 529.952 116.699 530.4 116.432C530.858 116.165 531.216 115.792 531.472 115.312C531.728 114.821 531.856 114.256 531.856 113.616C531.856 112.976 531.728 112.411 531.472 111.92C531.216 111.429 530.858 111.056 530.4 110.8C529.952 110.533 529.44 110.4 528.864 110.4ZM538.381 109.104C539.373 109.104 540.168 109.365 540.765 109.888C541.373 110.4 541.741 111.093 541.869 111.968H540.477C540.413 111.445 540.194 111.019 539.821 110.688C539.458 110.347 538.968 110.176 538.349 110.176C537.826 110.176 537.416 110.304 537.117 110.56C536.829 110.805 536.685 111.141 536.685 111.568C536.685 111.888 536.781 112.149 536.973 112.352C537.176 112.544 537.421 112.693 537.709 112.8C538.008 112.896 538.413 113.003 538.925 113.12C539.576 113.269 540.098 113.424 540.493 113.584C540.898 113.733 541.24 113.979 541.517 114.32C541.805 114.661 541.949 115.12 541.949 115.696C541.949 116.411 541.677 116.992 541.133 117.44C540.6 117.888 539.885 118.112 538.989 118.112C537.944 118.112 537.09 117.861 536.429 117.36C535.768 116.859 535.378 116.16 535.261 115.264H536.669C536.722 115.797 536.952 116.229 537.357 116.56C537.773 116.891 538.317 117.056 538.989 117.056C539.49 117.056 539.88 116.928 540.157 116.672C540.445 116.416 540.589 116.08 540.589 115.664C540.589 115.323 540.488 115.051 540.285 114.848C540.082 114.645 539.832 114.491 539.533 114.384C539.234 114.277 538.824 114.165 538.301 114.048C537.65 113.899 537.128 113.749 536.733 113.6C536.349 113.451 536.018 113.216 535.741 112.896C535.474 112.565 535.341 112.123 535.341 111.568C535.341 110.832 535.613 110.24 536.157 109.792C536.701 109.333 537.442 109.104 538.381 109.104ZM551.975 113.12C551.975 113.429 551.953 113.696 551.911 113.92H544.887C544.919 114.923 545.201 115.675 545.735 116.176C546.279 116.677 546.94 116.928 547.719 116.928C548.423 116.928 549.009 116.752 549.479 116.4C549.959 116.037 550.252 115.557 550.359 114.96H551.911C551.804 115.568 551.564 116.112 551.191 116.592C550.828 117.072 550.353 117.445 549.767 117.712C549.18 117.979 548.519 118.112 547.783 118.112C546.94 118.112 546.193 117.931 545.543 117.568C544.892 117.205 544.38 116.688 544.007 116.016C543.644 115.333 543.463 114.533 543.463 113.616C543.463 112.699 543.644 111.899 544.007 111.216C544.38 110.533 544.892 110.011 545.543 109.648C546.193 109.285 546.94 109.104 547.783 109.104C548.636 109.104 549.377 109.285 550.007 109.648C550.647 110.011 551.132 110.496 551.463 111.104C551.804 111.712 551.975 112.384 551.975 113.12ZM550.503 113.216C550.535 112.565 550.428 112.021 550.183 111.584C549.937 111.147 549.601 110.821 549.175 110.608C548.748 110.395 548.284 110.288 547.783 110.288C546.983 110.288 546.311 110.539 545.767 111.04C545.223 111.531 544.929 112.256 544.887 113.216H550.503ZM557.479 109.104C558.332 109.104 559.052 109.317 559.639 109.744C560.236 110.171 560.652 110.741 560.887 111.456V106.16H562.343V118H560.887V115.76C560.652 116.475 560.236 117.045 559.639 117.472C559.052 117.899 558.332 118.112 557.479 118.112C556.7 118.112 556.007 117.931 555.399 117.568C554.791 117.205 554.311 116.688 553.959 116.016C553.618 115.333 553.447 114.533 553.447 113.616C553.447 112.699 553.618 111.899 553.959 111.216C554.311 110.533 554.791 110.011 555.399 109.648C556.007 109.285 556.7 109.104 557.479 109.104ZM557.895 110.4C556.999 110.4 556.279 110.688 555.735 111.264C555.202 111.829 554.935 112.613 554.935 113.616C554.935 114.619 555.202 115.408 555.735 115.984C556.279 116.549 556.999 116.832 557.895 116.832C558.471 116.832 558.983 116.699 559.431 116.432C559.89 116.165 560.247 115.792 560.503 115.312C560.759 114.821 560.887 114.256 560.887 113.616C560.887 112.976 560.759 112.411 560.503 111.92C560.247 111.429 559.89 111.056 559.431 110.8C558.983 110.533 558.471 110.4 557.895 110.4ZM568.357 106.64C568.357 106.373 568.448 106.16 568.629 106C568.811 105.829 569.051 105.744 569.349 105.744C569.648 105.744 569.888 105.829 570.069 106C570.251 106.16 570.341 106.373 570.341 106.64C570.341 106.907 570.251 107.125 570.069 107.296C569.888 107.456 569.648 107.536 569.349 107.536C569.051 107.536 568.811 107.456 568.629 107.296C568.448 107.125 568.357 106.907 568.357 106.64ZM570.069 109.216V118H568.613V109.216H570.069ZM577.034 109.072C578.058 109.072 578.885 109.403 579.514 110.064C580.144 110.715 580.458 111.659 580.458 112.896V118H579.002V113.024C579.002 112.149 578.778 111.477 578.33 111.008C577.882 110.539 577.274 110.304 576.506 110.304C575.706 110.304 575.066 110.565 574.586 111.088C574.106 111.6 573.866 112.352 573.866 113.344V118H572.41V109.216H573.866V111.296C574.09 110.581 574.485 110.032 575.05 109.648C575.626 109.264 576.288 109.072 577.034 109.072ZM593.253 115.392H588.293L587.349 118H585.781L589.957 106.928H591.605L595.765 118H594.197L593.253 115.392ZM592.837 114.256L590.773 108.56L588.709 114.256H592.837ZM608.038 109.072C609.062 109.072 609.884 109.403 610.502 110.064C611.132 110.715 611.446 111.659 611.446 112.896V118H609.99V113.024C609.99 112.16 609.777 111.499 609.35 111.04C608.934 110.581 608.358 110.352 607.622 110.352C606.854 110.352 606.236 110.608 605.766 111.12C605.308 111.621 605.078 112.363 605.078 113.344V118H603.622V113.024C603.622 112.16 603.409 111.499 602.982 111.04C602.556 110.581 601.98 110.352 601.254 110.352C600.476 110.352 599.852 110.608 599.382 111.12C598.924 111.621 598.694 112.363 598.694 113.344V118H597.238V109.216H598.694V111.216C598.908 110.523 599.286 109.995 599.83 109.632C600.385 109.259 601.02 109.072 601.734 109.072C602.481 109.072 603.126 109.264 603.67 109.648C604.225 110.021 604.62 110.576 604.854 111.312C605.1 110.597 605.51 110.048 606.086 109.664C606.662 109.269 607.313 109.072 608.038 109.072ZM621.787 113.12C621.787 113.429 621.766 113.696 621.723 113.92H614.699C614.731 114.923 615.014 115.675 615.547 116.176C616.091 116.677 616.752 116.928 617.531 116.928C618.235 116.928 618.822 116.752 619.291 116.4C619.771 116.037 620.064 115.557 620.171 114.96H621.723C621.616 115.568 621.376 116.112 621.003 116.592C620.64 117.072 620.166 117.445 619.579 117.712C618.992 117.979 618.331 118.112 617.595 118.112C616.752 118.112 616.006 117.931 615.355 117.568C614.704 117.205 614.192 116.688 613.819 116.016C613.456 115.333 613.275 114.533 613.275 113.616C613.275 112.699 613.456 111.899 613.819 111.216C614.192 110.533 614.704 110.011 615.355 109.648C616.006 109.285 616.752 109.104 617.595 109.104C618.448 109.104 619.19 109.285 619.819 109.648C620.459 110.011 620.944 110.496 621.275 111.104C621.616 111.712 621.787 112.384 621.787 113.12ZM620.315 113.216C620.347 112.565 620.24 112.021 619.995 111.584C619.75 111.147 619.414 110.821 618.987 110.608C618.56 110.395 618.096 110.288 617.595 110.288C616.795 110.288 616.123 110.539 615.579 111.04C615.035 111.531 614.742 112.256 614.699 113.216H620.315ZM625.147 110.992C625.435 110.384 625.857 109.915 626.411 109.584C626.966 109.243 627.627 109.072 628.395 109.072V110.656H627.947C627.126 110.656 626.454 110.869 625.931 111.296C625.409 111.712 625.147 112.405 625.147 113.376V118H623.691V109.216H625.147V110.992ZM629.576 106.64C629.576 106.373 629.667 106.16 629.848 106C630.029 105.829 630.269 105.744 630.568 105.744C630.867 105.744 631.107 105.829 631.288 106C631.469 106.16 631.56 106.373 631.56 106.64C631.56 106.907 631.469 107.125 631.288 107.296C631.107 107.456 630.867 107.536 630.568 107.536C630.269 107.536 630.029 107.456 629.848 107.296C629.667 107.125 629.576 106.907 629.576 106.64ZM631.288 109.216V118H629.832V109.216H631.288ZM637.517 109.104C638.637 109.104 639.565 109.403 640.301 110C641.037 110.597 641.49 111.397 641.661 112.4H640.125C640.018 111.771 639.725 111.28 639.245 110.928C638.776 110.565 638.189 110.384 637.485 110.384C636.973 110.384 636.504 110.501 636.077 110.736C635.661 110.971 635.325 111.333 635.069 111.824C634.813 112.304 634.685 112.901 634.685 113.616C634.685 114.331 634.813 114.933 635.069 115.424C635.325 115.904 635.661 116.261 636.077 116.496C636.504 116.731 636.973 116.848 637.485 116.848C638.189 116.848 638.776 116.667 639.245 116.304C639.725 115.941 640.018 115.445 640.125 114.816H641.661C641.49 115.829 641.037 116.635 640.301 117.232C639.565 117.819 638.637 118.112 637.517 118.112C636.674 118.112 635.928 117.931 635.277 117.568C634.626 117.205 634.114 116.688 633.741 116.016C633.378 115.333 633.197 114.533 633.197 113.616C633.197 112.699 633.378 111.899 633.741 111.216C634.114 110.533 634.626 110.011 635.277 109.648C635.928 109.285 636.674 109.104 637.517 109.104ZM647.166 109.104C648.02 109.104 648.74 109.317 649.326 109.744C649.924 110.171 650.34 110.741 650.574 111.456V109.216H652.03V118H650.574V115.76C650.34 116.475 649.924 117.045 649.326 117.472C648.74 117.899 648.02 118.112 647.166 118.112C646.388 118.112 645.694 117.931 645.086 117.568C644.478 117.205 643.998 116.688 643.646 116.016C643.305 115.333 643.134 114.533 643.134 113.616C643.134 112.699 643.305 111.899 643.646 111.216C643.998 110.533 644.478 110.011 645.086 109.648C645.694 109.285 646.388 109.104 647.166 109.104ZM647.582 110.4C646.686 110.4 645.966 110.688 645.422 111.264C644.889 111.829 644.622 112.613 644.622 113.616C644.622 114.619 644.889 115.408 645.422 115.984C645.966 116.549 646.686 116.832 647.582 116.832C648.158 116.832 648.67 116.699 649.118 116.432C649.577 116.165 649.934 115.792 650.19 115.312C650.446 114.821 650.574 114.256 650.574 113.616C650.574 112.976 650.446 112.411 650.19 111.92C649.934 111.429 649.577 111.056 649.118 110.8C648.67 110.533 648.158 110.4 647.582 110.4Z" fill="#6C727F"/>
</svg>
