<svg width="656" height="124" viewBox="0 0 656 124" fill="none" xmlns="http://www.w3.org/2000/svg">
<path d="M83.1675 34.04C83.1675 35.5333 82.7808 36.9067 82.0075 38.16C81.2608 39.4133 80.1408 40.4133 78.6475 41.16C77.1808 41.9067 75.3942 42.28 73.2875 42.28C70.1142 42.28 67.5008 41.5067 65.4475 39.96C63.3942 38.4133 62.2742 36.2533 62.0875 33.48H69.3675C69.4742 34.5467 69.8475 35.3867 70.4875 36C71.1542 36.6133 71.9942 36.92 73.0075 36.92C73.8875 36.92 74.5808 36.68 75.0875 36.2C75.5942 35.72 75.8475 35.08 75.8475 34.28C75.8475 33.56 75.6075 32.96 75.1275 32.48C74.6742 32 74.1008 31.6133 73.4075 31.32C72.7142 31 71.7542 30.6267 70.5275 30.2C68.7408 29.5867 67.2742 29 66.1275 28.44C65.0075 27.8533 64.0342 27 63.2075 25.88C62.4075 24.7333 62.0075 23.2533 62.0075 21.44C62.0075 19.76 62.4342 18.3067 63.2875 17.08C64.1408 15.8533 65.3142 14.92 66.8075 14.28C68.3275 13.6133 70.0608 13.28 72.0075 13.28C75.1542 13.28 77.6475 14.0267 79.4875 15.52C81.3542 17.0133 82.4075 19.0667 82.6475 21.68H75.2475C75.1142 20.7467 74.7675 20.0133 74.2075 19.48C73.6742 18.92 72.9408 18.64 72.0075 18.64C71.2075 18.64 70.5542 18.8533 70.0475 19.28C69.5675 19.7067 69.3275 20.3333 69.3275 21.16C69.3275 21.8267 69.5408 22.4 69.9675 22.88C70.4208 23.3333 70.9808 23.7067 71.6475 24C72.3142 24.2933 73.2742 24.6667 74.5275 25.12C76.3408 25.7333 77.8208 26.3467 78.9675 26.96C80.1142 27.5467 81.1008 28.4133 81.9275 29.56C82.7542 30.7067 83.1675 32.2 83.1675 34.04ZM96.6291 19.4C99.5091 19.4 101.922 20.2 103.869 21.8C105.816 23.3733 107.042 25.5467 107.549 28.32H100.309C100.096 27.36 99.6557 26.6133 98.9891 26.08C98.3224 25.5467 97.4824 25.28 96.4691 25.28C95.2691 25.28 94.2824 25.76 93.5091 26.72C92.7357 27.6533 92.3491 29.0267 92.3491 30.84C92.3491 32.6533 92.7357 34.04 93.5091 35C94.2824 35.9333 95.2691 36.4 96.4691 36.4C97.4824 36.4 98.3224 36.1333 98.9891 35.6C99.6557 35.0667 100.096 34.32 100.309 33.36H107.549C107.042 36.1333 105.816 38.32 103.869 39.92C101.922 41.4933 99.5091 42.28 96.6291 42.28C94.4424 42.28 92.4957 41.8267 90.7891 40.92C89.1091 39.9867 87.7891 38.6533 86.8291 36.92C85.8691 35.1867 85.3891 33.16 85.3891 30.84C85.3891 28.4933 85.8557 26.4667 86.7891 24.76C87.7491 23.0267 89.0824 21.7067 90.7891 20.8C92.4957 19.8667 94.4424 19.4 96.6291 19.4ZM124.879 19.44C127.439 19.44 129.466 20.2933 130.959 22C132.479 23.7067 133.239 26.0533 133.239 29.04V42H126.399V29.84C126.399 28.3467 125.999 27.1867 125.199 26.36C124.426 25.5067 123.386 25.08 122.079 25.08C120.693 25.08 119.586 25.52 118.759 26.4C117.959 27.28 117.559 28.5333 117.559 30.16V42H110.719V12.4H117.559V23.76C118.199 22.4267 119.146 21.3733 120.399 20.6C121.679 19.8267 123.173 19.44 124.879 19.44ZM147.791 19.4C150.004 19.4 151.977 19.8667 153.711 20.8C155.471 21.7067 156.844 23.0267 157.831 24.76C158.844 26.4933 159.351 28.52 159.351 30.84C159.351 33.16 158.844 35.1867 157.831 36.92C156.844 38.6533 155.471 39.9867 153.711 40.92C151.977 41.8267 150.004 42.28 147.791 42.28C145.577 42.28 143.591 41.8267 141.831 40.92C140.071 39.9867 138.684 38.6533 137.671 36.92C136.684 35.1867 136.191 33.16 136.191 30.84C136.191 28.52 136.684 26.4933 137.671 24.76C138.684 23.0267 140.071 21.7067 141.831 20.8C143.591 19.8667 145.577 19.4 147.791 19.4ZM147.791 25.32C146.484 25.32 145.377 25.8 144.471 26.76C143.591 27.6933 143.151 29.0533 143.151 30.84C143.151 32.6267 143.591 33.9867 144.471 34.92C145.377 35.8533 146.484 36.32 147.791 36.32C149.097 36.32 150.191 35.8533 151.071 34.92C151.951 33.9867 152.391 32.6267 152.391 30.84C152.391 29.0533 151.951 27.6933 151.071 26.76C150.191 25.8 149.097 25.32 147.791 25.32ZM172.937 19.4C175.151 19.4 177.124 19.8667 178.857 20.8C180.617 21.7067 181.991 23.0267 182.977 24.76C183.991 26.4933 184.497 28.52 184.497 30.84C184.497 33.16 183.991 35.1867 182.977 36.92C181.991 38.6533 180.617 39.9867 178.857 40.92C177.124 41.8267 175.151 42.28 172.937 42.28C170.724 42.28 168.737 41.8267 166.977 40.92C165.217 39.9867 163.831 38.6533 162.817 36.92C161.831 35.1867 161.337 33.16 161.337 30.84C161.337 28.52 161.831 26.4933 162.817 24.76C163.831 23.0267 165.217 21.7067 166.977 20.8C168.737 19.8667 170.724 19.4 172.937 19.4ZM172.937 25.32C171.631 25.32 170.524 25.8 169.617 26.76C168.737 27.6933 168.297 29.0533 168.297 30.84C168.297 32.6267 168.737 33.9867 169.617 34.92C170.524 35.8533 171.631 36.32 172.937 36.32C174.244 36.32 175.337 35.8533 176.217 34.92C177.097 33.9867 177.537 32.6267 177.537 30.84C177.537 29.0533 177.097 27.6933 176.217 26.76C175.337 25.8 174.244 25.32 172.937 25.32ZM194.484 12.4V42H187.644V12.4H194.484ZM214.895 19.4C216.601 19.4 218.068 19.7867 219.295 20.56C220.521 21.3333 221.428 22.3867 222.015 23.72V19.68H228.815V42H222.015V37.96C221.428 39.2933 220.521 40.3467 219.295 41.12C218.068 41.8933 216.601 42.28 214.895 42.28C213.055 42.28 211.401 41.8267 209.935 40.92C208.495 39.9867 207.348 38.6533 206.495 36.92C205.668 35.1867 205.255 33.16 205.255 30.84C205.255 28.4933 205.668 26.4667 206.495 24.76C207.348 23.0267 208.495 21.7067 209.935 20.8C211.401 19.8667 213.055 19.4 214.895 19.4ZM217.095 25.4C215.628 25.4 214.441 25.88 213.535 26.84C212.655 27.8 212.215 29.1333 212.215 30.84C212.215 32.5467 212.655 33.88 213.535 34.84C214.441 35.8 215.628 36.28 217.095 36.28C218.535 36.28 219.708 35.7867 220.615 34.8C221.548 33.8133 222.015 32.4933 222.015 30.84C222.015 29.16 221.548 27.84 220.615 26.88C219.708 25.8933 218.535 25.4 217.095 25.4ZM247.284 19.44C249.844 19.44 251.871 20.2933 253.364 22C254.884 23.7067 255.644 26.0533 255.644 29.04V42H248.804V29.84C248.804 28.3467 248.404 27.1867 247.604 26.36C246.831 25.5067 245.791 25.08 244.484 25.08C243.097 25.08 241.991 25.52 241.164 26.4C240.364 27.28 239.964 28.5333 239.964 30.16V42H233.124V19.68H239.964V23.76C240.604 22.4267 241.551 21.3733 242.804 20.6C244.084 19.8267 245.577 19.44 247.284 19.44ZM268.235 19.4C269.942 19.4 271.409 19.7867 272.635 20.56C273.862 21.3333 274.755 22.3867 275.315 23.72V12.4H282.155V42H275.315V37.96C274.755 39.2933 273.862 40.3467 272.635 41.12C271.409 41.8933 269.942 42.28 268.235 42.28C266.395 42.28 264.742 41.8267 263.275 40.92C261.835 39.9867 260.689 38.6533 259.835 36.92C259.009 35.1867 258.595 33.16 258.595 30.84C258.595 28.4933 259.009 26.4667 259.835 24.76C260.689 23.0267 261.835 21.7067 263.275 20.8C264.742 19.8667 266.395 19.4 268.235 19.4ZM270.435 25.4C268.969 25.4 267.782 25.88 266.875 26.84C265.995 27.8 265.555 29.1333 265.555 30.84C265.555 32.5467 265.995 33.88 266.875 34.84C267.782 35.8 268.969 36.28 270.435 36.28C271.875 36.28 273.049 35.7867 273.955 34.8C274.889 33.8133 275.355 32.4933 275.355 30.84C275.355 29.16 274.889 27.84 273.955 26.88C273.049 25.8933 271.875 25.4 270.435 25.4ZM300.912 32.08V42H294.072V13.72H305.152C308.512 13.72 311.072 14.56 312.832 16.24C314.592 17.8933 315.472 20.1333 315.472 22.96C315.472 24.72 315.072 26.2933 314.272 27.68C313.499 29.04 312.339 30.12 310.792 30.92C309.246 31.6933 307.366 32.08 305.152 32.08H300.912ZM304.392 26.6C307.139 26.6 308.512 25.3867 308.512 22.96C308.512 20.48 307.139 19.24 304.392 19.24H300.912V26.6H304.392ZM326.918 19.4C328.625 19.4 330.091 19.7867 331.318 20.56C332.545 21.3333 333.451 22.3867 334.038 23.72V19.68H340.838V42H334.038V37.96C333.451 39.2933 332.545 40.3467 331.318 41.12C330.091 41.8933 328.625 42.28 326.918 42.28C325.078 42.28 323.425 41.8267 321.958 40.92C320.518 39.9867 319.371 38.6533 318.518 36.92C317.691 35.1867 317.278 33.16 317.278 30.84C317.278 28.4933 317.691 26.4667 318.518 24.76C319.371 23.0267 320.518 21.7067 321.958 20.8C323.425 19.8667 325.078 19.4 326.918 19.4ZM329.118 25.4C327.651 25.4 326.465 25.88 325.558 26.84C324.678 27.8 324.238 29.1333 324.238 30.84C324.238 32.5467 324.678 33.88 325.558 34.84C326.465 35.8 327.651 36.28 329.118 36.28C330.558 36.28 331.731 35.7867 332.638 34.8C333.571 33.8133 334.038 32.4933 334.038 30.84C334.038 29.16 333.571 27.84 332.638 26.88C331.731 25.8933 330.558 25.4 329.118 25.4ZM351.987 23.88C352.841 22.52 353.934 21.44 355.267 20.64C356.627 19.84 358.094 19.44 359.667 19.44V26.76H357.707C355.894 26.76 354.481 27.1467 353.467 27.92C352.481 28.6933 351.987 30 351.987 31.84V42H345.147V19.68H351.987V23.88ZM383.33 30.24C383.33 30.8 383.264 31.4133 383.13 32.08H367.65C367.73 33.76 368.157 34.9733 368.93 35.72C369.704 36.44 370.69 36.8 371.89 36.8C372.904 36.8 373.744 36.5467 374.41 36.04C375.077 35.5333 375.517 34.88 375.73 34.08H382.97C382.677 35.6533 382.037 37.0667 381.05 38.32C380.064 39.5467 378.81 40.52 377.29 41.24C375.77 41.9333 374.077 42.28 372.21 42.28C370.024 42.28 368.077 41.8267 366.37 40.92C364.69 39.9867 363.37 38.6533 362.41 36.92C361.45 35.1867 360.97 33.16 360.97 30.84C360.97 28.4933 361.437 26.4667 362.37 24.76C363.33 23.0267 364.664 21.7067 366.37 20.8C368.077 19.8667 370.024 19.4 372.21 19.4C374.424 19.4 376.37 19.8533 378.05 20.76C379.73 21.6667 381.024 22.9467 381.93 24.6C382.864 26.2267 383.33 28.1067 383.33 30.24ZM376.41 29.2C376.437 27.7333 376.037 26.64 375.21 25.92C374.41 25.1733 373.41 24.8 372.21 24.8C370.957 24.8 369.917 25.1733 369.09 25.92C368.264 26.6667 367.797 27.76 367.69 29.2H376.41ZM400.656 19.44C403.216 19.44 405.243 20.2933 406.736 22C408.256 23.7067 409.016 26.0533 409.016 29.04V42H402.176V29.84C402.176 28.3467 401.776 27.1867 400.976 26.36C400.203 25.5067 399.163 25.08 397.856 25.08C396.469 25.08 395.363 25.52 394.536 26.4C393.736 27.28 393.336 28.5333 393.336 30.16V42H386.496V19.68H393.336V23.76C393.976 22.4267 394.923 21.3733 396.176 20.6C397.456 19.8267 398.949 19.44 400.656 19.44ZM425.767 36.12V42H422.687C420.074 42 418.034 41.36 416.567 40.08C415.127 38.7733 414.407 36.6267 414.407 33.64V25.44H411.407V19.68H414.407V14.2H421.247V19.68H425.727V25.44H421.247V33.76C421.247 34.64 421.421 35.2533 421.767 35.6C422.141 35.9467 422.754 36.12 423.607 36.12H425.767ZM437.332 19.4C440.158 19.4 442.412 20.1067 444.092 21.52C445.798 22.9333 446.865 24.8 447.292 27.12H440.892C440.705 26.2133 440.278 25.5067 439.612 25C438.972 24.4667 438.158 24.2 437.172 24.2C436.398 24.2 435.812 24.3733 435.412 24.72C435.012 25.04 434.812 25.5067 434.812 26.12C434.812 26.8133 435.172 27.3333 435.892 27.68C436.638 28.0267 437.798 28.3733 439.372 28.72C441.078 29.12 442.478 29.5333 443.572 29.96C444.665 30.36 445.612 31.0267 446.412 31.96C447.212 32.8933 447.612 34.1467 447.612 35.72C447.612 37 447.265 38.1333 446.572 39.12C445.878 40.1067 444.878 40.88 443.572 41.44C442.265 42 440.718 42.28 438.932 42.28C435.918 42.28 433.505 41.6133 431.692 40.28C429.878 38.9467 428.772 37.04 428.372 34.56H434.972C435.078 35.52 435.478 36.2533 436.172 36.76C436.892 37.2667 437.812 37.52 438.932 37.52C439.705 37.52 440.292 37.3467 440.692 37C441.092 36.6267 441.292 36.1467 441.292 35.56C441.292 34.7867 440.918 34.24 440.172 33.92C439.452 33.5733 438.265 33.2133 436.612 32.84C434.958 32.4933 433.598 32.12 432.532 31.72C431.465 31.32 430.545 30.68 429.772 29.8C428.998 28.8933 428.612 27.6667 428.612 26.12C428.612 24.12 429.372 22.5067 430.892 21.28C432.412 20.0267 434.558 19.4 437.332 19.4ZM497.047 13.72L490.287 42H481.807L477.287 23.08L472.727 42H464.247L457.487 13.72H464.927L468.567 34.2L473.527 13.72H481.007L485.967 34.2L489.647 13.72H497.047ZM510.678 19.4C512.891 19.4 514.865 19.8667 516.598 20.8C518.358 21.7067 519.731 23.0267 520.718 24.76C521.731 26.4933 522.238 28.52 522.238 30.84C522.238 33.16 521.731 35.1867 520.718 36.92C519.731 38.6533 518.358 39.9867 516.598 40.92C514.865 41.8267 512.891 42.28 510.678 42.28C508.465 42.28 506.478 41.8267 504.718 40.92C502.958 39.9867 501.571 38.6533 500.558 36.92C499.571 35.1867 499.078 33.16 499.078 30.84C499.078 28.52 499.571 26.4933 500.558 24.76C501.571 23.0267 502.958 21.7067 504.718 20.8C506.478 19.8667 508.465 19.4 510.678 19.4ZM510.678 25.32C509.371 25.32 508.265 25.8 507.358 26.76C506.478 27.6933 506.038 29.0533 506.038 30.84C506.038 32.6267 506.478 33.9867 507.358 34.92C508.265 35.8533 509.371 36.32 510.678 36.32C511.985 36.32 513.078 35.8533 513.958 34.92C514.838 33.9867 515.278 32.6267 515.278 30.84C515.278 29.0533 514.838 27.6933 513.958 26.76C513.078 25.8 511.985 25.32 510.678 25.32ZM532.225 23.88C533.078 22.52 534.172 21.44 535.505 20.64C536.865 19.84 538.332 19.44 539.905 19.44V26.76H537.945C536.132 26.76 534.718 27.1467 533.705 27.92C532.718 28.6933 532.225 30 532.225 31.84V42H525.385V19.68H532.225V23.88ZM550.848 19.4C552.554 19.4 554.021 19.7867 555.248 20.56C556.474 21.3333 557.368 22.3867 557.928 23.72V12.4H564.768V42H557.928V37.96C557.368 39.2933 556.474 40.3467 555.248 41.12C554.021 41.8933 552.554 42.28 550.848 42.28C549.008 42.28 547.354 41.8267 545.888 40.92C544.448 39.9867 543.301 38.6533 542.448 36.92C541.621 35.1867 541.208 33.16 541.208 30.84C541.208 28.4933 541.621 26.4667 542.448 24.76C543.301 23.0267 544.448 21.7067 545.888 20.8C547.354 19.8667 549.008 19.4 550.848 19.4ZM553.048 25.4C551.581 25.4 550.394 25.88 549.488 26.84C548.608 27.8 548.168 29.1333 548.168 30.84C548.168 32.5467 548.608 33.88 549.488 34.84C550.394 35.8 551.581 36.28 553.048 36.28C554.488 36.28 555.661 35.7867 556.568 34.8C557.501 33.8133 557.968 32.4933 557.968 30.84C557.968 29.16 557.501 27.84 556.568 26.88C555.661 25.8933 554.488 25.4 553.048 25.4ZM577.197 19.4C580.024 19.4 582.277 20.1067 583.957 21.52C585.664 22.9333 586.73 24.8 587.157 27.12H580.757C580.57 26.2133 580.144 25.5067 579.477 25C578.837 24.4667 578.024 24.2 577.037 24.2C576.264 24.2 575.677 24.3733 575.277 24.72C574.877 25.04 574.677 25.5067 574.677 26.12C574.677 26.8133 575.037 27.3333 575.757 27.68C576.504 28.0267 577.664 28.3733 579.237 28.72C580.944 29.12 582.344 29.5333 583.437 29.96C584.53 30.36 585.477 31.0267 586.277 31.96C587.077 32.8933 587.477 34.1467 587.477 35.72C587.477 37 587.13 38.1333 586.437 39.12C585.744 40.1067 584.744 40.88 583.437 41.44C582.13 42 580.584 42.28 578.797 42.28C575.784 42.28 573.37 41.6133 571.557 40.28C569.744 38.9467 568.637 37.04 568.237 34.56H574.837C574.944 35.52 575.344 36.2533 576.037 36.76C576.757 37.2667 577.677 37.52 578.797 37.52C579.57 37.52 580.157 37.3467 580.557 37C580.957 36.6267 581.157 36.1467 581.157 35.56C581.157 34.7867 580.784 34.24 580.037 33.92C579.317 33.5733 578.13 33.2133 576.477 32.84C574.824 32.4933 573.464 32.12 572.397 31.72C571.33 31.32 570.41 30.68 569.637 29.8C568.864 28.8933 568.477 27.6667 568.477 26.12C568.477 24.12 569.237 22.5067 570.757 21.28C572.277 20.0267 574.424 19.4 577.197 19.4Z" fill="white"/>
<path d="M43.3662 89.864H47.3662V91H41.9102V79.72H43.3662V89.864ZM52.8317 82.104C53.6744 82.104 54.4264 82.2853 55.0877 82.648C55.7597 83.0107 56.2824 83.5333 56.6557 84.216C57.0397 84.8987 57.2317 85.6987 57.2317 86.616C57.2317 87.5333 57.0397 88.3333 56.6557 89.016C56.2824 89.688 55.7597 90.2053 55.0877 90.568C54.4264 90.9307 53.6744 91.112 52.8317 91.112C51.989 91.112 51.2317 90.9307 50.5597 90.568C49.8984 90.2053 49.3757 89.688 48.9917 89.016C48.6077 88.3333 48.4157 87.5333 48.4157 86.616C48.4157 85.6987 48.6077 84.8987 48.9917 84.216C49.3757 83.5333 49.8984 83.0107 50.5597 82.648C51.2317 82.2853 51.989 82.104 52.8317 82.104ZM52.8317 83.384C52.309 83.384 51.8237 83.5013 51.3757 83.736C50.9384 83.9707 50.581 84.3333 50.3037 84.824C50.037 85.304 49.9037 85.9013 49.9037 86.616C49.9037 87.32 50.037 87.9173 50.3037 88.408C50.581 88.888 50.9384 89.2453 51.3757 89.48C51.8237 89.7147 52.309 89.832 52.8317 89.832C53.3544 89.832 53.8344 89.7147 54.2717 89.48C54.7197 89.2453 55.077 88.888 55.3437 88.408C55.621 87.9173 55.7597 87.32 55.7597 86.616C55.7597 85.9013 55.621 85.304 55.3437 84.824C55.077 84.3333 54.7197 83.9707 54.2717 83.736C53.8344 83.5013 53.3544 83.384 52.8317 83.384ZM60.5849 83.992C60.8729 83.384 61.2943 82.9147 61.8489 82.584C62.4036 82.2427 63.0649 82.072 63.8329 82.072V83.656H63.3849C62.5636 83.656 61.8916 83.8693 61.3689 84.296C60.8463 84.712 60.5849 85.4053 60.5849 86.376V91H59.1289V82.216H60.5849V83.992ZM73.3496 86.12C73.3496 86.4293 73.3282 86.696 73.2856 86.92H66.2616C66.2936 87.9227 66.5762 88.6747 67.1096 89.176C67.6536 89.6773 68.3149 89.928 69.0936 89.928C69.7976 89.928 70.3842 89.752 70.8536 89.4C71.3336 89.0373 71.6269 88.5573 71.7336 87.96H73.2856C73.1789 88.568 72.9389 89.112 72.5656 89.592C72.2029 90.072 71.7282 90.4453 71.1416 90.712C70.5549 90.9787 69.8936 91.112 69.1576 91.112C68.3149 91.112 67.5682 90.9307 66.9176 90.568C66.2669 90.2053 65.7549 89.688 65.3816 89.016C65.0189 88.3333 64.8376 87.5333 64.8376 86.616C64.8376 85.6987 65.0189 84.8987 65.3816 84.216C65.7549 83.5333 66.2669 83.0107 66.9176 82.648C67.5682 82.2853 68.3149 82.104 69.1576 82.104C70.0109 82.104 70.7522 82.2853 71.3816 82.648C72.0216 83.0107 72.5069 83.496 72.8376 84.104C73.1789 84.712 73.3496 85.384 73.3496 86.12ZM71.8776 86.216C71.9096 85.5653 71.8029 85.0213 71.5576 84.584C71.3122 84.1467 70.9762 83.8213 70.5496 83.608C70.1229 83.3947 69.6589 83.288 69.1576 83.288C68.3576 83.288 67.6856 83.5387 67.1416 84.04C66.5976 84.5307 66.3042 85.256 66.2616 86.216H71.8776ZM86.0539 82.072C87.0779 82.072 87.8993 82.4027 88.5179 83.064C89.1473 83.7147 89.4619 84.6587 89.4619 85.896V91H88.0059V86.024C88.0059 85.16 87.7926 84.4987 87.3659 84.04C86.9499 83.5813 86.3739 83.352 85.6379 83.352C84.8699 83.352 84.2513 83.608 83.7819 84.12C83.3233 84.6213 83.0939 85.3627 83.0939 86.344V91H81.6379V86.024C81.6379 85.16 81.4246 84.4987 80.9979 84.04C80.5713 83.5813 79.9953 83.352 79.2699 83.352C78.4913 83.352 77.8673 83.608 77.3979 84.12C76.9393 84.6213 76.7099 85.3627 76.7099 86.344V91H75.2539V82.216H76.7099V84.216C76.9233 83.5227 77.3019 82.9947 77.8459 82.632C78.4006 82.2587 79.0353 82.072 79.7499 82.072C80.4966 82.072 81.1419 82.264 81.6859 82.648C82.2406 83.0213 82.6353 83.576 82.8699 84.312C83.1153 83.5973 83.5259 83.048 84.1019 82.664C84.6779 82.2693 85.3286 82.072 86.0539 82.072ZM95.4198 79.64C95.4198 79.3733 95.5105 79.16 95.6918 79C95.8731 78.8293 96.1131 78.744 96.4118 78.744C96.7105 78.744 96.9505 78.8293 97.1318 79C97.3131 79.16 97.4038 79.3733 97.4038 79.64C97.4038 79.9067 97.3131 80.1253 97.1318 80.296C96.9505 80.456 96.7105 80.536 96.4118 80.536C96.1131 80.536 95.8731 80.456 95.6918 80.296C95.5105 80.1253 95.4198 79.9067 95.4198 79.64ZM97.1318 82.216V91H95.6758V82.216H97.1318ZM104.321 82.104C105.099 82.104 105.793 82.2853 106.401 82.648C107.009 83.0107 107.483 83.5333 107.825 84.216C108.177 84.8987 108.353 85.6987 108.353 86.616C108.353 87.5333 108.177 88.3333 107.825 89.016C107.483 89.688 107.009 90.2053 106.401 90.568C105.793 90.9307 105.099 91.112 104.321 91.112C103.467 91.112 102.742 90.8987 102.145 90.472C101.558 90.0347 101.153 89.464 100.929 88.76V95.16H99.4727V82.216H100.929V84.456C101.153 83.752 101.558 83.1867 102.145 82.76C102.742 82.3227 103.467 82.104 104.321 82.104ZM103.905 83.4C103.339 83.4 102.827 83.5333 102.369 83.8C101.91 84.056 101.553 84.4293 101.297 84.92C101.041 85.4107 100.913 85.976 100.913 86.616C100.913 87.256 101.041 87.8213 101.297 88.312C101.553 88.792 101.91 89.1653 102.369 89.432C102.827 89.6987 103.339 89.832 103.905 89.832C104.811 89.832 105.531 89.5493 106.065 88.984C106.609 88.408 106.881 87.6187 106.881 86.616C106.881 85.6133 106.609 84.8293 106.065 84.264C105.531 83.688 104.811 83.4 103.905 83.4ZM113.006 82.104C113.998 82.104 114.793 82.3653 115.39 82.888C115.998 83.4 116.366 84.0933 116.494 84.968H115.102C115.038 84.4453 114.819 84.0187 114.446 83.688C114.083 83.3467 113.593 83.176 112.974 83.176C112.451 83.176 112.041 83.304 111.742 83.56C111.454 83.8053 111.31 84.1413 111.31 84.568C111.31 84.888 111.406 85.1493 111.598 85.352C111.801 85.544 112.046 85.6933 112.334 85.8C112.633 85.896 113.038 86.0027 113.55 86.12C114.201 86.2693 114.723 86.424 115.118 86.584C115.523 86.7333 115.865 86.9787 116.142 87.32C116.43 87.6613 116.574 88.12 116.574 88.696C116.574 89.4107 116.302 89.992 115.758 90.44C115.225 90.888 114.51 91.112 113.614 91.112C112.569 91.112 111.715 90.8613 111.054 90.36C110.393 89.8587 110.003 89.16 109.886 88.264H111.294C111.347 88.7973 111.577 89.2293 111.982 89.56C112.398 89.8907 112.942 90.056 113.614 90.056C114.115 90.056 114.505 89.928 114.782 89.672C115.07 89.416 115.214 89.08 115.214 88.664C115.214 88.3227 115.113 88.0507 114.91 87.848C114.707 87.6453 114.457 87.4907 114.158 87.384C113.859 87.2773 113.449 87.1653 112.926 87.048C112.275 86.8987 111.753 86.7493 111.358 86.6C110.974 86.4507 110.643 86.216 110.366 85.896C110.099 85.5653 109.966 85.1227 109.966 84.568C109.966 83.832 110.238 83.24 110.782 82.792C111.326 82.3333 112.067 82.104 113.006 82.104ZM126.328 82.216V91H124.872V88.936C124.648 89.6507 124.248 90.2 123.672 90.584C123.106 90.9573 122.445 91.144 121.688 91.144C120.674 91.144 119.853 90.8187 119.224 90.168C118.594 89.5067 118.28 88.5627 118.28 87.336V82.216H119.736V87.192C119.736 88.0667 119.96 88.744 120.408 89.224C120.856 89.6933 121.464 89.928 122.232 89.928C123.032 89.928 123.672 89.672 124.152 89.16C124.632 88.6373 124.872 87.88 124.872 86.888V82.216H126.328ZM139.46 82.072C140.484 82.072 141.306 82.4027 141.924 83.064C142.554 83.7147 142.868 84.6587 142.868 85.896V91H141.412V86.024C141.412 85.16 141.199 84.4987 140.772 84.04C140.356 83.5813 139.78 83.352 139.044 83.352C138.276 83.352 137.658 83.608 137.188 84.12C136.73 84.6213 136.5 85.3627 136.5 86.344V91H135.044V86.024C135.044 85.16 134.831 84.4987 134.404 84.04C133.978 83.5813 133.402 83.352 132.676 83.352C131.898 83.352 131.274 83.608 130.804 84.12C130.346 84.6213 130.116 85.3627 130.116 86.344V91H128.66V82.216H130.116V84.216C130.33 83.5227 130.708 82.9947 131.252 82.632C131.807 82.2587 132.442 82.072 133.156 82.072C133.903 82.072 134.548 82.264 135.092 82.648C135.647 83.0213 136.042 83.576 136.276 84.312C136.522 83.5973 136.932 83.048 137.508 82.664C138.084 82.2693 138.735 82.072 139.46 82.072ZM152.682 82.104C153.535 82.104 154.255 82.3173 154.842 82.744C155.439 83.1707 155.855 83.7413 156.09 84.456V79.16H157.546V91H156.09V88.76C155.855 89.4747 155.439 90.0453 154.842 90.472C154.255 90.8987 153.535 91.112 152.682 91.112C151.903 91.112 151.21 90.9307 150.602 90.568C149.994 90.2053 149.514 89.688 149.162 89.016C148.821 88.3333 148.65 87.5333 148.65 86.616C148.65 85.6987 148.821 84.8987 149.162 84.216C149.514 83.5333 149.994 83.0107 150.602 82.648C151.21 82.2853 151.903 82.104 152.682 82.104ZM153.098 83.4C152.202 83.4 151.482 83.688 150.938 84.264C150.405 84.8293 150.138 85.6133 150.138 86.616C150.138 87.6187 150.405 88.408 150.938 88.984C151.482 89.5493 152.202 89.832 153.098 89.832C153.674 89.832 154.186 89.6987 154.634 89.432C155.093 89.1653 155.45 88.792 155.706 88.312C155.962 87.8213 156.09 87.256 156.09 86.616C156.09 85.976 155.962 85.4107 155.706 84.92C155.45 84.4293 155.093 84.056 154.634 83.8C154.186 83.5333 153.674 83.4 153.098 83.4ZM163.847 82.104C164.69 82.104 165.442 82.2853 166.103 82.648C166.775 83.0107 167.298 83.5333 167.671 84.216C168.055 84.8987 168.247 85.6987 168.247 86.616C168.247 87.5333 168.055 88.3333 167.671 89.016C167.298 89.688 166.775 90.2053 166.103 90.568C165.442 90.9307 164.69 91.112 163.847 91.112C163.005 91.112 162.247 90.9307 161.575 90.568C160.914 90.2053 160.391 89.688 160.007 89.016C159.623 88.3333 159.431 87.5333 159.431 86.616C159.431 85.6987 159.623 84.8987 160.007 84.216C160.391 83.5333 160.914 83.0107 161.575 82.648C162.247 82.2853 163.005 82.104 163.847 82.104ZM163.847 83.384C163.325 83.384 162.839 83.5013 162.391 83.736C161.954 83.9707 161.597 84.3333 161.319 84.824C161.053 85.304 160.919 85.9013 160.919 86.616C160.919 87.32 161.053 87.9173 161.319 88.408C161.597 88.888 161.954 89.2453 162.391 89.48C162.839 89.7147 163.325 89.832 163.847 89.832C164.37 89.832 164.85 89.7147 165.287 89.48C165.735 89.2453 166.093 88.888 166.359 88.408C166.637 87.9173 166.775 87.32 166.775 86.616C166.775 85.9013 166.637 85.304 166.359 84.824C166.093 84.3333 165.735 83.9707 165.287 83.736C164.85 83.5013 164.37 83.384 163.847 83.384ZM171.601 79.16V91H170.145V79.16H171.601ZM177.925 82.104C178.768 82.104 179.52 82.2853 180.181 82.648C180.853 83.0107 181.376 83.5333 181.749 84.216C182.133 84.8987 182.325 85.6987 182.325 86.616C182.325 87.5333 182.133 88.3333 181.749 89.016C181.376 89.688 180.853 90.2053 180.181 90.568C179.52 90.9307 178.768 91.112 177.925 91.112C177.083 91.112 176.325 90.9307 175.653 90.568C174.992 90.2053 174.469 89.688 174.085 89.016C173.701 88.3333 173.509 87.5333 173.509 86.616C173.509 85.6987 173.701 84.8987 174.085 84.216C174.469 83.5333 174.992 83.0107 175.653 82.648C176.325 82.2853 177.083 82.104 177.925 82.104ZM177.925 83.384C177.403 83.384 176.917 83.5013 176.469 83.736C176.032 83.9707 175.675 84.3333 175.397 84.824C175.131 85.304 174.997 85.9013 174.997 86.616C174.997 87.32 175.131 87.9173 175.397 88.408C175.675 88.888 176.032 89.2453 176.469 89.48C176.917 89.7147 177.403 89.832 177.925 89.832C178.448 89.832 178.928 89.7147 179.365 89.48C179.813 89.2453 180.171 88.888 180.437 88.408C180.715 87.9173 180.853 87.32 180.853 86.616C180.853 85.9013 180.715 85.304 180.437 84.824C180.171 84.3333 179.813 83.9707 179.365 83.736C178.928 83.5013 178.448 83.384 177.925 83.384ZM185.679 83.992C185.967 83.384 186.388 82.9147 186.943 82.584C187.497 82.2427 188.159 82.072 188.927 82.072V83.656H188.479C187.657 83.656 186.985 83.8693 186.463 84.296C185.94 84.712 185.679 85.4053 185.679 86.376V91H184.223V82.216H185.679V83.992ZM197.068 82.104C198.06 82.104 198.855 82.3653 199.452 82.888C200.06 83.4 200.428 84.0933 200.556 84.968H199.164C199.1 84.4453 198.882 84.0187 198.508 83.688C198.146 83.3467 197.655 83.176 197.036 83.176C196.514 83.176 196.103 83.304 195.804 83.56C195.516 83.8053 195.372 84.1413 195.372 84.568C195.372 84.888 195.468 85.1493 195.66 85.352C195.863 85.544 196.108 85.6933 196.396 85.8C196.695 85.896 197.1 86.0027 197.612 86.12C198.263 86.2693 198.786 86.424 199.18 86.584C199.586 86.7333 199.927 86.9787 200.204 87.32C200.492 87.6613 200.636 88.12 200.636 88.696C200.636 89.4107 200.364 89.992 199.82 90.44C199.287 90.888 198.572 91.112 197.676 91.112C196.631 91.112 195.778 90.8613 195.116 90.36C194.455 89.8587 194.066 89.16 193.948 88.264H195.356C195.41 88.7973 195.639 89.2293 196.044 89.56C196.46 89.8907 197.004 90.056 197.676 90.056C198.178 90.056 198.567 89.928 198.844 89.672C199.132 89.416 199.276 89.08 199.276 88.664C199.276 88.3227 199.175 88.0507 198.972 87.848C198.77 87.6453 198.519 87.4907 198.22 87.384C197.922 87.2773 197.511 87.1653 196.988 87.048C196.338 86.8987 195.815 86.7493 195.42 86.6C195.036 86.4507 194.706 86.216 194.428 85.896C194.162 85.5653 194.028 85.1227 194.028 84.568C194.028 83.832 194.3 83.24 194.844 82.792C195.388 82.3333 196.13 82.104 197.068 82.104ZM202.326 79.64C202.326 79.3733 202.417 79.16 202.598 79C202.779 78.8293 203.019 78.744 203.318 78.744C203.617 78.744 203.857 78.8293 204.038 79C204.219 79.16 204.31 79.3733 204.31 79.64C204.31 79.9067 204.219 80.1253 204.038 80.296C203.857 80.456 203.617 80.536 203.318 80.536C203.019 80.536 202.779 80.456 202.598 80.296C202.417 80.1253 202.326 79.9067 202.326 79.64ZM204.038 82.216V91H202.582V82.216H204.038ZM210.571 89.72V91H209.483C208.587 91 207.915 90.7867 207.467 90.36C207.03 89.9333 206.811 89.2187 206.811 88.216V83.48H205.499V82.216H206.811V80.024H208.283V82.216H210.555V83.48H208.283V88.248C208.283 88.8133 208.384 89.2027 208.587 89.416C208.8 89.6187 209.163 89.72 209.675 89.72H210.571ZM219.901 82.104C220.754 82.104 221.474 82.3173 222.061 82.744C222.658 83.1707 223.074 83.7413 223.309 84.456V82.216H224.765V91H223.309V88.76C223.074 89.4747 222.658 90.0453 222.061 90.472C221.474 90.8987 220.754 91.112 219.901 91.112C219.122 91.112 218.429 90.9307 217.821 90.568C217.213 90.2053 216.733 89.688 216.381 89.016C216.039 88.3333 215.869 87.5333 215.869 86.616C215.869 85.6987 216.039 84.8987 216.381 84.216C216.733 83.5333 217.213 83.0107 217.821 82.648C218.429 82.2853 219.122 82.104 219.901 82.104ZM220.317 83.4C219.421 83.4 218.701 83.688 218.157 84.264C217.623 84.8293 217.357 85.6133 217.357 86.616C217.357 87.6187 217.623 88.408 218.157 88.984C218.701 89.5493 219.421 89.832 220.317 89.832C220.893 89.832 221.405 89.6987 221.853 89.432C222.311 89.1653 222.669 88.792 222.925 88.312C223.181 87.8213 223.309 87.256 223.309 86.616C223.309 85.976 223.181 85.4107 222.925 84.92C222.669 84.4293 222.311 84.056 221.853 83.8C221.405 83.5333 220.893 83.4 220.317 83.4ZM237.882 82.072C238.906 82.072 239.727 82.4027 240.346 83.064C240.975 83.7147 241.29 84.6587 241.29 85.896V91H239.834V86.024C239.834 85.16 239.621 84.4987 239.194 84.04C238.778 83.5813 238.202 83.352 237.466 83.352C236.698 83.352 236.079 83.608 235.61 84.12C235.151 84.6213 234.922 85.3627 234.922 86.344V91H233.466V86.024C233.466 85.16 233.253 84.4987 232.826 84.04C232.399 83.5813 231.823 83.352 231.098 83.352C230.319 83.352 229.695 83.608 229.226 84.12C228.767 84.6213 228.538 85.3627 228.538 86.344V91H227.082V82.216H228.538V84.216C228.751 83.5227 229.13 82.9947 229.674 82.632C230.229 82.2587 230.863 82.072 231.578 82.072C232.325 82.072 232.97 82.264 233.514 82.648C234.069 83.0213 234.463 83.576 234.698 84.312C234.943 83.5973 235.354 83.048 235.93 82.664C236.506 82.2693 237.157 82.072 237.882 82.072ZM251.631 86.12C251.631 86.4293 251.609 86.696 251.567 86.92H244.543C244.575 87.9227 244.857 88.6747 245.391 89.176C245.935 89.6773 246.596 89.928 247.375 89.928C248.079 89.928 248.665 89.752 249.135 89.4C249.615 89.0373 249.908 88.5573 250.015 87.96H251.567C251.46 88.568 251.22 89.112 250.847 89.592C250.484 90.072 250.009 90.4453 249.423 90.712C248.836 90.9787 248.175 91.112 247.439 91.112C246.596 91.112 245.849 90.9307 245.199 90.568C244.548 90.2053 244.036 89.688 243.663 89.016C243.3 88.3333 243.119 87.5333 243.119 86.616C243.119 85.6987 243.3 84.8987 243.663 84.216C244.036 83.5333 244.548 83.0107 245.199 82.648C245.849 82.2853 246.596 82.104 247.439 82.104C248.292 82.104 249.033 82.2853 249.663 82.648C250.303 83.0107 250.788 83.496 251.119 84.104C251.46 84.712 251.631 85.384 251.631 86.12ZM250.159 86.216C250.191 85.5653 250.084 85.0213 249.839 84.584C249.593 84.1467 249.257 83.8213 248.831 83.608C248.404 83.3947 247.94 83.288 247.439 83.288C246.639 83.288 245.967 83.5387 245.423 84.04C244.879 84.5307 244.585 85.256 244.543 86.216H250.159ZM257.727 89.72V91H256.639C255.743 91 255.071 90.7867 254.623 90.36C254.186 89.9333 253.967 89.2187 253.967 88.216V83.48H252.655V82.216H253.967V80.024H255.439V82.216H257.711V83.48H255.439V88.248C255.439 88.8133 255.541 89.2027 255.743 89.416C255.957 89.6187 256.319 89.72 256.831 89.72H257.727ZM267.345 82.104C268.465 82.104 269.393 82.4027 270.129 83C270.865 83.5973 271.318 84.3973 271.489 85.4H269.953C269.846 84.7707 269.553 84.28 269.073 83.928C268.604 83.5653 268.017 83.384 267.313 83.384C266.801 83.384 266.332 83.5013 265.905 83.736C265.489 83.9707 265.153 84.3333 264.897 84.824C264.641 85.304 264.513 85.9013 264.513 86.616C264.513 87.3307 264.641 87.9333 264.897 88.424C265.153 88.904 265.489 89.2613 265.905 89.496C266.332 89.7307 266.801 89.848 267.313 89.848C268.017 89.848 268.604 89.6667 269.073 89.304C269.553 88.9413 269.846 88.4453 269.953 87.816H271.489C271.318 88.8293 270.865 89.6347 270.129 90.232C269.393 90.8187 268.465 91.112 267.345 91.112C266.502 91.112 265.756 90.9307 265.105 90.568C264.454 90.2053 263.942 89.688 263.569 89.016C263.206 88.3333 263.025 87.5333 263.025 86.616C263.025 85.6987 263.206 84.8987 263.569 84.216C263.942 83.5333 264.454 83.0107 265.105 82.648C265.756 82.2853 266.502 82.104 267.345 82.104ZM277.379 82.104C278.221 82.104 278.973 82.2853 279.635 82.648C280.307 83.0107 280.829 83.5333 281.203 84.216C281.587 84.8987 281.779 85.6987 281.779 86.616C281.779 87.5333 281.587 88.3333 281.203 89.016C280.829 89.688 280.307 90.2053 279.635 90.568C278.973 90.9307 278.221 91.112 277.379 91.112C276.536 91.112 275.779 90.9307 275.107 90.568C274.445 90.2053 273.923 89.688 273.539 89.016C273.155 88.3333 272.963 87.5333 272.963 86.616C272.963 85.6987 273.155 84.8987 273.539 84.216C273.923 83.5333 274.445 83.0107 275.107 82.648C275.779 82.2853 276.536 82.104 277.379 82.104ZM277.379 83.384C276.856 83.384 276.371 83.5013 275.923 83.736C275.485 83.9707 275.128 84.3333 274.851 84.824C274.584 85.304 274.451 85.9013 274.451 86.616C274.451 87.32 274.584 87.9173 274.851 88.408C275.128 88.888 275.485 89.2453 275.923 89.48C276.371 89.7147 276.856 89.832 277.379 89.832C277.901 89.832 278.381 89.7147 278.819 89.48C279.267 89.2453 279.624 88.888 279.891 88.408C280.168 87.9173 280.307 87.32 280.307 86.616C280.307 85.9013 280.168 85.304 279.891 84.824C279.624 84.3333 279.267 83.9707 278.819 83.736C278.381 83.5013 277.901 83.384 277.379 83.384ZM288.3 82.072C289.324 82.072 290.15 82.4027 290.78 83.064C291.409 83.7147 291.724 84.6587 291.724 85.896V91H290.268V86.024C290.268 85.1493 290.044 84.4773 289.596 84.008C289.148 83.5387 288.54 83.304 287.772 83.304C286.972 83.304 286.332 83.5653 285.852 84.088C285.372 84.6 285.132 85.352 285.132 86.344V91H283.676V82.216H285.132V84.296C285.356 83.5813 285.75 83.032 286.316 82.648C286.892 82.264 287.553 82.072 288.3 82.072ZM296.709 82.104C297.701 82.104 298.496 82.3653 299.093 82.888C299.701 83.4 300.069 84.0933 300.197 84.968H298.805C298.741 84.4453 298.522 84.0187 298.149 83.688C297.786 83.3467 297.296 83.176 296.677 83.176C296.154 83.176 295.744 83.304 295.445 83.56C295.157 83.8053 295.013 84.1413 295.013 84.568C295.013 84.888 295.109 85.1493 295.301 85.352C295.504 85.544 295.749 85.6933 296.037 85.8C296.336 85.896 296.741 86.0027 297.253 86.12C297.904 86.2693 298.426 86.424 298.821 86.584C299.226 86.7333 299.568 86.9787 299.845 87.32C300.133 87.6613 300.277 88.12 300.277 88.696C300.277 89.4107 300.005 89.992 299.461 90.44C298.928 90.888 298.213 91.112 297.317 91.112C296.272 91.112 295.418 90.8613 294.757 90.36C294.096 89.8587 293.706 89.16 293.589 88.264H294.997C295.05 88.7973 295.28 89.2293 295.685 89.56C296.101 89.8907 296.645 90.056 297.317 90.056C297.818 90.056 298.208 89.928 298.485 89.672C298.773 89.416 298.917 89.08 298.917 88.664C298.917 88.3227 298.816 88.0507 298.613 87.848C298.41 87.6453 298.16 87.4907 297.861 87.384C297.562 87.2773 297.152 87.1653 296.629 87.048C295.978 86.8987 295.456 86.7493 295.061 86.6C294.677 86.4507 294.346 86.216 294.069 85.896C293.802 85.5653 293.669 85.1227 293.669 84.568C293.669 83.832 293.941 83.24 294.485 82.792C295.029 82.3333 295.77 82.104 296.709 82.104ZM310.303 86.12C310.303 86.4293 310.281 86.696 310.239 86.92H303.215C303.247 87.9227 303.529 88.6747 304.063 89.176C304.607 89.6773 305.268 89.928 306.047 89.928C306.751 89.928 307.337 89.752 307.807 89.4C308.287 89.0373 308.58 88.5573 308.687 87.96H310.239C310.132 88.568 309.892 89.112 309.519 89.592C309.156 90.072 308.681 90.4453 308.095 90.712C307.508 90.9787 306.847 91.112 306.111 91.112C305.268 91.112 304.521 90.9307 303.871 90.568C303.22 90.2053 302.708 89.688 302.335 89.016C301.972 88.3333 301.791 87.5333 301.791 86.616C301.791 85.6987 301.972 84.8987 302.335 84.216C302.708 83.5333 303.22 83.0107 303.871 82.648C304.521 82.2853 305.268 82.104 306.111 82.104C306.964 82.104 307.705 82.2853 308.335 82.648C308.975 83.0107 309.46 83.496 309.791 84.104C310.132 84.712 310.303 85.384 310.303 86.12ZM308.831 86.216C308.863 85.5653 308.756 85.0213 308.511 84.584C308.265 84.1467 307.929 83.8213 307.503 83.608C307.076 83.3947 306.612 83.288 306.111 83.288C305.311 83.288 304.639 83.5387 304.095 84.04C303.551 84.5307 303.257 85.256 303.215 86.216H308.831ZM316.095 82.104C317.215 82.104 318.143 82.4027 318.879 83C319.615 83.5973 320.068 84.3973 320.239 85.4H318.703C318.596 84.7707 318.303 84.28 317.823 83.928C317.354 83.5653 316.767 83.384 316.063 83.384C315.551 83.384 315.082 83.5013 314.655 83.736C314.239 83.9707 313.903 84.3333 313.647 84.824C313.391 85.304 313.263 85.9013 313.263 86.616C313.263 87.3307 313.391 87.9333 313.647 88.424C313.903 88.904 314.239 89.2613 314.655 89.496C315.082 89.7307 315.551 89.848 316.063 89.848C316.767 89.848 317.354 89.6667 317.823 89.304C318.303 88.9413 318.596 88.4453 318.703 87.816H320.239C320.068 88.8293 319.615 89.6347 318.879 90.232C318.143 90.8187 317.215 91.112 316.095 91.112C315.252 91.112 314.506 90.9307 313.855 90.568C313.204 90.2053 312.692 89.688 312.319 89.016C311.956 88.3333 311.775 87.5333 311.775 86.616C311.775 85.6987 311.956 84.8987 312.319 84.216C312.692 83.5333 313.204 83.0107 313.855 82.648C314.506 82.2853 315.252 82.104 316.095 82.104ZM326.337 89.72V91H325.249C324.353 91 323.681 90.7867 323.233 90.36C322.795 89.9333 322.577 89.2187 322.577 88.216V83.48H321.265V82.216H322.577V80.024H324.049V82.216H326.321V83.48H324.049V88.248C324.049 88.8133 324.15 89.2027 324.353 89.416C324.566 89.6187 324.929 89.72 325.441 89.72H326.337ZM336.193 86.12C336.193 86.4293 336.172 86.696 336.129 86.92H329.105C329.137 87.9227 329.42 88.6747 329.953 89.176C330.497 89.6773 331.159 89.928 331.937 89.928C332.641 89.928 333.228 89.752 333.697 89.4C334.177 89.0373 334.471 88.5573 334.577 87.96H336.129C336.023 88.568 335.783 89.112 335.409 89.592C335.047 90.072 334.572 90.4453 333.985 90.712C333.399 90.9787 332.737 91.112 332.001 91.112C331.159 91.112 330.412 90.9307 329.761 90.568C329.111 90.2053 328.599 89.688 328.225 89.016C327.863 88.3333 327.681 87.5333 327.681 86.616C327.681 85.6987 327.863 84.8987 328.225 84.216C328.599 83.5333 329.111 83.0107 329.761 82.648C330.412 82.2853 331.159 82.104 332.001 82.104C332.855 82.104 333.596 82.2853 334.225 82.648C334.865 83.0107 335.351 83.496 335.681 84.104C336.023 84.712 336.193 85.384 336.193 86.12ZM334.721 86.216C334.753 85.5653 334.647 85.0213 334.401 84.584C334.156 84.1467 333.82 83.8213 333.393 83.608C332.967 83.3947 332.503 83.288 332.001 83.288C331.201 83.288 330.529 83.5387 329.985 84.04C329.441 84.5307 329.148 85.256 329.105 86.216H334.721ZM342.29 89.72V91H341.202C340.306 91 339.634 90.7867 339.186 90.36C338.748 89.9333 338.53 89.2187 338.53 88.216V83.48H337.218V82.216H338.53V80.024H340.002V82.216H342.274V83.48H340.002V88.248C340.002 88.8133 340.103 89.2027 340.306 89.416C340.519 89.6187 340.882 89.72 341.394 89.72H342.29ZM351.874 82.216V91H350.418V88.936C350.194 89.6507 349.794 90.2 349.218 90.584C348.653 90.9573 347.992 91.144 347.234 91.144C346.221 91.144 345.4 90.8187 344.77 90.168C344.141 89.5067 343.826 88.5627 343.826 87.336V82.216H345.282V87.192C345.282 88.0667 345.506 88.744 345.954 89.224C346.402 89.6933 347.01 89.928 347.778 89.928C348.578 89.928 349.218 89.672 349.698 89.16C350.178 88.6373 350.418 87.88 350.418 86.888V82.216H351.874ZM355.663 83.992C355.951 83.384 356.372 82.9147 356.927 82.584C357.482 82.2427 358.143 82.072 358.911 82.072V83.656H358.463C357.642 83.656 356.97 83.8693 356.447 84.296C355.924 84.712 355.663 85.4053 355.663 86.376V91H354.207V82.216H355.663V83.992ZM367.901 82.104C368.754 82.104 369.474 82.3173 370.061 82.744C370.658 83.1707 371.074 83.7413 371.309 84.456V82.216H372.765V91H371.309V88.76C371.074 89.4747 370.658 90.0453 370.061 90.472C369.474 90.8987 368.754 91.112 367.901 91.112C367.122 91.112 366.429 90.9307 365.821 90.568C365.213 90.2053 364.733 89.688 364.381 89.016C364.039 88.3333 363.869 87.5333 363.869 86.616C363.869 85.6987 364.039 84.8987 364.381 84.216C364.733 83.5333 365.213 83.0107 365.821 82.648C366.429 82.2853 367.122 82.104 367.901 82.104ZM368.317 83.4C367.421 83.4 366.701 83.688 366.157 84.264C365.623 84.8293 365.357 85.6133 365.357 86.616C365.357 87.6187 365.623 88.408 366.157 88.984C366.701 89.5493 367.421 89.832 368.317 89.832C368.893 89.832 369.405 89.6987 369.853 89.432C370.311 89.1653 370.669 88.792 370.925 88.312C371.181 87.8213 371.309 87.256 371.309 86.616C371.309 85.976 371.181 85.4107 370.925 84.92C370.669 84.4293 370.311 84.056 369.853 83.8C369.405 83.5333 368.893 83.4 368.317 83.4ZM378.682 82.104C379.535 82.104 380.255 82.3173 380.842 82.744C381.439 83.1707 381.855 83.7413 382.09 84.456V79.16H383.546V91H382.09V88.76C381.855 89.4747 381.439 90.0453 380.842 90.472C380.255 90.8987 379.535 91.112 378.682 91.112C377.903 91.112 377.21 90.9307 376.602 90.568C375.994 90.2053 375.514 89.688 375.162 89.016C374.821 88.3333 374.65 87.5333 374.65 86.616C374.65 85.6987 374.821 84.8987 375.162 84.216C375.514 83.5333 375.994 83.0107 376.602 82.648C377.21 82.2853 377.903 82.104 378.682 82.104ZM379.098 83.4C378.202 83.4 377.482 83.688 376.938 84.264C376.405 84.8293 376.138 85.6133 376.138 86.616C376.138 87.6187 376.405 88.408 376.938 88.984C377.482 89.5493 378.202 89.832 379.098 89.832C379.674 89.832 380.186 89.6987 380.634 89.432C381.093 89.1653 381.45 88.792 381.706 88.312C381.962 87.8213 382.09 87.256 382.09 86.616C382.09 85.976 381.962 85.4107 381.706 84.92C381.45 84.4293 381.093 84.056 380.634 83.8C380.186 83.5333 379.674 83.4 379.098 83.4ZM385.607 79.64C385.607 79.3733 385.698 79.16 385.879 79C386.061 78.8293 386.301 78.744 386.599 78.744C386.898 78.744 387.138 78.8293 387.319 79C387.501 79.16 387.591 79.3733 387.591 79.64C387.591 79.9067 387.501 80.1253 387.319 80.296C387.138 80.456 386.898 80.536 386.599 80.536C386.301 80.536 386.061 80.456 385.879 80.296C385.698 80.1253 385.607 79.9067 385.607 79.64ZM387.319 82.216V91H385.863V82.216H387.319ZM394.508 82.104C395.287 82.104 395.98 82.2853 396.588 82.648C397.196 83.0107 397.671 83.5333 398.012 84.216C398.364 84.8987 398.54 85.6987 398.54 86.616C398.54 87.5333 398.364 88.3333 398.012 89.016C397.671 89.688 397.196 90.2053 396.588 90.568C395.98 90.9307 395.287 91.112 394.508 91.112C393.655 91.112 392.93 90.8987 392.332 90.472C391.746 90.0347 391.34 89.464 391.116 88.76V95.16H389.66V82.216H391.116V84.456C391.34 83.752 391.746 83.1867 392.332 82.76C392.93 82.3227 393.655 82.104 394.508 82.104ZM394.092 83.4C393.527 83.4 393.015 83.5333 392.556 83.8C392.098 84.056 391.74 84.4293 391.484 84.92C391.228 85.4107 391.1 85.976 391.1 86.616C391.1 87.256 391.228 87.8213 391.484 88.312C391.74 88.792 392.098 89.1653 392.556 89.432C393.015 89.6987 393.527 89.832 394.092 89.832C394.999 89.832 395.719 89.5493 396.252 88.984C396.796 88.408 397.068 87.6187 397.068 86.616C397.068 85.6133 396.796 84.8293 396.252 84.264C395.719 83.688 394.999 83.4 394.092 83.4ZM400.185 79.64C400.185 79.3733 400.276 79.16 400.457 79C400.639 78.8293 400.879 78.744 401.177 78.744C401.476 78.744 401.716 78.8293 401.897 79C402.079 79.16 402.169 79.3733 402.169 79.64C402.169 79.9067 402.079 80.1253 401.897 80.296C401.716 80.456 401.476 80.536 401.177 80.536C400.879 80.536 400.639 80.456 400.457 80.296C400.276 80.1253 400.185 79.9067 400.185 79.64ZM401.897 82.216V91H400.441V82.216H401.897ZM406.99 82.104C407.982 82.104 408.777 82.3653 409.374 82.888C409.982 83.4 410.35 84.0933 410.478 84.968H409.086C409.022 84.4453 408.804 84.0187 408.43 83.688C408.068 83.3467 407.577 83.176 406.958 83.176C406.436 83.176 406.025 83.304 405.726 83.56C405.438 83.8053 405.294 84.1413 405.294 84.568C405.294 84.888 405.39 85.1493 405.582 85.352C405.785 85.544 406.03 85.6933 406.318 85.8C406.617 85.896 407.022 86.0027 407.534 86.12C408.185 86.2693 408.708 86.424 409.102 86.584C409.508 86.7333 409.849 86.9787 410.126 87.32C410.414 87.6613 410.558 88.12 410.558 88.696C410.558 89.4107 410.286 89.992 409.742 90.44C409.209 90.888 408.494 91.112 407.598 91.112C406.553 91.112 405.7 90.8613 405.038 90.36C404.377 89.8587 403.988 89.16 403.87 88.264H405.278C405.332 88.7973 405.561 89.2293 405.966 89.56C406.382 89.8907 406.926 90.056 407.598 90.056C408.1 90.056 408.489 89.928 408.766 89.672C409.054 89.416 409.198 89.08 409.198 88.664C409.198 88.3227 409.097 88.0507 408.894 87.848C408.692 87.6453 408.441 87.4907 408.142 87.384C407.844 87.2773 407.433 87.1653 406.91 87.048C406.26 86.8987 405.737 86.7493 405.342 86.6C404.958 86.4507 404.628 86.216 404.35 85.896C404.084 85.5653 403.95 85.1227 403.95 84.568C403.95 83.832 404.222 83.24 404.766 82.792C405.31 82.3333 406.052 82.104 406.99 82.104ZM416.392 82.104C417.512 82.104 418.44 82.4027 419.176 83C419.912 83.5973 420.365 84.3973 420.536 85.4H419C418.893 84.7707 418.6 84.28 418.12 83.928C417.651 83.5653 417.064 83.384 416.36 83.384C415.848 83.384 415.379 83.5013 414.952 83.736C414.536 83.9707 414.2 84.3333 413.944 84.824C413.688 85.304 413.56 85.9013 413.56 86.616C413.56 87.3307 413.688 87.9333 413.944 88.424C414.2 88.904 414.536 89.2613 414.952 89.496C415.379 89.7307 415.848 89.848 416.36 89.848C417.064 89.848 417.651 89.6667 418.12 89.304C418.6 88.9413 418.893 88.4453 419 87.816H420.536C420.365 88.8293 419.912 89.6347 419.176 90.232C418.44 90.8187 417.512 91.112 416.392 91.112C415.549 91.112 414.803 90.9307 414.152 90.568C413.501 90.2053 412.989 89.688 412.616 89.016C412.253 88.3333 412.072 87.5333 412.072 86.616C412.072 85.6987 412.253 84.8987 412.616 84.216C412.989 83.5333 413.501 83.0107 414.152 82.648C414.803 82.2853 415.549 82.104 416.392 82.104ZM422.185 79.64C422.185 79.3733 422.276 79.16 422.457 79C422.639 78.8293 422.879 78.744 423.177 78.744C423.476 78.744 423.716 78.8293 423.897 79C424.079 79.16 424.169 79.3733 424.169 79.64C424.169 79.9067 424.079 80.1253 423.897 80.296C423.716 80.456 423.476 80.536 423.177 80.536C422.879 80.536 422.639 80.456 422.457 80.296C422.276 80.1253 422.185 79.9067 422.185 79.64ZM423.897 82.216V91H422.441V82.216H423.897ZM430.862 82.072C431.886 82.072 432.713 82.4027 433.342 83.064C433.972 83.7147 434.286 84.6587 434.286 85.896V91H432.83V86.024C432.83 85.1493 432.606 84.4773 432.158 84.008C431.71 83.5387 431.102 83.304 430.334 83.304C429.534 83.304 428.894 83.5653 428.414 84.088C427.934 84.6 427.694 85.352 427.694 86.344V91H426.238V82.216H427.694V84.296C427.918 83.5813 428.313 83.032 428.878 82.648C429.454 82.264 430.116 82.072 430.862 82.072ZM440.12 82.104C440.973 82.104 441.693 82.3173 442.28 82.744C442.877 83.1707 443.293 83.7413 443.528 84.456V82.216H444.984V91.144C444.984 91.9547 444.813 92.6747 444.472 93.304C444.13 93.9333 443.65 94.424 443.032 94.776C442.413 95.128 441.693 95.304 440.872 95.304C439.688 95.304 438.722 95.016 437.976 94.44C437.229 93.8747 436.754 93.1067 436.552 92.136H437.992C438.162 92.7227 438.482 93.1813 438.952 93.512C439.432 93.8533 440.045 94.024 440.792 94.024C441.581 94.024 442.232 93.768 442.744 93.256C443.266 92.7547 443.528 92.0507 443.528 91.144V88.76C443.293 89.4747 442.877 90.0453 442.28 90.472C441.693 90.8987 440.973 91.112 440.12 91.112C439.341 91.112 438.648 90.9307 438.04 90.568C437.432 90.2053 436.952 89.688 436.6 89.016C436.258 88.3333 436.088 87.5333 436.088 86.616C436.088 85.6987 436.258 84.8987 436.6 84.216C436.952 83.5333 437.432 83.0107 438.04 82.648C438.648 82.2853 439.341 82.104 440.12 82.104ZM440.536 83.4C439.64 83.4 438.92 83.688 438.376 84.264C437.842 84.8293 437.576 85.6133 437.576 86.616C437.576 87.6187 437.842 88.408 438.376 88.984C438.92 89.5493 439.64 89.832 440.536 89.832C441.112 89.832 441.624 89.6987 442.072 89.432C442.53 89.1653 442.888 88.792 443.144 88.312C443.4 87.8213 443.528 87.256 443.528 86.616C443.528 85.976 443.4 85.4107 443.144 84.92C442.888 84.4293 442.53 84.056 442.072 83.8C441.624 83.5333 441.112 83.4 440.536 83.4ZM459.334 86.12C459.334 86.4293 459.313 86.696 459.27 86.92H452.246C452.278 87.9227 452.561 88.6747 453.094 89.176C453.638 89.6773 454.299 89.928 455.078 89.928C455.782 89.928 456.369 89.752 456.838 89.4C457.318 89.0373 457.611 88.5573 457.718 87.96H459.27C459.163 88.568 458.923 89.112 458.55 89.592C458.187 90.072 457.713 90.4453 457.126 90.712C456.539 90.9787 455.878 91.112 455.142 91.112C454.299 91.112 453.553 90.9307 452.902 90.568C452.251 90.2053 451.739 89.688 451.366 89.016C451.003 88.3333 450.822 87.5333 450.822 86.616C450.822 85.6987 451.003 84.8987 451.366 84.216C451.739 83.5333 452.251 83.0107 452.902 82.648C453.553 82.2853 454.299 82.104 455.142 82.104C455.995 82.104 456.737 82.2853 457.366 82.648C458.006 83.0107 458.491 83.496 458.822 84.104C459.163 84.712 459.334 85.384 459.334 86.12ZM457.862 86.216C457.894 85.5653 457.787 85.0213 457.542 84.584C457.297 84.1467 456.961 83.8213 456.534 83.608C456.107 83.3947 455.643 83.288 455.142 83.288C454.342 83.288 453.67 83.5387 453.126 84.04C452.582 84.5307 452.289 85.256 452.246 86.216H457.862ZM462.694 79.16V91H461.238V79.16H462.694ZM464.779 79.64C464.779 79.3733 464.87 79.16 465.051 79C465.233 78.8293 465.473 78.744 465.771 78.744C466.07 78.744 466.31 78.8293 466.491 79C466.673 79.16 466.763 79.3733 466.763 79.64C466.763 79.9067 466.673 80.1253 466.491 80.296C466.31 80.456 466.07 80.536 465.771 80.536C465.473 80.536 465.233 80.456 465.051 80.296C464.87 80.1253 464.779 79.9067 464.779 79.64ZM466.491 82.216V91H465.035V82.216H466.491ZM473.024 89.72V91H471.936C471.04 91 470.368 90.7867 469.92 90.36C469.483 89.9333 469.264 89.2187 469.264 88.216V83.48H467.952V82.216H469.264V80.024H470.736V82.216H473.008V83.48H470.736V88.248C470.736 88.8133 470.837 89.2027 471.04 89.416C471.253 89.6187 471.616 89.72 472.128 89.72H473.024ZM482.354 82.104C483.207 82.104 483.927 82.3173 484.514 82.744C485.111 83.1707 485.527 83.7413 485.762 84.456V79.16H487.218V91H485.762V88.76C485.527 89.4747 485.111 90.0453 484.514 90.472C483.927 90.8987 483.207 91.112 482.354 91.112C481.575 91.112 480.882 90.9307 480.274 90.568C479.666 90.2053 479.186 89.688 478.834 89.016C478.493 88.3333 478.322 87.5333 478.322 86.616C478.322 85.6987 478.493 84.8987 478.834 84.216C479.186 83.5333 479.666 83.0107 480.274 82.648C480.882 82.2853 481.575 82.104 482.354 82.104ZM482.77 83.4C481.874 83.4 481.154 83.688 480.61 84.264C480.077 84.8293 479.81 85.6133 479.81 86.616C479.81 87.6187 480.077 88.408 480.61 88.984C481.154 89.5493 481.874 89.832 482.77 89.832C483.346 89.832 483.858 89.6987 484.306 89.432C484.765 89.1653 485.122 88.792 485.378 88.312C485.634 87.8213 485.762 87.256 485.762 86.616C485.762 85.976 485.634 85.4107 485.378 84.92C485.122 84.4293 484.765 84.056 484.306 83.8C483.858 83.5333 483.346 83.4 482.77 83.4ZM493.519 82.104C494.362 82.104 495.114 82.2853 495.775 82.648C496.447 83.0107 496.97 83.5333 497.343 84.216C497.727 84.8987 497.919 85.6987 497.919 86.616C497.919 87.5333 497.727 88.3333 497.343 89.016C496.97 89.688 496.447 90.2053 495.775 90.568C495.114 90.9307 494.362 91.112 493.519 91.112C492.677 91.112 491.919 90.9307 491.247 90.568C490.586 90.2053 490.063 89.688 489.679 89.016C489.295 88.3333 489.103 87.5333 489.103 86.616C489.103 85.6987 489.295 84.8987 489.679 84.216C490.063 83.5333 490.586 83.0107 491.247 82.648C491.919 82.2853 492.677 82.104 493.519 82.104ZM493.519 83.384C492.997 83.384 492.511 83.5013 492.063 83.736C491.626 83.9707 491.269 84.3333 490.991 84.824C490.725 85.304 490.591 85.9013 490.591 86.616C490.591 87.32 490.725 87.9173 490.991 88.408C491.269 88.888 491.626 89.2453 492.063 89.48C492.511 89.7147 492.997 89.832 493.519 89.832C494.042 89.832 494.522 89.7147 494.959 89.48C495.407 89.2453 495.765 88.888 496.031 88.408C496.309 87.9173 496.447 87.32 496.447 86.616C496.447 85.9013 496.309 85.304 496.031 84.824C495.765 84.3333 495.407 83.9707 494.959 83.736C494.522 83.5013 494.042 83.384 493.519 83.384ZM501.272 79.16V91H499.816V79.16H501.272ZM507.597 82.104C508.44 82.104 509.192 82.2853 509.853 82.648C510.525 83.0107 511.048 83.5333 511.421 84.216C511.805 84.8987 511.997 85.6987 511.997 86.616C511.997 87.5333 511.805 88.3333 511.421 89.016C511.048 89.688 510.525 90.2053 509.853 90.568C509.192 90.9307 508.44 91.112 507.597 91.112C506.755 91.112 505.997 90.9307 505.325 90.568C504.664 90.2053 504.141 89.688 503.757 89.016C503.373 88.3333 503.181 87.5333 503.181 86.616C503.181 85.6987 503.373 84.8987 503.757 84.216C504.141 83.5333 504.664 83.0107 505.325 82.648C505.997 82.2853 506.755 82.104 507.597 82.104ZM507.597 83.384C507.075 83.384 506.589 83.5013 506.141 83.736C505.704 83.9707 505.347 84.3333 505.069 84.824C504.803 85.304 504.669 85.9013 504.669 86.616C504.669 87.32 504.803 87.9173 505.069 88.408C505.347 88.888 505.704 89.2453 506.141 89.48C506.589 89.7147 507.075 89.832 507.597 89.832C508.12 89.832 508.6 89.7147 509.037 89.48C509.485 89.2453 509.843 88.888 510.109 88.408C510.387 87.9173 510.525 87.32 510.525 86.616C510.525 85.9013 510.387 85.304 510.109 84.824C509.843 84.3333 509.485 83.9707 509.037 83.736C508.6 83.5013 508.12 83.384 507.597 83.384ZM515.351 83.992C515.639 83.384 516.06 82.9147 516.615 82.584C517.169 82.2427 517.831 82.072 518.599 82.072V83.656H518.151C517.329 83.656 516.657 83.8693 516.135 84.296C515.612 84.712 515.351 85.4053 515.351 86.376V91H513.895V82.216H515.351V83.992ZM528.836 82.104C529.615 82.104 530.308 82.2853 530.916 82.648C531.524 83.0107 531.999 83.5333 532.34 84.216C532.692 84.8987 532.868 85.6987 532.868 86.616C532.868 87.5333 532.692 88.3333 532.34 89.016C531.999 89.688 531.524 90.2053 530.916 90.568C530.308 90.9307 529.615 91.112 528.836 91.112C527.983 91.112 527.258 90.8987 526.66 90.472C526.074 90.0347 525.668 89.464 525.444 88.76V95.16H523.988V82.216H525.444V84.456C525.668 83.752 526.074 83.1867 526.66 82.76C527.258 82.3227 527.983 82.104 528.836 82.104ZM528.42 83.4C527.855 83.4 527.343 83.5333 526.884 83.8C526.426 84.056 526.068 84.4293 525.812 84.92C525.556 85.4107 525.428 85.976 525.428 86.616C525.428 87.256 525.556 87.8213 525.812 88.312C526.068 88.792 526.426 89.1653 526.884 89.432C527.343 89.6987 527.855 89.832 528.42 89.832C529.327 89.832 530.047 89.5493 530.58 88.984C531.124 88.408 531.396 87.6187 531.396 86.616C531.396 85.6133 531.124 84.8293 530.58 84.264C530.047 83.688 529.327 83.4 528.42 83.4ZM538.754 82.104C539.596 82.104 540.348 82.2853 541.01 82.648C541.682 83.0107 542.204 83.5333 542.578 84.216C542.962 84.8987 543.154 85.6987 543.154 86.616C543.154 87.5333 542.962 88.3333 542.578 89.016C542.204 89.688 541.682 90.2053 541.01 90.568C540.348 90.9307 539.596 91.112 538.754 91.112C537.911 91.112 537.154 90.9307 536.482 90.568C535.82 90.2053 535.298 89.688 534.914 89.016C534.53 88.3333 534.338 87.5333 534.338 86.616C534.338 85.6987 534.53 84.8987 534.914 84.216C535.298 83.5333 535.82 83.0107 536.482 82.648C537.154 82.2853 537.911 82.104 538.754 82.104ZM538.754 83.384C538.231 83.384 537.746 83.5013 537.298 83.736C536.86 83.9707 536.503 84.3333 536.226 84.824C535.959 85.304 535.826 85.9013 535.826 86.616C535.826 87.32 535.959 87.9173 536.226 88.408C536.503 88.888 536.86 89.2453 537.298 89.48C537.746 89.7147 538.231 89.832 538.754 89.832C539.276 89.832 539.756 89.7147 540.194 89.48C540.642 89.2453 540.999 88.888 541.266 88.408C541.543 87.9173 541.682 87.32 541.682 86.616C541.682 85.9013 541.543 85.304 541.266 84.824C540.999 84.3333 540.642 83.9707 540.194 83.736C539.756 83.5013 539.276 83.384 538.754 83.384ZM547.803 82.104C548.795 82.104 549.589 82.3653 550.187 82.888C550.795 83.4 551.163 84.0933 551.291 84.968H549.899C549.835 84.4453 549.616 84.0187 549.243 83.688C548.88 83.3467 548.389 83.176 547.771 83.176C547.248 83.176 546.837 83.304 546.539 83.56C546.251 83.8053 546.107 84.1413 546.107 84.568C546.107 84.888 546.203 85.1493 546.395 85.352C546.597 85.544 546.843 85.6933 547.131 85.8C547.429 85.896 547.835 86.0027 548.347 86.12C548.997 86.2693 549.52 86.424 549.915 86.584C550.32 86.7333 550.661 86.9787 550.939 87.32C551.227 87.6613 551.371 88.12 551.371 88.696C551.371 89.4107 551.099 89.992 550.555 90.44C550.021 90.888 549.307 91.112 548.411 91.112C547.365 91.112 546.512 90.8613 545.851 90.36C545.189 89.8587 544.8 89.16 544.683 88.264H546.091C546.144 88.7973 546.373 89.2293 546.779 89.56C547.195 89.8907 547.739 90.056 548.411 90.056C548.912 90.056 549.301 89.928 549.579 89.672C549.867 89.416 550.011 89.08 550.011 88.664C550.011 88.3227 549.909 88.0507 549.707 87.848C549.504 87.6453 549.253 87.4907 548.955 87.384C548.656 87.2773 548.245 87.1653 547.723 87.048C547.072 86.8987 546.549 86.7493 546.155 86.6C545.771 86.4507 545.44 86.216 545.163 85.896C544.896 85.5653 544.763 85.1227 544.763 84.568C544.763 83.832 545.035 83.24 545.579 82.792C546.123 82.3333 546.864 82.104 547.803 82.104ZM561.124 82.216V91H559.668V88.936C559.444 89.6507 559.044 90.2 558.468 90.584C557.903 90.9573 557.242 91.144 556.484 91.144C555.471 91.144 554.65 90.8187 554.02 90.168C553.391 89.5067 553.076 88.5627 553.076 87.336V82.216H554.532V87.192C554.532 88.0667 554.756 88.744 555.204 89.224C555.652 89.6933 556.26 89.928 557.028 89.928C557.828 89.928 558.468 89.672 558.948 89.16C559.428 88.6373 559.668 87.88 559.668 86.888V82.216H561.124ZM571.537 86.12C571.537 86.4293 571.516 86.696 571.473 86.92H564.449C564.481 87.9227 564.764 88.6747 565.297 89.176C565.841 89.6773 566.502 89.928 567.281 89.928C567.985 89.928 568.572 89.752 569.041 89.4C569.521 89.0373 569.814 88.5573 569.921 87.96H571.473C571.366 88.568 571.126 89.112 570.753 89.592C570.39 90.072 569.916 90.4453 569.329 90.712C568.742 90.9787 568.081 91.112 567.345 91.112C566.502 91.112 565.756 90.9307 565.105 90.568C564.454 90.2053 563.942 89.688 563.569 89.016C563.206 88.3333 563.025 87.5333 563.025 86.616C563.025 85.6987 563.206 84.8987 563.569 84.216C563.942 83.5333 564.454 83.0107 565.105 82.648C565.756 82.2853 566.502 82.104 567.345 82.104C568.198 82.104 568.94 82.2853 569.569 82.648C570.209 83.0107 570.694 83.496 571.025 84.104C571.366 84.712 571.537 85.384 571.537 86.12ZM570.065 86.216C570.097 85.5653 569.99 85.0213 569.745 84.584C569.5 84.1467 569.164 83.8213 568.737 83.608C568.31 83.3947 567.846 83.288 567.345 83.288C566.545 83.288 565.873 83.5387 565.329 84.04C564.785 84.5307 564.492 85.256 564.449 86.216H570.065ZM574.897 83.992C575.185 83.384 575.607 82.9147 576.161 82.584C576.716 82.2427 577.377 82.072 578.145 82.072V83.656H577.697C576.876 83.656 576.204 83.8693 575.681 84.296C575.159 84.712 574.897 85.4053 574.897 86.376V91H573.441V82.216H574.897V83.992ZM587.662 86.12C587.662 86.4293 587.641 86.696 587.598 86.92H580.574C580.606 87.9227 580.889 88.6747 581.422 89.176C581.966 89.6773 582.627 89.928 583.406 89.928C584.11 89.928 584.697 89.752 585.166 89.4C585.646 89.0373 585.939 88.5573 586.046 87.96H587.598C587.491 88.568 587.251 89.112 586.878 89.592C586.515 90.072 586.041 90.4453 585.454 90.712C584.867 90.9787 584.206 91.112 583.47 91.112C582.627 91.112 581.881 90.9307 581.23 90.568C580.579 90.2053 580.067 89.688 579.694 89.016C579.331 88.3333 579.15 87.5333 579.15 86.616C579.15 85.6987 579.331 84.8987 579.694 84.216C580.067 83.5333 580.579 83.0107 581.23 82.648C581.881 82.2853 582.627 82.104 583.47 82.104C584.323 82.104 585.065 82.2853 585.694 82.648C586.334 83.0107 586.819 83.496 587.15 84.104C587.491 84.712 587.662 85.384 587.662 86.12ZM586.19 86.216C586.222 85.5653 586.115 85.0213 585.87 84.584C585.625 84.1467 585.289 83.8213 584.862 83.608C584.435 83.3947 583.971 83.288 583.47 83.288C582.67 83.288 581.998 83.5387 581.454 84.04C580.91 84.5307 580.617 85.256 580.574 86.216H586.19ZM596.928 89.448L599.648 82.216H601.216L597.776 91H596.048L592.608 82.216H594.176L596.928 89.448ZM610.725 86.12C610.725 86.4293 610.703 86.696 610.661 86.92H603.637C603.669 87.9227 603.951 88.6747 604.485 89.176C605.029 89.6773 605.69 89.928 606.469 89.928C607.173 89.928 607.759 89.752 608.229 89.4C608.709 89.0373 609.002 88.5573 609.109 87.96H610.661C610.554 88.568 610.314 89.112 609.941 89.592C609.578 90.072 609.103 90.4453 608.517 90.712C607.93 90.9787 607.269 91.112 606.533 91.112C605.69 91.112 604.943 90.9307 604.293 90.568C603.642 90.2053 603.13 89.688 602.757 89.016C602.394 88.3333 602.213 87.5333 602.213 86.616C602.213 85.6987 602.394 84.8987 602.757 84.216C603.13 83.5333 603.642 83.0107 604.293 82.648C604.943 82.2853 605.69 82.104 606.533 82.104C607.386 82.104 608.127 82.2853 608.757 82.648C609.397 83.0107 609.882 83.496 610.213 84.104C610.554 84.712 610.725 85.384 610.725 86.12ZM609.253 86.216C609.285 85.5653 609.178 85.0213 608.933 84.584C608.687 84.1467 608.351 83.8213 607.925 83.608C607.498 83.3947 607.034 83.288 606.533 83.288C605.733 83.288 605.061 83.5387 604.517 84.04C603.973 84.5307 603.679 85.256 603.637 86.216H609.253ZM614.085 79.16V91H612.629V79.16H614.085ZM204.287 115.448L207.007 108.216H208.575L205.135 117H203.407L199.967 108.216H201.535L204.287 115.448ZM218.084 112.12C218.084 112.429 218.063 112.696 218.02 112.92H210.996C211.028 113.923 211.311 114.675 211.844 115.176C212.388 115.677 213.049 115.928 213.828 115.928C214.532 115.928 215.119 115.752 215.588 115.4C216.068 115.037 216.361 114.557 216.468 113.96H218.02C217.913 114.568 217.673 115.112 217.3 115.592C216.937 116.072 216.463 116.445 215.876 116.712C215.289 116.979 214.628 117.112 213.892 117.112C213.049 117.112 212.303 116.931 211.652 116.568C211.001 116.205 210.489 115.688 210.116 115.016C209.753 114.333 209.572 113.533 209.572 112.616C209.572 111.699 209.753 110.899 210.116 110.216C210.489 109.533 211.001 109.011 211.652 108.648C212.303 108.285 213.049 108.104 213.892 108.104C214.745 108.104 215.487 108.285 216.116 108.648C216.756 109.011 217.241 109.496 217.572 110.104C217.913 110.712 218.084 111.384 218.084 112.12ZM216.612 112.216C216.644 111.565 216.537 111.021 216.292 110.584C216.047 110.147 215.711 109.821 215.284 109.608C214.857 109.395 214.393 109.288 213.892 109.288C213.092 109.288 212.42 109.539 211.876 110.04C211.332 110.531 211.039 111.256 210.996 112.216H216.612ZM224.612 108.072C225.636 108.072 226.463 108.403 227.092 109.064C227.722 109.715 228.036 110.659 228.036 111.896V117H226.58V112.024C226.58 111.149 226.356 110.477 225.908 110.008C225.46 109.539 224.852 109.304 224.084 109.304C223.284 109.304 222.644 109.565 222.164 110.088C221.684 110.6 221.444 111.352 221.444 112.344V117H219.988V108.216H221.444V110.296C221.668 109.581 222.063 109.032 222.628 108.648C223.204 108.264 223.866 108.072 224.612 108.072ZM238.35 112.12C238.35 112.429 238.328 112.696 238.286 112.92H231.262C231.294 113.923 231.576 114.675 232.11 115.176C232.654 115.677 233.315 115.928 234.094 115.928C234.798 115.928 235.384 115.752 235.854 115.4C236.334 115.037 236.627 114.557 236.734 113.96H238.286C238.179 114.568 237.939 115.112 237.566 115.592C237.203 116.072 236.728 116.445 236.142 116.712C235.555 116.979 234.894 117.112 234.158 117.112C233.315 117.112 232.568 116.931 231.918 116.568C231.267 116.205 230.755 115.688 230.382 115.016C230.019 114.333 229.838 113.533 229.838 112.616C229.838 111.699 230.019 110.899 230.382 110.216C230.755 109.533 231.267 109.011 231.918 108.648C232.568 108.285 233.315 108.104 234.158 108.104C235.011 108.104 235.752 108.285 236.382 108.648C237.022 109.011 237.507 109.496 237.838 110.104C238.179 110.712 238.35 111.384 238.35 112.12ZM236.878 112.216C236.91 111.565 236.803 111.021 236.558 110.584C236.312 110.147 235.976 109.821 235.55 109.608C235.123 109.395 234.659 109.288 234.158 109.288C233.358 109.288 232.686 109.539 232.142 110.04C231.598 110.531 231.304 111.256 231.262 112.216H236.878ZM244.878 108.072C245.902 108.072 246.729 108.403 247.358 109.064C247.987 109.715 248.302 110.659 248.302 111.896V117H246.846V112.024C246.846 111.149 246.622 110.477 246.174 110.008C245.726 109.539 245.118 109.304 244.35 109.304C243.55 109.304 242.91 109.565 242.43 110.088C241.95 110.6 241.71 111.352 241.71 112.344V117H240.254V108.216H241.71V110.296C241.934 109.581 242.329 109.032 242.894 108.648C243.47 108.264 244.131 108.072 244.878 108.072ZM254.135 108.104C254.989 108.104 255.709 108.317 256.295 108.744C256.893 109.171 257.309 109.741 257.543 110.456V108.216H258.999V117H257.543V114.76C257.309 115.475 256.893 116.045 256.295 116.472C255.709 116.899 254.989 117.112 254.135 117.112C253.357 117.112 252.663 116.931 252.055 116.568C251.447 116.205 250.967 115.688 250.615 115.016C250.274 114.333 250.103 113.533 250.103 112.616C250.103 111.699 250.274 110.899 250.615 110.216C250.967 109.533 251.447 109.011 252.055 108.648C252.663 108.285 253.357 108.104 254.135 108.104ZM254.551 109.4C253.655 109.4 252.935 109.688 252.391 110.264C251.858 110.829 251.591 111.613 251.591 112.616C251.591 113.619 251.858 114.408 252.391 114.984C252.935 115.549 253.655 115.832 254.551 115.832C255.127 115.832 255.639 115.699 256.087 115.432C256.546 115.165 256.903 114.792 257.159 114.312C257.415 113.821 257.543 113.256 257.543 112.616C257.543 111.976 257.415 111.411 257.159 110.92C256.903 110.429 256.546 110.056 256.087 109.8C255.639 109.533 255.127 109.4 254.551 109.4ZM265.508 115.72V117H264.42C263.524 117 262.852 116.787 262.404 116.36C261.967 115.933 261.748 115.219 261.748 114.216V109.48H260.436V108.216H261.748V106.024H263.22V108.216H265.492V109.48H263.22V114.248C263.22 114.813 263.322 115.203 263.524 115.416C263.738 115.619 264.1 115.72 264.612 115.72H265.508ZM267.029 105.64C267.029 105.373 267.12 105.16 267.301 105C267.483 104.829 267.723 104.744 268.021 104.744C268.32 104.744 268.56 104.829 268.741 105C268.923 105.16 269.013 105.373 269.013 105.64C269.013 105.907 268.923 106.125 268.741 106.296C268.56 106.456 268.32 106.536 268.021 106.536C267.723 106.536 267.483 106.456 267.301 106.296C267.12 106.125 267.029 105.907 267.029 105.64ZM268.741 108.216V117H267.285V108.216H268.741ZM273.834 108.104C274.826 108.104 275.621 108.365 276.218 108.888C276.826 109.4 277.194 110.093 277.322 110.968H275.93C275.866 110.445 275.647 110.019 275.274 109.688C274.911 109.347 274.421 109.176 273.802 109.176C273.279 109.176 272.869 109.304 272.57 109.56C272.282 109.805 272.138 110.141 272.138 110.568C272.138 110.888 272.234 111.149 272.426 111.352C272.629 111.544 272.874 111.693 273.162 111.8C273.461 111.896 273.866 112.003 274.378 112.12C275.029 112.269 275.551 112.424 275.946 112.584C276.351 112.733 276.693 112.979 276.97 113.32C277.258 113.661 277.402 114.12 277.402 114.696C277.402 115.411 277.13 115.992 276.586 116.44C276.053 116.888 275.338 117.112 274.442 117.112C273.397 117.112 272.543 116.861 271.882 116.36C271.221 115.859 270.831 115.16 270.714 114.264H272.122C272.175 114.797 272.405 115.229 272.81 115.56C273.226 115.891 273.77 116.056 274.442 116.056C274.943 116.056 275.333 115.928 275.61 115.672C275.898 115.416 276.042 115.08 276.042 114.664C276.042 114.323 275.941 114.051 275.738 113.848C275.535 113.645 275.285 113.491 274.986 113.384C274.687 113.277 274.277 113.165 273.754 113.048C273.103 112.899 272.581 112.749 272.186 112.6C271.802 112.451 271.471 112.216 271.194 111.896C270.927 111.565 270.794 111.123 270.794 110.568C270.794 109.832 271.066 109.24 271.61 108.792C272.154 108.333 272.895 108.104 273.834 108.104ZM291.381 112.12C291.381 112.429 291.359 112.696 291.317 112.92H284.293C284.325 113.923 284.607 114.675 285.141 115.176C285.685 115.677 286.346 115.928 287.125 115.928C287.829 115.928 288.415 115.752 288.885 115.4C289.365 115.037 289.658 114.557 289.765 113.96H291.317C291.21 114.568 290.97 115.112 290.597 115.592C290.234 116.072 289.759 116.445 289.173 116.712C288.586 116.979 287.925 117.112 287.189 117.112C286.346 117.112 285.599 116.931 284.949 116.568C284.298 116.205 283.786 115.688 283.413 115.016C283.05 114.333 282.869 113.533 282.869 112.616C282.869 111.699 283.05 110.899 283.413 110.216C283.786 109.533 284.298 109.011 284.949 108.648C285.599 108.285 286.346 108.104 287.189 108.104C288.042 108.104 288.783 108.285 289.413 108.648C290.053 109.011 290.538 109.496 290.869 110.104C291.21 110.712 291.381 111.384 291.381 112.12ZM289.909 112.216C289.941 111.565 289.834 111.021 289.589 110.584C289.343 110.147 289.007 109.821 288.581 109.608C288.154 109.395 287.69 109.288 287.189 109.288C286.389 109.288 285.717 109.539 285.173 110.04C284.629 110.531 284.335 111.256 284.293 112.216H289.909ZM301.093 108.216V117H299.637V114.936C299.413 115.651 299.013 116.2 298.437 116.584C297.872 116.957 297.211 117.144 296.453 117.144C295.44 117.144 294.619 116.819 293.989 116.168C293.36 115.507 293.045 114.563 293.045 113.336V108.216H294.501V113.192C294.501 114.067 294.725 114.744 295.173 115.224C295.621 115.693 296.229 115.928 296.997 115.928C297.797 115.928 298.437 115.672 298.917 115.16C299.397 114.637 299.637 113.88 299.637 112.888V108.216H301.093ZM310.131 108.104C311.123 108.104 311.918 108.365 312.515 108.888C313.123 109.4 313.491 110.093 313.619 110.968H312.227C312.163 110.445 311.944 110.019 311.571 109.688C311.208 109.347 310.718 109.176 310.099 109.176C309.576 109.176 309.166 109.304 308.867 109.56C308.579 109.805 308.435 110.141 308.435 110.568C308.435 110.888 308.531 111.149 308.723 111.352C308.926 111.544 309.171 111.693 309.459 111.8C309.758 111.896 310.163 112.003 310.675 112.12C311.326 112.269 311.848 112.424 312.243 112.584C312.648 112.733 312.99 112.979 313.267 113.32C313.555 113.661 313.699 114.12 313.699 114.696C313.699 115.411 313.427 115.992 312.883 116.44C312.35 116.888 311.635 117.112 310.739 117.112C309.694 117.112 308.84 116.861 308.179 116.36C307.518 115.859 307.128 115.16 307.011 114.264H308.419C308.472 114.797 308.702 115.229 309.107 115.56C309.523 115.891 310.067 116.056 310.739 116.056C311.24 116.056 311.63 115.928 311.907 115.672C312.195 115.416 312.339 115.08 312.339 114.664C312.339 114.323 312.238 114.051 312.035 113.848C311.832 113.645 311.582 113.491 311.283 113.384C310.984 113.277 310.574 113.165 310.051 113.048C309.4 112.899 308.878 112.749 308.483 112.6C308.099 112.451 307.768 112.216 307.491 111.896C307.224 111.565 307.091 111.123 307.091 110.568C307.091 109.832 307.363 109.24 307.907 108.792C308.451 108.333 309.192 108.104 310.131 108.104ZM315.389 105.64C315.389 105.373 315.479 105.16 315.661 105C315.842 104.829 316.082 104.744 316.381 104.744C316.679 104.744 316.919 104.829 317.101 105C317.282 105.16 317.373 105.373 317.373 105.64C317.373 105.907 317.282 106.125 317.101 106.296C316.919 106.456 316.679 106.536 316.381 106.536C316.082 106.536 315.842 106.456 315.661 106.296C315.479 106.125 315.389 105.907 315.389 105.64ZM317.101 108.216V117H315.645V108.216H317.101ZM323.633 115.72V117H322.545C321.649 117 320.977 116.787 320.529 116.36C320.092 115.933 319.873 115.219 319.873 114.216V109.48H318.561V108.216H319.873V106.024H321.345V108.216H323.617V109.48H321.345V114.248C321.345 114.813 321.447 115.203 321.649 115.416C321.863 115.619 322.225 115.72 322.737 115.72H323.633ZM340.163 108.072C341.187 108.072 342.009 108.403 342.627 109.064C343.257 109.715 343.571 110.659 343.571 111.896V117H342.115V112.024C342.115 111.16 341.902 110.499 341.475 110.04C341.059 109.581 340.483 109.352 339.747 109.352C338.979 109.352 338.361 109.608 337.891 110.12C337.433 110.621 337.203 111.363 337.203 112.344V117H335.747V112.024C335.747 111.16 335.534 110.499 335.107 110.04C334.681 109.581 334.105 109.352 333.379 109.352C332.601 109.352 331.977 109.608 331.507 110.12C331.049 110.621 330.819 111.363 330.819 112.344V117H329.363V108.216H330.819V110.216C331.033 109.523 331.411 108.995 331.955 108.632C332.51 108.259 333.145 108.072 333.859 108.072C334.606 108.072 335.251 108.264 335.795 108.648C336.35 109.021 336.745 109.576 336.979 110.312C337.225 109.597 337.635 109.048 338.211 108.664C338.787 108.269 339.438 108.072 340.163 108.072ZM349.432 108.104C350.285 108.104 351.005 108.317 351.592 108.744C352.189 109.171 352.605 109.741 352.84 110.456V108.216H354.296V117H352.84V114.76C352.605 115.475 352.189 116.045 351.592 116.472C351.005 116.899 350.285 117.112 349.432 117.112C348.653 117.112 347.96 116.931 347.352 116.568C346.744 116.205 346.264 115.688 345.912 115.016C345.571 114.333 345.4 113.533 345.4 112.616C345.4 111.699 345.571 110.899 345.912 110.216C346.264 109.533 346.744 109.011 347.352 108.648C347.96 108.285 348.653 108.104 349.432 108.104ZM349.848 109.4C348.952 109.4 348.232 109.688 347.688 110.264C347.155 110.829 346.888 111.613 346.888 112.616C346.888 113.619 347.155 114.408 347.688 114.984C348.232 115.549 348.952 115.832 349.848 115.832C350.424 115.832 350.936 115.699 351.384 115.432C351.843 115.165 352.2 114.792 352.456 114.312C352.712 113.821 352.84 113.256 352.84 112.616C352.84 111.976 352.712 111.411 352.456 110.92C352.2 110.429 351.843 110.056 351.384 109.8C350.936 109.533 350.424 109.4 349.848 109.4ZM359.365 108.104C360.357 108.104 361.152 108.365 361.749 108.888C362.357 109.4 362.725 110.093 362.853 110.968H361.461C361.397 110.445 361.179 110.019 360.805 109.688C360.443 109.347 359.952 109.176 359.333 109.176C358.811 109.176 358.4 109.304 358.101 109.56C357.813 109.805 357.669 110.141 357.669 110.568C357.669 110.888 357.765 111.149 357.957 111.352C358.16 111.544 358.405 111.693 358.693 111.8C358.992 111.896 359.397 112.003 359.909 112.12C360.56 112.269 361.083 112.424 361.477 112.584C361.883 112.733 362.224 112.979 362.501 113.32C362.789 113.661 362.933 114.12 362.933 114.696C362.933 115.411 362.661 115.992 362.117 116.44C361.584 116.888 360.869 117.112 359.973 117.112C358.928 117.112 358.075 116.861 357.413 116.36C356.752 115.859 356.363 115.16 356.245 114.264H357.653C357.707 114.797 357.936 115.229 358.341 115.56C358.757 115.891 359.301 116.056 359.973 116.056C360.475 116.056 360.864 115.928 361.141 115.672C361.429 115.416 361.573 115.08 361.573 114.664C361.573 114.323 361.472 114.051 361.269 113.848C361.067 113.645 360.816 113.491 360.517 113.384C360.219 113.277 359.808 113.165 359.285 113.048C358.635 112.899 358.112 112.749 357.717 112.6C357.333 112.451 357.003 112.216 356.725 111.896C356.459 111.565 356.325 111.123 356.325 110.568C356.325 109.832 356.597 109.24 357.141 108.792C357.685 108.333 358.427 108.104 359.365 108.104ZM367.631 108.104C368.623 108.104 369.418 108.365 370.015 108.888C370.623 109.4 370.991 110.093 371.119 110.968H369.727C369.663 110.445 369.444 110.019 369.071 109.688C368.708 109.347 368.218 109.176 367.599 109.176C367.076 109.176 366.666 109.304 366.367 109.56C366.079 109.805 365.935 110.141 365.935 110.568C365.935 110.888 366.031 111.149 366.223 111.352C366.426 111.544 366.671 111.693 366.959 111.8C367.258 111.896 367.663 112.003 368.175 112.12C368.826 112.269 369.348 112.424 369.743 112.584C370.148 112.733 370.49 112.979 370.767 113.32C371.055 113.661 371.199 114.12 371.199 114.696C371.199 115.411 370.927 115.992 370.383 116.44C369.85 116.888 369.135 117.112 368.239 117.112C367.194 117.112 366.34 116.861 365.679 116.36C365.018 115.859 364.628 115.16 364.511 114.264H365.919C365.972 114.797 366.202 115.229 366.607 115.56C367.023 115.891 367.567 116.056 368.239 116.056C368.74 116.056 369.13 115.928 369.407 115.672C369.695 115.416 369.839 115.08 369.839 114.664C369.839 114.323 369.738 114.051 369.535 113.848C369.332 113.645 369.082 113.491 368.783 113.384C368.484 113.277 368.074 113.165 367.551 113.048C366.9 112.899 366.378 112.749 365.983 112.6C365.599 112.451 365.268 112.216 364.991 111.896C364.724 111.565 364.591 111.123 364.591 110.568C364.591 109.832 364.863 109.24 365.407 108.792C365.951 108.333 366.692 108.104 367.631 108.104ZM376.745 108.104C377.598 108.104 378.318 108.317 378.905 108.744C379.502 109.171 379.918 109.741 380.153 110.456V108.216H381.609V117H380.153V114.76C379.918 115.475 379.502 116.045 378.905 116.472C378.318 116.899 377.598 117.112 376.745 117.112C375.966 117.112 375.273 116.931 374.665 116.568C374.057 116.205 373.577 115.688 373.225 115.016C372.883 114.333 372.713 113.533 372.713 112.616C372.713 111.699 372.883 110.899 373.225 110.216C373.577 109.533 374.057 109.011 374.665 108.648C375.273 108.285 375.966 108.104 376.745 108.104ZM377.161 109.4C376.265 109.4 375.545 109.688 375.001 110.264C374.467 110.829 374.201 111.613 374.201 112.616C374.201 113.619 374.467 114.408 375.001 114.984C375.545 115.549 376.265 115.832 377.161 115.832C377.737 115.832 378.249 115.699 378.697 115.432C379.155 115.165 379.513 114.792 379.769 114.312C380.025 113.821 380.153 113.256 380.153 112.616C380.153 111.976 380.025 111.411 379.769 110.92C379.513 110.429 379.155 110.056 378.697 109.8C378.249 109.533 377.737 109.4 377.161 109.4ZM391.287 115.448L394.007 108.216H395.575L392.135 117H390.407L386.967 108.216H388.535L391.287 115.448ZM400.988 108.104C401.831 108.104 402.583 108.285 403.244 108.648C403.916 109.011 404.439 109.533 404.812 110.216C405.196 110.899 405.388 111.699 405.388 112.616C405.388 113.533 405.196 114.333 404.812 115.016C404.439 115.688 403.916 116.205 403.244 116.568C402.583 116.931 401.831 117.112 400.988 117.112C400.145 117.112 399.388 116.931 398.716 116.568C398.055 116.205 397.532 115.688 397.148 115.016C396.764 114.333 396.572 113.533 396.572 112.616C396.572 111.699 396.764 110.899 397.148 110.216C397.532 109.533 398.055 109.011 398.716 108.648C399.388 108.285 400.145 108.104 400.988 108.104ZM400.988 109.384C400.465 109.384 399.98 109.501 399.532 109.736C399.095 109.971 398.737 110.333 398.46 110.824C398.193 111.304 398.06 111.901 398.06 112.616C398.06 113.32 398.193 113.917 398.46 114.408C398.737 114.888 399.095 115.245 399.532 115.48C399.98 115.715 400.465 115.832 400.988 115.832C401.511 115.832 401.991 115.715 402.428 115.48C402.876 115.245 403.233 114.888 403.5 114.408C403.777 113.917 403.916 113.32 403.916 112.616C403.916 111.901 403.777 111.304 403.5 110.824C403.233 110.333 402.876 109.971 402.428 109.736C401.991 109.501 401.511 109.384 400.988 109.384ZM408.741 105.16V117H407.285V105.16H408.741ZM418.89 108.216V117H417.434V114.936C417.21 115.651 416.81 116.2 416.234 116.584C415.669 116.957 415.007 117.144 414.25 117.144C413.237 117.144 412.415 116.819 411.786 116.168C411.157 115.507 410.842 114.563 410.842 113.336V108.216H412.298V113.192C412.298 114.067 412.522 114.744 412.97 115.224C413.418 115.693 414.026 115.928 414.794 115.928C415.594 115.928 416.234 115.672 416.714 115.16C417.194 114.637 417.434 113.88 417.434 112.888V108.216H418.89ZM425.415 115.72V117H424.327C423.431 117 422.759 116.787 422.311 116.36C421.873 115.933 421.655 115.219 421.655 114.216V109.48H420.343V108.216H421.655V106.024H423.127V108.216H425.399V109.48H423.127V114.248C423.127 114.813 423.228 115.203 423.431 115.416C423.644 115.619 424.007 115.72 424.519 115.72H425.415ZM432.039 108.104C432.818 108.104 433.511 108.285 434.119 108.648C434.727 109.011 435.202 109.533 435.543 110.216C435.895 110.899 436.071 111.699 436.071 112.616C436.071 113.533 435.895 114.333 435.543 115.016C435.202 115.688 434.727 116.205 434.119 116.568C433.511 116.931 432.818 117.112 432.039 117.112C431.186 117.112 430.461 116.899 429.863 116.472C429.277 116.035 428.871 115.464 428.647 114.76V121.16H427.191V108.216H428.647V110.456C428.871 109.752 429.277 109.187 429.863 108.76C430.461 108.323 431.186 108.104 432.039 108.104ZM431.623 109.4C431.058 109.4 430.546 109.533 430.087 109.8C429.629 110.056 429.271 110.429 429.015 110.92C428.759 111.411 428.631 111.976 428.631 112.616C428.631 113.256 428.759 113.821 429.015 114.312C429.271 114.792 429.629 115.165 430.087 115.432C430.546 115.699 431.058 115.832 431.623 115.832C432.53 115.832 433.25 115.549 433.783 114.984C434.327 114.408 434.599 113.619 434.599 112.616C434.599 111.613 434.327 110.829 433.783 110.264C433.25 109.688 432.53 109.4 431.623 109.4ZM441.573 108.104C442.426 108.104 443.146 108.317 443.733 108.744C444.33 109.171 444.746 109.741 444.981 110.456V108.216H446.437V117H444.981V114.76C444.746 115.475 444.33 116.045 443.733 116.472C443.146 116.899 442.426 117.112 441.573 117.112C440.794 117.112 440.101 116.931 439.493 116.568C438.885 116.205 438.405 115.688 438.053 115.016C437.711 114.333 437.541 113.533 437.541 112.616C437.541 111.699 437.711 110.899 438.053 110.216C438.405 109.533 438.885 109.011 439.493 108.648C440.101 108.285 440.794 108.104 441.573 108.104ZM441.989 109.4C441.093 109.4 440.373 109.688 439.829 110.264C439.295 110.829 439.029 111.613 439.029 112.616C439.029 113.619 439.295 114.408 439.829 114.984C440.373 115.549 441.093 115.832 441.989 115.832C442.565 115.832 443.077 115.699 443.525 115.432C443.983 115.165 444.341 114.792 444.597 114.312C444.853 113.821 444.981 113.256 444.981 112.616C444.981 111.976 444.853 111.411 444.597 110.92C444.341 110.429 443.983 110.056 443.525 109.8C443.077 109.533 442.565 109.4 441.989 109.4ZM452.946 115.72V117H451.858C450.962 117 450.29 116.787 449.842 116.36C449.405 115.933 449.186 115.219 449.186 114.216V109.48H447.874V108.216H449.186V106.024H450.658V108.216H452.93V109.48H450.658V114.248C450.658 114.813 450.759 115.203 450.962 115.416C451.175 115.619 451.538 115.72 452.05 115.72H452.946ZM455.795 115.288V117H454.035V115.288H455.795Z" fill="#D3D5DA"/>
</svg>
