<svg width="612" height="588" viewBox="0 0 612 588" fill="none" xmlns="http://www.w3.org/2000/svg">
<rect width="612" height="588" rx="20" fill="#222938"/>
<path d="M87.4382 298.909H89.8352L94.0028 309.085H94.1562L98.3239 298.909H100.721V312H98.8416V302.527H98.7202L94.8594 311.981H93.2997L89.4389 302.521H89.3175V312H87.4382V298.909ZM107.671 312.198C106.703 312.198 105.87 311.991 105.171 311.578C104.477 311.161 103.94 310.575 103.561 309.82C103.186 309.062 102.998 308.173 102.998 307.155C102.998 306.149 103.186 305.263 103.561 304.496C103.94 303.729 104.468 303.13 105.146 302.7C105.828 302.269 106.624 302.054 107.536 302.054C108.09 302.054 108.627 302.146 109.147 302.329C109.667 302.512 110.134 302.8 110.547 303.192C110.96 303.584 111.286 304.093 111.525 304.719C111.764 305.342 111.883 306.098 111.883 306.989V307.666H104.078V306.234H110.01C110.01 305.732 109.908 305.286 109.703 304.898C109.499 304.506 109.211 304.197 108.84 303.972C108.474 303.746 108.044 303.633 107.549 303.633C107.012 303.633 106.544 303.765 106.143 304.029C105.747 304.289 105.44 304.63 105.222 305.052C105.009 305.469 104.903 305.923 104.903 306.413V307.532C104.903 308.188 105.018 308.746 105.248 309.207C105.482 309.667 105.808 310.018 106.226 310.261C106.644 310.5 107.132 310.619 107.69 310.619C108.052 310.619 108.382 310.568 108.681 310.466C108.979 310.359 109.237 310.202 109.454 309.993C109.671 309.784 109.838 309.526 109.953 309.219L111.762 309.545C111.617 310.078 111.357 310.545 110.982 310.945C110.611 311.342 110.144 311.651 109.582 311.872C109.024 312.089 108.387 312.198 107.671 312.198ZM121.361 304.579L119.629 304.886C119.556 304.664 119.441 304.453 119.283 304.253C119.13 304.053 118.921 303.888 118.657 303.761C118.393 303.633 118.063 303.569 117.666 303.569C117.125 303.569 116.673 303.69 116.311 303.933C115.949 304.172 115.768 304.481 115.768 304.86C115.768 305.188 115.889 305.452 116.132 305.653C116.375 305.853 116.767 306.017 117.308 306.145L118.868 306.503C119.771 306.712 120.445 307.033 120.888 307.468C121.331 307.903 121.553 308.467 121.553 309.162C121.553 309.75 121.382 310.274 121.041 310.734C120.705 311.19 120.234 311.548 119.629 311.808C119.028 312.068 118.331 312.198 117.538 312.198C116.439 312.198 115.542 311.964 114.847 311.495C114.153 311.022 113.727 310.351 113.569 309.482L115.416 309.2C115.531 309.682 115.768 310.046 116.126 310.293C116.484 310.536 116.95 310.658 117.526 310.658C118.152 310.658 118.653 310.528 119.028 310.268C119.403 310.004 119.59 309.682 119.59 309.303C119.59 308.996 119.475 308.738 119.245 308.529C119.019 308.32 118.672 308.163 118.203 308.056L116.541 307.692C115.625 307.483 114.947 307.151 114.509 306.695C114.074 306.239 113.857 305.661 113.857 304.962C113.857 304.383 114.018 303.876 114.342 303.441C114.666 303.006 115.114 302.668 115.685 302.425C116.256 302.178 116.91 302.054 117.647 302.054C118.708 302.054 119.543 302.284 120.153 302.744C120.762 303.2 121.165 303.812 121.361 304.579ZM131.011 304.579L129.279 304.886C129.206 304.664 129.091 304.453 128.934 304.253C128.78 304.053 128.572 303.888 128.307 303.761C128.043 303.633 127.713 303.569 127.317 303.569C126.775 303.569 126.324 303.69 125.961 303.933C125.599 304.172 125.418 304.481 125.418 304.86C125.418 305.188 125.54 305.452 125.782 305.653C126.025 305.853 126.417 306.017 126.959 306.145L128.518 306.503C129.422 306.712 130.095 307.033 130.538 307.468C130.981 307.903 131.203 308.467 131.203 309.162C131.203 309.75 131.032 310.274 130.692 310.734C130.355 311.19 129.884 311.548 129.279 311.808C128.678 312.068 127.981 312.198 127.189 312.198C126.089 312.198 125.192 311.964 124.498 311.495C123.803 311.022 123.377 310.351 123.219 309.482L125.067 309.2C125.182 309.682 125.418 310.046 125.776 310.293C126.134 310.536 126.601 310.658 127.176 310.658C127.802 310.658 128.303 310.528 128.678 310.268C129.053 310.004 129.241 309.682 129.241 309.303C129.241 308.996 129.126 308.738 128.895 308.529C128.67 308.32 128.322 308.163 127.854 308.056L126.192 307.692C125.275 307.483 124.598 307.151 124.159 306.695C123.724 306.239 123.507 305.661 123.507 304.962C123.507 304.383 123.669 303.876 123.993 303.441C124.317 303.006 124.764 302.668 125.335 302.425C125.906 302.178 126.56 302.054 127.297 302.054C128.358 302.054 129.194 302.284 129.803 302.744C130.412 303.2 130.815 303.812 131.011 304.579ZM136.162 312.217C135.539 312.217 134.977 312.102 134.474 311.872C133.971 311.638 133.573 311.299 133.279 310.856C132.989 310.413 132.844 309.869 132.844 309.226C132.844 308.672 132.951 308.216 133.164 307.858C133.377 307.5 133.664 307.217 134.027 307.008C134.389 306.799 134.794 306.641 135.241 306.535C135.689 306.428 136.145 306.347 136.609 306.292C137.197 306.224 137.674 306.168 138.041 306.126C138.407 306.079 138.674 306.004 138.84 305.902C139.006 305.8 139.089 305.634 139.089 305.403V305.359C139.089 304.8 138.931 304.368 138.616 304.061C138.305 303.754 137.841 303.601 137.223 303.601C136.579 303.601 136.072 303.744 135.701 304.029C135.335 304.31 135.081 304.624 134.941 304.969L133.145 304.56C133.358 303.963 133.669 303.482 134.078 303.115C134.491 302.744 134.966 302.476 135.503 302.31C136.04 302.139 136.605 302.054 137.197 302.054C137.589 302.054 138.005 302.101 138.444 302.195C138.887 302.284 139.3 302.45 139.684 302.693C140.071 302.936 140.389 303.283 140.636 303.735C140.883 304.183 141.007 304.764 141.007 305.48V312H139.14V310.658H139.064C138.94 310.905 138.755 311.148 138.507 311.386C138.26 311.625 137.943 311.823 137.555 311.981C137.167 312.138 136.703 312.217 136.162 312.217ZM136.577 310.683C137.105 310.683 137.557 310.579 137.932 310.37C138.311 310.161 138.599 309.888 138.795 309.552C138.995 309.211 139.096 308.847 139.096 308.459V307.193C139.027 307.261 138.895 307.325 138.699 307.385C138.507 307.44 138.288 307.489 138.041 307.532C137.794 307.57 137.553 307.607 137.319 307.641C137.084 307.67 136.888 307.696 136.73 307.717C136.36 307.764 136.021 307.843 135.714 307.954C135.412 308.065 135.169 308.224 134.985 308.433C134.806 308.638 134.717 308.911 134.717 309.251C134.717 309.724 134.892 310.082 135.241 310.325C135.591 310.564 136.036 310.683 136.577 310.683ZM147.669 315.886C146.889 315.886 146.218 315.784 145.655 315.58C145.097 315.375 144.641 315.104 144.287 314.768C143.934 314.431 143.67 314.063 143.495 313.662L145.138 312.984C145.253 313.172 145.406 313.37 145.598 313.579C145.794 313.792 146.058 313.973 146.39 314.122C146.727 314.271 147.16 314.346 147.688 314.346C148.412 314.346 149.011 314.169 149.484 313.815C149.957 313.466 150.194 312.908 150.194 312.141V310.21H150.072C149.957 310.419 149.791 310.651 149.574 310.907C149.361 311.163 149.067 311.384 148.692 311.572C148.317 311.759 147.829 311.853 147.228 311.853C146.452 311.853 145.753 311.672 145.131 311.31C144.513 310.943 144.023 310.404 143.661 309.692C143.303 308.977 143.124 308.097 143.124 307.053C143.124 306.009 143.301 305.114 143.655 304.368C144.013 303.622 144.503 303.051 145.125 302.655C145.747 302.254 146.452 302.054 147.241 302.054C147.85 302.054 148.342 302.156 148.717 302.361C149.092 302.561 149.384 302.795 149.593 303.064C149.806 303.332 149.97 303.569 150.085 303.773H150.226V302.182H152.099V312.217C152.099 313.061 151.903 313.754 151.51 314.295C151.118 314.836 150.588 315.237 149.919 315.496C149.254 315.756 148.504 315.886 147.669 315.886ZM147.65 310.268C148.199 310.268 148.664 310.14 149.043 309.884C149.427 309.624 149.716 309.254 149.912 308.772C150.113 308.286 150.213 307.705 150.213 307.027C150.213 306.366 150.115 305.785 149.919 305.282C149.723 304.779 149.435 304.387 149.056 304.106C148.677 303.82 148.208 303.678 147.65 303.678C147.074 303.678 146.595 303.827 146.211 304.125C145.828 304.419 145.538 304.82 145.342 305.327C145.15 305.834 145.055 306.401 145.055 307.027C145.055 307.67 145.153 308.235 145.349 308.721C145.545 309.207 145.834 309.586 146.218 309.859C146.606 310.131 147.083 310.268 147.65 310.268ZM158.893 312.198C157.926 312.198 157.093 311.991 156.394 311.578C155.699 311.161 155.162 310.575 154.783 309.82C154.408 309.062 154.221 308.173 154.221 307.155C154.221 306.149 154.408 305.263 154.783 304.496C155.162 303.729 155.691 303.13 156.368 302.7C157.05 302.269 157.847 302.054 158.759 302.054C159.313 302.054 159.85 302.146 160.37 302.329C160.89 302.512 161.356 302.8 161.77 303.192C162.183 303.584 162.509 304.093 162.748 304.719C162.986 305.342 163.106 306.098 163.106 306.989V307.666H155.301V306.234H161.233C161.233 305.732 161.131 305.286 160.926 304.898C160.721 304.506 160.434 304.197 160.063 303.972C159.697 303.746 159.266 303.633 158.772 303.633C158.235 303.633 157.766 303.765 157.366 304.029C156.969 304.289 156.662 304.63 156.445 305.052C156.232 305.469 156.126 305.923 156.126 306.413V307.532C156.126 308.188 156.241 308.746 156.471 309.207C156.705 309.667 157.031 310.018 157.449 310.261C157.866 310.5 158.354 310.619 158.912 310.619C159.275 310.619 159.605 310.568 159.903 310.466C160.202 310.359 160.459 310.202 160.677 309.993C160.894 309.784 161.06 309.526 161.175 309.219L162.984 309.545C162.839 310.078 162.579 310.545 162.204 310.945C161.834 311.342 161.367 311.651 160.805 311.872C160.246 312.089 159.609 312.198 158.893 312.198Z" fill="white"/>
<rect x="86" y="336" width="440" height="80" rx="10" fill="white"/>
<path d="M109.112 370L106.288 359.818H107.904L109.888 367.703H109.982L112.045 359.818H113.646L115.71 367.708H115.804L117.783 359.818H119.403L116.575 370H115.028L112.886 362.374H112.806L110.663 370H109.112ZM122.171 365.466V370H120.685V359.818H122.151V363.607H122.246C122.425 363.196 122.698 362.869 123.066 362.627C123.434 362.385 123.915 362.264 124.508 362.264C125.032 362.264 125.489 362.372 125.88 362.587C126.275 362.803 126.579 363.124 126.795 363.552C127.014 363.976 127.123 364.506 127.123 365.143V370H125.637V365.322C125.637 364.762 125.492 364.327 125.204 364.019C124.916 363.708 124.515 363.552 124.001 363.552C123.65 363.552 123.335 363.626 123.056 363.776C122.781 363.925 122.564 364.143 122.405 364.432C122.249 364.717 122.171 365.062 122.171 365.466ZM131.329 370.169C130.845 370.169 130.408 370.08 130.017 369.901C129.625 369.718 129.316 369.455 129.087 369.11C128.861 368.765 128.749 368.343 128.749 367.842C128.749 367.411 128.832 367.057 128.997 366.778C129.163 366.5 129.387 366.28 129.669 366.117C129.95 365.955 130.265 365.832 130.613 365.749C130.961 365.666 131.316 365.603 131.677 365.56C132.134 365.507 132.506 365.464 132.791 365.431C133.076 365.395 133.283 365.337 133.412 365.257C133.541 365.178 133.606 365.048 133.606 364.869V364.835C133.606 364.4 133.483 364.064 133.238 363.825C132.996 363.587 132.635 363.467 132.154 363.467C131.654 363.467 131.259 363.578 130.971 363.8C130.686 364.019 130.489 364.263 130.379 364.531L128.982 364.213C129.148 363.749 129.39 363.375 129.708 363.089C130.03 362.801 130.399 362.592 130.817 362.463C131.235 362.33 131.674 362.264 132.134 362.264C132.439 362.264 132.762 362.301 133.104 362.374C133.449 362.443 133.77 362.572 134.068 362.761C134.37 362.95 134.617 363.22 134.809 363.572C135.001 363.92 135.097 364.372 135.097 364.929V370H133.646V368.956H133.586C133.49 369.148 133.346 369.337 133.154 369.523C132.961 369.708 132.714 369.862 132.413 369.985C132.111 370.108 131.75 370.169 131.329 370.169ZM131.652 368.976C132.063 368.976 132.414 368.895 132.706 368.732C133.001 368.57 133.225 368.358 133.377 368.096C133.533 367.831 133.611 367.547 133.611 367.246V366.261C133.558 366.314 133.455 366.364 133.303 366.411C133.154 366.454 132.983 366.492 132.791 366.525C132.598 366.555 132.411 366.583 132.229 366.609C132.047 366.633 131.894 366.652 131.771 366.669C131.483 366.705 131.22 366.767 130.981 366.853C130.746 366.939 130.557 367.063 130.414 367.226C130.275 367.385 130.205 367.597 130.205 367.862C130.205 368.23 130.341 368.509 130.613 368.697C130.885 368.883 131.231 368.976 131.652 368.976ZM140.642 362.364V363.557H136.471V362.364H140.642ZM137.589 360.534H139.076V367.758C139.076 368.046 139.119 368.263 139.205 368.409C139.291 368.552 139.402 368.649 139.538 368.702C139.678 368.752 139.828 368.777 139.991 368.777C140.11 368.777 140.214 368.769 140.304 368.752C140.393 368.736 140.463 368.722 140.513 368.712L140.781 369.94C140.695 369.973 140.572 370.007 140.413 370.04C140.254 370.076 140.055 370.096 139.817 370.099C139.426 370.106 139.061 370.036 138.723 369.891C138.385 369.745 138.112 369.519 137.903 369.214C137.694 368.91 137.589 368.527 137.589 368.066V360.534ZM148.214 370.169C147.73 370.169 147.292 370.08 146.901 369.901C146.51 369.718 146.2 369.455 145.972 369.11C145.746 368.765 145.634 368.343 145.634 367.842C145.634 367.411 145.716 367.057 145.882 366.778C146.048 366.5 146.272 366.28 146.553 366.117C146.835 365.955 147.15 365.832 147.498 365.749C147.846 365.666 148.201 365.603 148.562 365.56C149.019 365.507 149.39 365.464 149.675 365.431C149.96 365.395 150.168 365.337 150.297 365.257C150.426 365.178 150.491 365.048 150.491 364.869V364.835C150.491 364.4 150.368 364.064 150.123 363.825C149.881 363.587 149.52 363.467 149.039 363.467C148.539 363.467 148.144 363.578 147.856 363.8C147.571 364.019 147.374 364.263 147.264 364.531L145.867 364.213C146.033 363.749 146.275 363.375 146.593 363.089C146.915 362.801 147.284 362.592 147.702 362.463C148.119 362.33 148.558 362.264 149.019 362.264C149.324 362.264 149.647 362.301 149.989 362.374C150.333 362.443 150.655 362.572 150.953 362.761C151.255 362.95 151.502 363.22 151.694 363.572C151.886 363.92 151.982 364.372 151.982 364.929V370H150.531V368.956H150.471C150.375 369.148 150.231 369.337 150.038 369.523C149.846 369.708 149.599 369.862 149.298 369.985C148.996 370.108 148.635 370.169 148.214 370.169ZM148.537 368.976C148.948 368.976 149.299 368.895 149.591 368.732C149.886 368.57 150.11 368.358 150.262 368.096C150.418 367.831 150.496 367.547 150.496 367.246V366.261C150.443 366.314 150.34 366.364 150.188 366.411C150.038 366.454 149.868 366.492 149.675 366.525C149.483 366.555 149.296 366.583 149.114 366.609C148.931 366.633 148.779 366.652 148.656 366.669C148.368 366.705 148.104 366.767 147.866 366.853C147.63 366.939 147.442 367.063 147.299 367.226C147.16 367.385 147.09 367.597 147.09 367.862C147.09 368.23 147.226 368.509 147.498 368.697C147.77 368.883 148.116 368.976 148.537 368.976ZM153.962 370V362.364H155.399V363.577H155.479C155.618 363.166 155.863 362.843 156.214 362.607C156.569 362.369 156.97 362.249 157.417 362.249C157.51 362.249 157.62 362.253 157.746 362.259C157.875 362.266 157.976 362.274 158.049 362.284V363.706C157.989 363.689 157.883 363.671 157.731 363.651C157.578 363.628 157.426 363.616 157.273 363.616C156.922 363.616 156.609 363.691 156.334 363.84C156.062 363.986 155.846 364.19 155.687 364.452C155.528 364.71 155.449 365.005 155.449 365.337V370H153.962ZM162.353 370.154C161.601 370.154 160.953 369.993 160.409 369.672C159.869 369.347 159.451 368.891 159.156 368.305C158.865 367.715 158.719 367.024 158.719 366.232C158.719 365.449 158.865 364.76 159.156 364.163C159.451 363.567 159.862 363.101 160.389 362.766C160.92 362.432 161.539 362.264 162.249 362.264C162.679 362.264 163.097 362.335 163.501 362.478C163.906 362.621 164.269 362.844 164.59 363.149C164.912 363.454 165.165 363.85 165.351 364.337C165.536 364.821 165.629 365.41 165.629 366.102V366.629H159.559V365.516H164.173C164.173 365.125 164.093 364.778 163.934 364.477C163.775 364.172 163.551 363.931 163.263 363.756C162.978 363.58 162.643 363.492 162.259 363.492C161.841 363.492 161.476 363.595 161.165 363.8C160.857 364.003 160.618 364.268 160.449 364.596C160.283 364.921 160.2 365.274 160.2 365.655V366.525C160.2 367.035 160.29 367.469 160.469 367.827C160.651 368.185 160.905 368.459 161.229 368.648C161.554 368.833 161.934 368.926 162.368 368.926C162.65 368.926 162.906 368.886 163.138 368.807C163.371 368.724 163.571 368.601 163.74 368.439C163.909 368.277 164.038 368.076 164.128 367.837L165.535 368.091C165.422 368.505 165.22 368.868 164.928 369.18C164.64 369.488 164.277 369.728 163.839 369.901C163.405 370.07 162.91 370.154 162.353 370.154ZM171.923 372.864C171.701 372.864 171.499 372.845 171.317 372.809C171.134 372.776 170.999 372.739 170.909 372.7L171.267 371.482C171.539 371.554 171.781 371.586 171.993 371.576C172.205 371.566 172.392 371.487 172.555 371.337C172.72 371.188 172.866 370.945 172.992 370.607L173.176 370.099L170.382 362.364H171.973L173.907 368.29H173.987L175.92 362.364H177.516L174.369 371.019C174.223 371.417 174.038 371.753 173.812 372.028C173.587 372.307 173.319 372.516 173.007 372.655C172.696 372.794 172.334 372.864 171.923 372.864ZM181.87 370.154C181.154 370.154 180.53 369.99 179.996 369.662C179.462 369.334 179.048 368.875 178.753 368.285C178.458 367.695 178.311 367.005 178.311 366.217C178.311 365.424 178.458 364.732 178.753 364.138C179.048 363.545 179.462 363.085 179.996 362.756C180.53 362.428 181.154 362.264 181.87 362.264C182.586 362.264 183.211 362.428 183.744 362.756C184.278 363.085 184.692 363.545 184.987 364.138C185.282 364.732 185.43 365.424 185.43 366.217C185.43 367.005 185.282 367.695 184.987 368.285C184.692 368.875 184.278 369.334 183.744 369.662C183.211 369.99 182.586 370.154 181.87 370.154ZM181.875 368.906C182.339 368.906 182.724 368.784 183.029 368.538C183.334 368.293 183.559 367.967 183.705 367.559C183.854 367.151 183.928 366.702 183.928 366.212C183.928 365.724 183.854 365.277 183.705 364.869C183.559 364.458 183.334 364.129 183.029 363.88C182.724 363.631 182.339 363.507 181.875 363.507C181.408 363.507 181.02 363.631 180.712 363.88C180.407 364.129 180.18 364.458 180.031 364.869C179.885 365.277 179.812 365.724 179.812 366.212C179.812 366.702 179.885 367.151 180.031 367.559C180.18 367.967 180.407 368.293 180.712 368.538C181.02 368.784 181.408 368.906 181.875 368.906ZM191.926 366.833V362.364H193.418V370H191.956V368.678H191.877C191.701 369.085 191.419 369.425 191.032 369.697C190.647 369.965 190.168 370.099 189.595 370.099C189.104 370.099 188.67 369.992 188.292 369.776C187.918 369.558 187.623 369.234 187.407 368.807C187.195 368.379 187.089 367.851 187.089 367.221V362.364H188.576V367.042C188.576 367.562 188.72 367.977 189.008 368.285C189.297 368.593 189.671 368.747 190.132 368.747C190.41 368.747 190.687 368.678 190.962 368.538C191.24 368.399 191.471 368.189 191.653 367.907C191.839 367.625 191.93 367.267 191.926 366.833ZM204.843 364.228L203.495 364.467C203.439 364.294 203.35 364.13 203.227 363.974C203.108 363.819 202.945 363.691 202.74 363.592C202.534 363.492 202.277 363.442 201.969 363.442C201.548 363.442 201.197 363.537 200.915 363.726C200.633 363.911 200.493 364.152 200.493 364.447C200.493 364.702 200.587 364.907 200.776 365.063C200.965 365.219 201.27 365.347 201.691 365.446L202.904 365.724C203.606 365.887 204.13 366.137 204.475 366.475C204.819 366.813 204.992 367.252 204.992 367.793C204.992 368.25 204.859 368.658 204.594 369.016C204.332 369.37 203.966 369.649 203.495 369.851C203.028 370.053 202.486 370.154 201.87 370.154C201.015 370.154 200.317 369.972 199.777 369.607C199.236 369.239 198.905 368.717 198.782 368.041L200.219 367.822C200.309 368.197 200.493 368.48 200.771 368.673C201.049 368.862 201.412 368.956 201.86 368.956C202.347 368.956 202.736 368.855 203.028 368.653C203.32 368.447 203.466 368.197 203.466 367.902C203.466 367.663 203.376 367.463 203.197 367.3C203.021 367.138 202.751 367.015 202.387 366.933L201.094 366.649C200.382 366.487 199.855 366.228 199.513 365.874C199.175 365.519 199.006 365.07 199.006 364.526C199.006 364.076 199.132 363.681 199.384 363.343C199.636 363.005 199.984 362.741 200.428 362.553C200.872 362.36 201.381 362.264 201.954 362.264C202.779 362.264 203.429 362.443 203.903 362.801C204.377 363.156 204.69 363.631 204.843 364.228ZM208.849 370.169C208.365 370.169 207.927 370.08 207.536 369.901C207.145 369.718 206.835 369.455 206.606 369.11C206.381 368.765 206.268 368.343 206.268 367.842C206.268 367.411 206.351 367.057 206.517 366.778C206.683 366.5 206.906 366.28 207.188 366.117C207.47 365.955 207.785 365.832 208.133 365.749C208.481 365.666 208.835 365.603 209.197 365.56C209.654 365.507 210.025 365.464 210.31 365.431C210.595 365.395 210.802 365.337 210.932 365.257C211.061 365.178 211.126 365.048 211.126 364.869V364.835C211.126 364.4 211.003 364.064 210.758 363.825C210.516 363.587 210.154 363.467 209.674 363.467C209.173 363.467 208.779 363.578 208.491 363.8C208.206 364.019 208.008 364.263 207.899 364.531L206.502 364.213C206.668 363.749 206.91 363.375 207.228 363.089C207.549 362.801 207.919 362.592 208.336 362.463C208.754 362.33 209.193 362.264 209.654 362.264C209.959 362.264 210.282 362.301 210.623 362.374C210.968 362.443 211.29 362.572 211.588 362.761C211.89 362.95 212.136 363.22 212.329 363.572C212.521 363.92 212.617 364.372 212.617 364.929V370H211.165V368.956H211.106C211.01 369.148 210.865 369.337 210.673 369.523C210.481 369.708 210.234 369.862 209.932 369.985C209.631 370.108 209.269 370.169 208.849 370.169ZM209.172 368.976C209.583 368.976 209.934 368.895 210.226 368.732C210.521 368.57 210.744 368.358 210.897 368.096C211.053 367.831 211.131 367.547 211.131 367.246V366.261C211.077 366.314 210.975 366.364 210.822 366.411C210.673 366.454 210.502 366.492 210.31 366.525C210.118 366.555 209.931 366.583 209.748 366.609C209.566 366.633 209.414 366.652 209.291 366.669C209.003 366.705 208.739 366.767 208.501 366.853C208.265 366.939 208.076 367.063 207.934 367.226C207.795 367.385 207.725 367.597 207.725 367.862C207.725 368.23 207.861 368.509 208.133 368.697C208.404 368.883 208.751 368.976 209.172 368.976ZM215.263 372.864C215.041 372.864 214.839 372.845 214.657 372.809C214.474 372.776 214.338 372.739 214.249 372.7L214.607 371.482C214.879 371.554 215.121 371.586 215.333 371.576C215.545 371.566 215.732 371.487 215.895 371.337C216.06 371.188 216.206 370.945 216.332 370.607L216.516 370.099L213.722 362.364H215.313L217.247 368.29H217.326L219.26 362.364H220.856L217.709 371.019C217.563 371.417 217.378 371.753 217.152 372.028C216.927 372.307 216.658 372.516 216.347 372.655C216.035 372.794 215.674 372.864 215.263 372.864ZM227.584 367.072V366.977C227.591 366.361 227.652 365.87 227.768 365.506C227.887 365.141 228.056 364.846 228.275 364.621C228.494 364.395 228.757 364.19 229.066 364.004C229.264 363.878 229.443 363.737 229.602 363.582C229.762 363.426 229.887 363.247 229.98 363.045C230.073 362.843 230.119 362.619 230.119 362.374C230.119 362.079 230.05 361.823 229.911 361.608C229.771 361.393 229.586 361.227 229.354 361.111C229.125 360.991 228.87 360.932 228.588 360.932C228.333 360.932 228.089 360.985 227.857 361.091C227.625 361.197 227.433 361.363 227.281 361.588C227.128 361.81 227.04 362.097 227.017 362.448H225.506C225.529 361.852 225.68 361.348 225.958 360.937C226.237 360.522 226.605 360.209 227.062 359.997C227.523 359.785 228.031 359.679 228.588 359.679C229.198 359.679 229.732 359.793 230.189 360.022C230.646 360.247 231.001 360.564 231.253 360.972C231.508 361.376 231.636 361.848 231.636 362.388C231.636 362.76 231.578 363.094 231.462 363.393C231.346 363.688 231.18 363.951 230.965 364.183C230.753 364.415 230.497 364.621 230.199 364.8C229.917 364.975 229.689 365.158 229.513 365.347C229.341 365.536 229.215 365.759 229.135 366.018C229.056 366.276 229.012 366.596 229.006 366.977V367.072H227.584ZM228.335 370.094C228.063 370.094 227.829 369.998 227.634 369.806C227.438 369.611 227.34 369.375 227.34 369.1C227.34 368.828 227.438 368.596 227.634 368.404C227.829 368.209 228.063 368.111 228.335 368.111C228.603 368.111 228.835 368.209 229.031 368.404C229.23 368.596 229.329 368.828 229.329 369.1C229.329 369.282 229.283 369.45 229.19 369.602C229.1 369.751 228.981 369.871 228.832 369.96C228.683 370.05 228.517 370.094 228.335 370.094Z" fill="#A6A6A6"/>
<rect x="86" y="436" width="440" height="60" rx="10" fill="#54BD95"/>
<path d="M251.148 472V460.364H255.511C256.405 460.364 257.155 460.519 257.761 460.83C258.371 461.14 258.831 461.576 259.142 462.136C259.456 462.693 259.614 463.343 259.614 464.085C259.614 464.831 259.455 465.479 259.136 466.028C258.822 466.574 258.358 466.996 257.744 467.295C257.131 467.591 256.377 467.739 255.483 467.739H252.375V465.989H255.199C255.722 465.989 256.15 465.917 256.483 465.773C256.816 465.625 257.063 465.411 257.222 465.131C257.384 464.847 257.466 464.498 257.466 464.085C257.466 463.672 257.384 463.32 257.222 463.028C257.059 462.733 256.811 462.509 256.477 462.358C256.144 462.203 255.714 462.125 255.188 462.125H253.256V472H251.148ZM257.159 466.727L260.04 472H257.688L254.858 466.727H257.159ZM265.202 472.17C264.327 472.17 263.571 471.989 262.935 471.625C262.302 471.258 261.815 470.739 261.474 470.068C261.134 469.394 260.963 468.6 260.963 467.688C260.963 466.79 261.134 466.002 261.474 465.324C261.819 464.642 262.3 464.112 262.918 463.733C263.535 463.35 264.26 463.159 265.094 463.159C265.632 463.159 266.139 463.246 266.616 463.42C267.098 463.591 267.522 463.856 267.889 464.216C268.26 464.576 268.552 465.034 268.764 465.591C268.976 466.144 269.082 466.803 269.082 467.568V468.199H261.929V466.812H267.111C267.107 466.419 267.022 466.068 266.855 465.761C266.688 465.451 266.455 465.206 266.156 465.028C265.861 464.85 265.516 464.761 265.122 464.761C264.702 464.761 264.332 464.864 264.014 465.068C263.696 465.269 263.448 465.534 263.27 465.864C263.096 466.189 263.007 466.547 263.003 466.938V468.148C263.003 468.655 263.096 469.091 263.281 469.455C263.467 469.814 263.726 470.091 264.06 470.284C264.393 470.473 264.783 470.568 265.23 470.568C265.529 470.568 265.8 470.527 266.043 470.443C266.285 470.356 266.495 470.229 266.673 470.062C266.851 469.896 266.986 469.689 267.077 469.443L268.997 469.659C268.876 470.167 268.645 470.61 268.304 470.989C267.967 471.364 267.535 471.655 267.009 471.864C266.482 472.068 265.88 472.17 265.202 472.17ZM276.646 475.273V470.625H276.561C276.455 470.837 276.302 471.062 276.101 471.301C275.9 471.536 275.635 471.737 275.305 471.903C274.976 472.07 274.561 472.153 274.061 472.153C273.375 472.153 272.762 471.977 272.22 471.625C271.679 471.273 271.25 470.761 270.936 470.091C270.622 469.42 270.464 468.606 270.464 467.648C270.464 466.678 270.624 465.86 270.942 465.193C271.264 464.523 271.697 464.017 272.243 463.676C272.788 463.331 273.396 463.159 274.067 463.159C274.578 463.159 274.999 463.246 275.328 463.42C275.658 463.591 275.919 463.797 276.112 464.04C276.305 464.278 276.455 464.504 276.561 464.716H276.686V463.273H278.709V475.273H276.646ZM274.635 470.466C275.071 470.466 275.442 470.348 275.749 470.114C276.055 469.875 276.288 469.544 276.447 469.119C276.607 468.695 276.686 468.201 276.686 467.636C276.686 467.072 276.607 466.581 276.447 466.165C276.292 465.748 276.061 465.424 275.754 465.193C275.451 464.962 275.078 464.847 274.635 464.847C274.177 464.847 273.794 464.966 273.487 465.205C273.18 465.443 272.949 465.773 272.794 466.193C272.639 466.614 272.561 467.095 272.561 467.636C272.561 468.182 272.639 468.669 272.794 469.097C272.953 469.521 273.186 469.856 273.493 470.102C273.804 470.345 274.184 470.466 274.635 470.466ZM286.385 468.33V463.273H288.442V472H286.447V470.449H286.357C286.16 470.937 285.836 471.337 285.385 471.648C284.938 471.958 284.387 472.114 283.732 472.114C283.16 472.114 282.654 471.987 282.214 471.733C281.779 471.475 281.438 471.102 281.192 470.614C280.946 470.121 280.822 469.527 280.822 468.83V463.273H282.879V468.511C282.879 469.064 283.031 469.504 283.334 469.83C283.637 470.155 284.035 470.318 284.527 470.318C284.83 470.318 285.124 470.244 285.408 470.097C285.692 469.949 285.925 469.729 286.107 469.438C286.292 469.142 286.385 468.773 286.385 468.33ZM294.42 472.17C293.545 472.17 292.79 471.989 292.153 471.625C291.521 471.258 291.034 470.739 290.693 470.068C290.352 469.394 290.182 468.6 290.182 467.688C290.182 466.79 290.352 466.002 290.693 465.324C291.038 464.642 291.519 464.112 292.136 463.733C292.754 463.35 293.479 463.159 294.312 463.159C294.85 463.159 295.358 463.246 295.835 463.42C296.316 463.591 296.741 463.856 297.108 464.216C297.479 464.576 297.771 465.034 297.983 465.591C298.195 466.144 298.301 466.803 298.301 467.568V468.199H291.148V466.812H296.33C296.326 466.419 296.241 466.068 296.074 465.761C295.907 465.451 295.674 465.206 295.375 465.028C295.08 464.85 294.735 464.761 294.341 464.761C293.92 464.761 293.551 464.864 293.233 465.068C292.915 465.269 292.667 465.534 292.489 465.864C292.314 466.189 292.225 466.547 292.222 466.938V468.148C292.222 468.655 292.314 469.091 292.5 469.455C292.686 469.814 292.945 470.091 293.278 470.284C293.612 470.473 294.002 470.568 294.449 470.568C294.748 470.568 295.019 470.527 295.261 470.443C295.504 470.356 295.714 470.229 295.892 470.062C296.07 469.896 296.205 469.689 296.295 469.443L298.216 469.659C298.095 470.167 297.864 470.61 297.523 470.989C297.186 471.364 296.754 471.655 296.227 471.864C295.701 472.068 295.098 472.17 294.42 472.17ZM306.939 465.58L305.064 465.784C305.011 465.595 304.918 465.417 304.786 465.25C304.657 465.083 304.482 464.949 304.263 464.847C304.043 464.744 303.774 464.693 303.456 464.693C303.028 464.693 302.668 464.786 302.376 464.972C302.089 465.157 301.946 465.398 301.95 465.693C301.946 465.947 302.039 466.153 302.229 466.312C302.422 466.472 302.74 466.602 303.183 466.705L304.672 467.023C305.498 467.201 306.111 467.483 306.513 467.869C306.918 468.256 307.123 468.761 307.126 469.386C307.123 469.936 306.962 470.42 306.643 470.841C306.329 471.258 305.892 471.583 305.331 471.818C304.77 472.053 304.126 472.17 303.399 472.17C302.331 472.17 301.471 471.947 300.82 471.5C300.168 471.049 299.78 470.422 299.655 469.619L301.661 469.426C301.751 469.82 301.945 470.117 302.24 470.318C302.536 470.519 302.92 470.619 303.393 470.619C303.882 470.619 304.274 470.519 304.57 470.318C304.869 470.117 305.018 469.869 305.018 469.574C305.018 469.324 304.922 469.117 304.729 468.955C304.539 468.792 304.244 468.667 303.842 468.58L302.354 468.267C301.517 468.093 300.897 467.799 300.496 467.386C300.094 466.97 299.895 466.443 299.899 465.807C299.895 465.269 300.041 464.803 300.337 464.409C300.636 464.011 301.051 463.705 301.581 463.489C302.115 463.269 302.731 463.159 303.428 463.159C304.45 463.159 305.255 463.377 305.842 463.812C306.433 464.248 306.799 464.837 306.939 465.58ZM313.18 463.273V464.864H308.163V463.273H313.18ZM309.402 461.182H311.459V469.375C311.459 469.652 311.5 469.864 311.584 470.011C311.671 470.155 311.785 470.254 311.925 470.307C312.065 470.36 312.22 470.386 312.391 470.386C312.519 470.386 312.637 470.377 312.743 470.358C312.853 470.339 312.936 470.322 312.993 470.307L313.339 471.915C313.23 471.953 313.072 471.994 312.868 472.04C312.667 472.085 312.421 472.112 312.129 472.119C311.614 472.134 311.15 472.057 310.737 471.886C310.324 471.712 309.997 471.443 309.754 471.08C309.516 470.716 309.398 470.261 309.402 469.716V461.182ZM322.903 472H318.96V460.364H322.983C324.138 460.364 325.131 460.597 325.96 461.062C326.794 461.525 327.434 462.189 327.881 463.057C328.328 463.924 328.551 464.962 328.551 466.17C328.551 467.383 328.326 468.424 327.875 469.295C327.428 470.167 326.782 470.835 325.938 471.301C325.097 471.767 324.085 472 322.903 472ZM321.068 470.176H322.801C323.612 470.176 324.288 470.028 324.83 469.733C325.371 469.434 325.778 468.989 326.051 468.398C326.324 467.803 326.46 467.061 326.46 466.17C326.46 465.28 326.324 464.542 326.051 463.955C325.778 463.364 325.375 462.922 324.841 462.631C324.311 462.335 323.652 462.188 322.864 462.188H321.068V470.176ZM334.327 472.17C333.452 472.17 332.696 471.989 332.06 471.625C331.427 471.258 330.94 470.739 330.599 470.068C330.259 469.394 330.088 468.6 330.088 467.688C330.088 466.79 330.259 466.002 330.599 465.324C330.944 464.642 331.425 464.112 332.043 463.733C332.66 463.35 333.385 463.159 334.219 463.159C334.757 463.159 335.264 463.246 335.741 463.42C336.223 463.591 336.647 463.856 337.014 464.216C337.385 464.576 337.677 465.034 337.889 465.591C338.101 466.144 338.207 466.803 338.207 467.568V468.199H331.054V466.812H336.236C336.232 466.419 336.147 466.068 335.98 465.761C335.813 465.451 335.58 465.206 335.281 465.028C334.986 464.85 334.641 464.761 334.247 464.761C333.827 464.761 333.457 464.864 333.139 465.068C332.821 465.269 332.573 465.534 332.395 465.864C332.221 466.189 332.132 466.547 332.128 466.938V468.148C332.128 468.655 332.221 469.091 332.406 469.455C332.592 469.814 332.851 470.091 333.185 470.284C333.518 470.473 333.908 470.568 334.355 470.568C334.654 470.568 334.925 470.527 335.168 470.443C335.41 470.356 335.62 470.229 335.798 470.062C335.976 469.896 336.111 469.689 336.202 469.443L338.122 469.659C338.001 470.167 337.77 470.61 337.429 470.989C337.092 471.364 336.66 471.655 336.134 471.864C335.607 472.068 335.005 472.17 334.327 472.17ZM339.947 472V463.273H341.913V464.756H342.016C342.197 464.256 342.499 463.866 342.919 463.585C343.339 463.301 343.841 463.159 344.425 463.159C345.016 463.159 345.514 463.303 345.919 463.591C346.328 463.875 346.616 464.263 346.783 464.756H346.874C347.067 464.271 347.393 463.884 347.851 463.597C348.313 463.305 348.86 463.159 349.493 463.159C350.296 463.159 350.951 463.413 351.459 463.92C351.966 464.428 352.22 465.169 352.22 466.142V472H350.158V466.46C350.158 465.919 350.014 465.523 349.726 465.273C349.438 465.019 349.086 464.892 348.669 464.892C348.173 464.892 347.785 465.047 347.504 465.358C347.228 465.665 347.089 466.064 347.089 466.557V472H345.072V466.375C345.072 465.924 344.936 465.564 344.663 465.295C344.394 465.027 344.042 464.892 343.607 464.892C343.311 464.892 343.042 464.968 342.8 465.119C342.557 465.267 342.364 465.477 342.22 465.75C342.076 466.019 342.004 466.333 342.004 466.693V472H339.947ZM358.114 472.17C357.261 472.17 356.523 471.983 355.898 471.608C355.273 471.233 354.788 470.708 354.443 470.034C354.102 469.36 353.932 468.572 353.932 467.67C353.932 466.769 354.102 465.979 354.443 465.301C354.788 464.623 355.273 464.097 355.898 463.722C356.523 463.347 357.261 463.159 358.114 463.159C358.966 463.159 359.705 463.347 360.33 463.722C360.955 464.097 361.438 464.623 361.778 465.301C362.123 465.979 362.295 466.769 362.295 467.67C362.295 468.572 362.123 469.36 361.778 470.034C361.438 470.708 360.955 471.233 360.33 471.608C359.705 471.983 358.966 472.17 358.114 472.17ZM358.125 470.523C358.587 470.523 358.973 470.396 359.284 470.142C359.595 469.884 359.826 469.54 359.977 469.108C360.133 468.676 360.21 468.195 360.21 467.665C360.21 467.131 360.133 466.648 359.977 466.216C359.826 465.78 359.595 465.434 359.284 465.176C358.973 464.919 358.587 464.79 358.125 464.79C357.652 464.79 357.258 464.919 356.943 465.176C356.633 465.434 356.4 465.78 356.244 466.216C356.093 466.648 356.017 467.131 356.017 467.665C356.017 468.195 356.093 468.676 356.244 469.108C356.4 469.54 356.633 469.884 356.943 470.142C357.258 470.396 357.652 470.523 358.125 470.523Z" fill="white"/>
<path d="M87.4382 200V186.909H95.6456V188.609H89.4134V192.598H95.2173V194.292H89.4134V198.3H95.7223V200H87.4382ZM98.1305 200V190.182H99.965V191.78H100.086C100.291 191.239 100.626 190.817 101.09 190.514C101.555 190.207 102.111 190.054 102.758 190.054C103.415 190.054 103.964 190.207 104.407 190.514C104.855 190.821 105.185 191.243 105.398 191.78H105.501C105.735 191.256 106.108 190.838 106.619 190.527C107.131 190.212 107.74 190.054 108.447 190.054C109.338 190.054 110.064 190.333 110.627 190.891C111.194 191.45 111.477 192.291 111.477 193.416V200H109.566V193.595C109.566 192.93 109.385 192.449 109.023 192.151C108.66 191.852 108.228 191.703 107.725 191.703C107.103 191.703 106.619 191.895 106.274 192.278C105.929 192.658 105.756 193.146 105.756 193.742V200H103.851V193.474C103.851 192.941 103.685 192.513 103.353 192.189C103.02 191.865 102.588 191.703 102.055 191.703C101.693 191.703 101.358 191.799 101.052 191.991C100.749 192.178 100.504 192.44 100.317 192.777C100.133 193.114 100.042 193.504 100.042 193.947V200H98.1305ZM116.896 200.217C116.274 200.217 115.711 200.102 115.208 199.872C114.706 199.638 114.307 199.299 114.013 198.856C113.723 198.413 113.578 197.869 113.578 197.226C113.578 196.672 113.685 196.216 113.898 195.858C114.111 195.5 114.399 195.217 114.761 195.008C115.123 194.799 115.528 194.641 115.975 194.535C116.423 194.428 116.879 194.347 117.343 194.292C117.931 194.224 118.409 194.168 118.775 194.126C119.142 194.079 119.408 194.004 119.574 193.902C119.74 193.8 119.824 193.634 119.824 193.403V193.359C119.824 192.8 119.666 192.368 119.35 192.061C119.039 191.754 118.575 191.601 117.957 191.601C117.314 191.601 116.806 191.744 116.436 192.029C116.069 192.31 115.816 192.624 115.675 192.969L113.879 192.56C114.092 191.963 114.403 191.482 114.812 191.115C115.225 190.744 115.701 190.476 116.238 190.31C116.775 190.139 117.339 190.054 117.931 190.054C118.324 190.054 118.739 190.101 119.178 190.195C119.621 190.284 120.034 190.45 120.418 190.693C120.806 190.936 121.123 191.283 121.37 191.735C121.618 192.183 121.741 192.764 121.741 193.48V200H119.875V198.658H119.798C119.674 198.905 119.489 199.148 119.242 199.386C118.995 199.625 118.677 199.823 118.289 199.981C117.902 200.138 117.437 200.217 116.896 200.217ZM117.311 198.683C117.84 198.683 118.292 198.579 118.667 198.37C119.046 198.161 119.333 197.888 119.529 197.552C119.73 197.211 119.83 196.847 119.83 196.459V195.193C119.762 195.261 119.63 195.325 119.434 195.385C119.242 195.44 119.022 195.489 118.775 195.532C118.528 195.57 118.287 195.607 118.053 195.641C117.819 195.67 117.623 195.696 117.465 195.717C117.094 195.764 116.755 195.843 116.449 195.954C116.146 196.065 115.903 196.224 115.72 196.433C115.541 196.638 115.451 196.911 115.451 197.251C115.451 197.724 115.626 198.082 115.975 198.325C116.325 198.564 116.77 198.683 117.311 198.683ZM124.287 200V190.182H126.198V200H124.287ZM125.252 188.667C124.92 188.667 124.634 188.556 124.395 188.335C124.161 188.109 124.044 187.84 124.044 187.529C124.044 187.214 124.161 186.945 124.395 186.724C124.634 186.498 124.92 186.385 125.252 186.385C125.584 186.385 125.868 186.498 126.102 186.724C126.341 186.945 126.46 187.214 126.46 187.529C126.46 187.84 126.341 188.109 126.102 188.335C125.868 188.556 125.584 188.667 125.252 188.667ZM130.68 186.909V200H128.769V186.909H130.68Z" fill="white"/>
<rect x="86" y="224" width="440" height="50" rx="10" fill="white"/>
<path d="M107.119 255V244.818H113.502V246.141H108.655V249.243H113.169V250.56H108.655V253.678H113.562V255H107.119ZM116.921 250.466V255H115.435V247.364H116.862V248.607H116.956C117.132 248.202 117.407 247.877 117.781 247.632C118.159 247.387 118.635 247.264 119.208 247.264C119.729 247.264 120.184 247.374 120.575 247.592C120.967 247.808 121.27 248.129 121.485 248.557C121.701 248.984 121.808 249.513 121.808 250.143V255H120.322V250.322C120.322 249.768 120.178 249.336 119.889 249.024C119.601 248.709 119.205 248.552 118.701 248.552C118.356 248.552 118.05 248.626 117.781 248.776C117.516 248.925 117.306 249.143 117.15 249.432C116.998 249.717 116.921 250.062 116.921 250.466ZM127.367 247.364V248.557H123.195V247.364H127.367ZM124.314 245.534H125.801V252.758C125.801 253.046 125.844 253.263 125.93 253.409C126.016 253.552 126.127 253.649 126.263 253.702C126.402 253.752 126.553 253.777 126.715 253.777C126.835 253.777 126.939 253.769 127.029 253.752C127.118 253.736 127.188 253.722 127.237 253.712L127.506 254.94C127.42 254.973 127.297 255.007 127.138 255.04C126.979 255.076 126.78 255.096 126.541 255.099C126.15 255.106 125.786 255.036 125.448 254.891C125.11 254.745 124.836 254.519 124.627 254.214C124.419 253.91 124.314 253.527 124.314 253.066V245.534ZM132.22 255.154C131.468 255.154 130.82 254.993 130.276 254.672C129.736 254.347 129.318 253.891 129.023 253.305C128.732 252.715 128.586 252.024 128.586 251.232C128.586 250.449 128.732 249.76 129.023 249.163C129.318 248.567 129.729 248.101 130.256 247.766C130.787 247.432 131.406 247.264 132.116 247.264C132.547 247.264 132.964 247.335 133.369 247.478C133.773 247.621 134.136 247.844 134.457 248.149C134.779 248.454 135.032 248.85 135.218 249.337C135.404 249.821 135.496 250.41 135.496 251.102V251.629H129.426V250.516H134.04C134.04 250.125 133.96 249.778 133.801 249.477C133.642 249.172 133.418 248.931 133.13 248.756C132.845 248.58 132.51 248.492 132.126 248.492C131.708 248.492 131.344 248.595 131.032 248.8C130.724 249.003 130.485 249.268 130.316 249.596C130.15 249.921 130.067 250.274 130.067 250.655V251.525C130.067 252.035 130.157 252.469 130.336 252.827C130.518 253.185 130.772 253.459 131.097 253.648C131.421 253.833 131.801 253.926 132.235 253.926C132.517 253.926 132.774 253.886 133.006 253.807C133.238 253.724 133.438 253.601 133.607 253.439C133.776 253.277 133.906 253.076 133.995 252.837L135.402 253.091C135.289 253.505 135.087 253.868 134.795 254.18C134.507 254.488 134.144 254.728 133.707 254.901C133.272 255.07 132.777 255.154 132.22 255.154ZM137.146 255V247.364H138.583V248.577H138.662C138.801 248.166 139.047 247.843 139.398 247.607C139.753 247.369 140.154 247.249 140.601 247.249C140.694 247.249 140.803 247.253 140.929 247.259C141.058 247.266 141.16 247.274 141.232 247.284V248.706C141.173 248.689 141.067 248.671 140.914 248.651C140.762 248.628 140.609 248.616 140.457 248.616C140.106 248.616 139.792 248.691 139.517 248.84C139.245 248.986 139.03 249.19 138.871 249.452C138.712 249.71 138.632 250.005 138.632 250.337V255H137.146ZM147.164 257.864C146.941 257.864 146.739 257.845 146.557 257.809C146.375 257.776 146.239 257.739 146.149 257.7L146.507 256.482C146.779 256.554 147.021 256.586 147.233 256.576C147.445 256.566 147.633 256.487 147.795 256.337C147.961 256.188 148.106 255.945 148.232 255.607L148.416 255.099L145.622 247.364H147.213L149.147 253.29H149.227L151.161 247.364H152.757L149.61 256.019C149.464 256.417 149.278 256.753 149.053 257.028C148.827 257.307 148.559 257.516 148.247 257.655C147.936 257.794 147.575 257.864 147.164 257.864ZM157.11 255.154C156.395 255.154 155.77 254.99 155.236 254.662C154.703 254.334 154.288 253.875 153.993 253.285C153.698 252.695 153.551 252.005 153.551 251.217C153.551 250.424 153.698 249.732 153.993 249.138C154.288 248.545 154.703 248.085 155.236 247.756C155.77 247.428 156.395 247.264 157.11 247.264C157.826 247.264 158.451 247.428 158.985 247.756C159.518 248.085 159.933 248.545 160.228 249.138C160.523 249.732 160.67 250.424 160.67 251.217C160.67 252.005 160.523 252.695 160.228 253.285C159.933 253.875 159.518 254.334 158.985 254.662C158.451 254.99 157.826 255.154 157.11 255.154ZM157.115 253.906C157.579 253.906 157.964 253.784 158.269 253.538C158.574 253.293 158.799 252.967 158.945 252.559C159.094 252.151 159.169 251.702 159.169 251.212C159.169 250.724 159.094 250.277 158.945 249.869C158.799 249.458 158.574 249.129 158.269 248.88C157.964 248.631 157.579 248.507 157.115 248.507C156.648 248.507 156.26 248.631 155.952 248.88C155.647 249.129 155.42 249.458 155.271 249.869C155.125 250.277 155.052 250.724 155.052 251.212C155.052 251.702 155.125 252.151 155.271 252.559C155.42 252.967 155.647 253.293 155.952 253.538C156.26 253.784 156.648 253.906 157.115 253.906ZM167.167 251.833V247.364H168.658V255H167.197V253.678H167.117C166.941 254.085 166.66 254.425 166.272 254.697C165.887 254.965 165.408 255.099 164.835 255.099C164.345 255.099 163.91 254.992 163.532 254.776C163.158 254.558 162.863 254.234 162.648 253.807C162.435 253.379 162.329 252.851 162.329 252.221V247.364H163.816V252.042C163.816 252.562 163.96 252.977 164.248 253.285C164.537 253.593 164.911 253.747 165.372 253.747C165.65 253.747 165.927 253.678 166.202 253.538C166.481 253.399 166.711 253.189 166.893 252.907C167.079 252.625 167.17 252.267 167.167 251.833ZM170.656 255V247.364H172.092V248.577H172.172C172.311 248.166 172.556 247.843 172.908 247.607C173.262 247.369 173.663 247.249 174.111 247.249C174.204 247.249 174.313 247.253 174.439 247.259C174.568 247.266 174.669 247.274 174.742 247.284V248.706C174.683 248.689 174.576 248.671 174.424 248.651C174.272 248.628 174.119 248.616 173.967 248.616C173.615 248.616 173.302 248.691 173.027 248.84C172.755 248.986 172.54 249.19 172.381 249.452C172.222 249.71 172.142 250.005 172.142 250.337V255H170.656ZM183.025 255.154C182.272 255.154 181.625 254.993 181.081 254.672C180.541 254.347 180.123 253.891 179.828 253.305C179.536 252.715 179.391 252.024 179.391 251.232C179.391 250.449 179.536 249.76 179.828 249.163C180.123 248.567 180.534 248.101 181.061 247.766C181.591 247.432 182.211 247.264 182.92 247.264C183.351 247.264 183.769 247.335 184.173 247.478C184.578 247.621 184.941 247.844 185.262 248.149C185.584 248.454 185.837 248.85 186.023 249.337C186.208 249.821 186.301 250.41 186.301 251.102V251.629H180.231V250.516H184.844C184.844 250.125 184.765 249.778 184.606 249.477C184.447 249.172 184.223 248.931 183.935 248.756C183.65 248.58 183.315 248.492 182.93 248.492C182.513 248.492 182.148 248.595 181.837 248.8C181.528 249.003 181.29 249.268 181.121 249.596C180.955 249.921 180.872 250.274 180.872 250.655V251.525C180.872 252.035 180.962 252.469 181.141 252.827C181.323 253.185 181.576 253.459 181.901 253.648C182.226 253.833 182.606 253.926 183.04 253.926C183.321 253.926 183.578 253.886 183.81 253.807C184.042 253.724 184.243 253.601 184.412 253.439C184.581 253.277 184.71 253.076 184.8 252.837L186.207 253.091C186.094 253.505 185.892 253.868 185.6 254.18C185.312 254.488 184.949 254.728 184.511 254.901C184.077 255.07 183.582 255.154 183.025 255.154ZM187.95 255V247.364H189.377V248.607H189.472C189.631 248.186 189.891 247.857 190.252 247.622C190.614 247.384 191.046 247.264 191.55 247.264C192.06 247.264 192.488 247.384 192.833 247.622C193.181 247.861 193.437 248.189 193.603 248.607H193.683C193.865 248.199 194.155 247.874 194.553 247.632C194.95 247.387 195.424 247.264 195.975 247.264C196.667 247.264 197.232 247.481 197.67 247.915C198.111 248.35 198.331 249.004 198.331 249.879V255H196.845V250.018C196.845 249.501 196.704 249.127 196.422 248.895C196.14 248.663 195.804 248.547 195.413 248.547C194.929 248.547 194.553 248.696 194.284 248.994C194.016 249.289 193.882 249.669 193.882 250.133V255H192.4V249.924C192.4 249.51 192.271 249.177 192.012 248.925C191.754 248.673 191.417 248.547 191.003 248.547C190.721 248.547 190.461 248.621 190.222 248.771C189.987 248.916 189.797 249.12 189.651 249.382C189.508 249.644 189.437 249.947 189.437 250.292V255H187.95ZM202.546 255.169C202.062 255.169 201.624 255.08 201.233 254.901C200.842 254.718 200.532 254.455 200.304 254.11C200.078 253.765 199.966 253.343 199.966 252.842C199.966 252.411 200.048 252.057 200.214 251.778C200.38 251.5 200.604 251.28 200.885 251.117C201.167 250.955 201.482 250.832 201.83 250.749C202.178 250.666 202.533 250.603 202.894 250.56C203.351 250.507 203.722 250.464 204.007 250.431C204.292 250.395 204.5 250.337 204.629 250.257C204.758 250.178 204.823 250.048 204.823 249.869V249.835C204.823 249.4 204.7 249.064 204.455 248.825C204.213 248.587 203.852 248.467 203.371 248.467C202.871 248.467 202.476 248.578 202.188 248.8C201.903 249.019 201.706 249.263 201.596 249.531L200.199 249.213C200.365 248.749 200.607 248.375 200.925 248.089C201.247 247.801 201.616 247.592 202.034 247.463C202.451 247.33 202.891 247.264 203.351 247.264C203.656 247.264 203.979 247.301 204.321 247.374C204.665 247.443 204.987 247.572 205.285 247.761C205.587 247.95 205.834 248.22 206.026 248.572C206.218 248.92 206.314 249.372 206.314 249.929V255H204.863V253.956H204.803C204.707 254.148 204.563 254.337 204.37 254.523C204.178 254.708 203.931 254.862 203.63 254.985C203.328 255.108 202.967 255.169 202.546 255.169ZM202.869 253.976C203.28 253.976 203.631 253.895 203.923 253.732C204.218 253.57 204.442 253.358 204.594 253.096C204.75 252.831 204.828 252.547 204.828 252.246V251.261C204.775 251.314 204.672 251.364 204.52 251.411C204.37 251.454 204.2 251.492 204.007 251.525C203.815 251.555 203.628 251.583 203.446 251.609C203.263 251.633 203.111 251.652 202.988 251.669C202.7 251.705 202.436 251.767 202.198 251.853C201.962 251.939 201.774 252.063 201.631 252.226C201.492 252.385 201.422 252.597 201.422 252.862C201.422 253.23 201.558 253.509 201.83 253.697C202.102 253.883 202.448 253.976 202.869 253.976ZM208.294 255V247.364H209.781V255H208.294ZM209.045 246.185C208.786 246.185 208.564 246.099 208.379 245.927C208.196 245.751 208.105 245.542 208.105 245.3C208.105 245.055 208.196 244.846 208.379 244.674C208.564 244.498 208.786 244.411 209.045 244.411C209.303 244.411 209.524 244.498 209.706 244.674C209.892 244.846 209.985 245.055 209.985 245.3C209.985 245.542 209.892 245.751 209.706 245.927C209.524 246.099 209.303 246.185 209.045 246.185ZM213.267 244.818V255H211.781V244.818H213.267Z" fill="#A6A6A6"/>
<path d="M413.216 520.154C412.5 520.154 411.875 519.99 411.342 519.662C410.808 519.334 410.394 518.875 410.099 518.285C409.804 517.695 409.656 517.005 409.656 516.217C409.656 515.424 409.804 514.732 410.099 514.138C410.394 513.545 410.808 513.085 411.342 512.756C411.875 512.428 412.5 512.264 413.216 512.264C413.932 512.264 414.557 512.428 415.09 512.756C415.624 513.085 416.038 513.545 416.333 514.138C416.628 514.732 416.776 515.424 416.776 516.217C416.776 517.005 416.628 517.695 416.333 518.285C416.038 518.875 415.624 519.334 415.09 519.662C414.557 519.99 413.932 520.154 413.216 520.154ZM413.221 518.906C413.685 518.906 414.069 518.784 414.374 518.538C414.679 518.293 414.905 517.967 415.05 517.559C415.2 517.151 415.274 516.702 415.274 516.212C415.274 515.724 415.2 515.277 415.05 514.869C414.905 514.458 414.679 514.129 414.374 513.88C414.069 513.631 413.685 513.507 413.221 513.507C412.754 513.507 412.366 513.631 412.058 513.88C411.753 514.129 411.526 514.458 411.376 514.869C411.231 515.277 411.158 515.724 411.158 516.212C411.158 516.702 411.231 517.151 411.376 517.559C411.526 517.967 411.753 518.293 412.058 518.538C412.366 518.784 412.754 518.906 413.221 518.906ZM418.435 520V512.364H419.872V513.577H419.951C420.09 513.166 420.336 512.843 420.687 512.607C421.042 512.369 421.443 512.249 421.89 512.249C421.983 512.249 422.092 512.253 422.218 512.259C422.347 512.266 422.449 512.274 422.521 512.284V513.706C422.462 513.689 422.356 513.671 422.203 513.651C422.051 513.628 421.898 513.616 421.746 513.616C421.395 513.616 421.081 513.691 420.806 513.84C420.535 513.986 420.319 514.19 420.16 514.452C420.001 514.71 419.921 515.005 419.921 515.337V520H418.435Z" fill="#A6A6A6"/>
<path d="M433.186 512.493C433.133 512.022 432.914 511.658 432.529 511.399C432.145 511.137 431.661 511.006 431.078 511.006C430.66 511.006 430.299 511.073 429.994 511.205C429.689 511.335 429.452 511.513 429.283 511.742C429.117 511.968 429.034 512.224 429.034 512.513C429.034 512.755 429.091 512.964 429.203 513.139C429.319 513.315 429.47 513.462 429.656 513.582C429.845 513.698 430.047 513.795 430.262 513.875C430.478 513.951 430.685 514.014 430.884 514.064L431.878 514.322C432.203 514.402 432.536 514.51 432.877 514.646C433.219 514.781 433.535 514.96 433.827 515.183C434.119 515.405 434.354 515.68 434.533 516.008C434.715 516.336 434.806 516.729 434.806 517.186C434.806 517.763 434.657 518.275 434.359 518.722C434.064 519.17 433.635 519.523 433.071 519.781C432.511 520.04 431.833 520.169 431.038 520.169C430.276 520.169 429.616 520.048 429.059 519.806C428.502 519.564 428.066 519.221 427.752 518.777C427.437 518.33 427.263 517.799 427.23 517.186H428.771C428.801 517.554 428.92 517.861 429.129 518.106C429.341 518.348 429.611 518.528 429.939 518.648C430.271 518.764 430.633 518.822 431.028 518.822C431.462 518.822 431.848 518.754 432.186 518.618C432.528 518.479 432.796 518.286 432.992 518.041C433.187 517.793 433.285 517.503 433.285 517.171C433.285 516.87 433.199 516.623 433.026 516.43C432.857 516.238 432.627 516.079 432.335 515.953C432.047 515.827 431.721 515.716 431.356 515.62L430.153 515.292C429.338 515.07 428.691 514.743 428.214 514.312C427.74 513.882 427.503 513.312 427.503 512.602C427.503 512.016 427.662 511.504 427.98 511.066C428.298 510.629 428.729 510.289 429.273 510.047C429.816 509.802 430.43 509.679 431.112 509.679C431.802 509.679 432.41 509.8 432.937 510.042C433.467 510.284 433.885 510.617 434.19 511.041C434.495 511.462 434.654 511.946 434.667 512.493H433.186ZM440.087 512.364V513.557H435.916V512.364H440.087ZM437.035 510.534H438.521V517.758C438.521 518.046 438.564 518.263 438.651 518.409C438.737 518.552 438.848 518.649 438.984 518.702C439.123 518.752 439.274 518.777 439.436 518.777C439.555 518.777 439.66 518.769 439.749 518.752C439.839 518.736 439.908 518.722 439.958 518.712L440.227 519.94C440.14 519.973 440.018 520.007 439.859 520.04C439.7 520.076 439.501 520.096 439.262 520.099C438.871 520.106 438.506 520.036 438.168 519.891C437.83 519.745 437.557 519.519 437.348 519.214C437.139 518.91 437.035 518.527 437.035 518.066V510.534ZM443.954 520.169C443.47 520.169 443.033 520.08 442.642 519.901C442.25 519.718 441.941 519.455 441.712 519.11C441.486 518.765 441.374 518.343 441.374 517.842C441.374 517.411 441.457 517.057 441.622 516.778C441.788 516.5 442.012 516.28 442.294 516.117C442.575 515.955 442.89 515.832 443.238 515.749C443.586 515.666 443.941 515.603 444.302 515.56C444.759 515.507 445.131 515.464 445.416 515.431C445.701 515.395 445.908 515.337 446.037 515.257C446.166 515.178 446.231 515.048 446.231 514.869V514.835C446.231 514.4 446.108 514.064 445.863 513.825C445.621 513.587 445.26 513.467 444.779 513.467C444.279 513.467 443.884 513.578 443.596 513.8C443.311 514.019 443.114 514.263 443.004 514.531L441.607 514.213C441.773 513.749 442.015 513.375 442.333 513.089C442.655 512.801 443.024 512.592 443.442 512.463C443.86 512.33 444.299 512.264 444.759 512.264C445.064 512.264 445.387 512.301 445.729 512.374C446.074 512.443 446.395 512.572 446.693 512.761C446.995 512.95 447.242 513.22 447.434 513.572C447.626 513.92 447.722 514.372 447.722 514.929V520H446.271V518.956H446.211C446.115 519.148 445.971 519.337 445.779 519.523C445.586 519.708 445.339 519.862 445.038 519.985C444.736 520.108 444.375 520.169 443.954 520.169ZM444.277 518.976C444.688 518.976 445.039 518.895 445.331 518.732C445.626 518.57 445.85 518.358 446.002 518.096C446.158 517.831 446.236 517.547 446.236 517.246V516.261C446.183 516.314 446.08 516.364 445.928 516.411C445.779 516.454 445.608 516.492 445.416 516.525C445.223 516.555 445.036 516.583 444.854 516.609C444.672 516.633 444.519 516.652 444.396 516.669C444.108 516.705 443.845 516.767 443.606 516.853C443.371 516.939 443.182 517.063 443.039 517.226C442.9 517.385 442.83 517.597 442.83 517.862C442.83 518.23 442.966 518.509 443.238 518.697C443.51 518.883 443.856 518.976 444.277 518.976ZM449.702 520V512.364H451.139V513.577H451.219C451.358 513.166 451.603 512.843 451.955 512.607C452.309 512.369 452.71 512.249 453.158 512.249C453.25 512.249 453.36 512.253 453.486 512.259C453.615 512.266 453.716 512.274 453.789 512.284V513.706C453.729 513.689 453.623 513.671 453.471 513.651C453.318 513.628 453.166 513.616 453.013 513.616C452.662 513.616 452.349 513.691 452.074 513.84C451.802 513.986 451.587 514.19 451.428 514.452C451.268 514.71 451.189 515.005 451.189 515.337V520H449.702ZM459.091 512.364V513.557H454.92V512.364H459.091ZM456.039 510.534H457.525V517.758C457.525 518.046 457.568 518.263 457.654 518.409C457.741 518.552 457.852 518.649 457.988 518.702C458.127 518.752 458.278 518.777 458.44 518.777C458.559 518.777 458.664 518.769 458.753 518.752C458.843 518.736 458.912 518.722 458.962 518.712L459.23 519.94C459.144 519.973 459.022 520.007 458.863 520.04C458.703 520.076 458.505 520.096 458.266 520.099C457.875 520.106 457.51 520.036 457.172 519.891C456.834 519.745 456.561 519.519 456.352 519.214C456.143 518.91 456.039 518.527 456.039 518.066V510.534ZM464.56 520V509.818H470.874V511.141H466.096V514.243H470.422V515.56H466.096V520H464.56ZM472.548 520V512.364H473.985V513.577H474.064C474.204 513.166 474.449 512.843 474.8 512.607C475.155 512.369 475.556 512.249 476.003 512.249C476.096 512.249 476.206 512.253 476.331 512.259C476.461 512.266 476.562 512.274 476.635 512.284V513.706C476.575 513.689 476.469 513.671 476.317 513.651C476.164 513.628 476.012 513.616 475.859 513.616C475.508 513.616 475.195 513.691 474.92 513.84C474.648 513.986 474.432 514.19 474.273 514.452C474.114 514.71 474.035 515.005 474.035 515.337V520H472.548ZM480.939 520.154C480.187 520.154 479.539 519.993 478.995 519.672C478.455 519.347 478.037 518.891 477.742 518.305C477.451 517.715 477.305 517.024 477.305 516.232C477.305 515.449 477.451 514.76 477.742 514.163C478.037 513.567 478.448 513.101 478.975 512.766C479.505 512.432 480.125 512.264 480.835 512.264C481.265 512.264 481.683 512.335 482.087 512.478C482.492 512.621 482.855 512.844 483.176 513.149C483.498 513.454 483.751 513.85 483.937 514.337C484.122 514.821 484.215 515.41 484.215 516.102V516.629H478.145V515.516H482.759C482.759 515.125 482.679 514.778 482.52 514.477C482.361 514.172 482.137 513.931 481.849 513.756C481.564 513.58 481.229 513.492 480.844 513.492C480.427 513.492 480.062 513.595 479.751 513.8C479.442 514.003 479.204 514.268 479.035 514.596C478.869 514.921 478.786 515.274 478.786 515.655V516.525C478.786 517.035 478.876 517.469 479.055 517.827C479.237 518.185 479.491 518.459 479.815 518.648C480.14 518.833 480.52 518.926 480.954 518.926C481.236 518.926 481.492 518.886 481.724 518.807C481.956 518.724 482.157 518.601 482.326 518.439C482.495 518.277 482.624 518.076 482.714 517.837L484.121 518.091C484.008 518.505 483.806 518.868 483.514 519.18C483.226 519.488 482.863 519.728 482.425 519.901C481.991 520.07 481.496 520.154 480.939 520.154ZM489.156 520.154C488.403 520.154 487.755 519.993 487.212 519.672C486.672 519.347 486.254 518.891 485.959 518.305C485.667 517.715 485.521 517.024 485.521 516.232C485.521 515.449 485.667 514.76 485.959 514.163C486.254 513.567 486.665 513.101 487.192 512.766C487.722 512.432 488.342 512.264 489.051 512.264C489.482 512.264 489.9 512.335 490.304 512.478C490.709 512.621 491.071 512.844 491.393 513.149C491.714 513.454 491.968 513.85 492.154 514.337C492.339 514.821 492.432 515.41 492.432 516.102V516.629H486.362V515.516H490.975C490.975 515.125 490.896 514.778 490.737 514.477C490.578 514.172 490.354 513.931 490.066 513.756C489.78 513.58 489.446 513.492 489.061 513.492C488.644 513.492 488.279 513.595 487.968 513.8C487.659 514.003 487.421 514.268 487.252 514.596C487.086 514.921 487.003 515.274 487.003 515.655V516.525C487.003 517.035 487.093 517.469 487.271 517.827C487.454 518.185 487.707 518.459 488.032 518.648C488.357 518.833 488.736 518.926 489.171 518.926C489.452 518.926 489.709 518.886 489.941 518.807C490.173 518.724 490.374 518.601 490.543 518.439C490.712 518.277 490.841 518.076 490.931 517.837L492.338 518.091C492.225 518.505 492.023 518.868 491.731 519.18C491.443 519.488 491.08 519.728 490.642 519.901C490.208 520.07 489.713 520.154 489.156 520.154ZM497.404 511.141V509.818H505.284V511.141H502.107V520H500.575V511.141H497.404ZM506.113 520V512.364H507.549V513.577H507.629C507.768 513.166 508.013 512.843 508.365 512.607C508.719 512.369 509.12 512.249 509.568 512.249C509.661 512.249 509.77 512.253 509.896 512.259C510.025 512.266 510.126 512.274 510.199 512.284V513.706C510.14 513.689 510.033 513.671 509.881 513.651C509.729 513.628 509.576 513.616 509.424 513.616C509.072 513.616 508.759 513.691 508.484 513.84C508.212 513.986 507.997 514.19 507.838 514.452C507.679 514.71 507.599 515.005 507.599 515.337V520H506.113ZM511.486 520V512.364H512.972V520H511.486ZM512.236 511.185C511.978 511.185 511.756 511.099 511.57 510.927C511.388 510.751 511.297 510.542 511.297 510.3C511.297 510.055 511.388 509.846 511.57 509.674C511.756 509.498 511.978 509.411 512.236 509.411C512.495 509.411 512.715 509.498 512.898 509.674C513.083 509.846 513.176 510.055 513.176 510.3C513.176 510.542 513.083 510.751 512.898 510.927C512.715 511.099 512.495 511.185 512.236 511.185ZM517.194 520.169C516.71 520.169 516.273 520.08 515.882 519.901C515.491 519.718 515.181 519.455 514.952 519.11C514.727 518.765 514.614 518.343 514.614 517.842C514.614 517.411 514.697 517.057 514.863 516.778C515.028 516.5 515.252 516.28 515.534 516.117C515.815 515.955 516.13 515.832 516.478 515.749C516.826 515.666 517.181 515.603 517.542 515.56C518 515.507 518.371 515.464 518.656 515.431C518.941 515.395 519.148 515.337 519.277 515.257C519.407 515.178 519.471 515.048 519.471 514.869V514.835C519.471 514.4 519.349 514.064 519.103 513.825C518.861 513.587 518.5 513.467 518.02 513.467C517.519 513.467 517.125 513.578 516.836 513.8C516.551 514.019 516.354 514.263 516.245 514.531L514.848 514.213C515.013 513.749 515.255 513.375 515.574 513.089C515.895 512.801 516.265 512.592 516.682 512.463C517.1 512.33 517.539 512.264 518 512.264C518.305 512.264 518.628 512.301 518.969 512.374C519.314 512.443 519.635 512.572 519.934 512.761C520.235 512.95 520.482 513.22 520.674 513.572C520.867 513.92 520.963 514.372 520.963 514.929V520H519.511V518.956H519.451C519.355 519.148 519.211 519.337 519.019 519.523C518.827 519.708 518.58 519.862 518.278 519.985C517.976 520.108 517.615 520.169 517.194 520.169ZM517.517 518.976C517.928 518.976 518.28 518.895 518.571 518.732C518.866 518.57 519.09 518.358 519.243 518.096C519.398 517.831 519.476 517.547 519.476 517.246V516.261C519.423 516.314 519.32 516.364 519.168 516.411C519.019 516.454 518.848 516.492 518.656 516.525C518.464 516.555 518.276 516.583 518.094 516.609C517.912 516.633 517.759 516.652 517.637 516.669C517.348 516.705 517.085 516.767 516.846 516.853C516.611 516.939 516.422 517.063 516.279 517.226C516.14 517.385 516.071 517.597 516.071 517.862C516.071 518.23 516.207 518.509 516.478 518.697C516.75 518.883 517.096 518.976 517.517 518.976ZM524.429 509.818V520H522.943V509.818H524.429Z" fill="white"/>
<path d="M239.163 150.075C238.957 149.428 238.68 148.849 238.332 148.338C237.991 147.82 237.582 147.379 237.107 147.017C236.631 146.648 236.087 146.367 235.477 146.175C234.873 145.984 234.209 145.888 233.484 145.888C232.256 145.888 231.148 146.204 230.161 146.836C229.173 147.468 228.392 148.395 227.817 149.616C227.249 150.831 226.964 152.319 226.964 154.08C226.964 155.849 227.252 157.344 227.827 158.565C228.403 159.787 229.191 160.714 230.192 161.346C231.194 161.978 232.334 162.294 233.612 162.294C234.798 162.294 235.832 162.053 236.712 161.57C237.6 161.087 238.286 160.405 238.768 159.524C239.259 158.636 239.504 157.592 239.504 156.392L240.356 156.552H234.113V153.835H242.689V156.317C242.689 158.15 242.298 159.741 241.517 161.09C240.743 162.433 239.67 163.469 238.3 164.201C236.936 164.933 235.374 165.298 233.612 165.298C231.638 165.298 229.905 164.844 228.413 163.935C226.929 163.026 225.771 161.737 224.94 160.067C224.109 158.391 223.694 156.403 223.694 154.102C223.694 152.362 223.935 150.799 224.418 149.414C224.901 148.029 225.58 146.854 226.453 145.888C227.334 144.915 228.367 144.173 229.553 143.661C230.746 143.143 232.05 142.884 233.463 142.884C234.642 142.884 235.739 143.058 236.755 143.406C237.778 143.754 238.687 144.247 239.482 144.886C240.285 145.526 240.949 146.286 241.474 147.166C242 148.04 242.355 149.009 242.54 150.075H239.163ZM253.665 165.33C252.052 165.33 250.664 164.986 249.499 164.297C248.341 163.601 247.447 162.624 246.814 161.367C246.189 160.103 245.877 158.622 245.877 156.925C245.877 155.249 246.189 153.771 246.814 152.493C247.447 151.214 248.327 150.217 249.456 149.499C250.593 148.782 251.921 148.423 253.441 148.423C254.364 148.423 255.259 148.576 256.126 148.881C256.992 149.187 257.77 149.666 258.459 150.32C259.148 150.973 259.691 151.822 260.089 152.866C260.486 153.903 260.685 155.163 260.685 156.648V157.777H247.677V155.391H257.564C257.564 154.553 257.393 153.81 257.052 153.164C256.711 152.511 256.232 151.996 255.614 151.619C255.003 151.243 254.286 151.055 253.462 151.055C252.567 151.055 251.786 151.275 251.118 151.715C250.458 152.148 249.947 152.717 249.584 153.42C249.229 154.116 249.052 154.872 249.052 155.689V157.553C249.052 158.647 249.243 159.577 249.627 160.344C250.018 161.112 250.561 161.697 251.257 162.102C251.953 162.5 252.766 162.699 253.697 162.699C254.3 162.699 254.851 162.614 255.348 162.443C255.845 162.266 256.275 162.003 256.637 161.655C256.999 161.307 257.276 160.877 257.468 160.366L260.483 160.909C260.241 161.797 259.808 162.575 259.183 163.242C258.565 163.903 257.787 164.418 256.85 164.787C255.92 165.149 254.858 165.33 253.665 165.33ZM271.858 148.636V151.193H262.92V148.636H271.858ZM265.317 144.716H268.502V160.195C268.502 160.813 268.594 161.278 268.779 161.591C268.964 161.896 269.202 162.106 269.493 162.219C269.791 162.326 270.114 162.379 270.462 162.379C270.718 162.379 270.942 162.362 271.134 162.326C271.325 162.29 271.474 162.262 271.581 162.241L272.156 164.872C271.972 164.943 271.709 165.014 271.368 165.085C271.027 165.163 270.601 165.206 270.089 165.213C269.251 165.227 268.47 165.078 267.746 164.766C267.021 164.453 266.435 163.97 265.988 163.317C265.54 162.663 265.317 161.843 265.317 160.856V144.716ZM295.477 148.913C295.363 147.905 294.894 147.124 294.07 146.57C293.246 146.009 292.21 145.728 290.96 145.728C290.065 145.728 289.29 145.87 288.637 146.154C287.984 146.431 287.476 146.815 287.114 147.305C286.759 147.788 286.581 148.338 286.581 148.956C286.581 149.474 286.702 149.922 286.943 150.298C287.192 150.675 287.515 150.991 287.913 151.246C288.317 151.495 288.751 151.705 289.212 151.875C289.674 152.038 290.118 152.173 290.544 152.28L292.675 152.834C293.371 153.004 294.085 153.235 294.816 153.526C295.548 153.817 296.226 154.201 296.851 154.677C297.476 155.153 297.98 155.742 298.364 156.445C298.754 157.148 298.95 157.99 298.95 158.97C298.95 160.206 298.63 161.303 297.991 162.262C297.359 163.221 296.439 163.977 295.232 164.531C294.031 165.085 292.579 165.362 290.874 165.362C289.241 165.362 287.827 165.103 286.634 164.585C285.441 164.066 284.507 163.331 283.832 162.379C283.158 161.42 282.785 160.284 282.714 158.97H286.016C286.08 159.759 286.336 160.415 286.783 160.941C287.238 161.46 287.817 161.847 288.52 162.102C289.23 162.351 290.008 162.475 290.853 162.475C291.783 162.475 292.611 162.33 293.335 162.038C294.067 161.74 294.642 161.328 295.061 160.803C295.48 160.27 295.69 159.648 295.69 158.938C295.69 158.292 295.505 157.763 295.136 157.351C294.773 156.939 294.28 156.598 293.655 156.328C293.037 156.058 292.337 155.82 291.556 155.614L288.978 154.911C287.231 154.435 285.846 153.736 284.823 152.812C283.808 151.889 283.3 150.668 283.3 149.148C283.3 147.891 283.641 146.793 284.322 145.856C285.004 144.918 285.928 144.19 287.092 143.672C288.257 143.146 289.571 142.884 291.034 142.884C292.511 142.884 293.815 143.143 294.944 143.661C296.08 144.18 296.975 144.893 297.629 145.803C298.282 146.705 298.623 147.741 298.651 148.913H295.477ZM310.266 148.636V151.193H301.328V148.636H310.266ZM303.725 144.716H306.91V160.195C306.91 160.813 307.003 161.278 307.187 161.591C307.372 161.896 307.61 162.106 307.901 162.219C308.199 162.326 308.523 162.379 308.871 162.379C309.126 162.379 309.35 162.362 309.542 162.326C309.733 162.29 309.883 162.262 309.989 162.241L310.564 164.872C310.38 164.943 310.117 165.014 309.776 165.085C309.435 165.163 309.009 165.206 308.498 165.213C307.66 165.227 306.878 165.078 306.154 164.766C305.43 164.453 304.844 163.97 304.396 163.317C303.949 162.663 303.725 161.843 303.725 160.856V144.716ZM318.552 165.362C317.515 165.362 316.577 165.17 315.739 164.787C314.901 164.396 314.237 163.832 313.747 163.093C313.264 162.354 313.023 161.449 313.023 160.376C313.023 159.453 313.2 158.693 313.555 158.097C313.911 157.5 314.39 157.028 314.994 156.68C315.597 156.332 316.272 156.069 317.018 155.891C317.763 155.714 318.523 155.579 319.298 155.487C320.278 155.373 321.073 155.281 321.684 155.21C322.295 155.131 322.739 155.007 323.016 154.837C323.293 154.666 323.431 154.389 323.431 154.006V153.931C323.431 153.001 323.168 152.28 322.643 151.768C322.124 151.257 321.35 151.001 320.32 151.001C319.248 151.001 318.403 151.239 317.785 151.715C317.174 152.184 316.751 152.706 316.517 153.281L313.523 152.599C313.879 151.605 314.397 150.803 315.079 150.192C315.768 149.574 316.56 149.126 317.455 148.849C318.349 148.565 319.29 148.423 320.278 148.423C320.931 148.423 321.624 148.501 322.355 148.658C323.094 148.807 323.783 149.084 324.422 149.489C325.068 149.893 325.597 150.472 326.009 151.225C326.421 151.971 326.627 152.94 326.627 154.134V165H323.516V162.763H323.388C323.183 163.175 322.874 163.58 322.462 163.977C322.05 164.375 321.521 164.705 320.874 164.968C320.228 165.231 319.454 165.362 318.552 165.362ZM319.244 162.805C320.125 162.805 320.878 162.631 321.503 162.283C322.135 161.935 322.614 161.481 322.941 160.92C323.275 160.352 323.442 159.744 323.442 159.098V156.989C323.328 157.102 323.108 157.209 322.781 157.308C322.462 157.401 322.096 157.482 321.684 157.553C321.272 157.617 320.871 157.678 320.48 157.734C320.089 157.784 319.763 157.827 319.5 157.862C318.882 157.94 318.317 158.072 317.806 158.256C317.302 158.441 316.897 158.707 316.592 159.055C316.293 159.396 316.144 159.851 316.144 160.419C316.144 161.207 316.435 161.804 317.018 162.209C317.6 162.607 318.342 162.805 319.244 162.805ZM330.87 165V148.636H333.949V151.236H334.119C334.417 150.355 334.943 149.663 335.696 149.158C336.456 148.647 337.315 148.391 338.274 148.391C338.473 148.391 338.707 148.398 338.977 148.413C339.254 148.427 339.471 148.445 339.627 148.466V151.513C339.499 151.477 339.272 151.438 338.945 151.396C338.618 151.346 338.292 151.321 337.965 151.321C337.212 151.321 336.541 151.481 335.952 151.8C335.369 152.113 334.907 152.55 334.567 153.111C334.226 153.665 334.055 154.297 334.055 155.007V165H330.87ZM350.989 148.636V151.193H342.051V148.636H350.989ZM344.448 144.716H347.633V160.195C347.633 160.813 347.725 161.278 347.91 161.591C348.095 161.896 348.333 162.106 348.624 162.219C348.922 162.326 349.245 162.379 349.593 162.379C349.849 162.379 350.073 162.362 350.264 162.326C350.456 162.29 350.605 162.262 350.712 162.241L351.287 164.872C351.102 164.943 350.84 165.014 350.499 165.085C350.158 165.163 349.732 165.206 349.22 165.213C348.382 165.227 347.601 165.078 346.877 164.766C346.152 164.453 345.566 163.97 345.119 163.317C344.671 162.663 344.448 161.843 344.448 160.856V144.716ZM361.389 165.33C359.777 165.33 358.388 164.986 357.224 164.297C356.066 163.601 355.171 162.624 354.539 161.367C353.914 160.103 353.602 158.622 353.602 156.925C353.602 155.249 353.914 153.771 354.539 152.493C355.171 151.214 356.052 150.217 357.181 149.499C358.317 148.782 359.646 148.423 361.165 148.423C362.089 148.423 362.984 148.576 363.85 148.881C364.717 149.187 365.494 149.666 366.183 150.32C366.872 150.973 367.415 151.822 367.813 152.866C368.211 153.903 368.41 155.163 368.41 156.648V157.777H355.402V155.391H365.288C365.288 154.553 365.118 153.81 364.777 153.164C364.436 152.511 363.957 151.996 363.339 151.619C362.728 151.243 362.011 151.055 361.187 151.055C360.292 151.055 359.511 151.275 358.843 151.715C358.183 152.148 357.671 152.717 357.309 153.42C356.954 154.116 356.776 154.872 356.776 155.689V157.553C356.776 158.647 356.968 159.577 357.352 160.344C357.742 161.112 358.286 161.697 358.982 162.102C359.678 162.5 360.491 162.699 361.421 162.699C362.025 162.699 362.575 162.614 363.072 162.443C363.57 162.266 363.999 162.003 364.362 161.655C364.724 161.307 365.001 160.877 365.192 160.366L368.207 160.909C367.966 161.797 367.533 162.575 366.908 163.242C366.29 163.903 365.512 164.418 364.575 164.787C363.644 165.149 362.582 165.33 361.389 165.33ZM378.07 165.32C376.749 165.32 375.57 164.982 374.533 164.308C373.503 163.626 372.693 162.656 372.104 161.399C371.521 160.135 371.23 158.619 371.23 156.85C371.23 155.082 371.525 153.569 372.115 152.312C372.711 151.055 373.528 150.092 374.565 149.425C375.602 148.757 376.777 148.423 378.091 148.423C379.107 148.423 379.923 148.594 380.541 148.935C381.166 149.268 381.649 149.659 381.99 150.107C382.338 150.554 382.608 150.948 382.8 151.289H382.992V143.182H386.177V165H383.066V162.454H382.8C382.608 162.802 382.331 163.2 381.969 163.647C381.614 164.094 381.124 164.485 380.499 164.819C379.874 165.153 379.064 165.32 378.07 165.32ZM378.773 162.603C379.689 162.603 380.463 162.362 381.095 161.879C381.735 161.388 382.218 160.71 382.544 159.844C382.878 158.977 383.045 157.969 383.045 156.818C383.045 155.682 382.882 154.687 382.555 153.835C382.228 152.983 381.749 152.319 381.117 151.843C380.485 151.367 379.703 151.129 378.773 151.129C377.814 151.129 377.015 151.378 376.376 151.875C375.737 152.372 375.254 153.05 374.927 153.91C374.607 154.769 374.448 155.739 374.448 156.818C374.448 157.912 374.611 158.896 374.938 159.769C375.264 160.643 375.747 161.335 376.387 161.847C377.033 162.351 377.828 162.603 378.773 162.603Z" fill="white"/>
<path d="M341.059 60.8486V60.4268H341.023C340.812 55.2245 337.297 50.0574 330.425 46.103C316.33 37.9657 293.482 37.9657 279.475 46.103C272.462 50.1805 268.982 55.5233 269 60.8662V71.8859V72.0792V82.9055V83.0989V93.9252V94.1185V105.138C269.035 110.481 272.585 115.824 279.633 119.884C286.698 123.961 295.925 126 305.135 126C314.362 126 323.554 123.961 330.584 119.884C337.596 115.806 341.076 110.463 341.059 105.138V94.1185V93.5034V83.0989V82.4486V72.044V71.4289V60.8486C341.059 60.8662 341.059 60.8486 341.059 60.8486ZM286.804 54.2403L288.755 53.1155C289.247 52.8343 290.02 52.8343 290.53 53.1155L292.938 54.504C293.465 54.1876 294.01 53.8888 294.537 53.5725L292.129 52.184C291.637 51.9028 291.637 51.4459 292.129 51.1647L294.08 50.0399C294.572 49.7586 295.363 49.7586 295.855 50.0399L298.931 51.8149L299.335 51.6919C302.78 50.6374 306.435 50.1629 310.337 50.4441C313.395 50.6726 316.137 51.3931 318.65 52.4477C319.634 52.8519 320.548 53.3088 321.374 53.7834C323.554 55.0488 325.223 56.5251 326.524 58.1948L326.787 58.6517C327.086 59.2668 326.735 59.6887 325.698 59.9347C324.608 60.2159 323.501 60.462 322.394 60.708C321.62 60.8662 321.075 60.831 320.601 60.5498C320.478 60.4795 320.372 60.3917 320.249 60.3038C319.511 59.6184 318.843 58.8802 318.053 58.2123C317.35 57.5972 316.576 57.0172 315.697 56.5075C314.537 55.8397 313.202 55.2773 311.602 54.8906C309.212 54.2931 306.875 54.4337 304.52 54.9785L304.432 54.9961L310.39 58.4408C310.882 58.722 310.882 59.179 310.39 59.4602L308.439 60.585C307.947 60.8662 307.156 60.8662 306.664 60.585L299.827 56.6481C299.317 56.9469 298.773 57.2633 298.228 57.5796L305.064 61.5165C305.557 61.7977 305.557 62.2546 305.064 62.5358L303.114 63.6607C302.621 63.9419 301.848 63.9419 301.338 63.6607L295.099 60.0577C293.711 61.745 293.271 63.4146 294.836 65.1546C295.504 65.8927 296.365 66.543 297.366 67.123C298.245 67.6327 299.212 68.072 300.249 68.4763C301.409 68.8981 302.639 69.2847 303.834 69.7241C304.028 69.7944 304.186 69.8647 304.326 69.9526C304.801 70.2338 304.871 70.5501 304.59 70.9895C304.186 71.6574 303.729 72.3077 303.237 72.9404C302.832 73.5204 302.077 73.7313 300.987 73.5204C299.897 73.2743 298.825 72.9755 297.771 72.6416C295.837 72.0089 294.097 71.2707 292.586 70.392C291.004 69.4781 289.669 68.4235 288.596 67.2284C286.083 64.3812 286.136 61.4813 288.192 58.5638C288.596 57.9839 289.159 57.4742 289.651 56.9293L286.733 55.2421C286.312 54.9785 286.312 54.5215 286.804 54.2403ZM279.633 75.6118C293.746 83.7667 316.559 83.7667 330.584 75.6118C332.763 74.3464 334.573 72.9404 336.067 71.4641V72.0792C336.085 75.7348 333.167 79.5487 328.07 82.5013C322.025 86.0163 313.887 87.9496 305.135 87.9496C296.382 87.9496 288.192 86.0163 282.111 82.5013C276.962 79.5311 273.991 75.6997 273.956 72.0616V71.341C275.52 72.8525 277.383 74.3112 279.633 75.6118ZM328.088 104.523C322.042 108.038 313.905 109.971 305.152 109.971C296.4 109.971 288.21 108.038 282.129 104.523C276.979 101.553 274.009 97.7215 273.974 94.0834V93.5561C275.52 95.0852 277.366 96.5263 279.633 97.8269C286.698 101.904 295.925 103.943 305.135 103.943C314.362 103.943 323.554 101.904 330.584 97.8269C332.763 96.5615 334.573 95.1555 336.067 93.6791V94.1185C336.102 97.7742 333.185 101.57 328.088 104.523ZM328.088 93.521C322.042 97.036 313.905 98.9693 305.152 98.9693C296.4 98.9693 288.21 97.036 282.129 93.521C276.979 90.5508 274.009 86.7194 273.974 83.0813V82.554C275.52 84.0831 277.366 85.5242 279.633 86.8248C286.698 90.9023 295.925 92.941 305.135 92.941C314.362 92.941 323.554 90.9023 330.584 86.8248C332.763 85.5594 334.573 84.1534 336.067 82.6771V83.1164C336.102 86.7545 333.185 90.5508 328.088 93.521ZM328.088 115.543C322.042 119.058 313.905 120.991 305.152 120.991C296.4 120.991 288.21 119.058 282.129 115.543C276.979 112.573 274.009 108.741 273.974 105.103V104.576C275.52 106.105 277.366 107.546 279.633 108.847C286.698 112.924 295.925 114.963 305.135 114.963C314.362 114.963 323.554 112.924 330.584 108.847C332.763 107.581 334.573 106.175 336.067 104.699V105.138C336.102 108.776 333.185 112.59 328.088 115.543Z" fill="#54BD95"/>
</svg>
