<svg width="331" height="30" viewBox="0 0 331 30" fill="none" xmlns="http://www.w3.org/2000/svg">
<path d="M0.792614 10.6094V8.90909H10.924V10.6094H6.83949V22H4.87074V10.6094H0.792614ZM15.8171 22.1982C14.8498 22.1982 14.0167 21.9915 13.3178 21.5781C12.6232 21.1605 12.0863 20.5746 11.707 19.8203C11.332 19.0618 11.1445 18.1733 11.1445 17.1548C11.1445 16.1491 11.332 15.2628 11.707 14.4957C12.0863 13.7287 12.6147 13.13 13.2923 12.6996C13.9741 12.2692 14.771 12.054 15.6829 12.054C16.2369 12.054 16.7738 12.1456 17.2937 12.3288C17.8136 12.5121 18.2802 12.7997 18.6935 13.1918C19.1069 13.5838 19.4329 14.093 19.6715 14.7195C19.9102 15.3416 20.0295 16.098 20.0295 16.9886V17.6662H12.2248V16.2344H18.1566C18.1566 15.7315 18.0543 15.2862 17.8498 14.8984C17.6452 14.5064 17.3576 14.1974 16.9869 13.9716C16.6204 13.7457 16.19 13.6328 15.6957 13.6328C15.1587 13.6328 14.69 13.7649 14.2894 14.0291C13.8931 14.2891 13.5863 14.63 13.369 15.0518C13.1559 15.4695 13.0494 15.9233 13.0494 16.4134V17.532C13.0494 18.1882 13.1644 18.7464 13.3945 19.2067C13.6289 19.6669 13.9549 20.0185 14.3725 20.2614C14.7901 20.5 15.2781 20.6193 15.8363 20.6193C16.1985 20.6193 16.5288 20.5682 16.8271 20.4659C17.1254 20.3594 17.3832 20.2017 17.6005 19.9929C17.8178 19.7841 17.984 19.5263 18.0991 19.2195L19.908 19.5455C19.7631 20.0781 19.5032 20.5447 19.1282 20.9453C18.7575 21.3416 18.2908 21.6506 17.7283 21.8722C17.1701 22.0895 16.533 22.1982 15.8171 22.1982ZM22.15 22V12.1818H23.9973V13.7415H24.0996C24.2786 13.2131 24.5939 12.7976 25.0456 12.495C25.5016 12.1882 26.0172 12.0348 26.5925 12.0348C26.7118 12.0348 26.8525 12.0391 27.0144 12.0476C27.1806 12.0561 27.3105 12.0668 27.4043 12.0795V13.9077C27.3276 13.8864 27.1912 13.8629 26.9952 13.8374C26.7992 13.8075 26.6032 13.7926 26.4071 13.7926C25.9554 13.7926 25.5527 13.8885 25.199 14.0803C24.8496 14.2678 24.5726 14.5298 24.3681 14.8665C24.1635 15.1989 24.0613 15.5781 24.0613 16.0043V22H22.15ZM29.0582 22V12.1818H30.8928V13.7798H31.0142C31.2188 13.2386 31.5533 12.8168 32.0178 12.5142C32.4822 12.2074 33.0384 12.054 33.6861 12.054C34.3423 12.054 34.892 12.2074 35.3352 12.5142C35.7827 12.821 36.1129 13.2429 36.326 13.7798H36.4283C36.6626 13.2557 37.0355 12.8381 37.5469 12.527C38.0582 12.2116 38.6676 12.054 39.375 12.054C40.2656 12.054 40.9922 12.3331 41.5547 12.8913C42.1214 13.4496 42.4048 14.2912 42.4048 15.4162V22H40.4936V15.5952C40.4936 14.9304 40.3125 14.4489 39.9503 14.1506C39.5881 13.8523 39.1555 13.7031 38.6527 13.7031C38.0305 13.7031 37.5469 13.8949 37.2017 14.2784C36.8565 14.6577 36.6839 15.1456 36.6839 15.7422V22H34.7791V15.4737C34.7791 14.9411 34.6129 14.5128 34.2805 14.1889C33.9482 13.8651 33.5156 13.7031 32.983 13.7031C32.6207 13.7031 32.2862 13.799 31.9794 13.9908C31.6768 14.1783 31.4318 14.4403 31.2443 14.777C31.0611 15.1136 30.9695 15.5036 30.9695 15.9467V22H29.0582ZM52.3237 14.5788L50.5914 14.8857C50.519 14.6641 50.4039 14.4531 50.2463 14.2528C50.0929 14.0526 49.8841 13.8885 49.6199 13.7607C49.3556 13.6328 49.0254 13.5689 48.6291 13.5689C48.0879 13.5689 47.6362 13.6903 47.274 13.9332C46.9118 14.1719 46.7306 14.4808 46.7306 14.8601C46.7306 15.1882 46.8521 15.4524 47.095 15.6527C47.3379 15.853 47.7299 16.017 48.2711 16.1449L49.8308 16.5028C50.7342 16.7116 51.4075 17.0334 51.8507 17.468C52.2939 17.9027 52.5154 18.4673 52.5154 19.1619C52.5154 19.75 52.345 20.2741 52.0041 20.7344C51.6674 21.1903 51.1966 21.5483 50.5914 21.8082C49.9906 22.0682 49.2939 22.1982 48.5012 22.1982C47.4018 22.1982 46.5048 21.9638 45.8102 21.495C45.1156 21.022 44.6895 20.3509 44.5318 19.4815L46.3791 19.2003C46.4941 19.6818 46.7306 20.0462 47.0886 20.2933C47.4466 20.5362 47.9132 20.6577 48.4885 20.6577C49.1149 20.6577 49.6156 20.5277 49.9906 20.2678C50.3656 20.0036 50.5531 19.6818 50.5531 19.3026C50.5531 18.9957 50.438 18.7379 50.2079 18.5291C49.9821 18.3203 49.6348 18.1626 49.166 18.0561L47.5041 17.6918C46.5879 17.483 45.9103 17.1506 45.4714 16.6946C45.0368 16.2386 44.8194 15.6612 44.8194 14.9624C44.8194 14.3828 44.9814 13.8757 45.3052 13.4411C45.6291 13.0064 46.0765 12.6676 46.6475 12.4247C47.2186 12.1776 47.8727 12.054 48.6099 12.054C49.671 12.054 50.5062 12.2841 51.1156 12.7443C51.725 13.2003 52.1277 13.8118 52.3237 14.5788ZM62.2377 22.2173C61.6156 22.2173 61.0531 22.1023 60.5502 21.8722C60.0474 21.6378 59.649 21.299 59.3549 20.8558C59.0652 20.4126 58.9203 19.8693 58.9203 19.2259C58.9203 18.6719 59.0268 18.2159 59.2399 17.858C59.4529 17.5 59.7406 17.2166 60.1028 17.0078C60.465 16.799 60.8699 16.6413 61.3173 16.5348C61.7647 16.4283 62.2207 16.3473 62.6852 16.2919C63.2733 16.2237 63.7505 16.1683 64.117 16.1257C64.4835 16.0788 64.7498 16.0043 64.916 15.902C65.0822 15.7997 65.1653 15.6335 65.1653 15.4034V15.3587C65.1653 14.8004 65.0076 14.3679 64.6923 14.0611C64.3812 13.7543 63.9167 13.6009 63.2988 13.6009C62.6554 13.6009 62.1483 13.7436 61.7775 14.0291C61.411 14.3104 61.1575 14.6236 61.0169 14.9688L59.2207 14.5597C59.4338 13.9631 59.7449 13.4815 60.1539 13.1151C60.5673 12.7443 61.0424 12.4759 61.5794 12.3097C62.1163 12.1392 62.6809 12.054 63.2733 12.054C63.6653 12.054 64.0808 12.1009 64.5197 12.1946C64.9629 12.2841 65.3762 12.4503 65.7598 12.6932C66.1475 12.9361 66.465 13.2834 66.7122 13.7351C66.9593 14.1825 67.0829 14.7642 67.0829 15.4801V22H65.2164V20.6577H65.1397C65.0162 20.9048 64.8308 21.1477 64.5836 21.3864C64.3365 21.625 64.019 21.8232 63.6312 21.9808C63.2434 22.1385 62.7789 22.2173 62.2377 22.2173ZM62.6532 20.6832C63.1816 20.6832 63.6333 20.5788 64.0083 20.37C64.3876 20.1612 64.6752 19.8885 64.8713 19.5518C65.0716 19.2109 65.1717 18.8466 65.1717 18.4588V17.1932C65.1035 17.2614 64.9714 17.3253 64.7754 17.3849C64.5836 17.4403 64.3642 17.4893 64.117 17.532C63.8699 17.5703 63.6291 17.6065 63.3947 17.6406C63.1603 17.6705 62.9643 17.696 62.8066 17.7173C62.4359 17.7642 62.0971 17.843 61.7903 17.9538C61.4877 18.0646 61.2449 18.2244 61.0616 18.4332C60.8826 18.6378 60.7931 18.9105 60.7931 19.2514C60.7931 19.7244 60.9679 20.0824 61.3173 20.3253C61.6667 20.5639 62.112 20.6832 62.6532 20.6832ZM71.5398 16.1705V22H69.6286V12.1818H71.4631V13.7798H71.5845C71.8104 13.2599 72.1641 12.8423 72.6456 12.527C73.1314 12.2116 73.7429 12.054 74.4801 12.054C75.1491 12.054 75.7351 12.1946 76.2379 12.4759C76.7408 12.7528 77.1307 13.1662 77.4077 13.7159C77.6847 14.2656 77.8232 14.9453 77.8232 15.755V22H75.9119V15.9851C75.9119 15.2734 75.7266 14.7173 75.3558 14.3168C74.9851 13.9119 74.4759 13.7095 73.8281 13.7095C73.3849 13.7095 72.9908 13.8054 72.6456 13.9972C72.3047 14.1889 72.0341 14.4702 71.8338 14.8409C71.6378 15.2074 71.5398 15.6506 71.5398 16.1705ZM84.0618 22.1918C83.2692 22.1918 82.5618 21.9893 81.9396 21.5845C81.3217 21.1754 80.8359 20.5937 80.4822 19.8395C80.1328 19.081 79.9581 18.1712 79.9581 17.1101C79.9581 16.049 80.1349 15.1413 80.4886 14.3871C80.8466 13.6328 81.3366 13.0554 81.9588 12.6548C82.581 12.2543 83.2862 12.054 84.0746 12.054C84.6839 12.054 85.174 12.1562 85.5447 12.3608C85.9197 12.5611 86.2095 12.7955 86.4141 13.0639C86.6229 13.3324 86.7848 13.5689 86.8999 13.7734H87.0149V8.90909H88.9261V22H87.0597V20.4723H86.8999C86.7848 20.6811 86.6186 20.9197 86.4013 21.1882C86.1882 21.4567 85.8942 21.6911 85.5192 21.8913C85.1442 22.0916 84.6584 22.1918 84.0618 22.1918ZM84.4837 20.5618C85.0334 20.5618 85.4979 20.4169 85.8771 20.1271C86.2607 19.8331 86.5504 19.4261 86.7464 18.9062C86.9467 18.3864 87.0469 17.7812 87.0469 17.0909C87.0469 16.4091 86.9489 15.8125 86.7528 15.3011C86.5568 14.7898 86.2692 14.3913 85.8899 14.1058C85.5107 13.8203 85.0419 13.6776 84.4837 13.6776C83.9084 13.6776 83.429 13.8267 83.0455 14.125C82.6619 14.4233 82.3722 14.8303 82.1761 15.3459C81.9844 15.8615 81.8885 16.4432 81.8885 17.0909C81.8885 17.7472 81.9865 18.3374 82.1825 18.8615C82.3786 19.3857 82.6683 19.8011 83.0518 20.108C83.4396 20.4105 83.9169 20.5618 84.4837 20.5618ZM107.444 13.1662H105.45C105.373 12.7401 105.23 12.3651 105.021 12.0412C104.813 11.7173 104.557 11.4425 104.254 11.2166C103.952 10.9908 103.613 10.8203 103.238 10.7053C102.867 10.5902 102.473 10.5327 102.055 10.5327C101.301 10.5327 100.626 10.7223 100.029 11.1016C99.4368 11.4808 98.968 12.0369 98.6229 12.7699C98.282 13.5028 98.1115 14.3977 98.1115 15.4545C98.1115 16.5199 98.282 17.419 98.6229 18.152C98.968 18.8849 99.4389 19.4389 100.036 19.8139C100.632 20.1889 101.303 20.3764 102.049 20.3764C102.462 20.3764 102.854 20.321 103.225 20.2102C103.6 20.0952 103.939 19.9268 104.241 19.7053C104.544 19.4837 104.8 19.2131 105.009 18.8935C105.222 18.5696 105.369 18.1989 105.45 17.7812L107.444 17.7876C107.337 18.4311 107.131 19.0234 106.824 19.5646C106.521 20.1016 106.131 20.5661 105.654 20.9581C105.181 21.3459 104.64 21.6463 104.031 21.8594C103.421 22.0724 102.756 22.179 102.036 22.179C100.903 22.179 99.8928 21.9105 99.0064 21.3736C98.12 20.8324 97.4212 20.0589 96.9098 19.0533C96.4027 18.0476 96.1491 16.848 96.1491 15.4545C96.1491 14.0568 96.4048 12.8572 96.9162 11.8558C97.4276 10.8501 98.1264 10.0788 99.0128 9.5419C99.8991 9.00071 100.907 8.73011 102.036 8.73011C102.731 8.73011 103.379 8.83026 103.979 9.03054C104.585 9.22656 105.128 9.51633 105.609 9.89986C106.091 10.2791 106.489 10.7436 106.805 11.2933C107.12 11.8388 107.333 12.4631 107.444 13.1662ZM113.79 22.1982C112.869 22.1982 112.066 21.9872 111.38 21.5653C110.694 21.1435 110.161 20.5533 109.782 19.7947C109.403 19.0362 109.213 18.1499 109.213 17.1357C109.213 16.1172 109.403 15.2266 109.782 14.4638C110.161 13.701 110.694 13.1087 111.38 12.6868C112.066 12.2649 112.869 12.054 113.79 12.054C114.71 12.054 115.513 12.2649 116.199 12.6868C116.885 13.1087 117.418 13.701 117.797 14.4638C118.177 15.2266 118.366 16.1172 118.366 17.1357C118.366 18.1499 118.177 19.0362 117.797 19.7947C117.418 20.5533 116.885 21.1435 116.199 21.5653C115.513 21.9872 114.71 22.1982 113.79 22.1982ZM113.796 20.5938C114.393 20.5938 114.887 20.4361 115.279 20.1207C115.671 19.8054 115.961 19.3857 116.148 18.8615C116.34 18.3374 116.436 17.7599 116.436 17.1293C116.436 16.5028 116.34 15.9276 116.148 15.4034C115.961 14.875 115.671 14.451 115.279 14.1314C114.887 13.8118 114.393 13.652 113.796 13.652C113.195 13.652 112.697 13.8118 112.3 14.1314C111.908 14.451 111.616 14.875 111.425 15.4034C111.237 15.9276 111.143 16.5028 111.143 17.1293C111.143 17.7599 111.237 18.3374 111.425 18.8615C111.616 19.3857 111.908 19.8054 112.3 20.1207C112.697 20.4361 113.195 20.5938 113.796 20.5938ZM122.411 16.1705V22H120.5V12.1818H122.334V13.7798H122.456C122.681 13.2599 123.035 12.8423 123.517 12.527C124.002 12.2116 124.614 12.054 125.351 12.054C126.02 12.054 126.606 12.1946 127.109 12.4759C127.612 12.7528 128.002 13.1662 128.279 13.7159C128.556 14.2656 128.694 14.9453 128.694 15.755V22H126.783V15.9851C126.783 15.2734 126.598 14.7173 126.227 14.3168C125.856 13.9119 125.347 13.7095 124.699 13.7095C124.256 13.7095 123.862 13.8054 123.517 13.9972C123.176 14.1889 122.905 14.4702 122.705 14.8409C122.509 15.2074 122.411 15.6506 122.411 16.1705ZM134.933 22.1918C134.14 22.1918 133.433 21.9893 132.811 21.5845C132.193 21.1754 131.707 20.5937 131.353 19.8395C131.004 19.081 130.829 18.1712 130.829 17.1101C130.829 16.049 131.006 15.1413 131.36 14.3871C131.718 13.6328 132.208 13.0554 132.83 12.6548C133.452 12.2543 134.157 12.054 134.946 12.054C135.555 12.054 136.045 12.1562 136.416 12.3608C136.791 12.5611 137.081 12.7955 137.285 13.0639C137.494 13.3324 137.656 13.5689 137.771 13.7734H137.886V8.90909H139.797V22H137.931V20.4723H137.771C137.656 20.6811 137.49 20.9197 137.272 21.1882C137.059 21.4567 136.765 21.6911 136.39 21.8913C136.015 22.0916 135.529 22.1918 134.933 22.1918ZM135.355 20.5618C135.904 20.5618 136.369 20.4169 136.748 20.1271C137.132 19.8331 137.422 19.4261 137.618 18.9062C137.818 18.3864 137.918 17.7812 137.918 17.0909C137.918 16.4091 137.82 15.8125 137.624 15.3011C137.428 14.7898 137.14 14.3913 136.761 14.1058C136.382 13.8203 135.913 13.6776 135.355 13.6776C134.779 13.6776 134.3 13.8267 133.917 14.125C133.533 14.4233 133.243 14.8303 133.047 15.3459C132.855 15.8615 132.76 16.4432 132.76 17.0909C132.76 17.7472 132.858 18.3374 133.054 18.8615C133.25 19.3857 133.539 19.8011 133.923 20.108C134.311 20.4105 134.788 20.5618 135.355 20.5618ZM147.108 12.1818V13.7159H141.745V12.1818H147.108ZM143.183 9.82955H145.095V19.1172C145.095 19.4879 145.15 19.767 145.261 19.9545C145.372 20.1378 145.514 20.2635 145.689 20.3317C145.868 20.3956 146.062 20.4276 146.271 20.4276C146.424 20.4276 146.558 20.4169 146.673 20.3956C146.789 20.3743 146.878 20.3572 146.942 20.3445L147.287 21.9233C147.176 21.9659 147.019 22.0085 146.814 22.0511C146.61 22.098 146.354 22.1236 146.047 22.1278C145.544 22.1364 145.075 22.0469 144.641 21.8594C144.206 21.6719 143.855 21.3821 143.586 20.9901C143.318 20.598 143.183 20.1058 143.183 19.5135V9.82955ZM149.222 22V12.1818H151.134V22H149.222ZM150.188 10.6669C149.855 10.6669 149.57 10.5561 149.331 10.3345C149.097 10.1087 148.979 9.8402 148.979 9.52912C148.979 9.21378 149.097 8.94531 149.331 8.72372C149.57 8.49787 149.855 8.38494 150.188 8.38494C150.52 8.38494 150.803 8.49787 151.038 8.72372C151.276 8.94531 151.396 9.21378 151.396 9.52912C151.396 9.8402 151.276 10.1087 151.038 10.3345C150.803 10.5561 150.52 10.6669 150.188 10.6669ZM157.84 22.1982C156.92 22.1982 156.117 21.9872 155.431 21.5653C154.744 21.1435 154.212 20.5533 153.833 19.7947C153.453 19.0362 153.264 18.1499 153.264 17.1357C153.264 16.1172 153.453 15.2266 153.833 14.4638C154.212 13.701 154.744 13.1087 155.431 12.6868C156.117 12.2649 156.92 12.054 157.84 12.054C158.761 12.054 159.564 12.2649 160.25 12.6868C160.936 13.1087 161.469 13.701 161.848 14.4638C162.227 15.2266 162.417 16.1172 162.417 17.1357C162.417 18.1499 162.227 19.0362 161.848 19.7947C161.469 20.5533 160.936 21.1435 160.25 21.5653C159.564 21.9872 158.761 22.1982 157.84 22.1982ZM157.847 20.5938C158.443 20.5938 158.938 20.4361 159.33 20.1207C159.722 19.8054 160.012 19.3857 160.199 18.8615C160.391 18.3374 160.487 17.7599 160.487 17.1293C160.487 16.5028 160.391 15.9276 160.199 15.4034C160.012 14.875 159.722 14.451 159.33 14.1314C158.938 13.8118 158.443 13.652 157.847 13.652C157.246 13.652 156.747 13.8118 156.351 14.1314C155.959 14.451 155.667 14.875 155.475 15.4034C155.288 15.9276 155.194 16.5028 155.194 17.1293C155.194 17.7599 155.288 18.3374 155.475 18.8615C155.667 19.3857 155.959 19.8054 156.351 20.1207C156.747 20.4361 157.246 20.5938 157.847 20.5938ZM166.462 16.1705V22H164.55V12.1818H166.385V13.7798H166.506C166.732 13.2599 167.086 12.8423 167.567 12.527C168.053 12.2116 168.665 12.054 169.402 12.054C170.071 12.054 170.657 12.1946 171.16 12.4759C171.663 12.7528 172.053 13.1662 172.33 13.7159C172.607 14.2656 172.745 14.9453 172.745 15.755V22H170.834V15.9851C170.834 15.2734 170.648 14.7173 170.278 14.3168C169.907 13.9119 169.398 13.7095 168.75 13.7095C168.307 13.7095 167.913 13.8054 167.567 13.9972C167.227 14.1889 166.956 14.4702 166.756 14.8409C166.56 15.2074 166.462 15.6506 166.462 16.1705ZM182.665 14.5788L180.933 14.8857C180.861 14.6641 180.746 14.4531 180.588 14.2528C180.435 14.0526 180.226 13.8885 179.962 13.7607C179.697 13.6328 179.367 13.5689 178.971 13.5689C178.43 13.5689 177.978 13.6903 177.616 13.9332C177.254 14.1719 177.072 14.4808 177.072 14.8601C177.072 15.1882 177.194 15.4524 177.437 15.6527C177.68 15.853 178.072 16.017 178.613 16.1449L180.173 16.5028C181.076 16.7116 181.749 17.0334 182.192 17.468C182.636 17.9027 182.857 18.4673 182.857 19.1619C182.857 19.75 182.687 20.2741 182.346 20.7344C182.009 21.1903 181.538 21.5483 180.933 21.8082C180.332 22.0682 179.636 22.1982 178.843 22.1982C177.744 22.1982 176.847 21.9638 176.152 21.495C175.457 21.022 175.031 20.3509 174.874 19.4815L176.721 19.2003C176.836 19.6818 177.072 20.0462 177.43 20.2933C177.788 20.5362 178.255 20.6577 178.83 20.6577C179.457 20.6577 179.957 20.5277 180.332 20.2678C180.707 20.0036 180.895 19.6818 180.895 19.3026C180.895 18.9957 180.78 18.7379 180.55 18.5291C180.324 18.3203 179.977 18.1626 179.508 18.0561L177.846 17.6918C176.93 17.483 176.252 17.1506 175.813 16.6946C175.379 16.2386 175.161 15.6612 175.161 14.9624C175.161 14.3828 175.323 13.8757 175.647 13.4411C175.971 13.0064 176.418 12.6676 176.989 12.4247C177.56 12.1776 178.214 12.054 178.952 12.054C180.013 12.054 180.848 12.2841 181.457 12.7443C182.067 13.2003 182.469 13.8118 182.665 14.5788Z" fill="white"/>
<circle cx="197" cy="15" r="2" fill="#A6A6A6"/>
<path d="M210.438 22V8.90909H215.104C216.123 8.90909 216.967 9.09446 217.636 9.4652C218.305 9.83594 218.805 10.343 219.138 10.9865C219.47 11.6257 219.636 12.3459 219.636 13.147C219.636 13.9524 219.468 14.6768 219.131 15.3203C218.799 15.9595 218.296 16.4666 217.623 16.8416C216.954 17.2124 216.112 17.3977 215.098 17.3977H211.889V15.723H214.919C215.563 15.723 216.085 15.6122 216.485 15.3906C216.886 15.1648 217.18 14.858 217.367 14.4702C217.555 14.0824 217.648 13.6413 217.648 13.147C217.648 12.6527 217.555 12.2138 217.367 11.8303C217.18 11.4467 216.884 11.1463 216.479 10.929C216.078 10.7116 215.55 10.603 214.893 10.603H212.413V22H210.438ZM221.798 22V12.1818H223.646V13.7415H223.748C223.927 13.2131 224.242 12.7976 224.694 12.495C225.15 12.1882 225.666 12.0348 226.241 12.0348C226.36 12.0348 226.501 12.0391 226.663 12.0476C226.829 12.0561 226.959 12.0668 227.053 12.0795V13.9077C226.976 13.8864 226.84 13.8629 226.644 13.8374C226.448 13.8075 226.252 13.7926 226.056 13.7926C225.604 13.7926 225.201 13.8885 224.847 14.0803C224.498 14.2678 224.221 14.5298 224.017 14.8665C223.812 15.1989 223.71 15.5781 223.71 16.0043V22H221.798ZM228.707 22V12.1818H230.618V22H228.707ZM229.672 10.6669C229.339 10.6669 229.054 10.5561 228.815 10.3345C228.581 10.1087 228.464 9.8402 228.464 9.52912C228.464 9.21378 228.581 8.94531 228.815 8.72372C229.054 8.49787 229.339 8.38494 229.672 8.38494C230.004 8.38494 230.288 8.49787 230.522 8.72372C230.761 8.94531 230.88 9.21378 230.88 9.52912C230.88 9.8402 230.761 10.1087 230.522 10.3345C230.288 10.5561 230.004 10.6669 229.672 10.6669ZM241.588 12.1818L238.028 22H235.982L232.416 12.1818H234.468L236.954 19.7372H237.056L239.536 12.1818H241.588ZM245.96 22.2173C245.338 22.2173 244.776 22.1023 244.273 21.8722C243.77 21.6378 243.372 21.299 243.078 20.8558C242.788 20.4126 242.643 19.8693 242.643 19.2259C242.643 18.6719 242.749 18.2159 242.963 17.858C243.176 17.5 243.463 17.2166 243.825 17.0078C244.188 16.799 244.593 16.6413 245.04 16.5348C245.487 16.4283 245.943 16.3473 246.408 16.2919C246.996 16.2237 247.473 16.1683 247.84 16.1257C248.206 16.0788 248.472 16.0043 248.639 15.902C248.805 15.7997 248.888 15.6335 248.888 15.4034V15.3587C248.888 14.8004 248.73 14.3679 248.415 14.0611C248.104 13.7543 247.639 13.6009 247.021 13.6009C246.378 13.6009 245.871 13.7436 245.5 14.0291C245.134 14.3104 244.88 14.6236 244.74 14.9688L242.943 14.5597C243.156 13.9631 243.468 13.4815 243.877 13.1151C244.29 12.7443 244.765 12.4759 245.302 12.3097C245.839 12.1392 246.404 12.054 246.996 12.054C247.388 12.054 247.803 12.1009 248.242 12.1946C248.686 12.2841 249.099 12.4503 249.482 12.6932C249.87 12.9361 250.188 13.2834 250.435 13.7351C250.682 14.1825 250.806 14.7642 250.806 15.4801V22H248.939V20.6577H248.862C248.739 20.9048 248.553 21.1477 248.306 21.3864C248.059 21.625 247.742 21.8232 247.354 21.9808C246.966 22.1385 246.502 22.2173 245.96 22.2173ZM246.376 20.6832C246.904 20.6832 247.356 20.5788 247.731 20.37C248.11 20.1612 248.398 19.8885 248.594 19.5518C248.794 19.2109 248.894 18.8466 248.894 18.4588V17.1932C248.826 17.2614 248.694 17.3253 248.498 17.3849C248.306 17.4403 248.087 17.4893 247.84 17.532C247.593 17.5703 247.352 17.6065 247.117 17.6406C246.883 17.6705 246.687 17.696 246.529 17.7173C246.159 17.7642 245.82 17.843 245.513 17.9538C245.21 18.0646 244.968 18.2244 244.784 18.4332C244.605 18.6378 244.516 18.9105 244.516 19.2514C244.516 19.7244 244.691 20.0824 245.04 20.3253C245.389 20.5639 245.835 20.6832 246.376 20.6832ZM257.487 22.1982C256.537 22.1982 255.718 21.983 255.032 21.5526C254.35 21.1179 253.826 20.5192 253.46 19.7564C253.093 18.9936 252.91 18.12 252.91 17.1357C252.91 16.1385 253.098 15.2585 253.473 14.4957C253.848 13.7287 254.376 13.13 255.058 12.6996C255.74 12.2692 256.543 12.054 257.468 12.054C258.213 12.054 258.878 12.1925 259.462 12.4695C260.046 12.7422 260.517 13.1257 260.875 13.62C261.237 14.1143 261.452 14.6918 261.52 15.3523H259.66C259.558 14.892 259.324 14.4957 258.957 14.1634C258.595 13.831 258.109 13.6648 257.5 13.6648C256.967 13.6648 256.5 13.8054 256.1 14.0866C255.703 14.3636 255.395 14.7599 255.173 15.2756C254.951 15.7869 254.841 16.392 254.841 17.0909C254.841 17.8068 254.949 18.4247 255.167 18.9446C255.384 19.4645 255.691 19.8672 256.087 20.1527C256.488 20.4382 256.958 20.581 257.5 20.581C257.862 20.581 258.19 20.5149 258.484 20.3828C258.782 20.2464 259.032 20.0526 259.232 19.8011C259.436 19.5497 259.579 19.2472 259.66 18.8935H261.52C261.452 19.5284 261.245 20.0952 260.9 20.5938C260.555 21.0923 260.093 21.4844 259.513 21.7699C258.938 22.0554 258.262 22.1982 257.487 22.1982ZM264.772 25.6818C264.487 25.6818 264.227 25.6584 263.992 25.6115C263.758 25.5689 263.583 25.522 263.468 25.4709L263.928 23.9048C264.278 23.9986 264.589 24.0391 264.862 24.0263C265.134 24.0135 265.375 23.9112 265.584 23.7195C265.797 23.5277 265.985 23.2145 266.146 22.7798L266.383 22.1278L262.791 12.1818H264.836L267.323 19.8011H267.425L269.911 12.1818H271.963L267.917 23.3104C267.73 23.8217 267.491 24.2543 267.201 24.608C266.911 24.9659 266.566 25.2344 266.166 25.4134C265.765 25.5923 265.301 25.6818 264.772 25.6818ZM278.676 22V8.90909H283.343C284.361 8.90909 285.205 9.09446 285.874 9.4652C286.543 9.83594 287.044 10.343 287.376 10.9865C287.708 11.6257 287.875 12.3459 287.875 13.147C287.875 13.9524 287.706 14.6768 287.37 15.3203C287.037 15.9595 286.534 16.4666 285.861 16.8416C285.192 17.2124 284.35 17.3977 283.336 17.3977H280.127V15.723H283.157C283.801 15.723 284.323 15.6122 284.723 15.3906C285.124 15.1648 285.418 14.858 285.605 14.4702C285.793 14.0824 285.887 13.6413 285.887 13.147C285.887 12.6527 285.793 12.2138 285.605 11.8303C285.418 11.4467 285.122 11.1463 284.717 10.929C284.316 10.7116 283.788 10.603 283.132 10.603H280.652V22H278.676ZM294.049 22.1982C293.129 22.1982 292.326 21.9872 291.64 21.5653C290.953 21.1435 290.421 20.5533 290.042 19.7947C289.662 19.0362 289.473 18.1499 289.473 17.1357C289.473 16.1172 289.662 15.2266 290.042 14.4638C290.421 13.701 290.953 13.1087 291.64 12.6868C292.326 12.2649 293.129 12.054 294.049 12.054C294.97 12.054 295.773 12.2649 296.459 12.6868C297.145 13.1087 297.678 13.701 298.057 14.4638C298.436 15.2266 298.626 16.1172 298.626 17.1357C298.626 18.1499 298.436 19.0362 298.057 19.7947C297.678 20.5533 297.145 21.1435 296.459 21.5653C295.773 21.9872 294.97 22.1982 294.049 22.1982ZM294.056 20.5938C294.652 20.5938 295.147 20.4361 295.539 20.1207C295.931 19.8054 296.221 19.3857 296.408 18.8615C296.6 18.3374 296.696 17.7599 296.696 17.1293C296.696 16.5028 296.6 15.9276 296.408 15.4034C296.221 14.875 295.931 14.451 295.539 14.1314C295.147 13.8118 294.652 13.652 294.056 13.652C293.455 13.652 292.956 13.8118 292.56 14.1314C292.168 14.451 291.876 14.875 291.684 15.4034C291.497 15.9276 291.403 16.5028 291.403 17.1293C291.403 17.7599 291.497 18.3374 291.684 18.8615C291.876 19.3857 292.168 19.8054 292.56 20.1207C292.956 20.4361 293.455 20.5938 294.056 20.5938ZM302.671 8.90909V22H300.759V8.90909H302.671ZM305.242 22V12.1818H307.153V22H305.242ZM306.207 10.6669C305.875 10.6669 305.589 10.5561 305.35 10.3345C305.116 10.1087 304.999 9.8402 304.999 9.52912C304.999 9.21378 305.116 8.94531 305.35 8.72372C305.589 8.49787 305.875 8.38494 306.207 8.38494C306.539 8.38494 306.823 8.49787 307.057 8.72372C307.296 8.94531 307.415 9.21378 307.415 9.52912C307.415 9.8402 307.296 10.1087 307.057 10.3345C306.823 10.5561 306.539 10.6669 306.207 10.6669ZM313.86 22.1982C312.91 22.1982 312.091 21.983 311.405 21.5526C310.724 21.1179 310.199 20.5192 309.833 19.7564C309.466 18.9936 309.283 18.12 309.283 17.1357C309.283 16.1385 309.471 15.2585 309.846 14.4957C310.221 13.7287 310.749 13.13 311.431 12.6996C312.113 12.2692 312.916 12.054 313.841 12.054C314.586 12.054 315.251 12.1925 315.835 12.4695C316.419 12.7422 316.89 13.1257 317.248 13.62C317.61 14.1143 317.825 14.6918 317.893 15.3523H316.033C315.931 14.892 315.697 14.4957 315.33 14.1634C314.968 13.831 314.482 13.6648 313.873 13.6648C313.34 13.6648 312.873 13.8054 312.473 14.0866C312.077 14.3636 311.768 14.7599 311.546 15.2756C311.324 15.7869 311.214 16.392 311.214 17.0909C311.214 17.8068 311.322 18.4247 311.54 18.9446C311.757 19.4645 312.064 19.8672 312.46 20.1527C312.861 20.4382 313.331 20.581 313.873 20.581C314.235 20.581 314.563 20.5149 314.857 20.3828C315.155 20.2464 315.405 20.0526 315.605 19.8011C315.809 19.5497 315.952 19.2472 316.033 18.8935H317.893C317.825 19.5284 317.618 20.0952 317.273 20.5938C316.928 21.0923 316.466 21.4844 315.886 21.7699C315.311 22.0554 314.635 22.1982 313.86 22.1982ZM321.145 25.6818C320.86 25.6818 320.6 25.6584 320.365 25.6115C320.131 25.5689 319.956 25.522 319.841 25.4709L320.301 23.9048C320.651 23.9986 320.962 24.0391 321.235 24.0263C321.507 24.0135 321.748 23.9112 321.957 23.7195C322.17 23.5277 322.358 23.2145 322.52 22.7798L322.756 22.1278L319.164 12.1818H321.209L323.696 19.8011H323.798L326.284 12.1818H328.336L324.29 23.3104C324.103 23.8217 323.864 24.2543 323.574 24.608C323.284 24.9659 322.939 25.2344 322.539 25.4134C322.138 25.5923 321.674 25.6818 321.145 25.6818Z" fill="white"/>
</svg>
