<svg width="425" height="30" viewBox="0 0 425 30" fill="none" xmlns="http://www.w3.org/2000/svg">
<path d="M4.55753 15.4545C4.55753 14.7685 4.72585 14.142 5.0625 13.5753C5.39915 13.0085 5.84872 12.5589 6.41122 12.2266C6.97798 11.8899 7.6044 11.7216 8.29048 11.7216C8.88707 11.7216 9.43892 11.8516 9.94602 12.1115C10.4531 12.3672 10.8729 12.7187 11.2053 13.1662C11.5376 13.6136 11.7401 14.1165 11.8125 14.6747H10.1506C10.0739 14.2784 9.85653 13.9545 9.49858 13.7031C9.14489 13.4474 8.74219 13.3196 8.29048 13.3196C7.89844 13.3196 7.54048 13.4155 7.21662 13.6072C6.89276 13.799 6.63494 14.0568 6.44318 14.3807C6.25142 14.7003 6.15554 15.0582 6.15554 15.4545C6.15554 15.8466 6.25142 16.2045 6.44318 16.5284C6.63494 16.8523 6.89276 17.1101 7.21662 17.3018C7.54048 17.4936 7.89844 17.5895 8.29048 17.5895C8.74219 17.5895 9.12784 17.4638 9.44744 17.2124C9.76705 16.9567 9.96733 16.6307 10.0483 16.2344H11.7102C11.6378 16.7926 11.4439 17.2955 11.1286 17.7429C10.8132 18.1903 10.4105 18.544 9.92045 18.804C9.4304 19.0597 8.88707 19.1875 8.29048 19.1875C7.6044 19.1875 6.97798 19.0213 6.41122 18.6889C5.84872 18.3523 5.39915 17.9006 5.0625 17.3338C4.72585 16.767 4.55753 16.1406 4.55753 15.4545ZM8.23295 22.2045C7.30398 22.2045 6.4304 22.0298 5.61222 21.6804C4.7983 21.331 4.08026 20.8473 3.4581 20.2294C2.8402 19.6072 2.3544 18.8892 2.00071 18.0753C1.65128 17.2614 1.47869 16.3878 1.48295 15.4545C1.48722 14.5213 1.66406 13.6477 2.01349 12.8338C2.36719 12.0199 2.85298 11.304 3.47088 10.6861C4.08878 10.0639 4.80469 9.57812 5.61861 9.22869C6.43253 8.87926 7.30398 8.70455 8.23295 8.70455C9.16619 8.70455 10.0398 8.87926 10.8537 9.22869C11.6719 9.57812 12.3878 10.0639 13.0014 10.6861C13.6193 11.304 14.103 12.0199 14.4524 12.8338C14.8018 13.6477 14.9787 14.5213 14.983 15.4545C14.9872 16.3878 14.8146 17.2614 14.4652 18.0753C14.1158 18.8892 13.6321 19.6072 13.0142 20.2294C12.3963 20.8473 11.6783 21.331 10.8601 21.6804C10.0419 22.0298 9.16619 22.2045 8.23295 22.2045ZM8.23295 20.5043C8.93182 20.5043 9.58807 20.3743 10.2017 20.1143C10.8153 19.8544 11.3523 19.4943 11.8125 19.0341C12.277 18.5696 12.6392 18.0327 12.8991 17.4233C13.1591 16.8097 13.2869 16.1555 13.2827 15.4609C13.2827 14.7621 13.1506 14.1058 12.8864 13.4922C12.6264 12.8786 12.2642 12.3416 11.7997 11.8814C11.3395 11.4169 10.8047 11.0547 10.1953 10.7947C9.58594 10.5348 8.93182 10.4048 8.23295 10.4048C7.53835 10.4048 6.88636 10.5348 6.27699 10.7947C5.66761 11.0547 5.13068 11.4169 4.66619 11.8814C4.20597 12.3459 3.84375 12.8849 3.57955 13.4986C3.31534 14.108 3.18324 14.7621 3.18324 15.4609C3.17898 16.1513 3.30682 16.8033 3.56676 17.4169C3.83097 18.0263 4.19318 18.5632 4.65341 19.0277C5.1179 19.4879 5.65483 19.8501 6.2642 20.1143C6.87784 20.3743 7.53409 20.5043 8.23295 20.5043ZM22.4936 22V20.5682L26.9233 15.9787C27.3963 15.4801 27.7862 15.0433 28.093 14.6683C28.4041 14.2891 28.6364 13.929 28.7898 13.5881C28.9432 13.2472 29.0199 12.8849 29.0199 12.5014C29.0199 12.0668 28.9176 11.6918 28.7131 11.3764C28.5085 11.0568 28.2294 10.8118 27.8757 10.6413C27.522 10.4666 27.1236 10.3793 26.6804 10.3793C26.2116 10.3793 25.8026 10.4751 25.4531 10.6669C25.1037 10.8587 24.8352 11.1293 24.6477 11.4787C24.4602 11.8281 24.3665 12.2372 24.3665 12.706H22.4808C22.4808 11.9091 22.6641 11.2124 23.0305 10.6158C23.397 10.0192 23.8999 9.55682 24.5391 9.22869C25.1783 8.89631 25.9048 8.73011 26.7188 8.73011C27.5412 8.73011 28.2656 8.89418 28.892 9.2223C29.5227 9.54616 30.0149 9.98935 30.3686 10.5518C30.7223 11.1101 30.8991 11.7408 30.8991 12.4439C30.8991 12.9297 30.8075 13.4048 30.6243 13.8693C30.4453 14.3338 30.1321 14.8516 29.6847 15.4226C29.2372 15.9893 28.6151 16.6776 27.8182 17.4872L25.2166 20.2102V20.3061H31.1101V22H22.4936ZM38.0902 22.2173C37.0803 22.2131 36.2173 21.9467 35.5014 21.4183C34.7855 20.8899 34.2379 20.1207 33.8587 19.1108C33.4794 18.1009 33.2898 16.8842 33.2898 15.4609C33.2898 14.0419 33.4794 12.8295 33.8587 11.8239C34.2422 10.8182 34.7919 10.0511 35.5078 9.52273C36.228 8.99432 37.0888 8.73011 38.0902 8.73011C39.0916 8.73011 39.9503 8.99645 40.6662 9.52912C41.3821 10.0575 41.9297 10.8246 42.3089 11.8303C42.6925 12.8317 42.8842 14.0419 42.8842 15.4609C42.8842 16.8885 42.6946 18.1072 42.3153 19.1172C41.9361 20.1229 41.3885 20.892 40.6726 21.4247C39.9567 21.9531 39.0959 22.2173 38.0902 22.2173ZM38.0902 20.5107C38.9766 20.5107 39.669 20.0781 40.1676 19.2131C40.6705 18.348 40.9219 17.0973 40.9219 15.4609C40.9219 14.3743 40.8068 13.456 40.5767 12.706C40.3509 11.9517 40.0249 11.3807 39.5987 10.9929C39.1768 10.6009 38.674 10.4048 38.0902 10.4048C37.2081 10.4048 36.5156 10.8395 36.0128 11.7088C35.5099 12.5781 35.2564 13.8288 35.2521 15.4609C35.2521 16.5518 35.3651 17.4744 35.5909 18.2287C35.821 18.9787 36.147 19.5476 36.5689 19.9354C36.9908 20.3189 37.4979 20.5107 38.0902 20.5107ZM45.1518 22V20.5682L49.5815 15.9787C50.0545 15.4801 50.4444 15.0433 50.7512 14.6683C51.0623 14.2891 51.2946 13.929 51.448 13.5881C51.6014 13.2472 51.6781 12.8849 51.6781 12.5014C51.6781 12.0668 51.5758 11.6918 51.3713 11.3764C51.1667 11.0568 50.8876 10.8118 50.5339 10.6413C50.1802 10.4666 49.7818 10.3793 49.3386 10.3793C48.8699 10.3793 48.4608 10.4751 48.1113 10.6669C47.7619 10.8587 47.4934 11.1293 47.3059 11.4787C47.1184 11.8281 47.0247 12.2372 47.0247 12.706H45.139C45.139 11.9091 45.3223 11.2124 45.6887 10.6158C46.0552 10.0192 46.5581 9.55682 47.1973 9.22869C47.8365 8.89631 48.563 8.73011 49.377 8.73011C50.1994 8.73011 50.9238 8.89418 51.5502 9.2223C52.1809 9.54616 52.6731 9.98935 53.0268 10.5518C53.3805 11.1101 53.5574 11.7408 53.5574 12.4439C53.5574 12.9297 53.4657 13.4048 53.2825 13.8693C53.1035 14.3338 52.7903 14.8516 52.3429 15.4226C51.8954 15.9893 51.2733 16.6776 50.4764 17.4872L47.8748 20.2102V20.3061H53.7683V22H45.1518ZM56.1909 22V20.5682L60.6206 15.9787C61.0936 15.4801 61.4835 15.0433 61.7903 14.6683C62.1014 14.2891 62.3336 13.929 62.487 13.5881C62.6404 13.2472 62.7172 12.8849 62.7172 12.5014C62.7172 12.0668 62.6149 11.6918 62.4103 11.3764C62.2058 11.0568 61.9267 10.8118 61.573 10.6413C61.2193 10.4666 60.8208 10.3793 60.3777 10.3793C59.9089 10.3793 59.4998 10.4751 59.1504 10.6669C58.801 10.8587 58.5325 11.1293 58.345 11.4787C58.1575 11.8281 58.0637 12.2372 58.0637 12.706H56.1781C56.1781 11.9091 56.3613 11.2124 56.7278 10.6158C57.0943 10.0192 57.5971 9.55682 58.2363 9.22869C58.8755 8.89631 59.6021 8.73011 60.416 8.73011C61.2385 8.73011 61.9629 8.89418 62.5893 9.2223C63.22 9.54616 63.7122 9.98935 64.0659 10.5518C64.4196 11.1101 64.5964 11.7408 64.5964 12.4439C64.5964 12.9297 64.5048 13.4048 64.3216 13.8693C64.1426 14.3338 63.8294 14.8516 63.3819 15.4226C62.9345 15.9893 62.3123 16.6776 61.5154 17.4872L58.9139 20.2102V20.3061H64.8074V22H56.1909ZM72.1726 22V8.90909H76.9666C77.8956 8.90909 78.6648 9.0625 79.2741 9.36932C79.8835 9.67187 80.3395 10.0831 80.642 10.603C80.9446 11.1186 81.0959 11.7003 81.0959 12.348C81.0959 12.8935 80.9957 13.3537 80.7955 13.7287C80.5952 14.0994 80.3267 14.3977 79.9901 14.6236C79.6577 14.8452 79.2912 15.0071 78.8906 15.1094V15.2372C79.3253 15.2585 79.7493 15.3991 80.1626 15.6591C80.5803 15.9148 80.9254 16.2791 81.1982 16.7521C81.4709 17.2251 81.6072 17.8004 81.6072 18.478C81.6072 19.147 81.4496 19.7479 81.1342 20.2805C80.8232 20.8089 80.3416 21.2287 79.6896 21.5398C79.0376 21.8466 78.2045 22 77.1903 22H72.1726ZM74.1477 20.3061H76.9986C77.9446 20.3061 78.6222 20.1229 79.0312 19.7564C79.4403 19.3899 79.6449 18.9318 79.6449 18.3821C79.6449 17.9687 79.5405 17.5895 79.3317 17.2443C79.1229 16.8991 78.8246 16.6243 78.4368 16.4197C78.0533 16.2152 77.5973 16.1129 77.0689 16.1129H74.1477V20.3061ZM74.1477 14.5724H76.794C77.2372 14.5724 77.6357 14.4872 77.9893 14.3168C78.3473 14.1463 78.6307 13.9077 78.8395 13.6009C79.0526 13.2898 79.1591 12.9233 79.1591 12.5014C79.1591 11.9602 78.9695 11.5064 78.5902 11.1399C78.2109 10.7734 77.6293 10.5902 76.8452 10.5902H74.1477V14.5724ZM83.7965 22V12.1818H85.7077V22H83.7965ZM84.7617 10.6669C84.4293 10.6669 84.1438 10.5561 83.9052 10.3345C83.6708 10.1087 83.5536 9.8402 83.5536 9.52912C83.5536 9.21378 83.6708 8.94531 83.9052 8.72372C84.1438 8.49787 84.4293 8.38494 84.7617 8.38494C85.0941 8.38494 85.3775 8.49787 85.6119 8.72372C85.8505 8.94531 85.9698 9.21378 85.9698 9.52912C85.9698 9.8402 85.8505 10.1087 85.6119 10.3345C85.3775 10.5561 85.0941 10.6669 84.7617 10.6669ZM92.4146 22.1982C91.4643 22.1982 90.6461 21.983 89.96 21.5526C89.2782 21.1179 88.7541 20.5192 88.3876 19.7564C88.0211 18.9936 87.8379 18.12 87.8379 17.1357C87.8379 16.1385 88.0254 15.2585 88.4004 14.4957C88.7754 13.7287 89.3038 13.13 89.9856 12.6996C90.6674 12.2692 91.4707 12.054 92.3954 12.054C93.1412 12.054 93.8059 12.1925 94.3897 12.4695C94.9735 12.7422 95.4444 13.1257 95.8024 13.62C96.1646 14.1143 96.3798 14.6918 96.448 15.3523H94.5879C94.4856 14.892 94.2512 14.4957 93.8848 14.1634C93.5225 13.831 93.0368 13.6648 92.4274 13.6648C91.8947 13.6648 91.4281 13.8054 91.0275 14.0866C90.6312 14.3636 90.3223 14.7599 90.1007 15.2756C89.8791 15.7869 89.7683 16.392 89.7683 17.0909C89.7683 17.8068 89.877 18.4247 90.0943 18.9446C90.3116 19.4645 90.6184 19.8672 91.0147 20.1527C91.4153 20.4382 91.8862 20.581 92.4274 20.581C92.7896 20.581 93.1177 20.5149 93.4118 20.3828C93.71 20.2464 93.9593 20.0526 94.1596 19.8011C94.3642 19.5497 94.5069 19.2472 94.5879 18.8935H96.448C96.3798 19.5284 96.1731 20.0952 95.8279 20.5938C95.4828 21.0923 95.0204 21.4844 94.4409 21.7699C93.8656 22.0554 93.1902 22.1982 92.4146 22.1982ZM102.627 22.1982C101.677 22.1982 100.859 21.983 100.173 21.5526C99.4911 21.1179 98.967 20.5192 98.6005 19.7564C98.234 18.9936 98.0508 18.12 98.0508 17.1357C98.0508 16.1385 98.2383 15.2585 98.6133 14.4957C98.9883 13.7287 99.5167 13.13 100.199 12.6996C100.88 12.2692 101.684 12.054 102.608 12.054C103.354 12.054 104.019 12.1925 104.603 12.4695C105.186 12.7422 105.657 13.1257 106.015 13.62C106.377 14.1143 106.593 14.6918 106.661 15.3523H104.801C104.699 14.892 104.464 14.4957 104.098 14.1634C103.735 13.831 103.25 13.6648 102.64 13.6648C102.108 13.6648 101.641 13.8054 101.24 14.0866C100.844 14.3636 100.535 14.7599 100.314 15.2756C100.092 15.7869 99.9812 16.392 99.9812 17.0909C99.9812 17.8068 100.09 18.4247 100.307 18.9446C100.525 19.4645 100.831 19.8672 101.228 20.1527C101.628 20.4382 102.099 20.581 102.64 20.581C103.002 20.581 103.331 20.5149 103.625 20.3828C103.923 20.2464 104.172 20.0526 104.373 19.8011C104.577 19.5497 104.72 19.2472 104.801 18.8935H106.661C106.593 19.5284 106.386 20.0952 106.041 20.5938C105.696 21.0923 105.233 21.4844 104.654 21.7699C104.078 22.0554 103.403 22.1982 102.627 22.1982ZM111.562 22.2173C110.94 22.2173 110.377 22.1023 109.874 21.8722C109.372 21.6378 108.973 21.299 108.679 20.8558C108.389 20.4126 108.244 19.8693 108.244 19.2259C108.244 18.6719 108.351 18.2159 108.564 17.858C108.777 17.5 109.065 17.2166 109.427 17.0078C109.789 16.799 110.194 16.6413 110.642 16.5348C111.089 16.4283 111.545 16.3473 112.009 16.2919C112.597 16.2237 113.075 16.1683 113.441 16.1257C113.808 16.0788 114.074 16.0043 114.24 15.902C114.406 15.7997 114.49 15.6335 114.49 15.4034V15.3587C114.49 14.8004 114.332 14.3679 114.017 14.0611C113.705 13.7543 113.241 13.6009 112.623 13.6009C111.98 13.6009 111.472 13.7436 111.102 14.0291C110.735 14.3104 110.482 14.6236 110.341 14.9688L108.545 14.5597C108.758 13.9631 109.069 13.4815 109.478 13.1151C109.892 12.7443 110.367 12.4759 110.904 12.3097C111.441 12.1392 112.005 12.054 112.597 12.054C112.99 12.054 113.405 12.1009 113.844 12.1946C114.287 12.2841 114.7 12.4503 115.084 12.6932C115.472 12.9361 115.789 13.2834 116.036 13.7351C116.284 14.1825 116.407 14.7642 116.407 15.4801V22H114.541V20.6577H114.464C114.34 20.9048 114.155 21.1477 113.908 21.3864C113.661 21.625 113.343 21.8232 112.955 21.9808C112.568 22.1385 112.103 22.2173 111.562 22.2173ZM111.977 20.6832C112.506 20.6832 112.958 20.5788 113.333 20.37C113.712 20.1612 113.999 19.8885 114.195 19.5518C114.396 19.2109 114.496 18.8466 114.496 18.4588V17.1932C114.428 17.2614 114.296 17.3253 114.1 17.3849C113.908 17.4403 113.688 17.4893 113.441 17.532C113.194 17.5703 112.953 17.6065 112.719 17.6406C112.485 17.6705 112.289 17.696 112.131 17.7173C111.76 17.7642 111.421 17.843 111.115 17.9538C110.812 18.0646 110.569 18.2244 110.386 18.4332C110.207 18.6378 110.117 18.9105 110.117 19.2514C110.117 19.7244 110.292 20.0824 110.642 20.3253C110.991 20.5639 111.436 20.6832 111.977 20.6832ZM126.31 14.5788L124.578 14.8857C124.505 14.6641 124.39 14.4531 124.233 14.2528C124.079 14.0526 123.87 13.8885 123.606 13.7607C123.342 13.6328 123.012 13.5689 122.615 13.5689C122.074 13.5689 121.623 13.6903 121.26 13.9332C120.898 14.1719 120.717 14.4808 120.717 14.8601C120.717 15.1882 120.838 15.4524 121.081 15.6527C121.324 15.853 121.716 16.017 122.257 16.1449L123.817 16.5028C124.721 16.7116 125.394 17.0334 125.837 17.468C126.28 17.9027 126.502 18.4673 126.502 19.1619C126.502 19.75 126.331 20.2741 125.99 20.7344C125.654 21.1903 125.183 21.5483 124.578 21.8082C123.977 22.0682 123.28 22.1982 122.488 22.1982C121.388 22.1982 120.491 21.9638 119.797 21.495C119.102 21.022 118.676 20.3509 118.518 19.4815L120.365 19.2003C120.48 19.6818 120.717 20.0462 121.075 20.2933C121.433 20.5362 121.9 20.6577 122.475 20.6577C123.101 20.6577 123.602 20.5277 123.977 20.2678C124.352 20.0036 124.539 19.6818 124.539 19.3026C124.539 18.9957 124.424 18.7379 124.194 18.5291C123.968 18.3203 123.621 18.1626 123.152 18.0561L121.49 17.6918C120.574 17.483 119.897 17.1506 119.458 16.6946C119.023 16.2386 118.806 15.6612 118.806 14.9624C118.806 14.3828 118.968 13.8757 119.292 13.4411C119.615 13.0064 120.063 12.6676 120.634 12.4247C121.205 12.1776 121.859 12.054 122.596 12.054C123.657 12.054 124.493 12.2841 125.102 12.7443C125.711 13.2003 126.114 13.8118 126.31 14.5788ZM135.495 8.90909V22H133.52V8.90909H135.495ZM140.13 16.1705V22H138.218V12.1818H140.053V13.7798H140.174C140.4 13.2599 140.754 12.8423 141.235 12.527C141.721 12.2116 142.333 12.054 143.07 12.054C143.739 12.054 144.325 12.1946 144.828 12.4759C145.331 12.7528 145.721 13.1662 145.998 13.7159C146.275 14.2656 146.413 14.9453 146.413 15.755V22H144.502V15.9851C144.502 15.2734 144.316 14.7173 143.946 14.3168C143.575 13.9119 143.066 13.7095 142.418 13.7095C141.975 13.7095 141.581 13.8054 141.235 13.9972C140.895 14.1889 140.624 14.4702 140.424 14.8409C140.228 15.2074 140.13 15.6506 140.13 16.1705ZM153.112 22.1982C152.162 22.1982 151.343 21.983 150.657 21.5526C149.975 21.1179 149.451 20.5192 149.085 19.7564C148.718 18.9936 148.535 18.12 148.535 17.1357C148.535 16.1385 148.723 15.2585 149.098 14.4957C149.473 13.7287 150.001 13.13 150.683 12.6996C151.365 12.2692 152.168 12.054 153.093 12.054C153.838 12.054 154.503 12.1925 155.087 12.4695C155.671 12.7422 156.142 13.1257 156.5 13.62C156.862 14.1143 157.077 14.6918 157.145 15.3523H155.285C155.183 14.892 154.949 14.4957 154.582 14.1634C154.22 13.831 153.734 13.6648 153.125 13.6648C152.592 13.6648 152.125 13.8054 151.725 14.0866C151.328 14.3636 151.02 14.7599 150.798 15.2756C150.576 15.7869 150.466 16.392 150.466 17.0909C150.466 17.8068 150.574 18.4247 150.792 18.9446C151.009 19.4645 151.316 19.8672 151.712 20.1527C152.113 20.4382 152.583 20.581 153.125 20.581C153.487 20.581 153.815 20.5149 154.109 20.3828C154.407 20.2464 154.657 20.0526 154.857 19.8011C155.061 19.5497 155.204 19.2472 155.285 18.8935H157.145C157.077 19.5284 156.87 20.0952 156.525 20.5938C156.18 21.0923 155.718 21.4844 155.138 21.7699C154.563 22.0554 153.887 22.1982 153.112 22.1982ZM160.448 22.1214C160.099 22.1214 159.798 21.9979 159.547 21.7507C159.296 21.4993 159.17 21.1967 159.17 20.843C159.17 20.4936 159.296 20.1953 159.547 19.9482C159.798 19.6967 160.099 19.571 160.448 19.571C160.798 19.571 161.098 19.6967 161.35 19.9482C161.601 20.1953 161.727 20.4936 161.727 20.843C161.727 21.0774 161.667 21.2926 161.548 21.4886C161.433 21.6804 161.279 21.8338 161.088 21.9489C160.896 22.0639 160.683 22.1214 160.448 22.1214ZM179.866 13.1662H177.871C177.795 12.7401 177.652 12.3651 177.443 12.0412C177.234 11.7173 176.979 11.4425 176.676 11.2166C176.374 10.9908 176.035 10.8203 175.66 10.7053C175.289 10.5902 174.895 10.5327 174.477 10.5327C173.723 10.5327 173.048 10.7223 172.451 11.1016C171.859 11.4808 171.39 12.0369 171.045 12.7699C170.704 13.5028 170.533 14.3977 170.533 15.4545C170.533 16.5199 170.704 17.419 171.045 18.152C171.39 18.8849 171.861 19.4389 172.457 19.8139C173.054 20.1889 173.725 20.3764 174.471 20.3764C174.884 20.3764 175.276 20.321 175.647 20.2102C176.022 20.0952 176.361 19.9268 176.663 19.7053C176.966 19.4837 177.222 19.2131 177.43 18.8935C177.643 18.5696 177.79 18.1989 177.871 17.7812L179.866 17.7876C179.759 18.4311 179.553 19.0234 179.246 19.5646C178.943 20.1016 178.553 20.5661 178.076 20.9581C177.603 21.3459 177.062 21.6463 176.452 21.8594C175.843 22.0724 175.178 22.179 174.458 22.179C173.325 22.179 172.315 21.9105 171.428 21.3736C170.542 20.8324 169.843 20.0589 169.332 19.0533C168.825 18.0476 168.571 16.848 168.571 15.4545C168.571 14.0568 168.827 12.8572 169.338 11.8558C169.849 10.8501 170.548 10.0788 171.435 9.5419C172.321 9.00071 173.329 8.73011 174.458 8.73011C175.153 8.73011 175.8 8.83026 176.401 9.03054C177.006 9.22656 177.55 9.51633 178.031 9.89986C178.513 10.2791 178.911 10.7436 179.227 11.2933C179.542 11.8388 179.755 12.4631 179.866 13.1662ZM186.211 22.1982C185.291 22.1982 184.488 21.9872 183.802 21.5653C183.116 21.1435 182.583 20.5533 182.204 19.7947C181.824 19.0362 181.635 18.1499 181.635 17.1357C181.635 16.1172 181.824 15.2266 182.204 14.4638C182.583 13.701 183.116 13.1087 183.802 12.6868C184.488 12.2649 185.291 12.054 186.211 12.054C187.132 12.054 187.935 12.2649 188.621 12.6868C189.307 13.1087 189.84 13.701 190.219 14.4638C190.599 15.2266 190.788 16.1172 190.788 17.1357C190.788 18.1499 190.599 19.0362 190.219 19.7947C189.84 20.5533 189.307 21.1435 188.621 21.5653C187.935 21.9872 187.132 22.1982 186.211 22.1982ZM186.218 20.5938C186.814 20.5938 187.309 20.4361 187.701 20.1207C188.093 19.8054 188.383 19.3857 188.57 18.8615C188.762 18.3374 188.858 17.7599 188.858 17.1293C188.858 16.5028 188.762 15.9276 188.57 15.4034C188.383 14.875 188.093 14.451 187.701 14.1314C187.309 13.8118 186.814 13.652 186.218 13.652C185.617 13.652 185.118 13.8118 184.722 14.1314C184.33 14.451 184.038 14.875 183.846 15.4034C183.659 15.9276 183.565 16.5028 183.565 17.1293C183.565 17.7599 183.659 18.3374 183.846 18.8615C184.038 19.3857 184.33 19.8054 184.722 20.1207C185.118 20.4361 185.617 20.5938 186.218 20.5938ZM192.922 25.6818V12.1818H194.788V13.7734H194.948C195.059 13.5689 195.218 13.3324 195.427 13.0639C195.636 12.7955 195.926 12.5611 196.297 12.3608C196.667 12.1562 197.157 12.054 197.767 12.054C198.559 12.054 199.267 12.2543 199.889 12.6548C200.511 13.0554 200.999 13.6328 201.353 14.3871C201.711 15.1413 201.89 16.049 201.89 17.1101C201.89 18.1712 201.713 19.081 201.359 19.8395C201.005 20.5937 200.52 21.1754 199.902 21.5845C199.284 21.9893 198.578 22.1918 197.786 22.1918C197.189 22.1918 196.701 22.0916 196.322 21.8913C195.947 21.6911 195.653 21.4567 195.44 21.1882C195.227 20.9197 195.063 20.6811 194.948 20.4723H194.833V25.6818H192.922ZM194.794 17.0909C194.794 17.7812 194.895 18.3864 195.095 18.9062C195.295 19.4261 195.585 19.8331 195.964 20.1271C196.343 20.4169 196.808 20.5618 197.358 20.5618C197.929 20.5618 198.406 20.4105 198.789 20.108C199.173 19.8011 199.463 19.3857 199.659 18.8615C199.859 18.3374 199.959 17.7472 199.959 17.0909C199.959 16.4432 199.861 15.8615 199.665 15.3459C199.473 14.8303 199.184 14.4233 198.796 14.125C198.412 13.8267 197.933 13.6776 197.358 13.6776C196.804 13.6776 196.335 13.8203 195.951 14.1058C195.572 14.3913 195.284 14.7898 195.088 15.3011C194.892 15.8125 194.794 16.4091 194.794 17.0909ZM204.905 25.6818C204.619 25.6818 204.36 25.6584 204.125 25.6115C203.891 25.5689 203.716 25.522 203.601 25.4709L204.061 23.9048C204.411 23.9986 204.722 24.0391 204.994 24.0263C205.267 24.0135 205.508 23.9112 205.717 23.7195C205.93 23.5277 206.117 23.2145 206.279 22.7798L206.516 22.1278L202.923 12.1818H204.969L207.455 19.8011H207.558L210.044 12.1818H212.096L208.05 23.3104C207.862 23.8217 207.624 24.2543 207.334 24.608C207.044 24.9659 206.699 25.2344 206.298 25.4134C205.898 25.5923 205.433 25.6818 204.905 25.6818ZM213.892 22V12.1818H215.74V13.7415H215.842C216.021 13.2131 216.336 12.7976 216.788 12.495C217.244 12.1882 217.759 12.0348 218.335 12.0348C218.454 12.0348 218.595 12.0391 218.757 12.0476C218.923 12.0561 219.053 12.0668 219.146 12.0795V13.9077C219.07 13.8864 218.933 13.8629 218.737 13.8374C218.541 13.8075 218.345 13.7926 218.149 13.7926C217.698 13.7926 217.295 13.8885 216.941 14.0803C216.592 14.2678 216.315 14.5298 216.11 14.8665C215.906 15.1989 215.803 15.5781 215.803 16.0043V22H213.892ZM220.8 22V12.1818H222.712V22H220.8ZM221.766 10.6669C221.433 10.6669 221.148 10.5561 220.909 10.3345C220.675 10.1087 220.558 9.8402 220.558 9.52912C220.558 9.21378 220.675 8.94531 220.909 8.72372C221.148 8.49787 221.433 8.38494 221.766 8.38494C222.098 8.38494 222.381 8.49787 222.616 8.72372C222.854 8.94531 222.974 9.21378 222.974 9.52912C222.974 9.8402 222.854 10.1087 222.616 10.3345C222.381 10.5561 222.098 10.6669 221.766 10.6669ZM229.399 25.8864C228.619 25.8864 227.948 25.7841 227.386 25.5795C226.828 25.375 226.372 25.1044 226.018 24.7678C225.664 24.4311 225.4 24.0625 225.225 23.6619L226.868 22.9844C226.983 23.1719 227.137 23.37 227.328 23.5788C227.524 23.7919 227.789 23.973 228.121 24.1222C228.458 24.2713 228.89 24.3459 229.419 24.3459C230.143 24.3459 230.742 24.169 231.215 23.8153C231.688 23.4659 231.924 22.9077 231.924 22.1406V20.2102H231.803C231.688 20.419 231.521 20.6513 231.304 20.907C231.091 21.1626 230.797 21.3842 230.422 21.5717C230.047 21.7592 229.559 21.853 228.958 21.853C228.183 21.853 227.484 21.6719 226.862 21.3097C226.244 20.9432 225.754 20.4041 225.392 19.6925C225.034 18.9766 224.855 18.0966 224.855 17.0526C224.855 16.0085 225.031 15.1136 225.385 14.3679C225.743 13.6222 226.233 13.0511 226.855 12.6548C227.477 12.2543 228.183 12.054 228.971 12.054C229.58 12.054 230.073 12.1562 230.448 12.3608C230.823 12.5611 231.115 12.7955 231.323 13.0639C231.536 13.3324 231.7 13.5689 231.816 13.7734H231.956V12.1818H233.829V22.2173C233.829 23.0611 233.633 23.7536 233.241 24.2947C232.849 24.8359 232.318 25.2365 231.649 25.4964C230.985 25.7564 230.235 25.8864 229.399 25.8864ZM229.38 20.2678C229.93 20.2678 230.394 20.1399 230.774 19.8842C231.157 19.6243 231.447 19.2536 231.643 18.772C231.843 18.2862 231.943 17.7045 231.943 17.027C231.943 16.3665 231.845 15.7848 231.649 15.282C231.453 14.7791 231.166 14.3871 230.786 14.1058C230.407 13.8203 229.938 13.6776 229.38 13.6776C228.805 13.6776 228.325 13.8267 227.942 14.125C227.558 14.419 227.269 14.8196 227.073 15.3267C226.881 15.8338 226.785 16.4006 226.785 17.027C226.785 17.6705 226.883 18.2351 227.079 18.7209C227.275 19.2067 227.565 19.5859 227.948 19.8587C228.336 20.1314 228.813 20.2678 229.38 20.2678ZM238.303 16.1705V22H236.392V8.90909H238.278V13.7798H238.399C238.629 13.2514 238.981 12.8317 239.454 12.5206C239.927 12.2095 240.545 12.054 241.308 12.054C241.981 12.054 242.569 12.1925 243.072 12.4695C243.579 12.7464 243.971 13.1598 244.248 13.7095C244.529 14.255 244.67 14.9368 244.67 15.755V22H242.759V15.9851C242.759 15.2649 242.573 14.7067 242.203 14.3104C241.832 13.9098 241.316 13.7095 240.656 13.7095C240.204 13.7095 239.799 13.8054 239.441 13.9972C239.088 14.1889 238.808 14.4702 238.604 14.8409C238.404 15.2074 238.303 15.6506 238.303 16.1705ZM251.803 12.1818V13.7159H246.441V12.1818H251.803ZM247.879 9.82955H249.79V19.1172C249.79 19.4879 249.845 19.767 249.956 19.9545C250.067 20.1378 250.21 20.2635 250.384 20.3317C250.563 20.3956 250.757 20.4276 250.966 20.4276C251.119 20.4276 251.254 20.4169 251.369 20.3956C251.484 20.3743 251.573 20.3572 251.637 20.3445L251.982 21.9233C251.872 21.9659 251.714 22.0085 251.509 22.0511C251.305 22.098 251.049 22.1236 250.742 22.1278C250.24 22.1364 249.771 22.0469 249.336 21.8594C248.901 21.6719 248.55 21.3821 248.281 20.9901C248.013 20.598 247.879 20.1058 247.879 19.5135V9.82955ZM261.539 22.2173C260.916 22.2173 260.354 22.1023 259.851 21.8722C259.348 21.6378 258.95 21.299 258.656 20.8558C258.366 20.4126 258.221 19.8693 258.221 19.2259C258.221 18.6719 258.328 18.2159 258.541 17.858C258.754 17.5 259.041 17.2166 259.404 17.0078C259.766 16.799 260.171 16.6413 260.618 16.5348C261.066 16.4283 261.521 16.3473 261.986 16.2919C262.574 16.2237 263.051 16.1683 263.418 16.1257C263.784 16.0788 264.051 16.0043 264.217 15.902C264.383 15.7997 264.466 15.6335 264.466 15.4034V15.3587C264.466 14.8004 264.308 14.3679 263.993 14.0611C263.682 13.7543 263.218 13.6009 262.6 13.6009C261.956 13.6009 261.449 13.7436 261.078 14.0291C260.712 14.3104 260.458 14.6236 260.318 14.9688L258.521 14.5597C258.735 13.9631 259.046 13.4815 259.455 13.1151C259.868 12.7443 260.343 12.4759 260.88 12.3097C261.417 12.1392 261.982 12.054 262.574 12.054C262.966 12.054 263.382 12.1009 263.82 12.1946C264.264 12.2841 264.677 12.4503 265.061 12.6932C265.448 12.9361 265.766 13.2834 266.013 13.7351C266.26 14.1825 266.384 14.7642 266.384 15.4801V22H264.517V20.6577H264.441C264.317 20.9048 264.132 21.1477 263.884 21.3864C263.637 21.625 263.32 21.8232 262.932 21.9808C262.544 22.1385 262.08 22.2173 261.539 22.2173ZM261.954 20.6832C262.482 20.6832 262.934 20.5788 263.309 20.37C263.688 20.1612 263.976 19.8885 264.172 19.5518C264.372 19.2109 264.472 18.8466 264.472 18.4588V17.1932C264.404 17.2614 264.272 17.3253 264.076 17.3849C263.884 17.4403 263.665 17.4893 263.418 17.532C263.171 17.5703 262.93 17.6065 262.695 17.6406C262.461 17.6705 262.265 17.696 262.107 17.7173C261.737 17.7642 261.398 17.843 261.091 17.9538C260.789 18.0646 260.546 18.2244 260.362 18.4332C260.183 18.6378 260.094 18.9105 260.094 19.2514C260.094 19.7244 260.269 20.0824 260.618 20.3253C260.968 20.5639 261.413 20.6832 261.954 20.6832ZM270.841 16.1705V22H268.929V12.1818H270.764V13.7798H270.885C271.111 13.2599 271.465 12.8423 271.946 12.527C272.432 12.2116 273.044 12.054 273.781 12.054C274.45 12.054 275.036 12.1946 275.539 12.4759C276.042 12.7528 276.431 13.1662 276.708 13.7159C276.985 14.2656 277.124 14.9453 277.124 15.755V22H275.213V15.9851C275.213 15.2734 275.027 14.7173 274.657 14.3168C274.286 13.9119 273.777 13.7095 273.129 13.7095C272.686 13.7095 272.292 13.8054 271.946 13.9972C271.605 14.1889 271.335 14.4702 271.135 14.8409C270.939 15.2074 270.841 15.6506 270.841 16.1705ZM283.363 22.1918C282.57 22.1918 281.863 21.9893 281.24 21.5845C280.623 21.1754 280.137 20.5937 279.783 19.8395C279.434 19.081 279.259 18.1712 279.259 17.1101C279.259 16.049 279.436 15.1413 279.789 14.3871C280.147 13.6328 280.637 13.0554 281.26 12.6548C281.882 12.2543 282.587 12.054 283.375 12.054C283.985 12.054 284.475 12.1562 284.846 12.3608C285.221 12.5611 285.51 12.7955 285.715 13.0639C285.924 13.3324 286.086 13.5689 286.201 13.7734H286.316V8.90909H288.227V22H286.36V20.4723H286.201C286.086 20.6811 285.919 20.9197 285.702 21.1882C285.489 21.4567 285.195 21.6911 284.82 21.8913C284.445 22.0916 283.959 22.1918 283.363 22.1918ZM283.784 20.5618C284.334 20.5618 284.799 20.4169 285.178 20.1271C285.561 19.8331 285.851 19.4261 286.047 18.9062C286.248 18.3864 286.348 17.7812 286.348 17.0909C286.348 16.4091 286.25 15.8125 286.054 15.3011C285.858 14.7898 285.57 14.3913 285.191 14.1058C284.811 13.8203 284.343 13.6776 283.784 13.6776C283.209 13.6776 282.73 13.8267 282.346 14.125C281.963 14.4233 281.673 14.8303 281.477 15.3459C281.285 15.8615 281.189 16.4432 281.189 17.0909C281.189 17.7472 281.287 18.3374 281.483 18.8615C281.679 19.3857 281.969 19.8011 282.353 20.108C282.74 20.4105 283.218 20.5618 283.784 20.5618ZM295.718 22V12.1818H297.566V13.7415H297.668C297.847 13.2131 298.162 12.7976 298.614 12.495C299.07 12.1882 299.586 12.0348 300.161 12.0348C300.28 12.0348 300.421 12.0391 300.583 12.0476C300.749 12.0561 300.879 12.0668 300.973 12.0795V13.9077C300.896 13.8864 300.76 13.8629 300.564 13.8374C300.368 13.8075 300.172 13.7926 299.975 13.7926C299.524 13.7926 299.121 13.8885 298.767 14.0803C298.418 14.2678 298.141 14.5298 297.936 14.8665C297.732 15.1989 297.63 15.5781 297.63 16.0043V22H295.718ZM302.627 22V12.1818H304.538V22H302.627ZM303.592 10.6669C303.259 10.6669 302.974 10.5561 302.735 10.3345C302.501 10.1087 302.384 9.8402 302.384 9.52912C302.384 9.21378 302.501 8.94531 302.735 8.72372C302.974 8.49787 303.259 8.38494 303.592 8.38494C303.924 8.38494 304.208 8.49787 304.442 8.72372C304.681 8.94531 304.8 9.21378 304.8 9.52912C304.8 9.8402 304.681 10.1087 304.442 10.3345C304.208 10.5561 303.924 10.6669 303.592 10.6669ZM311.225 25.8864C310.446 25.8864 309.775 25.7841 309.212 25.5795C308.654 25.375 308.198 25.1044 307.844 24.7678C307.49 24.4311 307.226 24.0625 307.051 23.6619L308.694 22.9844C308.809 23.1719 308.963 23.37 309.154 23.5788C309.35 23.7919 309.615 23.973 309.947 24.1222C310.284 24.2713 310.716 24.3459 311.245 24.3459C311.969 24.3459 312.568 24.169 313.041 23.8153C313.514 23.4659 313.75 22.9077 313.75 22.1406V20.2102H313.629C313.514 20.419 313.348 20.6513 313.13 20.907C312.917 21.1626 312.623 21.3842 312.248 21.5717C311.873 21.7592 311.385 21.853 310.784 21.853C310.009 21.853 309.31 21.6719 308.688 21.3097C308.07 20.9432 307.58 20.4041 307.218 19.6925C306.86 18.9766 306.681 18.0966 306.681 17.0526C306.681 16.0085 306.858 15.1136 307.211 14.3679C307.569 13.6222 308.059 13.0511 308.681 12.6548C309.304 12.2543 310.009 12.054 310.797 12.054C311.407 12.054 311.899 12.1562 312.274 12.3608C312.649 12.5611 312.941 12.7955 313.15 13.0639C313.363 13.3324 313.527 13.5689 313.642 13.7734H313.782V12.1818H315.655V22.2173C315.655 23.0611 315.459 23.7536 315.067 24.2947C314.675 24.8359 314.145 25.2365 313.475 25.4964C312.811 25.7564 312.061 25.8864 311.225 25.8864ZM311.206 20.2678C311.756 20.2678 312.221 20.1399 312.6 19.8842C312.983 19.6243 313.273 19.2536 313.469 18.772C313.669 18.2862 313.77 17.7045 313.77 17.027C313.77 16.3665 313.672 15.7848 313.475 15.282C313.279 14.7791 312.992 14.3871 312.613 14.1058C312.233 13.8203 311.765 13.6776 311.206 13.6776C310.631 13.6776 310.152 13.8267 309.768 14.125C309.385 14.419 309.095 14.8196 308.899 15.3267C308.707 15.8338 308.611 16.4006 308.611 17.027C308.611 17.6705 308.709 18.2351 308.905 18.7209C309.101 19.2067 309.391 19.5859 309.775 19.8587C310.162 20.1314 310.64 20.2678 311.206 20.2678ZM320.13 16.1705V22H318.218V8.90909H320.104V13.7798H320.225C320.456 13.2514 320.807 12.8317 321.28 12.5206C321.753 12.2095 322.371 12.054 323.134 12.054C323.807 12.054 324.395 12.1925 324.898 12.4695C325.405 12.7464 325.797 13.1598 326.074 13.7095C326.355 14.255 326.496 14.9368 326.496 15.755V22H324.585V15.9851C324.585 15.2649 324.4 14.7067 324.029 14.3104C323.658 13.9098 323.142 13.7095 322.482 13.7095C322.03 13.7095 321.625 13.8054 321.267 13.9972C320.914 14.1889 320.635 14.4702 320.43 14.8409C320.23 15.2074 320.13 15.6506 320.13 16.1705ZM333.63 12.1818V13.7159H328.267V12.1818H333.63ZM329.705 9.82955H331.616V19.1172C331.616 19.4879 331.672 19.767 331.782 19.9545C331.893 20.1378 332.036 20.2635 332.211 20.3317C332.39 20.3956 332.583 20.4276 332.792 20.4276C332.946 20.4276 333.08 20.4169 333.195 20.3956C333.31 20.3743 333.4 20.3572 333.463 20.3445L333.809 21.9233C333.698 21.9659 333.54 22.0085 333.336 22.0511C333.131 22.098 332.875 22.1236 332.569 22.1278C332.066 22.1364 331.597 22.0469 331.162 21.8594C330.728 21.6719 330.376 21.3821 330.108 20.9901C329.839 20.598 329.705 20.1058 329.705 19.5135V9.82955ZM342.943 14.5788L341.211 14.8857C341.138 14.6641 341.023 14.4531 340.865 14.2528C340.712 14.0526 340.503 13.8885 340.239 13.7607C339.975 13.6328 339.645 13.5689 339.248 13.5689C338.707 13.5689 338.255 13.6903 337.893 13.9332C337.531 14.1719 337.35 14.4808 337.35 14.8601C337.35 15.1882 337.471 15.4524 337.714 15.6527C337.957 15.853 338.349 16.017 338.89 16.1449L340.45 16.5028C341.353 16.7116 342.027 17.0334 342.47 17.468C342.913 17.9027 343.135 18.4673 343.135 19.1619C343.135 19.75 342.964 20.2741 342.623 20.7344C342.287 21.1903 341.816 21.5483 341.211 21.8082C340.61 22.0682 339.913 22.1982 339.12 22.1982C338.021 22.1982 337.124 21.9638 336.429 21.495C335.735 21.022 335.309 20.3509 335.151 19.4815L336.998 19.2003C337.113 19.6818 337.35 20.0462 337.708 20.2933C338.066 20.5362 338.532 20.6577 339.108 20.6577C339.734 20.6577 340.235 20.5277 340.61 20.2678C340.985 20.0036 341.172 19.6818 341.172 19.3026C341.172 18.9957 341.057 18.7379 340.827 18.5291C340.601 18.3203 340.254 18.1626 339.785 18.0561L338.123 17.6918C337.207 17.483 336.529 17.1506 336.091 16.6946C335.656 16.2386 335.439 15.6612 335.439 14.9624C335.439 14.3828 335.6 13.8757 335.924 13.4411C336.248 13.0064 336.696 12.6676 337.267 12.4247C337.838 12.1776 338.492 12.054 339.229 12.054C340.29 12.054 341.125 12.2841 341.735 12.7443C342.344 13.2003 342.747 13.8118 342.943 14.5788ZM350 22V12.1818H351.847V13.7415H351.949C352.128 13.2131 352.444 12.7976 352.895 12.495C353.351 12.1882 353.867 12.0348 354.442 12.0348C354.561 12.0348 354.702 12.0391 354.864 12.0476C355.03 12.0561 355.16 12.0668 355.254 12.0795V13.9077C355.177 13.8864 355.041 13.8629 354.845 13.8374C354.649 13.8075 354.453 13.7926 354.257 13.7926C353.805 13.7926 353.402 13.8885 353.049 14.0803C352.699 14.2678 352.422 14.5298 352.218 14.8665C352.013 15.1989 351.911 15.5781 351.911 16.0043V22H350ZM360.788 22.1982C359.82 22.1982 358.987 21.9915 358.289 21.5781C357.594 21.1605 357.057 20.5746 356.678 19.8203C356.303 19.0618 356.115 18.1733 356.115 17.1548C356.115 16.1491 356.303 15.2628 356.678 14.4957C357.057 13.7287 357.585 13.13 358.263 12.6996C358.945 12.2692 359.742 12.054 360.654 12.054C361.208 12.054 361.744 12.1456 362.264 12.3288C362.784 12.5121 363.251 12.7997 363.664 13.1918C364.078 13.5838 364.404 14.093 364.642 14.7195C364.881 15.3416 365 16.098 365 16.9886V17.6662H357.195V16.2344H363.127C363.127 15.7315 363.025 15.2862 362.82 14.8984C362.616 14.5064 362.328 14.1974 361.958 13.9716C361.591 13.7457 361.161 13.6328 360.666 13.6328C360.129 13.6328 359.661 13.7649 359.26 14.0291C358.864 14.2891 358.557 14.63 358.34 15.0518C358.127 15.4695 358.02 15.9233 358.02 16.4134V17.532C358.02 18.1882 358.135 18.7464 358.365 19.2067C358.6 19.6669 358.926 20.0185 359.343 20.2614C359.761 20.5 360.249 20.6193 360.807 20.6193C361.169 20.6193 361.499 20.5682 361.798 20.4659C362.096 20.3594 362.354 20.2017 362.571 19.9929C362.789 19.7841 362.955 19.5263 363.07 19.2195L364.879 19.5455C364.734 20.0781 364.474 20.5447 364.099 20.9453C363.728 21.3416 363.262 21.6506 362.699 21.8722C362.141 22.0895 361.504 22.1982 360.788 22.1982ZM374.478 14.5788L372.746 14.8857C372.673 14.6641 372.558 14.4531 372.401 14.2528C372.247 14.0526 372.038 13.8885 371.774 13.7607C371.51 13.6328 371.18 13.5689 370.783 13.5689C370.242 13.5689 369.79 13.6903 369.428 13.9332C369.066 14.1719 368.885 14.4808 368.885 14.8601C368.885 15.1882 369.006 15.4524 369.249 15.6527C369.492 15.853 369.884 16.017 370.425 16.1449L371.985 16.5028C372.888 16.7116 373.562 17.0334 374.005 17.468C374.448 17.9027 374.67 18.4673 374.67 19.1619C374.67 19.75 374.499 20.2741 374.158 20.7344C373.822 21.1903 373.351 21.5483 372.746 21.8082C372.145 22.0682 371.448 22.1982 370.656 22.1982C369.556 22.1982 368.659 21.9638 367.964 21.495C367.27 21.022 366.844 20.3509 366.686 19.4815L368.533 19.2003C368.648 19.6818 368.885 20.0462 369.243 20.2933C369.601 20.5362 370.067 20.6577 370.643 20.6577C371.269 20.6577 371.77 20.5277 372.145 20.2678C372.52 20.0036 372.707 19.6818 372.707 19.3026C372.707 18.9957 372.592 18.7379 372.362 18.5291C372.136 18.3203 371.789 18.1626 371.32 18.0561L369.658 17.6918C368.742 17.483 368.065 17.1506 367.626 16.6946C367.191 16.2386 366.974 15.6612 366.974 14.9624C366.974 14.3828 367.136 13.8757 367.46 13.4411C367.783 13.0064 368.231 12.6676 368.802 12.4247C369.373 12.1776 370.027 12.054 370.764 12.054C371.825 12.054 372.661 12.2841 373.27 12.7443C373.879 13.2003 374.282 13.8118 374.478 14.5788ZM381.003 22.1982C380.035 22.1982 379.202 21.9915 378.503 21.5781C377.809 21.1605 377.272 20.5746 376.893 19.8203C376.518 19.0618 376.33 18.1733 376.33 17.1548C376.33 16.1491 376.518 15.2628 376.893 14.4957C377.272 13.7287 377.8 13.13 378.478 12.6996C379.16 12.2692 379.956 12.054 380.868 12.054C381.422 12.054 381.959 12.1456 382.479 12.3288C382.999 12.5121 383.466 12.7997 383.879 13.1918C384.292 13.5838 384.618 14.093 384.857 14.7195C385.096 15.3416 385.215 16.098 385.215 16.9886V17.6662H377.41V16.2344H383.342C383.342 15.7315 383.24 15.2862 383.035 14.8984C382.831 14.5064 382.543 14.1974 382.172 13.9716C381.806 13.7457 381.376 13.6328 380.881 13.6328C380.344 13.6328 379.876 13.7649 379.475 14.0291C379.079 14.2891 378.772 14.63 378.555 15.0518C378.341 15.4695 378.235 15.9233 378.235 16.4134V17.532C378.235 18.1882 378.35 18.7464 378.58 19.2067C378.814 19.6669 379.14 20.0185 379.558 20.2614C379.976 20.5 380.464 20.6193 381.022 20.6193C381.384 20.6193 381.714 20.5682 382.013 20.4659C382.311 20.3594 382.569 20.2017 382.786 19.9929C383.003 19.7841 383.17 19.5263 383.285 19.2195L385.094 19.5455C384.949 20.0781 384.689 20.5447 384.314 20.9453C383.943 21.3416 383.476 21.6506 382.914 21.8722C382.356 22.0895 381.719 22.1982 381.003 22.1982ZM387.336 22V12.1818H389.183V13.7415H389.285C389.464 13.2131 389.779 12.7976 390.231 12.495C390.687 12.1882 391.203 12.0348 391.778 12.0348C391.897 12.0348 392.038 12.0391 392.2 12.0476C392.366 12.0561 392.496 12.0668 392.59 12.0795V13.9077C392.513 13.8864 392.377 13.8629 392.181 13.8374C391.985 13.8075 391.789 13.7926 391.593 13.7926C391.141 13.7926 390.738 13.8885 390.385 14.0803C390.035 14.2678 389.758 14.5298 389.554 14.8665C389.349 15.1989 389.247 15.5781 389.247 16.0043V22H387.336ZM402.942 12.1818L399.381 22H397.336L393.769 12.1818H395.821L398.308 19.7372H398.41L400.89 12.1818H402.942ZM408.635 22.1982C407.668 22.1982 406.835 21.9915 406.136 21.5781C405.442 21.1605 404.905 20.5746 404.525 19.8203C404.15 19.0618 403.963 18.1733 403.963 17.1548C403.963 16.1491 404.15 15.2628 404.525 14.4957C404.905 13.7287 405.433 13.13 406.111 12.6996C406.792 12.2692 407.589 12.054 408.501 12.054C409.055 12.054 409.592 12.1456 410.112 12.3288C410.632 12.5121 411.099 12.7997 411.512 13.1918C411.925 13.5838 412.251 14.093 412.49 14.7195C412.729 15.3416 412.848 16.098 412.848 16.9886V17.6662H405.043V16.2344H410.975C410.975 15.7315 410.873 15.2862 410.668 14.8984C410.464 14.5064 410.176 14.1974 409.805 13.9716C409.439 13.7457 409.008 13.6328 408.514 13.6328C407.977 13.6328 407.508 13.7649 407.108 14.0291C406.711 14.2891 406.405 14.63 406.187 15.0518C405.974 15.4695 405.868 15.9233 405.868 16.4134V17.532C405.868 18.1882 405.983 18.7464 406.213 19.2067C406.447 19.6669 406.773 20.0185 407.191 20.2614C407.608 20.5 408.096 20.6193 408.655 20.6193C409.017 20.6193 409.347 20.5682 409.645 20.4659C409.944 20.3594 410.202 20.2017 410.419 19.9929C410.636 19.7841 410.802 19.5263 410.917 19.2195L412.726 19.5455C412.581 20.0781 412.322 20.5447 411.947 20.9453C411.576 21.3416 411.109 21.6506 410.547 21.8722C409.988 22.0895 409.351 22.1982 408.635 22.1982ZM418.644 22.1918C417.851 22.1918 417.144 21.9893 416.522 21.5845C415.904 21.1754 415.418 20.5937 415.064 19.8395C414.715 19.081 414.54 18.1712 414.54 17.1101C414.54 16.049 414.717 15.1413 415.071 14.3871C415.429 13.6328 415.919 13.0554 416.541 12.6548C417.163 12.2543 417.868 12.054 418.657 12.054C419.266 12.054 419.756 12.1562 420.127 12.3608C420.502 12.5611 420.792 12.7955 420.996 13.0639C421.205 13.3324 421.367 13.5689 421.482 13.7734H421.597V8.90909H423.508V22H421.642V20.4723H421.482C421.367 20.6811 421.201 20.9197 420.983 21.1882C420.77 21.4567 420.476 21.6911 420.101 21.8913C419.726 22.0916 419.24 22.1918 418.644 22.1918ZM419.066 20.5618C419.615 20.5618 420.08 20.4169 420.459 20.1271C420.843 19.8331 421.132 19.4261 421.328 18.9062C421.529 18.3864 421.629 17.7812 421.629 17.0909C421.629 16.4091 421.531 15.8125 421.335 15.3011C421.139 14.7898 420.851 14.3913 420.472 14.1058C420.093 13.8203 419.624 13.6776 419.066 13.6776C418.49 13.6776 418.011 13.8267 417.627 14.125C417.244 14.4233 416.954 14.8303 416.758 15.3459C416.566 15.8615 416.471 16.4432 416.471 17.0909C416.471 17.7472 416.569 18.3374 416.765 18.8615C416.961 19.3857 417.25 19.8011 417.634 20.108C418.022 20.4105 418.499 20.5618 419.066 20.5618Z" fill="white"/>
</svg>
