<svg width="410" height="186" viewBox="0 0 410 186" fill="none" xmlns="http://www.w3.org/2000/svg">
<path d="M10.2976 78.1661C10.174 77.7783 10.0078 77.431 9.79901 77.1242C9.59446 76.8131 9.34943 76.5489 9.06392 76.3316C8.77841 76.11 8.45241 75.9417 8.08594 75.8266C7.72372 75.7115 7.32528 75.654 6.89062 75.654C6.15341 75.654 5.48864 75.8436 4.89631 76.2229C4.30398 76.6022 3.83523 77.1583 3.49006 77.8912C3.14915 78.6199 2.97869 79.5127 2.97869 80.5695C2.97869 81.6306 3.15128 82.5276 3.49645 83.2605C3.84162 83.9935 4.31463 84.5496 4.91548 84.9289C5.51634 85.3081 6.20028 85.4978 6.96733 85.4978C7.67898 85.4978 8.29901 85.3529 8.82741 85.0631C9.36009 84.7733 9.77131 84.3642 10.0611 83.8358C10.3551 83.3032 10.5021 82.6767 10.5021 81.9566L11.0135 82.0524H7.26776V80.4225H12.4134V81.9118C12.4134 83.0113 12.179 83.9658 11.7102 84.7755C11.2457 85.5809 10.6023 86.203 9.77983 86.6419C8.96165 87.0809 8.02415 87.3003 6.96733 87.3003C5.78267 87.3003 4.7429 87.0276 3.84801 86.4821C2.95739 85.9367 2.26278 85.1632 1.7642 84.1618C1.26563 83.1561 1.01634 81.963 1.01634 80.5823C1.01634 79.5382 1.16122 78.6007 1.45099 77.7698C1.74077 76.9388 2.14773 76.2336 2.67188 75.654C3.20028 75.0702 3.82031 74.6249 4.53196 74.3181C5.24787 74.007 6.02983 73.8515 6.87784 73.8515C7.58523 73.8515 8.24361 73.9559 8.85298 74.1647C9.46662 74.3735 10.0121 74.6696 10.4893 75.0532C10.9709 75.4367 11.3693 75.8926 11.6847 76.4211C12 76.9452 12.2131 77.5269 12.3239 78.1661H10.2976ZM18.9988 87.3195C18.0314 87.3195 17.1983 87.1128 16.4995 86.6995C15.8049 86.2818 15.2679 85.6959 14.8887 84.9417C14.5137 84.1831 14.3262 83.2946 14.3262 82.2762C14.3262 81.2705 14.5137 80.3841 14.8887 79.6171C15.2679 78.85 15.7963 78.2513 16.4739 77.8209C17.1557 77.3905 17.9526 77.1753 18.8645 77.1753C19.4185 77.1753 19.9554 77.2669 20.4753 77.4502C20.9952 77.6334 21.4618 77.9211 21.8752 78.3131C22.2885 78.7051 22.6145 79.2144 22.8532 79.8408C23.0918 80.463 23.2111 81.2193 23.2111 82.11V82.7875H15.4064V81.3557H21.3382C21.3382 80.8529 21.236 80.4076 21.0314 80.0198C20.8269 79.6277 20.5392 79.3188 20.1685 79.0929C19.802 78.8671 19.3716 78.7542 18.8773 78.7542C18.3404 78.7542 17.8716 78.8863 17.4711 79.1505C17.0748 79.4104 16.7679 79.7513 16.5506 80.1732C16.3375 80.5908 16.231 81.0446 16.231 81.5347V82.6533C16.231 83.3095 16.3461 83.8678 16.5762 84.328C16.8105 84.7882 17.1365 85.1398 17.5542 85.3827C17.9718 85.6213 18.4597 85.7407 19.0179 85.7407C19.3801 85.7407 19.7104 85.6895 20.0087 85.5872C20.307 85.4807 20.5648 85.323 20.7821 85.1142C20.9995 84.9054 21.1657 84.6476 21.2807 84.3408L23.0897 84.6668C22.9448 85.1995 22.6848 85.6661 22.3098 86.0667C21.9391 86.463 21.4725 86.7719 20.91 86.9935C20.3517 87.2108 19.7147 87.3195 18.9988 87.3195ZM29.9148 77.3032V78.8372H24.5518V77.3032H29.9148ZM25.9901 74.9509H27.9013V84.2385C27.9013 84.6093 27.9567 84.8884 28.0675 85.0759C28.1783 85.2591 28.321 85.3848 28.4957 85.453C28.6747 85.5169 28.8686 85.5489 29.0774 85.5489C29.2308 85.5489 29.3651 85.5382 29.4801 85.5169C29.5952 85.4956 29.6847 85.4786 29.7486 85.4658L30.0938 87.0446C29.983 87.0872 29.8253 87.1299 29.6207 87.1725C29.4162 87.2193 29.1605 87.2449 28.8537 87.2492C28.3509 87.2577 27.8821 87.1682 27.4474 86.9807C27.0128 86.7932 26.6612 86.5034 26.3928 86.1114C26.1243 85.7193 25.9901 85.2272 25.9901 84.6348V74.9509ZM44.1499 79.7002L42.4176 80.007C42.3452 79.7854 42.2301 79.5745 42.0724 79.3742C41.919 79.1739 41.7102 79.0098 41.446 78.882C41.1818 78.7542 40.8516 78.6902 40.4553 78.6902C39.9141 78.6902 39.4624 78.8117 39.1001 79.0546C38.7379 79.2932 38.5568 79.6022 38.5568 79.9814C38.5568 80.3095 38.6783 80.5738 38.9212 80.774C39.1641 80.9743 39.5561 81.1384 40.0973 81.2662L41.657 81.6242C42.5604 81.833 43.2337 82.1547 43.6768 82.5894C44.12 83.024 44.3416 83.5887 44.3416 84.2833C44.3416 84.8713 44.1712 85.3955 43.8303 85.8557C43.4936 86.3117 43.0227 86.6696 42.4176 86.9296C41.8168 87.1895 41.12 87.3195 40.3274 87.3195C39.228 87.3195 38.331 87.0851 37.6364 86.6164C36.9418 86.1434 36.5156 85.4722 36.358 84.6029L38.2053 84.3216C38.3203 84.8032 38.5568 85.1675 38.9148 85.4147C39.2727 85.6576 39.7393 85.779 40.3146 85.779C40.9411 85.779 41.4418 85.649 41.8168 85.3891C42.1918 85.1249 42.3793 84.8032 42.3793 84.4239C42.3793 84.1171 42.2642 83.8593 42.0341 83.6505C41.8082 83.4417 41.4609 83.284 40.9922 83.1774L39.3303 82.8131C38.4141 82.6043 37.7365 82.2719 37.2976 81.8159C36.8629 81.36 36.6456 80.7826 36.6456 80.0837C36.6456 79.5042 36.8075 78.997 37.1314 78.5624C37.4553 78.1277 37.9027 77.789 38.4737 77.5461C39.0447 77.2989 39.6989 77.1753 40.4361 77.1753C41.4972 77.1753 42.3324 77.4054 42.9418 77.8657C43.5511 78.3216 43.9538 78.9331 44.1499 79.7002ZM51.0261 77.3032V78.8372H45.6632V77.3032H51.0261ZM47.1014 74.9509H49.0126V84.2385C49.0126 84.6093 49.068 84.8884 49.1788 85.0759C49.2896 85.2591 49.4324 85.3848 49.6071 85.453C49.786 85.5169 49.9799 85.5489 50.1887 85.5489C50.3422 85.5489 50.4764 85.5382 50.5914 85.5169C50.7065 85.4956 50.796 85.4786 50.8599 85.4658L51.2051 87.0446C51.0943 87.0872 50.9366 87.1299 50.7321 87.1725C50.5275 87.2193 50.2718 87.2449 49.965 87.2492C49.4622 87.2577 48.9934 87.1682 48.5588 86.9807C48.1241 86.7932 47.7725 86.5034 47.5041 86.1114C47.2356 85.7193 47.1014 85.2272 47.1014 84.6348V74.9509ZM55.9975 87.3387C55.3754 87.3387 54.8129 87.2236 54.31 86.9935C53.8072 86.7591 53.4087 86.4203 53.1147 85.9772C52.8249 85.534 52.68 84.9907 52.68 84.3472C52.68 83.7932 52.7866 83.3372 52.9996 82.9793C53.2127 82.6213 53.5004 82.338 53.8626 82.1292C54.2248 81.9203 54.6296 81.7627 55.0771 81.6561C55.5245 81.5496 55.9805 81.4686 56.445 81.4132C57.033 81.3451 57.5103 81.2897 57.8768 81.247C58.2433 81.2002 58.5096 81.1256 58.6758 81.0233C58.842 80.9211 58.9251 80.7549 58.9251 80.5247V80.48C58.9251 79.9218 58.7674 79.4892 58.4521 79.1824C58.141 78.8756 57.6765 78.7222 57.0586 78.7222C56.4151 78.7222 55.908 78.8649 55.5373 79.1505C55.1708 79.4317 54.9173 79.7449 54.7766 80.0901L52.9805 79.681C53.1935 79.0844 53.5046 78.6029 53.9137 78.2364C54.3271 77.8657 54.8022 77.5972 55.3391 77.431C55.8761 77.2605 56.4407 77.1753 57.033 77.1753C57.4251 77.1753 57.8406 77.2222 58.2795 77.3159C58.7227 77.4054 59.136 77.5716 59.5195 77.8145C59.9073 78.0574 60.2248 78.4047 60.4719 78.8564C60.7191 79.3039 60.8427 79.8855 60.8427 80.6015V87.1213H58.9762V85.779H58.8995C58.7759 86.0262 58.5906 86.2691 58.3434 86.5077C58.0962 86.7463 57.7788 86.9445 57.391 87.1022C57.0032 87.2598 56.5387 87.3387 55.9975 87.3387ZM56.413 85.8046C56.9414 85.8046 57.3931 85.7002 57.7681 85.4914C58.1474 85.2826 58.435 85.0098 58.631 84.6732C58.8313 84.3323 58.9315 83.9679 58.9315 83.5801V82.3145C58.8633 82.3827 58.7312 82.4466 58.5352 82.5063C58.3434 82.5617 58.1239 82.6107 57.8768 82.6533C57.6296 82.6917 57.3888 82.7279 57.1545 82.762C56.9201 82.7918 56.7241 82.8174 56.5664 82.8387C56.1957 82.8855 55.8569 82.9644 55.5501 83.0752C55.2475 83.186 55.0046 83.3458 54.8214 83.5546C54.6424 83.7591 54.5529 84.0318 54.5529 84.3728C54.5529 84.8458 54.7276 85.2037 55.0771 85.4466C55.4265 85.6853 55.8718 85.8046 56.413 85.8046ZM63.3883 87.1213V77.3032H65.2356V78.8628H65.3379C65.5169 78.3344 65.8322 77.9189 66.2839 77.6164C66.7399 77.3095 67.2555 77.1561 67.8308 77.1561C67.9501 77.1561 68.0907 77.1604 68.2527 77.1689C68.4189 77.1774 68.5488 77.1881 68.6426 77.2009V79.029C68.5659 79.0077 68.4295 78.9843 68.2335 78.9587C68.0375 78.9289 67.8414 78.914 67.6454 78.914C67.1937 78.914 66.791 79.0098 66.4373 79.2016C66.0879 79.3891 65.8109 79.6512 65.6064 79.9878C65.4018 80.3202 65.2995 80.6995 65.2995 81.1256V87.1213H63.3883ZM75.4597 77.3032V78.8372H70.0968V77.3032H75.4597ZM71.535 74.9509H73.4462V84.2385C73.4462 84.6093 73.5016 84.8884 73.6124 85.0759C73.7232 85.2591 73.8659 85.3848 74.0407 85.453C74.2196 85.5169 74.4135 85.5489 74.6223 85.5489C74.7757 85.5489 74.91 85.5382 75.025 85.5169C75.1401 85.4956 75.2296 85.4786 75.2935 85.4658L75.6387 87.0446C75.5279 87.0872 75.3702 87.1299 75.1657 87.1725C74.9611 87.2193 74.7054 87.2449 74.3986 87.2492C73.8958 87.2577 73.427 87.1682 72.9924 86.9807C72.5577 86.7932 72.2061 86.5034 71.9377 86.1114C71.6692 85.7193 71.535 85.2272 71.535 84.6348V74.9509ZM81.6999 87.3195C80.7326 87.3195 79.8995 87.1128 79.2006 86.6995C78.506 86.2818 77.9691 85.6959 77.5898 84.9417C77.2148 84.1831 77.0273 83.2946 77.0273 82.2762C77.0273 81.2705 77.2148 80.3841 77.5898 79.6171C77.9691 78.85 78.4975 78.2513 79.1751 77.8209C79.8569 77.3905 80.6538 77.1753 81.5657 77.1753C82.1197 77.1753 82.6566 77.2669 83.1765 77.4502C83.6964 77.6334 84.163 77.9211 84.5763 78.3131C84.9897 78.7051 85.3157 79.2144 85.5543 79.8408C85.793 80.463 85.9123 81.2193 85.9123 82.11V82.7875H78.1076V81.3557H84.0394C84.0394 80.8529 83.9371 80.4076 83.7326 80.0198C83.5281 79.6277 83.2404 79.3188 82.8697 79.0929C82.5032 78.8671 82.0728 78.7542 81.5785 78.7542C81.0415 78.7542 80.5728 78.8863 80.1722 79.1505C79.7759 79.4104 79.4691 79.7513 79.2518 80.1732C79.0387 80.5908 78.9322 81.0446 78.9322 81.5347V82.6533C78.9322 83.3095 79.0472 83.8678 79.2773 84.328C79.5117 84.7882 79.8377 85.1398 80.2553 85.3827C80.6729 85.6213 81.1609 85.7407 81.7191 85.7407C82.0813 85.7407 82.4116 85.6895 82.7099 85.5872C83.0082 85.4807 83.266 85.323 83.4833 85.1142C83.7006 84.9054 83.8668 84.6476 83.9819 84.3408L85.7908 84.6668C85.646 85.1995 85.386 85.6661 85.011 86.0667C84.6403 86.463 84.1737 86.7719 83.6112 86.9935C83.0529 87.2108 82.4158 87.3195 81.6999 87.3195ZM91.7083 87.3131C90.9157 87.3131 90.2083 87.1107 89.5861 86.7059C88.9682 86.2968 88.4824 85.7151 88.1287 84.9608C87.7793 84.2023 87.6046 83.2925 87.6046 82.2314C87.6046 81.1703 87.7814 80.2627 88.1351 79.5084C88.4931 78.7542 88.9831 78.1767 89.6053 77.7762C90.2275 77.3756 90.9327 77.1753 91.7211 77.1753C92.3304 77.1753 92.8205 77.2776 93.1912 77.4821C93.5662 77.6824 93.856 77.9168 94.0605 78.1853C94.2694 78.4537 94.4313 78.6902 94.5463 78.8948H94.6614V74.0304H96.5726V87.1213H94.7061V85.5936H94.5463C94.4313 85.8024 94.2651 86.0411 94.0478 86.3095C93.8347 86.578 93.5407 86.8124 93.1657 87.0127C92.7907 87.213 92.3049 87.3131 91.7083 87.3131ZM92.1301 85.6831C92.6799 85.6831 93.1444 85.5382 93.5236 85.2485C93.9071 84.9544 94.1969 84.5475 94.3929 84.0276C94.5932 83.5077 94.6934 82.9026 94.6934 82.2122C94.6934 81.5304 94.5953 80.9338 94.3993 80.4225C94.2033 79.9111 93.9157 79.5127 93.5364 79.2272C93.1571 78.9417 92.6884 78.7989 92.1301 78.7989C91.5549 78.7989 91.0755 78.948 90.6919 79.2463C90.3084 79.5446 90.0186 79.9516 89.8226 80.4672C89.6309 80.9828 89.535 81.5645 89.535 82.2122C89.535 82.8685 89.633 83.4587 89.829 83.9828C90.025 84.507 90.3148 84.9225 90.6983 85.2293C91.0861 85.5318 91.5634 85.6831 92.1301 85.6831ZM105.975 81.2918V87.1213H104.064V77.3032H105.899V78.9012H106.02C106.246 78.3813 106.6 77.9637 107.081 77.6483C107.567 77.333 108.178 77.1753 108.916 77.1753C109.585 77.1753 110.171 77.3159 110.673 77.5972C111.176 77.8742 111.566 78.2875 111.843 78.8372C112.12 79.387 112.259 80.0667 112.259 80.8763V87.1213H110.347V81.1064C110.347 80.3948 110.162 79.8387 109.791 79.4381C109.421 79.0333 108.911 78.8309 108.264 78.8309C107.82 78.8309 107.426 78.9267 107.081 79.1185C106.74 79.3103 106.47 79.5915 106.269 79.9622C106.073 80.3287 105.975 80.7719 105.975 81.2918ZM118.958 87.3195C118.037 87.3195 117.234 87.1086 116.548 86.6867C115.862 86.2648 115.329 85.6746 114.95 84.9161C114.57 84.1576 114.381 83.2712 114.381 82.257C114.381 81.2385 114.57 80.3479 114.95 79.5851C115.329 78.8223 115.862 78.23 116.548 77.8081C117.234 77.3863 118.037 77.1753 118.958 77.1753C119.878 77.1753 120.681 77.3863 121.367 77.8081C122.053 78.23 122.586 78.8223 122.965 79.5851C123.345 80.3479 123.534 81.2385 123.534 82.257C123.534 83.2712 123.345 84.1576 122.965 84.9161C122.586 85.6746 122.053 86.2648 121.367 86.6867C120.681 87.1086 119.878 87.3195 118.958 87.3195ZM118.964 85.7151C119.561 85.7151 120.055 85.5574 120.447 85.2421C120.839 84.9267 121.129 84.507 121.316 83.9828C121.508 83.4587 121.604 82.8813 121.604 82.2506C121.604 81.6242 121.508 81.0489 121.316 80.5247C121.129 79.9963 120.839 79.5723 120.447 79.2527C120.055 78.9331 119.561 78.7733 118.964 78.7733C118.363 78.7733 117.865 78.9331 117.468 79.2527C117.076 79.5723 116.784 79.9963 116.593 80.5247C116.405 81.0489 116.311 81.6242 116.311 82.2506C116.311 82.8813 116.405 83.4587 116.593 83.9828C116.784 84.507 117.076 84.9267 117.468 85.2421C117.865 85.5574 118.363 85.7151 118.964 85.7151ZM129.899 87.3195C128.932 87.3195 128.099 87.1128 127.4 86.6995C126.705 86.2818 126.168 85.6959 125.789 84.9417C125.414 84.1831 125.227 83.2946 125.227 82.2762C125.227 81.2705 125.414 80.3841 125.789 79.6171C126.168 78.85 126.697 78.2513 127.374 77.8209C128.056 77.3905 128.853 77.1753 129.765 77.1753C130.319 77.1753 130.856 77.2669 131.376 77.4502C131.896 77.6334 132.362 77.9211 132.776 78.3131C133.189 78.7051 133.515 79.2144 133.754 79.8408C133.992 80.463 134.112 81.2193 134.112 82.11V82.7875H126.307V81.3557H132.239C132.239 80.8529 132.136 80.4076 131.932 80.0198C131.727 79.6277 131.44 79.3188 131.069 79.0929C130.702 78.8671 130.272 78.7542 129.778 78.7542C129.241 78.7542 128.772 78.8863 128.371 79.1505C127.975 79.4104 127.668 79.7513 127.451 80.1732C127.238 80.5908 127.131 81.0446 127.131 81.5347V82.6533C127.131 83.3095 127.246 83.8678 127.477 84.328C127.711 84.7882 128.037 85.1398 128.455 85.3827C128.872 85.6213 129.36 85.7407 129.918 85.7407C130.281 85.7407 130.611 85.6895 130.909 85.5872C131.207 85.4807 131.465 85.323 131.683 85.1142C131.9 84.9054 132.066 84.6476 132.181 84.3408L133.99 84.6668C133.845 85.1995 133.585 85.6661 133.21 86.0667C132.839 86.463 132.373 86.7719 131.81 86.9935C131.252 87.2108 130.615 87.3195 129.899 87.3195ZM138.343 87.1213L135.454 77.3032H137.429L139.353 84.5134H139.449L141.379 77.3032H143.354L145.272 84.4814H145.368L147.279 77.3032H149.254L146.371 87.1213H144.422L142.428 80.0326H142.281L140.286 87.1213H138.343ZM160.415 77.3032V78.8372H155.052V77.3032H160.415ZM156.49 74.9509H158.401V84.2385C158.401 84.6093 158.457 84.8884 158.567 85.0759C158.678 85.2591 158.821 85.3848 158.996 85.453C159.175 85.5169 159.369 85.5489 159.577 85.5489C159.731 85.5489 159.865 85.5382 159.98 85.5169C160.095 85.4956 160.185 85.4786 160.249 85.4658L160.594 87.0446C160.483 87.0872 160.325 87.1299 160.121 87.1725C159.916 87.2193 159.661 87.2449 159.354 87.2492C158.851 87.2577 158.382 87.1682 157.947 86.9807C157.513 86.7932 157.161 86.5034 156.893 86.1114C156.624 85.7193 156.49 85.2272 156.49 84.6348V74.9509ZM162.529 87.1213V77.3032H164.376V78.8628H164.479C164.657 78.3344 164.973 77.9189 165.425 77.6164C165.881 77.3095 166.396 77.1561 166.971 77.1561C167.091 77.1561 167.231 77.1604 167.393 77.1689C167.559 77.1774 167.689 77.1881 167.783 77.2009V79.029C167.706 79.0077 167.57 78.9843 167.374 78.9587C167.178 78.9289 166.982 78.914 166.786 78.914C166.334 78.914 165.932 79.0098 165.578 79.2016C165.229 79.3891 164.952 79.6512 164.747 79.9878C164.542 80.3202 164.44 80.6995 164.44 81.1256V87.1213H162.529ZM170.944 90.8032C170.659 90.8032 170.399 90.7797 170.164 90.7328C169.93 90.6902 169.755 90.6434 169.64 90.5922L170.1 89.0262C170.45 89.1199 170.761 89.1604 171.034 89.1476C171.306 89.1348 171.547 89.0326 171.756 88.8408C171.969 88.649 172.156 88.3358 172.318 87.9012L172.555 87.2492L168.963 77.3032H171.008L173.494 84.9225H173.597L176.083 77.3032H178.135L174.089 88.4317C173.901 88.9431 173.663 89.3756 173.373 89.7293C173.083 90.0872 172.738 90.3557 172.338 90.5347C171.937 90.7137 171.472 90.8032 170.944 90.8032ZM188.831 87.3195C187.91 87.3195 187.107 87.1086 186.421 86.6867C185.735 86.2648 185.202 85.6746 184.823 84.9161C184.444 84.1576 184.254 83.2712 184.254 82.257C184.254 81.2385 184.444 80.3479 184.823 79.5851C185.202 78.8223 185.735 78.23 186.421 77.8081C187.107 77.3863 187.91 77.1753 188.831 77.1753C189.751 77.1753 190.554 77.3863 191.24 77.8081C191.926 78.23 192.459 78.8223 192.838 79.5851C193.218 80.3479 193.407 81.2385 193.407 82.257C193.407 83.2712 193.218 84.1576 192.838 84.9161C192.459 85.6746 191.926 86.2648 191.24 86.6867C190.554 87.1086 189.751 87.3195 188.831 87.3195ZM188.837 85.7151C189.434 85.7151 189.928 85.5574 190.32 85.2421C190.712 84.9267 191.002 84.507 191.189 83.9828C191.381 83.4587 191.477 82.8813 191.477 82.2506C191.477 81.6242 191.381 81.0489 191.189 80.5247C191.002 79.9963 190.712 79.5723 190.32 79.2527C189.928 78.9331 189.434 78.7733 188.837 78.7733C188.236 78.7733 187.738 78.9331 187.341 79.2527C186.949 79.5723 186.657 79.9963 186.466 80.5247C186.278 81.0489 186.184 81.6242 186.184 82.2506C186.184 82.8813 186.278 83.4587 186.466 83.9828C186.657 84.507 186.949 84.9267 187.341 85.2421C187.738 85.5574 188.236 85.7151 188.837 85.7151ZM201.76 83.0496V77.3032H203.678V87.1213H201.798V85.4211H201.696C201.47 85.9452 201.108 86.382 200.61 86.7314C200.115 87.0766 199.499 87.2492 198.762 87.2492C198.132 87.2492 197.573 87.1107 197.088 86.8337C196.606 86.5524 196.227 86.137 195.95 85.5872C195.677 85.0375 195.541 84.3578 195.541 83.5482V77.3032H197.452V83.3181C197.452 83.9871 197.637 84.5198 198.008 84.9161C198.379 85.3124 198.86 85.5105 199.453 85.5105C199.811 85.5105 200.166 85.4211 200.52 85.2421C200.878 85.0631 201.174 84.7925 201.409 84.4303C201.647 84.0681 201.764 83.6078 201.76 83.0496ZM206.246 87.1213V77.3032H208.093V78.8628H208.195C208.374 78.3344 208.69 77.9189 209.141 77.6164C209.597 77.3095 210.113 77.1561 210.688 77.1561C210.808 77.1561 210.948 77.1604 211.11 77.1689C211.276 77.1774 211.406 77.1881 211.5 77.2009V79.029C211.423 79.0077 211.287 78.9843 211.091 78.9587C210.895 78.9289 210.699 78.914 210.503 78.914C210.051 78.914 209.648 79.0098 209.295 79.2016C208.945 79.3891 208.668 79.6512 208.464 79.9878C208.259 80.3202 208.157 80.6995 208.157 81.1256V87.1213H206.246ZM217.918 90.8032V77.3032H219.784V78.8948H219.944C220.055 78.6902 220.214 78.4537 220.423 78.1853C220.632 77.9168 220.922 77.6824 221.293 77.4821C221.663 77.2776 222.153 77.1753 222.763 77.1753C223.555 77.1753 224.263 77.3756 224.885 77.7762C225.507 78.1767 225.995 78.7542 226.349 79.5084C226.707 80.2627 226.886 81.1703 226.886 82.2314C226.886 83.2925 226.709 84.2023 226.355 84.9608C226.001 85.7151 225.516 86.2968 224.898 86.7059C224.28 87.1107 223.575 87.3131 222.782 87.3131C222.185 87.3131 221.697 87.213 221.318 87.0127C220.943 86.8124 220.649 86.578 220.436 86.3095C220.223 86.0411 220.059 85.8024 219.944 85.5936H219.829V90.8032H217.918ZM219.79 82.2122C219.79 82.9026 219.891 83.5077 220.091 84.0276C220.291 84.5475 220.581 84.9544 220.96 85.2485C221.339 85.5382 221.804 85.6831 222.354 85.6831C222.925 85.6831 223.402 85.5318 223.786 85.2293C224.169 84.9225 224.459 84.507 224.655 83.9828C224.855 83.4587 224.955 82.8685 224.955 82.2122C224.955 81.5645 224.857 80.9828 224.661 80.4672C224.469 79.9516 224.18 79.5446 223.792 79.2463C223.408 78.948 222.929 78.7989 222.354 78.7989C221.8 78.7989 221.331 78.9417 220.947 79.2272C220.568 79.5127 220.281 79.9111 220.085 80.4225C219.888 80.9338 219.79 81.5304 219.79 82.2122ZM229.027 87.1213V77.3032H230.874V78.8628H230.977C231.156 78.3344 231.471 77.9189 231.923 77.6164C232.379 77.3095 232.894 77.1561 233.469 77.1561C233.589 77.1561 233.729 77.1604 233.891 77.1689C234.058 77.1774 234.188 77.1881 234.281 77.2009V79.029C234.205 79.0077 234.068 78.9843 233.872 78.9587C233.676 78.9289 233.48 78.914 233.284 78.914C232.832 78.914 232.43 79.0098 232.076 79.2016C231.727 79.3891 231.45 79.6512 231.245 79.9878C231.04 80.3202 230.938 80.6995 230.938 81.1256V87.1213H229.027ZM239.719 87.3195C238.799 87.3195 237.996 87.1086 237.309 86.6867C236.623 86.2648 236.091 85.6746 235.711 84.9161C235.332 84.1576 235.143 83.2712 235.143 82.257C235.143 81.2385 235.332 80.3479 235.711 79.5851C236.091 78.8223 236.623 78.23 237.309 77.8081C237.996 77.3863 238.799 77.1753 239.719 77.1753C240.64 77.1753 241.443 77.3863 242.129 77.8081C242.815 78.23 243.348 78.8223 243.727 79.5851C244.106 80.3479 244.296 81.2385 244.296 82.257C244.296 83.2712 244.106 84.1576 243.727 84.9161C243.348 85.6746 242.815 86.2648 242.129 86.6867C241.443 87.1086 240.64 87.3195 239.719 87.3195ZM239.726 85.7151C240.322 85.7151 240.817 85.5574 241.209 85.2421C241.601 84.9267 241.89 84.507 242.078 83.9828C242.27 83.4587 242.366 82.8813 242.366 82.2506C242.366 81.6242 242.27 81.0489 242.078 80.5247C241.89 79.9963 241.601 79.5723 241.209 79.2527C240.817 78.9331 240.322 78.7733 239.726 78.7733C239.125 78.7733 238.626 78.9331 238.23 79.2527C237.838 79.5723 237.546 79.9963 237.354 80.5247C237.167 81.0489 237.073 81.6242 237.073 82.2506C237.073 82.8813 237.167 83.4587 237.354 83.9828C237.546 84.507 237.838 84.9267 238.23 85.2421C238.626 85.5574 239.125 85.7151 239.726 85.7151ZM250.105 87.3131C249.312 87.3131 248.605 87.1107 247.983 86.7059C247.365 86.2968 246.879 85.7151 246.525 84.9608C246.176 84.2023 246.001 83.2925 246.001 82.2314C246.001 81.1703 246.178 80.2627 246.532 79.5084C246.89 78.7542 247.38 78.1767 248.002 77.7762C248.624 77.3756 249.329 77.1753 250.118 77.1753C250.727 77.1753 251.217 77.2776 251.588 77.4821C251.963 77.6824 252.252 77.9168 252.457 78.1853C252.666 78.4537 252.828 78.6902 252.943 78.8948H253.058V74.0304H254.969V87.1213H253.103V85.5936H252.943C252.828 85.8024 252.662 86.0411 252.444 86.3095C252.231 86.578 251.937 86.8124 251.562 87.0127C251.187 87.213 250.701 87.3131 250.105 87.3131ZM250.527 85.6831C251.076 85.6831 251.541 85.5382 251.92 85.2485C252.304 84.9544 252.593 84.5475 252.789 84.0276C252.99 83.5077 253.09 82.9026 253.09 82.2122C253.09 81.5304 252.992 80.9338 252.796 80.4225C252.6 79.9111 252.312 79.5127 251.933 79.2272C251.554 78.9417 251.085 78.7989 250.527 78.7989C249.951 78.7989 249.472 78.948 249.088 79.2463C248.705 79.5446 248.415 79.9516 248.219 80.4672C248.027 80.9828 247.931 81.5645 247.931 82.2122C247.931 82.8685 248.029 83.4587 248.225 83.9828C248.422 84.507 248.711 84.9225 249.095 85.2293C249.483 85.5318 249.96 85.6831 250.527 85.6831ZM263.916 83.0496V77.3032H265.834V87.1213H263.955V85.4211H263.852C263.627 85.9452 263.264 86.382 262.766 86.7314C262.271 87.0766 261.656 87.2492 260.919 87.2492C260.288 87.2492 259.73 87.1107 259.244 86.8337C258.762 86.5524 258.383 86.137 258.106 85.5872C257.833 85.0375 257.697 84.3578 257.697 83.5482V77.3032H259.608V83.3181C259.608 83.9871 259.794 84.5198 260.164 84.9161C260.535 85.3124 261.017 85.5105 261.609 85.5105C261.967 85.5105 262.323 85.4211 262.676 85.2421C263.034 85.0631 263.33 84.7925 263.565 84.4303C263.803 84.0681 263.921 83.6078 263.916 83.0496ZM272.538 87.3195C271.587 87.3195 270.769 87.1043 270.083 86.6739C269.401 86.2392 268.877 85.6405 268.511 84.8777C268.144 84.1149 267.961 83.2414 267.961 82.257C267.961 81.2598 268.148 80.3799 268.523 79.6171C268.898 78.85 269.427 78.2513 270.109 77.8209C270.79 77.3905 271.594 77.1753 272.518 77.1753C273.264 77.1753 273.929 77.3138 274.513 77.5908C275.097 77.8635 275.567 78.247 275.925 78.7414C276.288 79.2357 276.503 79.8131 276.571 80.4736H274.711C274.609 80.0134 274.374 79.6171 274.008 79.2847C273.646 78.9523 273.16 78.7861 272.55 78.7861C272.018 78.7861 271.551 78.9267 271.151 79.208C270.754 79.485 270.445 79.8813 270.224 80.3969C270.002 80.9083 269.891 81.5134 269.891 82.2122C269.891 82.9282 270 83.5461 270.217 84.0659C270.435 84.5858 270.741 84.9885 271.138 85.274C271.538 85.5595 272.009 85.7023 272.55 85.7023C272.913 85.7023 273.241 85.6363 273.535 85.5042C273.833 85.3678 274.082 85.1739 274.283 84.9225C274.487 84.6711 274.63 84.3685 274.711 84.0148H276.571C276.503 84.6497 276.296 85.2165 275.951 85.7151C275.606 86.2137 275.143 86.6057 274.564 86.8912C273.989 87.1767 273.313 87.3195 272.538 87.3195ZM283.198 77.3032V78.8372H277.835V77.3032H283.198ZM279.273 74.9509H281.184V84.2385C281.184 84.6093 281.24 84.8884 281.351 85.0759C281.461 85.2591 281.604 85.3848 281.779 85.453C281.958 85.5169 282.152 85.5489 282.361 85.5489C282.514 85.5489 282.648 85.5382 282.763 85.5169C282.878 85.4956 282.968 85.4786 283.032 85.4658L283.377 87.0446C283.266 87.0872 283.108 87.1299 282.904 87.1725C282.699 87.2193 282.444 87.2449 282.137 87.2492C281.634 87.2577 281.165 87.1682 280.731 86.9807C280.296 86.7932 279.944 86.5034 279.676 86.1114C279.407 85.7193 279.273 85.2272 279.273 84.6348V74.9509Z" fill="#A6A6A6"/>
<path d="M3.58665 38.1213V1.7577H17.5071C20.1349 1.7577 22.3189 2.172 24.0589 3.0006C25.8108 3.81736 27.1188 4.93597 27.983 6.35642C28.8589 7.77688 29.2969 9.38673 29.2969 11.186C29.2969 12.6656 29.0128 13.9322 28.4446 14.9857C27.8764 16.0273 27.1129 16.8737 26.1541 17.5247C25.1953 18.1758 24.1241 18.6434 22.9403 18.9274V19.2826C24.2306 19.3536 25.4676 19.7501 26.6513 20.4722C27.8468 21.1824 28.8234 22.1886 29.581 23.4907C30.3385 24.7927 30.7173 26.3671 30.7173 28.2137C30.7173 30.0958 30.2616 31.7885 29.3501 33.2918C28.4387 34.7833 27.0656 35.9611 25.2308 36.8252C23.3961 37.6893 21.0878 38.1213 18.3061 38.1213H3.58665ZM10.174 32.6171H17.2585C19.6496 32.6171 21.3719 32.1613 22.4254 31.2499C23.4908 30.3266 24.0234 29.1429 24.0234 27.6988C24.0234 26.6216 23.7571 25.6509 23.2244 24.7868C22.6918 23.9109 21.9342 23.2243 20.9517 22.7272C19.9692 22.2182 18.7973 21.9637 17.4361 21.9637H10.174V32.6171ZM10.174 17.2229H16.6903C17.8267 17.2229 18.8506 17.0158 19.7621 16.6015C20.6735 16.1753 21.3897 15.5775 21.9105 14.8081C22.4432 14.0269 22.7095 13.1036 22.7095 12.0382C22.7095 10.6296 22.2124 9.46958 21.218 8.55813C20.2356 7.64667 18.7737 7.19094 16.8324 7.19094H10.174V17.2229ZM36.1639 38.1213V10.8486H42.5914V38.1213H36.1639ZM39.3954 6.97787C38.3774 6.97787 37.5015 6.64051 36.7676 5.9658C36.0337 5.27924 35.6667 4.45656 35.6667 3.49776C35.6667 2.52711 36.0337 1.70443 36.7676 1.02972C37.5015 0.343164 38.3774 -0.000112057 39.3954 -0.000112057C40.4252 -0.000112057 41.3012 0.343164 42.0233 1.02972C42.7572 1.70443 43.1241 2.52711 43.1241 3.49776C43.1241 4.45656 42.7572 5.27924 42.0233 5.9658C41.3012 6.64051 40.4252 6.97787 39.3954 6.97787ZM61.0973 38.654C58.3748 38.654 56.0369 38.0562 54.0838 36.8607C52.1425 35.6651 50.6451 34.0139 49.5916 31.9068C48.55 29.788 48.0291 27.3496 48.0291 24.5915C48.0291 21.8216 48.5618 19.3773 49.6271 17.2584C50.6925 15.1277 52.1958 13.4705 54.1371 12.2868C56.0902 11.0913 58.3984 10.4935 61.0618 10.4935C63.2753 10.4935 65.2344 10.9019 66.9389 11.7186C68.6553 12.5236 70.0225 13.6658 71.0405 15.1455C72.0585 16.6133 72.6385 18.3297 72.7805 20.2946H66.6371C66.3885 18.9807 65.7966 17.8858 64.8615 17.0098C63.9382 16.122 62.7012 15.6782 61.1506 15.6782C59.8366 15.6782 58.6825 16.0333 57.6882 16.7435C56.6939 17.4419 55.9186 18.448 55.3622 19.762C54.8177 21.0759 54.5455 22.6502 54.5455 24.485C54.5455 26.3434 54.8177 27.9414 55.3622 29.279C55.9067 30.6048 56.6702 31.6287 57.6527 32.3507C58.647 33.061 59.813 33.4161 61.1506 33.4161C62.0975 33.4161 62.9439 33.2385 63.6896 32.8834C64.4472 32.5165 65.0805 31.9897 65.5895 31.3032C66.0985 30.6166 66.4477 29.7821 66.6371 28.7996H72.7805C72.6267 30.7291 72.0585 32.4395 71.076 33.931C70.0935 35.4106 68.7559 36.5707 67.0632 37.4111C65.3705 38.2397 63.3819 38.654 61.0973 38.654ZM89.9547 38.654C87.2322 38.654 84.8944 38.0562 82.9412 36.8607C80.9999 35.6651 79.5025 34.0139 78.449 31.9068C77.4074 29.788 76.8865 27.3496 76.8865 24.5915C76.8865 21.8216 77.4192 19.3773 78.4846 17.2584C79.5499 15.1277 81.0532 13.4705 82.9945 12.2868C84.9476 11.0913 87.2559 10.4935 89.9192 10.4935C92.1328 10.4935 94.0918 10.9019 95.7963 11.7186C97.5127 12.5236 98.8799 13.6658 99.8979 15.1455C100.916 16.6133 101.496 18.3297 101.638 20.2946H95.4945C95.2459 18.9807 94.6541 17.8858 93.7189 17.0098C92.7956 16.122 91.5587 15.6782 90.008 15.6782C88.6941 15.6782 87.54 16.0333 86.5456 16.7435C85.5513 17.4419 84.776 18.448 84.2196 19.762C83.6751 21.0759 83.4029 22.6502 83.4029 24.485C83.4029 26.3434 83.6751 27.9414 84.2196 29.279C84.7641 30.6048 85.5276 31.6287 86.5101 32.3507C87.5044 33.061 88.6704 33.4161 90.008 33.4161C90.955 33.4161 91.8013 33.2385 92.5471 32.8834C93.3046 32.5165 93.9379 31.9897 94.4469 31.3032C94.9559 30.6166 95.3051 29.7821 95.4945 28.7996H101.638C101.484 30.7291 100.916 32.4395 99.9334 33.931C98.9509 35.4106 97.6133 36.5707 95.9206 37.4111C94.2279 38.2397 92.2393 38.654 89.9547 38.654ZM114.764 38.6718C113.036 38.6718 111.479 38.364 110.094 37.7485C108.721 37.1211 107.632 36.1978 106.827 34.9786C106.034 33.7594 105.637 32.256 105.637 30.4686C105.637 28.9298 105.922 27.6573 106.49 26.6512C107.058 25.645 107.833 24.8401 108.816 24.2364C109.798 23.6327 110.905 23.177 112.136 22.8692C113.379 22.5496 114.663 22.3188 115.989 22.1767C117.587 22.011 118.883 21.8631 119.877 21.7328C120.872 21.5908 121.594 21.3777 122.044 21.0936C122.505 20.7977 122.736 20.342 122.736 19.7265V19.6199C122.736 18.2823 122.34 17.2466 121.547 16.5127C120.753 15.7788 119.611 15.4118 118.12 15.4118C116.545 15.4118 115.297 15.7551 114.373 16.4417C113.462 17.1282 112.846 17.939 112.527 18.8742L106.525 18.0219C106.999 16.3647 107.78 14.9798 108.869 13.8671C109.958 12.7425 111.29 11.9021 112.864 11.3458C114.438 10.7776 116.178 10.4935 118.084 10.4935C119.398 10.4935 120.706 10.6474 122.008 10.9551C123.31 11.2629 124.5 11.7719 125.577 12.4821C126.654 13.1805 127.518 14.1334 128.169 15.3408C128.832 16.5482 129.164 18.0574 129.164 19.8685V38.1213H122.985V34.3749H122.772C122.381 35.1325 121.831 35.8427 121.12 36.5056C120.422 37.1566 119.54 37.6834 118.475 38.0858C117.421 38.4765 116.184 38.6718 114.764 38.6718ZM116.433 33.9488C117.723 33.9488 118.842 33.6943 119.789 33.1853C120.736 32.6644 121.464 31.9779 121.973 31.1256C122.493 30.2733 122.754 29.3441 122.754 28.338V25.1242C122.553 25.2899 122.209 25.4438 121.724 25.5858C121.251 25.7279 120.718 25.8522 120.126 25.9587C119.534 26.0652 118.948 26.1599 118.368 26.2428C117.788 26.3256 117.285 26.3967 116.859 26.4559C115.9 26.5861 115.042 26.7991 114.284 27.0951C113.527 27.391 112.929 27.8053 112.491 28.338C112.053 28.8588 111.834 29.5335 111.834 30.3621C111.834 31.5458 112.266 32.4395 113.13 33.0432C113.994 33.6469 115.095 33.9488 116.433 33.9488ZM157.182 18.0574L151.323 18.6966C151.157 18.1048 150.867 17.5484 150.453 17.0276C150.05 16.5068 149.506 16.0865 148.819 15.7669C148.133 15.4473 147.292 15.2875 146.298 15.2875C144.96 15.2875 143.836 15.5775 142.924 16.1576C142.025 16.7376 141.581 17.4892 141.593 18.4125C141.581 19.2056 141.871 19.8507 142.463 20.3479C143.066 20.8451 144.061 21.2534 145.446 21.573L150.098 22.5674C152.678 23.1237 154.596 24.0056 155.85 25.213C157.117 26.4203 157.756 28.0006 157.768 29.9537C157.756 31.6701 157.253 33.1853 156.259 34.4992C155.276 35.8013 153.909 36.8193 152.157 37.5532C150.405 38.2871 148.393 38.654 146.12 38.654C142.782 38.654 140.095 37.9556 138.059 36.5588C136.023 35.1502 134.81 33.1912 134.419 30.6817L140.687 30.078C140.971 31.3091 141.575 32.2383 142.498 32.8657C143.422 33.493 144.623 33.8067 146.103 33.8067C147.63 33.8067 148.855 33.493 149.778 32.8657C150.713 32.2383 151.181 31.463 151.181 30.5397C151.181 29.7584 150.879 29.1133 150.275 28.6043C149.683 28.0953 148.76 27.7047 147.505 27.4324L142.853 26.4559C140.237 25.9113 138.302 24.994 137.047 23.7037C135.792 22.4016 135.171 20.7563 135.183 18.7676C135.171 17.0868 135.627 15.6308 136.55 14.3997C137.485 13.1568 138.781 12.198 140.439 11.5233C142.108 10.8368 144.031 10.4935 146.209 10.4935C149.405 10.4935 151.921 11.1741 153.755 12.5354C155.602 13.8967 156.744 15.7373 157.182 18.0574Z" fill="#54BD95"/>
<path d="M21.4382 162.121V149.03H29.6456V150.731H23.4134V154.719H29.2173V156.413H23.4134V160.421H29.7223V162.121H21.4382ZM34.0417 156.292V162.121H32.1305V152.303H33.965V153.901H34.0865C34.3123 153.381 34.666 152.964 35.1475 152.648C35.6333 152.333 36.2449 152.175 36.9821 152.175C37.6511 152.175 38.237 152.316 38.7399 152.597C39.2427 152.874 39.6326 153.288 39.9096 153.837C40.1866 154.387 40.3251 155.067 40.3251 155.876V162.121H38.4139V156.106C38.4139 155.395 38.2285 154.839 37.8578 154.438C37.487 154.033 36.9778 153.831 36.3301 153.831C35.8869 153.831 35.4927 153.927 35.1475 154.118C34.8066 154.31 34.536 154.592 34.3358 154.962C34.1397 155.329 34.0417 155.772 34.0417 156.292ZM47.4714 152.303V153.837H42.1085V152.303H47.4714ZM43.5467 149.951H45.4579V159.239C45.4579 159.609 45.5133 159.888 45.6241 160.076C45.7349 160.259 45.8777 160.385 46.0524 160.453C46.2314 160.517 46.4252 160.549 46.6341 160.549C46.7875 160.549 46.9217 160.538 47.0368 160.517C47.1518 160.496 47.2413 160.479 47.3052 160.466L47.6504 162.045C47.5396 162.087 47.3819 162.13 47.1774 162.172C46.9728 162.219 46.7172 162.245 46.4103 162.249C45.9075 162.258 45.4387 162.168 45.0041 161.981C44.5694 161.793 44.2179 161.503 43.9494 161.111C43.6809 160.719 43.5467 160.227 43.5467 159.635V149.951ZM53.7116 162.319C52.7443 162.319 51.9112 162.113 51.2124 161.699C50.5178 161.282 49.9808 160.696 49.6016 159.942C49.2266 159.183 49.0391 158.295 49.0391 157.276C49.0391 156.27 49.2266 155.384 49.6016 154.617C49.9808 153.85 50.5092 153.251 51.1868 152.821C51.8686 152.391 52.6655 152.175 53.5774 152.175C54.1314 152.175 54.6683 152.267 55.1882 152.45C55.7081 152.633 56.1747 152.921 56.5881 153.313C57.0014 153.705 57.3274 154.214 57.5661 154.841C57.8047 155.463 57.924 156.219 57.924 157.11V157.788H50.1193V156.356H56.0511C56.0511 155.853 55.9489 155.408 55.7443 155.02C55.5398 154.628 55.2521 154.319 54.8814 154.093C54.5149 153.867 54.0845 153.754 53.5902 153.754C53.0533 153.754 52.5845 153.886 52.1839 154.15C51.7876 154.41 51.4808 154.751 51.2635 155.173C51.0504 155.591 50.9439 156.045 50.9439 156.535V157.653C50.9439 158.31 51.0589 158.868 51.2891 159.328C51.5234 159.788 51.8494 160.14 52.267 160.383C52.6847 160.621 53.1726 160.741 53.7308 160.741C54.093 160.741 54.4233 160.69 54.7216 160.587C55.0199 160.481 55.2777 160.323 55.495 160.114C55.7124 159.905 55.8786 159.648 55.9936 159.341L57.8026 159.667C57.6577 160.199 57.3977 160.666 57.0227 161.067C56.652 161.463 56.1854 161.772 55.6229 161.993C55.0646 162.211 54.4276 162.319 53.7116 162.319ZM60.0446 162.121V152.303H61.8919V153.863H61.9941C62.1731 153.334 62.4885 152.919 62.9402 152.616C63.3961 152.31 63.9118 152.156 64.487 152.156C64.6064 152.156 64.747 152.16 64.9089 152.169C65.0751 152.177 65.2051 152.188 65.2988 152.201V154.029C65.2221 154.008 65.0858 153.984 64.8897 153.959C64.6937 153.929 64.4977 153.914 64.3017 153.914C63.85 153.914 63.4473 154.01 63.0936 154.202C62.7441 154.389 62.4672 154.651 62.2626 154.988C62.0581 155.32 61.9558 155.699 61.9558 156.126V162.121H60.0446ZM72.9245 165.803C72.639 165.803 72.3791 165.78 72.1447 165.733C71.9103 165.69 71.7356 165.643 71.6206 165.592L72.0808 164.026C72.4302 164.12 72.7413 164.16 73.014 164.148C73.2868 164.135 73.5275 164.033 73.7363 163.841C73.9494 163.649 74.1369 163.336 74.2988 162.901L74.5353 162.249L70.943 152.303H72.9885L75.475 159.922H75.5772L78.0637 152.303H80.1156L76.0694 163.432C75.8819 163.943 75.6433 164.376 75.3535 164.729C75.0637 165.087 74.7186 165.356 74.318 165.535C73.9174 165.714 73.4529 165.803 72.9245 165.803ZM85.7134 162.319C84.793 162.319 83.9897 162.109 83.3036 161.687C82.6175 161.265 82.0849 160.675 81.7056 159.916C81.3263 159.158 81.1367 158.271 81.1367 157.257C81.1367 156.239 81.3263 155.348 81.7056 154.585C82.0849 153.822 82.6175 153.23 83.3036 152.808C83.9897 152.386 84.793 152.175 85.7134 152.175C86.6339 152.175 87.4371 152.386 88.1232 152.808C88.8093 153.23 89.342 153.822 89.7212 154.585C90.1005 155.348 90.2901 156.239 90.2901 157.257C90.2901 158.271 90.1005 159.158 89.7212 159.916C89.342 160.675 88.8093 161.265 88.1232 161.687C87.4371 162.109 86.6339 162.319 85.7134 162.319ZM85.7198 160.715C86.3164 160.715 86.8107 160.557 87.2028 160.242C87.5948 159.927 87.8846 159.507 88.0721 158.983C88.2638 158.459 88.3597 157.881 88.3597 157.251C88.3597 156.624 88.2638 156.049 88.0721 155.525C87.8846 154.996 87.5948 154.572 87.2028 154.253C86.8107 153.933 86.3164 153.773 85.7198 153.773C85.119 153.773 84.6204 153.933 84.2241 154.253C83.832 154.572 83.5401 154.996 83.3484 155.525C83.1609 156.049 83.0671 156.624 83.0671 157.251C83.0671 157.881 83.1609 158.459 83.3484 158.983C83.5401 159.507 83.832 159.927 84.2241 160.242C84.6204 160.557 85.119 160.715 85.7198 160.715ZM98.6429 158.05V152.303H100.561V162.121H98.6813V160.421H98.579C98.3532 160.945 97.9909 161.382 97.4924 161.731C96.998 162.077 96.3823 162.249 95.6451 162.249C95.0144 162.249 94.4561 162.111 93.9703 161.834C93.4888 161.552 93.1096 161.137 92.8326 160.587C92.5598 160.038 92.4235 159.358 92.4235 158.548V152.303H94.3347V158.318C94.3347 158.987 94.5201 159.52 94.8908 159.916C95.2615 160.312 95.7431 160.511 96.3354 160.511C96.6934 160.511 97.0492 160.421 97.4029 160.242C97.7608 160.063 98.057 159.793 98.2914 159.43C98.53 159.068 98.6472 158.608 98.6429 158.05ZM103.129 162.121V152.303H104.976V153.863H105.078C105.257 153.334 105.572 152.919 106.024 152.616C106.48 152.31 106.996 152.156 107.571 152.156C107.69 152.156 107.831 152.16 107.993 152.169C108.159 152.177 108.289 152.188 108.383 152.201V154.029C108.306 154.008 108.17 153.984 107.974 153.959C107.778 153.929 107.582 153.914 107.386 153.914C106.934 153.914 106.531 154.01 106.178 154.202C105.828 154.389 105.551 154.651 105.347 154.988C105.142 155.32 105.04 155.699 105.04 156.126V162.121H103.129ZM119.032 162.319C118.065 162.319 117.232 162.113 116.533 161.699C115.838 161.282 115.301 160.696 114.922 159.942C114.547 159.183 114.359 158.295 114.359 157.276C114.359 156.27 114.547 155.384 114.922 154.617C115.301 153.85 115.83 153.251 116.507 152.821C117.189 152.391 117.986 152.175 118.898 152.175C119.452 152.175 119.989 152.267 120.509 152.45C121.028 152.633 121.495 152.921 121.908 153.313C122.322 153.705 122.648 154.214 122.886 154.841C123.125 155.463 123.244 156.219 123.244 157.11V157.788H115.44V156.356H121.371C121.371 155.853 121.269 155.408 121.065 155.02C120.86 154.628 120.572 154.319 120.202 154.093C119.835 153.867 119.405 153.754 118.911 153.754C118.374 153.754 117.905 153.886 117.504 154.15C117.108 154.41 116.801 154.751 116.584 155.173C116.371 155.591 116.264 156.045 116.264 156.535V157.653C116.264 158.31 116.379 158.868 116.609 159.328C116.844 159.788 117.17 160.14 117.587 160.383C118.005 160.621 118.493 160.741 119.051 160.741C119.413 160.741 119.744 160.69 120.042 160.587C120.34 160.481 120.598 160.323 120.815 160.114C121.033 159.905 121.199 159.648 121.314 159.341L123.123 159.667C122.978 160.199 122.718 160.666 122.343 161.067C121.972 161.463 121.506 161.772 120.943 161.993C120.385 162.211 119.748 162.319 119.032 162.319ZM125.365 162.121V152.303H127.199V153.901H127.321C127.525 153.36 127.86 152.938 128.324 152.636C128.789 152.329 129.345 152.175 129.993 152.175C130.649 152.175 131.199 152.329 131.642 152.636C132.089 152.942 132.42 153.364 132.633 153.901H132.735C132.969 153.377 133.342 152.959 133.854 152.648C134.365 152.333 134.974 152.175 135.682 152.175C136.572 152.175 137.299 152.454 137.861 153.013C138.428 153.571 138.711 154.413 138.711 155.538V162.121H136.8V155.717C136.8 155.052 136.619 154.57 136.257 154.272C135.895 153.974 135.462 153.824 134.959 153.824C134.337 153.824 133.854 154.016 133.508 154.4C133.163 154.779 132.991 155.267 132.991 155.864V162.121H131.086V155.595C131.086 155.062 130.92 154.634 130.587 154.31C130.255 153.986 129.822 153.824 129.29 153.824C128.927 153.824 128.593 153.92 128.286 154.112C127.983 154.3 127.738 154.562 127.551 154.898C127.368 155.235 127.276 155.625 127.276 156.068V162.121H125.365ZM144.13 162.339C143.508 162.339 142.946 162.224 142.443 161.993C141.94 161.759 141.542 161.42 141.248 160.977C140.958 160.534 140.813 159.991 140.813 159.347C140.813 158.793 140.919 158.337 141.132 157.979C141.346 157.621 141.633 157.338 141.995 157.129C142.358 156.92 142.762 156.763 143.21 156.656C143.657 156.55 144.113 156.469 144.578 156.413C145.166 156.345 145.643 156.29 146.01 156.247C146.376 156.2 146.642 156.126 146.809 156.023C146.975 155.921 147.058 155.755 147.058 155.525V155.48C147.058 154.922 146.9 154.489 146.585 154.182C146.274 153.876 145.809 153.722 145.191 153.722C144.548 153.722 144.041 153.865 143.67 154.15C143.304 154.432 143.05 154.745 142.909 155.09L141.113 154.681C141.326 154.084 141.637 153.603 142.047 153.236C142.46 152.866 142.935 152.597 143.472 152.431C144.009 152.261 144.574 152.175 145.166 152.175C145.558 152.175 145.973 152.222 146.412 152.316C146.855 152.405 147.269 152.572 147.652 152.815C148.04 153.057 148.358 153.405 148.605 153.856C148.852 154.304 148.975 154.886 148.975 155.601V162.121H147.109V160.779H147.032C146.909 161.026 146.723 161.269 146.476 161.508C146.229 161.746 145.912 161.944 145.524 162.102C145.136 162.26 144.672 162.339 144.13 162.339ZM144.546 160.805C145.074 160.805 145.526 160.7 145.901 160.491C146.28 160.283 146.568 160.01 146.764 159.673C146.964 159.332 147.064 158.968 147.064 158.58V157.315C146.996 157.383 146.864 157.447 146.668 157.506C146.476 157.562 146.257 157.611 146.01 157.653C145.762 157.692 145.522 157.728 145.287 157.762C145.053 157.792 144.857 157.817 144.699 157.839C144.328 157.886 143.99 157.964 143.683 158.075C143.38 158.186 143.137 158.346 142.954 158.555C142.775 158.759 142.686 159.032 142.686 159.373C142.686 159.846 142.86 160.204 143.21 160.447C143.559 160.685 144.005 160.805 144.546 160.805ZM151.521 162.121V152.303H153.432V162.121H151.521ZM152.486 150.788C152.154 150.788 151.868 150.677 151.63 150.456C151.395 150.23 151.278 149.962 151.278 149.65C151.278 149.335 151.395 149.067 151.63 148.845C151.868 148.619 152.154 148.506 152.486 148.506C152.819 148.506 153.102 148.619 153.336 148.845C153.575 149.067 153.694 149.335 153.694 149.65C153.694 149.962 153.575 150.23 153.336 150.456C153.102 150.677 152.819 150.788 152.486 150.788ZM157.915 149.03V162.121H156.004V149.03H157.915ZM167.161 156.292V162.121H165.25V149.03H167.135V153.901H167.257C167.487 153.373 167.838 152.953 168.311 152.642C168.784 152.331 169.402 152.175 170.165 152.175C170.838 152.175 171.426 152.314 171.929 152.591C172.436 152.868 172.828 153.281 173.105 153.831C173.387 154.376 173.527 155.058 173.527 155.876V162.121H171.616V156.106C171.616 155.386 171.431 154.828 171.06 154.432C170.689 154.031 170.174 153.831 169.513 153.831C169.061 153.831 168.657 153.927 168.299 154.118C167.945 154.31 167.666 154.592 167.461 154.962C167.261 155.329 167.161 155.772 167.161 156.292ZM180.309 162.319C179.342 162.319 178.509 162.113 177.81 161.699C177.115 161.282 176.578 160.696 176.199 159.942C175.824 159.183 175.637 158.295 175.637 157.276C175.637 156.27 175.824 155.384 176.199 154.617C176.578 153.85 177.107 153.251 177.784 152.821C178.466 152.391 179.263 152.175 180.175 152.175C180.729 152.175 181.266 152.267 181.786 152.45C182.306 152.633 182.772 152.921 183.186 153.313C183.599 153.705 183.925 154.214 184.164 154.841C184.402 155.463 184.522 156.219 184.522 157.11V157.788H176.717V156.356H182.649C182.649 155.853 182.547 155.408 182.342 155.02C182.137 154.628 181.85 154.319 181.479 154.093C181.113 153.867 180.682 153.754 180.188 153.754C179.651 153.754 179.182 153.886 178.782 154.15C178.385 154.41 178.078 154.751 177.861 155.173C177.648 155.591 177.542 156.045 177.542 156.535V157.653C177.542 158.31 177.657 158.868 177.887 159.328C178.121 159.788 178.447 160.14 178.865 160.383C179.282 160.621 179.77 160.741 180.328 160.741C180.691 160.741 181.021 160.69 181.319 160.587C181.618 160.481 181.875 160.323 182.093 160.114C182.31 159.905 182.476 159.648 182.591 159.341L184.4 159.667C184.255 160.199 183.995 160.666 183.62 161.067C183.25 161.463 182.783 161.772 182.221 161.993C181.662 162.211 181.025 162.319 180.309 162.319ZM186.642 162.121V152.303H188.49V153.863H188.592C188.771 153.334 189.086 152.919 189.538 152.616C189.994 152.31 190.509 152.156 191.085 152.156C191.204 152.156 191.345 152.16 191.507 152.169C191.673 152.177 191.803 152.188 191.896 152.201V154.029C191.82 154.008 191.683 153.984 191.487 153.959C191.291 153.929 191.095 153.914 190.899 153.914C190.448 153.914 190.045 154.01 189.691 154.202C189.342 154.389 189.065 154.651 188.86 154.988C188.656 155.32 188.553 155.699 188.553 156.126V162.121H186.642ZM197.43 162.319C196.463 162.319 195.63 162.113 194.931 161.699C194.237 161.282 193.7 160.696 193.32 159.942C192.945 159.183 192.758 158.295 192.758 157.276C192.758 156.27 192.945 155.384 193.32 154.617C193.7 153.85 194.228 153.251 194.906 152.821C195.587 152.391 196.384 152.175 197.296 152.175C197.85 152.175 198.387 152.267 198.907 152.45C199.427 152.633 199.893 152.921 200.307 153.313C200.72 153.705 201.046 154.214 201.285 154.841C201.523 155.463 201.643 156.219 201.643 157.11V157.788H193.838V156.356H199.77C199.77 155.853 199.668 155.408 199.463 155.02C199.259 154.628 198.971 154.319 198.6 154.093C198.234 153.867 197.803 153.754 197.309 153.754C196.772 153.754 196.303 153.886 195.903 154.15C195.506 154.41 195.2 154.751 194.982 155.173C194.769 155.591 194.663 156.045 194.663 156.535V157.653C194.663 158.31 194.778 158.868 195.008 159.328C195.242 159.788 195.568 160.14 195.986 160.383C196.403 160.621 196.891 160.741 197.45 160.741C197.812 160.741 198.142 160.69 198.44 160.587C198.739 160.481 198.996 160.323 199.214 160.114C199.431 159.905 199.597 159.648 199.712 159.341L201.521 159.667C201.376 160.199 201.116 160.666 200.741 161.067C200.371 161.463 199.904 161.772 199.342 161.993C198.783 162.211 198.146 162.319 197.43 162.319Z" fill="#A6A6A6"/>
<rect x="1" y="126.121" width="408" height="58" rx="29" stroke="#A6A6A6" stroke-width="2"/>
<circle cx="380" cy="155.121" r="23" fill="#54BD95"/>
<path d="M373 155.121H387" stroke="white" stroke-width="2" stroke-linecap="round" stroke-linejoin="round"/>
<path d="M380 148.121L387 155.121L380 162.121" stroke="white" stroke-width="2" stroke-linecap="round" stroke-linejoin="round"/>
</svg>
